%TF.GenerationSoftware,KiCad,Pcbnew,7.0.10*%
%TF.CreationDate,2024-02-10T01:25:09-05:00*%
%TF.ProjectId,9260-first,39323630-2d66-4697-9273-742e6b696361,rev?*%
%TF.SameCoordinates,Original*%
%TF.FileFunction,Paste,Top*%
%TF.FilePolarity,Positive*%
%FSLAX46Y46*%
G04 Gerber Fmt 4.6, Leading zero omitted, Abs format (unit mm)*
G04 Created by KiCad (PCBNEW 7.0.10) date 2024-02-10 01:25:09*
%MOMM*%
%LPD*%
G01*
G04 APERTURE LIST*
G04 Aperture macros list*
%AMRoundRect*
0 Rectangle with rounded corners*
0 $1 Rounding radius*
0 $2 $3 $4 $5 $6 $7 $8 $9 X,Y pos of 4 corners*
0 Add a 4 corners polygon primitive as box body*
4,1,4,$2,$3,$4,$5,$6,$7,$8,$9,$2,$3,0*
0 Add four circle primitives for the rounded corners*
1,1,$1+$1,$2,$3*
1,1,$1+$1,$4,$5*
1,1,$1+$1,$6,$7*
1,1,$1+$1,$8,$9*
0 Add four rect primitives between the rounded corners*
20,1,$1+$1,$2,$3,$4,$5,0*
20,1,$1+$1,$4,$5,$6,$7,0*
20,1,$1+$1,$6,$7,$8,$9,0*
20,1,$1+$1,$8,$9,$2,$3,0*%
G04 Aperture macros list end*
%ADD10RoundRect,0.250000X0.450000X-0.262500X0.450000X0.262500X-0.450000X0.262500X-0.450000X-0.262500X0*%
%ADD11O,1.200000X2.900000*%
%ADD12RoundRect,0.325000X-0.325000X-1.175000X0.325000X-1.175000X0.325000X1.175000X-0.325000X1.175000X0*%
%ADD13RoundRect,0.250000X-0.475000X0.250000X-0.475000X-0.250000X0.475000X-0.250000X0.475000X0.250000X0*%
%ADD14RoundRect,0.250000X-0.250000X-0.475000X0.250000X-0.475000X0.250000X0.475000X-0.250000X0.475000X0*%
%ADD15RoundRect,0.250000X0.250000X0.475000X-0.250000X0.475000X-0.250000X-0.475000X0.250000X-0.475000X0*%
%ADD16RoundRect,0.250000X0.475000X-0.250000X0.475000X0.250000X-0.475000X0.250000X-0.475000X-0.250000X0*%
%ADD17R,0.458000X1.510000*%
%ADD18RoundRect,0.150000X-0.650000X-0.150000X0.650000X-0.150000X0.650000X0.150000X-0.650000X0.150000X0*%
%ADD19R,1.550000X1.300000*%
%ADD20RoundRect,0.250000X0.262500X0.450000X-0.262500X0.450000X-0.262500X-0.450000X0.262500X-0.450000X0*%
%ADD21RoundRect,0.250000X-0.450000X0.262500X-0.450000X-0.262500X0.450000X-0.262500X0.450000X0.262500X0*%
%ADD22O,1.000000X1.800000*%
%ADD23O,1.000000X2.100000*%
%ADD24RoundRect,0.150000X-0.150000X-0.425000X0.150000X-0.425000X0.150000X0.425000X-0.150000X0.425000X0*%
%ADD25RoundRect,0.075000X-0.075000X-0.500000X0.075000X-0.500000X0.075000X0.500000X-0.075000X0.500000X0*%
%ADD26R,1.200000X0.400000*%
%ADD27R,2.000000X1.500000*%
%ADD28R,2.000000X3.800000*%
%ADD29R,4.500000X2.000000*%
%ADD30R,2.000000X4.500000*%
%ADD31RoundRect,0.038400X-0.711600X-0.121600X0.711600X-0.121600X0.711600X0.121600X-0.711600X0.121600X0*%
%ADD32RoundRect,0.160000X0.000000X-0.590000X0.000000X-0.590000X0.000000X0.590000X0.000000X0.590000X0*%
%ADD33RoundRect,0.250000X-0.262500X-0.450000X0.262500X-0.450000X0.262500X0.450000X-0.262500X0.450000X0*%
G04 APERTURE END LIST*
D10*
%TO.C,R20*%
X90600000Y-113100000D03*
X90600000Y-111275000D03*
%TD*%
%TO.C,R19*%
X93200000Y-113112500D03*
X93200000Y-111287500D03*
%TD*%
D11*
%TO.C,J4*%
X85400000Y-120000000D03*
X98200000Y-120000000D03*
D12*
X88300000Y-116300000D03*
X90800000Y-116300000D03*
X92800000Y-116300000D03*
X95300000Y-116300000D03*
%TD*%
D13*
%TO.C,C53*%
X101100000Y-111350000D03*
X101100000Y-113250000D03*
%TD*%
D14*
%TO.C,C52*%
X86200000Y-112800000D03*
X88100000Y-112800000D03*
%TD*%
D15*
%TO.C,C51*%
X98150000Y-113200000D03*
X96250000Y-113200000D03*
%TD*%
D13*
%TO.C,C22*%
X66040000Y-109286000D03*
X66040000Y-111186000D03*
%TD*%
D15*
%TO.C,C4*%
X52451000Y-71501000D03*
X50551000Y-71501000D03*
%TD*%
%TO.C,C17*%
X75387750Y-104156750D03*
X73487750Y-104156750D03*
%TD*%
%TO.C,C5*%
X52959000Y-84074000D03*
X51059000Y-84074000D03*
%TD*%
D16*
%TO.C,C10*%
X78410000Y-44760000D03*
X78410000Y-42860000D03*
%TD*%
D10*
%TO.C,R9*%
X67818000Y-118284000D03*
X67818000Y-116459000D03*
%TD*%
D16*
%TO.C,C46*%
X122644000Y-67686000D03*
X122644000Y-65786000D03*
%TD*%
%TO.C,C11*%
X93470000Y-51810000D03*
X93470000Y-49910000D03*
%TD*%
%TO.C,C38*%
X112395000Y-94956000D03*
X112395000Y-93056000D03*
%TD*%
D17*
%TO.C,U6*%
X101932000Y-61665000D03*
X102732000Y-61665000D03*
X103532000Y-61665000D03*
X104332000Y-61665000D03*
X105132000Y-61665000D03*
X105932000Y-61665000D03*
X106732000Y-61665000D03*
X107532000Y-61665000D03*
X108332000Y-61665000D03*
X109132000Y-61665000D03*
X109932000Y-61665000D03*
X110732000Y-61665000D03*
X111532000Y-61665000D03*
X112332000Y-61665000D03*
X113132000Y-61665000D03*
X113932000Y-61665000D03*
X114732000Y-61665000D03*
X115532000Y-61665000D03*
X116332000Y-61665000D03*
X117132000Y-61665000D03*
X117932000Y-61665000D03*
X118732000Y-61665000D03*
X119532000Y-61665000D03*
X120332000Y-61665000D03*
X121132000Y-61665000D03*
X121932000Y-61665000D03*
X122732000Y-61665000D03*
X122732000Y-50165000D03*
X121932000Y-50165000D03*
X121132000Y-50165000D03*
X120332000Y-50165000D03*
X119532000Y-50165000D03*
X118732000Y-50165000D03*
X117932000Y-50165000D03*
X117132000Y-50165000D03*
X116332000Y-50165000D03*
X115532000Y-50165000D03*
X114732000Y-50165000D03*
X113932000Y-50165000D03*
X113132000Y-50165000D03*
X112332000Y-50165000D03*
X111532000Y-50165000D03*
X110732000Y-50165000D03*
X109932000Y-50165000D03*
X109132000Y-50165000D03*
X108332000Y-50165000D03*
X107532000Y-50165000D03*
X106732000Y-50165000D03*
X105932000Y-50165000D03*
X105132000Y-50165000D03*
X104332000Y-50165000D03*
X103532000Y-50165000D03*
X102732000Y-50165000D03*
X101932000Y-50165000D03*
%TD*%
D18*
%TO.C,U8*%
X32500000Y-46245000D03*
X32500000Y-47515000D03*
X32500000Y-48785000D03*
X32500000Y-50055000D03*
X39700000Y-50055000D03*
X39700000Y-48785000D03*
X39700000Y-47515000D03*
X39700000Y-46245000D03*
%TD*%
D16*
%TO.C,C43*%
X103594000Y-67681000D03*
X103594000Y-65781000D03*
%TD*%
%TO.C,C21*%
X64770000Y-122677000D03*
X64770000Y-120777000D03*
%TD*%
D19*
%TO.C,SW1*%
X32550000Y-59600000D03*
X40500000Y-59600000D03*
X32550000Y-64100000D03*
X40500000Y-64100000D03*
%TD*%
D20*
%TO.C,R3*%
X34212500Y-54800000D03*
X32387500Y-54800000D03*
%TD*%
D21*
%TO.C,R8*%
X69500000Y-112100000D03*
X69500000Y-113925000D03*
%TD*%
D10*
%TO.C,R11*%
X37973000Y-125650000D03*
X37973000Y-123825000D03*
%TD*%
D13*
%TO.C,C18*%
X65278000Y-117160000D03*
X65278000Y-119060000D03*
%TD*%
%TO.C,C12*%
X89920000Y-53290000D03*
X89920000Y-55190000D03*
%TD*%
%TO.C,C41*%
X110808000Y-44485000D03*
X110808000Y-46385000D03*
%TD*%
D16*
%TO.C,C44*%
X108293000Y-67686000D03*
X108293000Y-65786000D03*
%TD*%
D22*
%TO.C,J2*%
X77218000Y-126460000D03*
D23*
X77218000Y-122280000D03*
D22*
X68578000Y-126460000D03*
D23*
X68578000Y-122280000D03*
D24*
X69698000Y-121705000D03*
X70498000Y-121705000D03*
D25*
X71148000Y-121705000D03*
X72148000Y-121705000D03*
X73648000Y-121705000D03*
X74648000Y-121705000D03*
D24*
X75298000Y-121705000D03*
X76098000Y-121705000D03*
X76098000Y-121705000D03*
X75298000Y-121705000D03*
D25*
X74148000Y-121705000D03*
X73148000Y-121705000D03*
X72648000Y-121705000D03*
X71648000Y-121705000D03*
D24*
X70498000Y-121705000D03*
X69698000Y-121705000D03*
%TD*%
D26*
%TO.C,U4*%
X69926750Y-106061750D03*
X69926750Y-106696750D03*
X69926750Y-107331750D03*
X69926750Y-107966750D03*
X69926750Y-108601750D03*
X69926750Y-109236750D03*
X69926750Y-109871750D03*
X69926750Y-110506750D03*
X75126750Y-110506750D03*
X75126750Y-109871750D03*
X75126750Y-109236750D03*
X75126750Y-108601750D03*
X75126750Y-107966750D03*
X75126750Y-107331750D03*
X75126750Y-106696750D03*
X75126750Y-106061750D03*
%TD*%
D13*
%TO.C,C14*%
X107830000Y-34740000D03*
X107830000Y-36640000D03*
%TD*%
D20*
%TO.C,R2*%
X47592500Y-71900000D03*
X45767500Y-71900000D03*
%TD*%
D27*
%TO.C,U3*%
X62230000Y-124587000D03*
X62230000Y-122287000D03*
D28*
X55930000Y-122287000D03*
D27*
X62230000Y-119987000D03*
%TD*%
D13*
%TO.C,C8*%
X93599000Y-80391000D03*
X93599000Y-78491000D03*
%TD*%
D17*
%TO.C,U5*%
X101995000Y-88935000D03*
X102795000Y-88935000D03*
X103595000Y-88935000D03*
X104395000Y-88935000D03*
X105195000Y-88935000D03*
X105995000Y-88935000D03*
X106795000Y-88935000D03*
X107595000Y-88935000D03*
X108395000Y-88935000D03*
X109195000Y-88935000D03*
X109995000Y-88935000D03*
X110795000Y-88935000D03*
X111595000Y-88935000D03*
X112395000Y-88935000D03*
X113195000Y-88935000D03*
X113995000Y-88935000D03*
X114795000Y-88935000D03*
X115595000Y-88935000D03*
X116395000Y-88935000D03*
X117195000Y-88935000D03*
X117995000Y-88935000D03*
X118795000Y-88935000D03*
X119595000Y-88935000D03*
X120395000Y-88935000D03*
X121195000Y-88935000D03*
X121995000Y-88935000D03*
X122795000Y-88935000D03*
X122795000Y-77435000D03*
X121995000Y-77435000D03*
X121195000Y-77435000D03*
X120395000Y-77435000D03*
X119595000Y-77435000D03*
X118795000Y-77435000D03*
X117995000Y-77435000D03*
X117195000Y-77435000D03*
X116395000Y-77435000D03*
X115595000Y-77435000D03*
X114795000Y-77435000D03*
X113995000Y-77435000D03*
X113195000Y-77435000D03*
X112395000Y-77435000D03*
X111595000Y-77435000D03*
X110795000Y-77435000D03*
X109995000Y-77435000D03*
X109195000Y-77435000D03*
X108395000Y-77435000D03*
X107595000Y-77435000D03*
X106795000Y-77435000D03*
X105995000Y-77435000D03*
X105195000Y-77435000D03*
X104395000Y-77435000D03*
X103595000Y-77435000D03*
X102795000Y-77435000D03*
X101995000Y-77435000D03*
%TD*%
D16*
%TO.C,C37*%
X108331000Y-94956000D03*
X108331000Y-93056000D03*
%TD*%
D20*
%TO.C,R1*%
X47675000Y-76530000D03*
X45850000Y-76530000D03*
%TD*%
D16*
%TO.C,C42*%
X101435000Y-67686000D03*
X101435000Y-65786000D03*
%TD*%
D29*
%TO.C,Y2*%
X97830000Y-40530000D03*
X106330000Y-40530000D03*
%TD*%
D13*
%TO.C,C30*%
X60910000Y-47780000D03*
X60910000Y-49680000D03*
%TD*%
D30*
%TO.C,Y1*%
X33274000Y-83684000D03*
X33274000Y-75184000D03*
%TD*%
D13*
%TO.C,C13*%
X96820000Y-36450000D03*
X96820000Y-34550000D03*
%TD*%
%TO.C,C23*%
X88334000Y-45470000D03*
X88334000Y-47370000D03*
%TD*%
D10*
%TO.C,R7*%
X71882000Y-118411000D03*
X71882000Y-116586000D03*
%TD*%
D31*
%TO.C,U1*%
X56963000Y-55957000D03*
X56963000Y-56457000D03*
X56963000Y-56957000D03*
X56963000Y-57457000D03*
X56963000Y-57957000D03*
X56963000Y-58457000D03*
X56963000Y-58957000D03*
X56963000Y-59457000D03*
X56963000Y-59957000D03*
X56963000Y-60457000D03*
X56963000Y-60957000D03*
X56963000Y-61457000D03*
X56963000Y-61957000D03*
X56963000Y-62457000D03*
X56963000Y-62957000D03*
X56963000Y-63457000D03*
X56963000Y-63957000D03*
X56963000Y-64457000D03*
X56963000Y-64957000D03*
X56963000Y-65457000D03*
X56963000Y-65957000D03*
X56963000Y-66457000D03*
X56963000Y-66957000D03*
X56963000Y-67457000D03*
X56963000Y-67957000D03*
X56963000Y-68457000D03*
X56963000Y-68957000D03*
X56963000Y-69457000D03*
X56963000Y-69957000D03*
X56963000Y-70457000D03*
X56963000Y-70957000D03*
X56963000Y-71457000D03*
X56963000Y-71957000D03*
X56963000Y-72457000D03*
X56963000Y-72957000D03*
X56963000Y-73457000D03*
X56963000Y-73957000D03*
X56963000Y-74457000D03*
X56963000Y-74957000D03*
X56963000Y-75457000D03*
X56963000Y-75957000D03*
X56963000Y-76457000D03*
X56963000Y-76957000D03*
X56963000Y-77457000D03*
X56963000Y-77957000D03*
X56963000Y-78457000D03*
X56963000Y-78957000D03*
X56963000Y-79457000D03*
X56963000Y-79957000D03*
X56963000Y-80457000D03*
X56963000Y-80957000D03*
X56963000Y-81457000D03*
D32*
X59513000Y-84007000D03*
X60013000Y-84007000D03*
X60513000Y-84007000D03*
X61013000Y-84007000D03*
X61513000Y-84007000D03*
X62013000Y-84007000D03*
X62513000Y-84007000D03*
X63013000Y-84007000D03*
X63513000Y-84007000D03*
X64013000Y-84007000D03*
X64513000Y-84007000D03*
X65013000Y-84007000D03*
X65513000Y-84007000D03*
X66013000Y-84007000D03*
X66513000Y-84007000D03*
X67013000Y-84007000D03*
X67513000Y-84007000D03*
X68013000Y-84007000D03*
X68513000Y-84007000D03*
X69013000Y-84007000D03*
X69513000Y-84007000D03*
X70013000Y-84007000D03*
X70513000Y-84007000D03*
X71013000Y-84007000D03*
X71513000Y-84007000D03*
X72013000Y-84007000D03*
X72513000Y-84007000D03*
X73013000Y-84007000D03*
X73513000Y-84007000D03*
X74013000Y-84007000D03*
X74513000Y-84007000D03*
X75013000Y-84007000D03*
X75513000Y-84007000D03*
X76013000Y-84007000D03*
X76513000Y-84007000D03*
X77013000Y-84007000D03*
X77513000Y-84007000D03*
X78013000Y-84007000D03*
X78513000Y-84007000D03*
X79013000Y-84007000D03*
X79513000Y-84007000D03*
X80013000Y-84007000D03*
X80513000Y-84007000D03*
X81013000Y-84007000D03*
X81513000Y-84007000D03*
X82013000Y-84007000D03*
X82513000Y-84007000D03*
X83013000Y-84007000D03*
X83513000Y-84007000D03*
X84013000Y-84007000D03*
X84513000Y-84007000D03*
X85013000Y-84007000D03*
D31*
X87563000Y-81457000D03*
X87563000Y-80957000D03*
X87563000Y-80457000D03*
X87563000Y-79957000D03*
X87563000Y-79457000D03*
X87563000Y-78957000D03*
X87563000Y-78457000D03*
X87563000Y-77957000D03*
X87563000Y-77457000D03*
X87563000Y-76957000D03*
X87563000Y-76457000D03*
X87563000Y-75957000D03*
X87563000Y-75457000D03*
X87563000Y-74957000D03*
X87563000Y-74457000D03*
X87563000Y-73957000D03*
X87563000Y-73457000D03*
X87563000Y-72957000D03*
X87563000Y-72457000D03*
X87563000Y-71957000D03*
X87563000Y-71457000D03*
X87563000Y-70957000D03*
X87563000Y-70457000D03*
X87563000Y-69957000D03*
X87563000Y-69457000D03*
X87563000Y-68957000D03*
X87563000Y-68457000D03*
X87563000Y-67957000D03*
X87563000Y-67457000D03*
X87563000Y-66957000D03*
X87563000Y-66457000D03*
X87563000Y-65957000D03*
X87563000Y-65457000D03*
X87563000Y-64957000D03*
X87563000Y-64457000D03*
X87563000Y-63957000D03*
X87563000Y-63457000D03*
X87563000Y-62957000D03*
X87563000Y-62457000D03*
X87563000Y-61957000D03*
X87563000Y-61457000D03*
X87563000Y-60957000D03*
X87563000Y-60457000D03*
X87563000Y-59957000D03*
X87563000Y-59457000D03*
X87563000Y-58957000D03*
X87563000Y-58457000D03*
X87563000Y-57957000D03*
X87563000Y-57457000D03*
X87563000Y-56957000D03*
X87563000Y-56457000D03*
X87563000Y-55957000D03*
D32*
X85013000Y-53407000D03*
X84513000Y-53407000D03*
X84013000Y-53407000D03*
X83513000Y-53407000D03*
X83013000Y-53407000D03*
X82513000Y-53407000D03*
X82013000Y-53407000D03*
X81513000Y-53407000D03*
X81013000Y-53407000D03*
X80513000Y-53407000D03*
X80013000Y-53407000D03*
X79513000Y-53407000D03*
X79013000Y-53407000D03*
X78513000Y-53407000D03*
X78013000Y-53407000D03*
X77513000Y-53407000D03*
X77013000Y-53407000D03*
X76513000Y-53407000D03*
X76013000Y-53407000D03*
X75513000Y-53407000D03*
X75013000Y-53407000D03*
X74513000Y-53407000D03*
X74013000Y-53407000D03*
X73513000Y-53407000D03*
X73013000Y-53407000D03*
X72513000Y-53407000D03*
X72013000Y-53407000D03*
X71513000Y-53407000D03*
X71013000Y-53407000D03*
X70513000Y-53407000D03*
X70013000Y-53407000D03*
X69513000Y-53407000D03*
X69013000Y-53407000D03*
X68513000Y-53407000D03*
X68013000Y-53407000D03*
X67513000Y-53407000D03*
X67013000Y-53407000D03*
X66513000Y-53407000D03*
X66013000Y-53407000D03*
X65513000Y-53407000D03*
X65013000Y-53407000D03*
X64513000Y-53407000D03*
X64013000Y-53407000D03*
X63513000Y-53407000D03*
X63013000Y-53407000D03*
X62513000Y-53407000D03*
X62013000Y-53407000D03*
X61513000Y-53407000D03*
X61013000Y-53407000D03*
X60513000Y-53407000D03*
X60013000Y-53407000D03*
X59513000Y-53407000D03*
%TD*%
D13*
%TO.C,C32*%
X63390000Y-47770000D03*
X63390000Y-49670000D03*
%TD*%
D16*
%TO.C,C45*%
X112357000Y-67686000D03*
X112357000Y-65786000D03*
%TD*%
%TO.C,C35*%
X101600000Y-94956000D03*
X101600000Y-93056000D03*
%TD*%
D13*
%TO.C,C19*%
X69850000Y-116459000D03*
X69850000Y-118359000D03*
%TD*%
D14*
%TO.C,C16*%
X32440000Y-87610000D03*
X34340000Y-87610000D03*
%TD*%
%TO.C,C15*%
X32380000Y-71200000D03*
X34280000Y-71200000D03*
%TD*%
D15*
%TO.C,C1*%
X52451000Y-57912000D03*
X50551000Y-57912000D03*
%TD*%
%TO.C,C2*%
X52512000Y-61976000D03*
X50612000Y-61976000D03*
%TD*%
D13*
%TO.C,C34*%
X110871000Y-72040000D03*
X110871000Y-73940000D03*
%TD*%
D16*
%TO.C,C39*%
X122809000Y-94956000D03*
X122809000Y-93056000D03*
%TD*%
D10*
%TO.C,R6*%
X73914000Y-118411000D03*
X73914000Y-116586000D03*
%TD*%
D15*
%TO.C,C25*%
X52610000Y-79640000D03*
X50710000Y-79640000D03*
%TD*%
%TO.C,C3*%
X52578000Y-67437000D03*
X50678000Y-67437000D03*
%TD*%
D13*
%TO.C,C7*%
X79883000Y-88077000D03*
X79883000Y-89977000D03*
%TD*%
%TO.C,C6*%
X65532000Y-87884000D03*
X65532000Y-89784000D03*
%TD*%
D14*
%TO.C,C26*%
X50530000Y-74440000D03*
X52430000Y-74440000D03*
%TD*%
D16*
%TO.C,C36*%
X103632000Y-94956000D03*
X103632000Y-93056000D03*
%TD*%
D10*
%TO.C,R10*%
X78229500Y-118284000D03*
X78229500Y-116459000D03*
%TD*%
D33*
%TO.C,R18*%
X31787500Y-52700000D03*
X33612500Y-52700000D03*
%TD*%
D27*
%TO.C,U2*%
X62205000Y-114060000D03*
X62205000Y-111760000D03*
D28*
X55905000Y-111760000D03*
D27*
X62205000Y-109460000D03*
%TD*%
D21*
%TO.C,R14*%
X88310500Y-49256500D03*
X88310500Y-51081500D03*
%TD*%
D16*
%TO.C,C9*%
X96139000Y-66797000D03*
X96139000Y-64897000D03*
%TD*%
%TO.C,C27*%
X71501000Y-89784000D03*
X71501000Y-87884000D03*
%TD*%
D13*
%TO.C,C33*%
X106045000Y-72040000D03*
X106045000Y-73940000D03*
%TD*%
D10*
%TO.C,R13*%
X44704000Y-125650000D03*
X44704000Y-123825000D03*
%TD*%
D16*
%TO.C,C31*%
X69085000Y-49465000D03*
X69085000Y-47565000D03*
%TD*%
D13*
%TO.C,C20*%
X75946000Y-116459000D03*
X75946000Y-118359000D03*
%TD*%
D20*
%TO.C,R4*%
X43030500Y-86950500D03*
X41205500Y-86950500D03*
%TD*%
D13*
%TO.C,C24*%
X90620000Y-49280000D03*
X90620000Y-51180000D03*
%TD*%
D10*
%TO.C,R12*%
X41275000Y-125650000D03*
X41275000Y-123825000D03*
%TD*%
D13*
%TO.C,C28*%
X96240000Y-49880000D03*
X96240000Y-51780000D03*
%TD*%
D20*
%TO.C,R5*%
X42903500Y-82759500D03*
X41078500Y-82759500D03*
%TD*%
D13*
%TO.C,C29*%
X76790000Y-47620000D03*
X76790000Y-49520000D03*
%TD*%
%TO.C,C40*%
X105982000Y-44612000D03*
X105982000Y-46512000D03*
%TD*%
M02*
