%TF.GenerationSoftware,KiCad,Pcbnew,7.0.10*%
%TF.CreationDate,2024-02-10T01:25:09-05:00*%
%TF.ProjectId,9260-first,39323630-2d66-4697-9273-742e6b696361,rev?*%
%TF.SameCoordinates,Original*%
%TF.FileFunction,Legend,Top*%
%TF.FilePolarity,Positive*%
%FSLAX46Y46*%
G04 Gerber Fmt 4.6, Leading zero omitted, Abs format (unit mm)*
G04 Created by KiCad (PCBNEW 7.0.10) date 2024-02-10 01:25:09*
%MOMM*%
%LPD*%
G01*
G04 APERTURE LIST*
%ADD10C,0.150000*%
%ADD11C,0.120000*%
%ADD12C,0.254000*%
%ADD13C,0.707100*%
G04 APERTURE END LIST*
D10*
X29739000Y-65659000D02*
X37719000Y-65659000D01*
X37719000Y-92710000D01*
X29739000Y-92710000D01*
X29739000Y-65659000D01*
X91054819Y-109142857D02*
X90578628Y-109476190D01*
X91054819Y-109714285D02*
X90054819Y-109714285D01*
X90054819Y-109714285D02*
X90054819Y-109333333D01*
X90054819Y-109333333D02*
X90102438Y-109238095D01*
X90102438Y-109238095D02*
X90150057Y-109190476D01*
X90150057Y-109190476D02*
X90245295Y-109142857D01*
X90245295Y-109142857D02*
X90388152Y-109142857D01*
X90388152Y-109142857D02*
X90483390Y-109190476D01*
X90483390Y-109190476D02*
X90531009Y-109238095D01*
X90531009Y-109238095D02*
X90578628Y-109333333D01*
X90578628Y-109333333D02*
X90578628Y-109714285D01*
X90150057Y-108761904D02*
X90102438Y-108714285D01*
X90102438Y-108714285D02*
X90054819Y-108619047D01*
X90054819Y-108619047D02*
X90054819Y-108380952D01*
X90054819Y-108380952D02*
X90102438Y-108285714D01*
X90102438Y-108285714D02*
X90150057Y-108238095D01*
X90150057Y-108238095D02*
X90245295Y-108190476D01*
X90245295Y-108190476D02*
X90340533Y-108190476D01*
X90340533Y-108190476D02*
X90483390Y-108238095D01*
X90483390Y-108238095D02*
X91054819Y-108809523D01*
X91054819Y-108809523D02*
X91054819Y-108190476D01*
X90054819Y-107571428D02*
X90054819Y-107476190D01*
X90054819Y-107476190D02*
X90102438Y-107380952D01*
X90102438Y-107380952D02*
X90150057Y-107333333D01*
X90150057Y-107333333D02*
X90245295Y-107285714D01*
X90245295Y-107285714D02*
X90435771Y-107238095D01*
X90435771Y-107238095D02*
X90673866Y-107238095D01*
X90673866Y-107238095D02*
X90864342Y-107285714D01*
X90864342Y-107285714D02*
X90959580Y-107333333D01*
X90959580Y-107333333D02*
X91007200Y-107380952D01*
X91007200Y-107380952D02*
X91054819Y-107476190D01*
X91054819Y-107476190D02*
X91054819Y-107571428D01*
X91054819Y-107571428D02*
X91007200Y-107666666D01*
X91007200Y-107666666D02*
X90959580Y-107714285D01*
X90959580Y-107714285D02*
X90864342Y-107761904D01*
X90864342Y-107761904D02*
X90673866Y-107809523D01*
X90673866Y-107809523D02*
X90435771Y-107809523D01*
X90435771Y-107809523D02*
X90245295Y-107761904D01*
X90245295Y-107761904D02*
X90150057Y-107714285D01*
X90150057Y-107714285D02*
X90102438Y-107666666D01*
X90102438Y-107666666D02*
X90054819Y-107571428D01*
X93954819Y-109442857D02*
X93478628Y-109776190D01*
X93954819Y-110014285D02*
X92954819Y-110014285D01*
X92954819Y-110014285D02*
X92954819Y-109633333D01*
X92954819Y-109633333D02*
X93002438Y-109538095D01*
X93002438Y-109538095D02*
X93050057Y-109490476D01*
X93050057Y-109490476D02*
X93145295Y-109442857D01*
X93145295Y-109442857D02*
X93288152Y-109442857D01*
X93288152Y-109442857D02*
X93383390Y-109490476D01*
X93383390Y-109490476D02*
X93431009Y-109538095D01*
X93431009Y-109538095D02*
X93478628Y-109633333D01*
X93478628Y-109633333D02*
X93478628Y-110014285D01*
X93954819Y-108490476D02*
X93954819Y-109061904D01*
X93954819Y-108776190D02*
X92954819Y-108776190D01*
X92954819Y-108776190D02*
X93097676Y-108871428D01*
X93097676Y-108871428D02*
X93192914Y-108966666D01*
X93192914Y-108966666D02*
X93240533Y-109061904D01*
X93954819Y-108014285D02*
X93954819Y-107823809D01*
X93954819Y-107823809D02*
X93907200Y-107728571D01*
X93907200Y-107728571D02*
X93859580Y-107680952D01*
X93859580Y-107680952D02*
X93716723Y-107585714D01*
X93716723Y-107585714D02*
X93526247Y-107538095D01*
X93526247Y-107538095D02*
X93145295Y-107538095D01*
X93145295Y-107538095D02*
X93050057Y-107585714D01*
X93050057Y-107585714D02*
X93002438Y-107633333D01*
X93002438Y-107633333D02*
X92954819Y-107728571D01*
X92954819Y-107728571D02*
X92954819Y-107919047D01*
X92954819Y-107919047D02*
X93002438Y-108014285D01*
X93002438Y-108014285D02*
X93050057Y-108061904D01*
X93050057Y-108061904D02*
X93145295Y-108109523D01*
X93145295Y-108109523D02*
X93383390Y-108109523D01*
X93383390Y-108109523D02*
X93478628Y-108061904D01*
X93478628Y-108061904D02*
X93526247Y-108014285D01*
X93526247Y-108014285D02*
X93573866Y-107919047D01*
X93573866Y-107919047D02*
X93573866Y-107728571D01*
X93573866Y-107728571D02*
X93526247Y-107633333D01*
X93526247Y-107633333D02*
X93478628Y-107585714D01*
X93478628Y-107585714D02*
X93383390Y-107538095D01*
X100166666Y-120154819D02*
X100166666Y-120869104D01*
X100166666Y-120869104D02*
X100119047Y-121011961D01*
X100119047Y-121011961D02*
X100023809Y-121107200D01*
X100023809Y-121107200D02*
X99880952Y-121154819D01*
X99880952Y-121154819D02*
X99785714Y-121154819D01*
X101071428Y-120488152D02*
X101071428Y-121154819D01*
X100833333Y-120107200D02*
X100595238Y-120821485D01*
X100595238Y-120821485D02*
X101214285Y-120821485D01*
X103139580Y-112942857D02*
X103187200Y-112990476D01*
X103187200Y-112990476D02*
X103234819Y-113133333D01*
X103234819Y-113133333D02*
X103234819Y-113228571D01*
X103234819Y-113228571D02*
X103187200Y-113371428D01*
X103187200Y-113371428D02*
X103091961Y-113466666D01*
X103091961Y-113466666D02*
X102996723Y-113514285D01*
X102996723Y-113514285D02*
X102806247Y-113561904D01*
X102806247Y-113561904D02*
X102663390Y-113561904D01*
X102663390Y-113561904D02*
X102472914Y-113514285D01*
X102472914Y-113514285D02*
X102377676Y-113466666D01*
X102377676Y-113466666D02*
X102282438Y-113371428D01*
X102282438Y-113371428D02*
X102234819Y-113228571D01*
X102234819Y-113228571D02*
X102234819Y-113133333D01*
X102234819Y-113133333D02*
X102282438Y-112990476D01*
X102282438Y-112990476D02*
X102330057Y-112942857D01*
X102234819Y-112038095D02*
X102234819Y-112514285D01*
X102234819Y-112514285D02*
X102711009Y-112561904D01*
X102711009Y-112561904D02*
X102663390Y-112514285D01*
X102663390Y-112514285D02*
X102615771Y-112419047D01*
X102615771Y-112419047D02*
X102615771Y-112180952D01*
X102615771Y-112180952D02*
X102663390Y-112085714D01*
X102663390Y-112085714D02*
X102711009Y-112038095D01*
X102711009Y-112038095D02*
X102806247Y-111990476D01*
X102806247Y-111990476D02*
X103044342Y-111990476D01*
X103044342Y-111990476D02*
X103139580Y-112038095D01*
X103139580Y-112038095D02*
X103187200Y-112085714D01*
X103187200Y-112085714D02*
X103234819Y-112180952D01*
X103234819Y-112180952D02*
X103234819Y-112419047D01*
X103234819Y-112419047D02*
X103187200Y-112514285D01*
X103187200Y-112514285D02*
X103139580Y-112561904D01*
X102234819Y-111657142D02*
X102234819Y-111038095D01*
X102234819Y-111038095D02*
X102615771Y-111371428D01*
X102615771Y-111371428D02*
X102615771Y-111228571D01*
X102615771Y-111228571D02*
X102663390Y-111133333D01*
X102663390Y-111133333D02*
X102711009Y-111085714D01*
X102711009Y-111085714D02*
X102806247Y-111038095D01*
X102806247Y-111038095D02*
X103044342Y-111038095D01*
X103044342Y-111038095D02*
X103139580Y-111085714D01*
X103139580Y-111085714D02*
X103187200Y-111133333D01*
X103187200Y-111133333D02*
X103234819Y-111228571D01*
X103234819Y-111228571D02*
X103234819Y-111514285D01*
X103234819Y-111514285D02*
X103187200Y-111609523D01*
X103187200Y-111609523D02*
X103139580Y-111657142D01*
X87457142Y-109459580D02*
X87409523Y-109507200D01*
X87409523Y-109507200D02*
X87266666Y-109554819D01*
X87266666Y-109554819D02*
X87171428Y-109554819D01*
X87171428Y-109554819D02*
X87028571Y-109507200D01*
X87028571Y-109507200D02*
X86933333Y-109411961D01*
X86933333Y-109411961D02*
X86885714Y-109316723D01*
X86885714Y-109316723D02*
X86838095Y-109126247D01*
X86838095Y-109126247D02*
X86838095Y-108983390D01*
X86838095Y-108983390D02*
X86885714Y-108792914D01*
X86885714Y-108792914D02*
X86933333Y-108697676D01*
X86933333Y-108697676D02*
X87028571Y-108602438D01*
X87028571Y-108602438D02*
X87171428Y-108554819D01*
X87171428Y-108554819D02*
X87266666Y-108554819D01*
X87266666Y-108554819D02*
X87409523Y-108602438D01*
X87409523Y-108602438D02*
X87457142Y-108650057D01*
X88361904Y-108554819D02*
X87885714Y-108554819D01*
X87885714Y-108554819D02*
X87838095Y-109031009D01*
X87838095Y-109031009D02*
X87885714Y-108983390D01*
X87885714Y-108983390D02*
X87980952Y-108935771D01*
X87980952Y-108935771D02*
X88219047Y-108935771D01*
X88219047Y-108935771D02*
X88314285Y-108983390D01*
X88314285Y-108983390D02*
X88361904Y-109031009D01*
X88361904Y-109031009D02*
X88409523Y-109126247D01*
X88409523Y-109126247D02*
X88409523Y-109364342D01*
X88409523Y-109364342D02*
X88361904Y-109459580D01*
X88361904Y-109459580D02*
X88314285Y-109507200D01*
X88314285Y-109507200D02*
X88219047Y-109554819D01*
X88219047Y-109554819D02*
X87980952Y-109554819D01*
X87980952Y-109554819D02*
X87885714Y-109507200D01*
X87885714Y-109507200D02*
X87838095Y-109459580D01*
X88790476Y-108650057D02*
X88838095Y-108602438D01*
X88838095Y-108602438D02*
X88933333Y-108554819D01*
X88933333Y-108554819D02*
X89171428Y-108554819D01*
X89171428Y-108554819D02*
X89266666Y-108602438D01*
X89266666Y-108602438D02*
X89314285Y-108650057D01*
X89314285Y-108650057D02*
X89361904Y-108745295D01*
X89361904Y-108745295D02*
X89361904Y-108840533D01*
X89361904Y-108840533D02*
X89314285Y-108983390D01*
X89314285Y-108983390D02*
X88742857Y-109554819D01*
X88742857Y-109554819D02*
X89361904Y-109554819D01*
X96457142Y-111559580D02*
X96409523Y-111607200D01*
X96409523Y-111607200D02*
X96266666Y-111654819D01*
X96266666Y-111654819D02*
X96171428Y-111654819D01*
X96171428Y-111654819D02*
X96028571Y-111607200D01*
X96028571Y-111607200D02*
X95933333Y-111511961D01*
X95933333Y-111511961D02*
X95885714Y-111416723D01*
X95885714Y-111416723D02*
X95838095Y-111226247D01*
X95838095Y-111226247D02*
X95838095Y-111083390D01*
X95838095Y-111083390D02*
X95885714Y-110892914D01*
X95885714Y-110892914D02*
X95933333Y-110797676D01*
X95933333Y-110797676D02*
X96028571Y-110702438D01*
X96028571Y-110702438D02*
X96171428Y-110654819D01*
X96171428Y-110654819D02*
X96266666Y-110654819D01*
X96266666Y-110654819D02*
X96409523Y-110702438D01*
X96409523Y-110702438D02*
X96457142Y-110750057D01*
X97361904Y-110654819D02*
X96885714Y-110654819D01*
X96885714Y-110654819D02*
X96838095Y-111131009D01*
X96838095Y-111131009D02*
X96885714Y-111083390D01*
X96885714Y-111083390D02*
X96980952Y-111035771D01*
X96980952Y-111035771D02*
X97219047Y-111035771D01*
X97219047Y-111035771D02*
X97314285Y-111083390D01*
X97314285Y-111083390D02*
X97361904Y-111131009D01*
X97361904Y-111131009D02*
X97409523Y-111226247D01*
X97409523Y-111226247D02*
X97409523Y-111464342D01*
X97409523Y-111464342D02*
X97361904Y-111559580D01*
X97361904Y-111559580D02*
X97314285Y-111607200D01*
X97314285Y-111607200D02*
X97219047Y-111654819D01*
X97219047Y-111654819D02*
X96980952Y-111654819D01*
X96980952Y-111654819D02*
X96885714Y-111607200D01*
X96885714Y-111607200D02*
X96838095Y-111559580D01*
X98361904Y-111654819D02*
X97790476Y-111654819D01*
X98076190Y-111654819D02*
X98076190Y-110654819D01*
X98076190Y-110654819D02*
X97980952Y-110797676D01*
X97980952Y-110797676D02*
X97885714Y-110892914D01*
X97885714Y-110892914D02*
X97790476Y-110940533D01*
X95666666Y-29754819D02*
X95666666Y-30469104D01*
X95666666Y-30469104D02*
X95619047Y-30611961D01*
X95619047Y-30611961D02*
X95523809Y-30707200D01*
X95523809Y-30707200D02*
X95380952Y-30754819D01*
X95380952Y-30754819D02*
X95285714Y-30754819D01*
X96047619Y-29754819D02*
X96666666Y-29754819D01*
X96666666Y-29754819D02*
X96333333Y-30135771D01*
X96333333Y-30135771D02*
X96476190Y-30135771D01*
X96476190Y-30135771D02*
X96571428Y-30183390D01*
X96571428Y-30183390D02*
X96619047Y-30231009D01*
X96619047Y-30231009D02*
X96666666Y-30326247D01*
X96666666Y-30326247D02*
X96666666Y-30564342D01*
X96666666Y-30564342D02*
X96619047Y-30659580D01*
X96619047Y-30659580D02*
X96571428Y-30707200D01*
X96571428Y-30707200D02*
X96476190Y-30754819D01*
X96476190Y-30754819D02*
X96190476Y-30754819D01*
X96190476Y-30754819D02*
X96095238Y-30707200D01*
X96095238Y-30707200D02*
X96047619Y-30659580D01*
X66460580Y-107322857D02*
X66508200Y-107370476D01*
X66508200Y-107370476D02*
X66555819Y-107513333D01*
X66555819Y-107513333D02*
X66555819Y-107608571D01*
X66555819Y-107608571D02*
X66508200Y-107751428D01*
X66508200Y-107751428D02*
X66412961Y-107846666D01*
X66412961Y-107846666D02*
X66317723Y-107894285D01*
X66317723Y-107894285D02*
X66127247Y-107941904D01*
X66127247Y-107941904D02*
X65984390Y-107941904D01*
X65984390Y-107941904D02*
X65793914Y-107894285D01*
X65793914Y-107894285D02*
X65698676Y-107846666D01*
X65698676Y-107846666D02*
X65603438Y-107751428D01*
X65603438Y-107751428D02*
X65555819Y-107608571D01*
X65555819Y-107608571D02*
X65555819Y-107513333D01*
X65555819Y-107513333D02*
X65603438Y-107370476D01*
X65603438Y-107370476D02*
X65651057Y-107322857D01*
X65651057Y-106941904D02*
X65603438Y-106894285D01*
X65603438Y-106894285D02*
X65555819Y-106799047D01*
X65555819Y-106799047D02*
X65555819Y-106560952D01*
X65555819Y-106560952D02*
X65603438Y-106465714D01*
X65603438Y-106465714D02*
X65651057Y-106418095D01*
X65651057Y-106418095D02*
X65746295Y-106370476D01*
X65746295Y-106370476D02*
X65841533Y-106370476D01*
X65841533Y-106370476D02*
X65984390Y-106418095D01*
X65984390Y-106418095D02*
X66555819Y-106989523D01*
X66555819Y-106989523D02*
X66555819Y-106370476D01*
X65651057Y-105989523D02*
X65603438Y-105941904D01*
X65603438Y-105941904D02*
X65555819Y-105846666D01*
X65555819Y-105846666D02*
X65555819Y-105608571D01*
X65555819Y-105608571D02*
X65603438Y-105513333D01*
X65603438Y-105513333D02*
X65651057Y-105465714D01*
X65651057Y-105465714D02*
X65746295Y-105418095D01*
X65746295Y-105418095D02*
X65841533Y-105418095D01*
X65841533Y-105418095D02*
X65984390Y-105465714D01*
X65984390Y-105465714D02*
X66555819Y-106037142D01*
X66555819Y-106037142D02*
X66555819Y-105418095D01*
X49183333Y-70149580D02*
X49135714Y-70197200D01*
X49135714Y-70197200D02*
X48992857Y-70244819D01*
X48992857Y-70244819D02*
X48897619Y-70244819D01*
X48897619Y-70244819D02*
X48754762Y-70197200D01*
X48754762Y-70197200D02*
X48659524Y-70101961D01*
X48659524Y-70101961D02*
X48611905Y-70006723D01*
X48611905Y-70006723D02*
X48564286Y-69816247D01*
X48564286Y-69816247D02*
X48564286Y-69673390D01*
X48564286Y-69673390D02*
X48611905Y-69482914D01*
X48611905Y-69482914D02*
X48659524Y-69387676D01*
X48659524Y-69387676D02*
X48754762Y-69292438D01*
X48754762Y-69292438D02*
X48897619Y-69244819D01*
X48897619Y-69244819D02*
X48992857Y-69244819D01*
X48992857Y-69244819D02*
X49135714Y-69292438D01*
X49135714Y-69292438D02*
X49183333Y-69340057D01*
X50040476Y-69578152D02*
X50040476Y-70244819D01*
X49802381Y-69197200D02*
X49564286Y-69911485D01*
X49564286Y-69911485D02*
X50183333Y-69911485D01*
X70366095Y-94492819D02*
X70937523Y-94492819D01*
X70651809Y-95492819D02*
X70651809Y-94492819D01*
X71270857Y-95492819D02*
X71270857Y-94492819D01*
X71270857Y-94492819D02*
X71651809Y-94492819D01*
X71651809Y-94492819D02*
X71747047Y-94540438D01*
X71747047Y-94540438D02*
X71794666Y-94588057D01*
X71794666Y-94588057D02*
X71842285Y-94683295D01*
X71842285Y-94683295D02*
X71842285Y-94826152D01*
X71842285Y-94826152D02*
X71794666Y-94921390D01*
X71794666Y-94921390D02*
X71747047Y-94969009D01*
X71747047Y-94969009D02*
X71651809Y-95016628D01*
X71651809Y-95016628D02*
X71270857Y-95016628D01*
X72699428Y-94826152D02*
X72699428Y-95492819D01*
X72461333Y-94445200D02*
X72223238Y-95159485D01*
X72223238Y-95159485D02*
X72842285Y-95159485D01*
X73837142Y-102339580D02*
X73789523Y-102387200D01*
X73789523Y-102387200D02*
X73646666Y-102434819D01*
X73646666Y-102434819D02*
X73551428Y-102434819D01*
X73551428Y-102434819D02*
X73408571Y-102387200D01*
X73408571Y-102387200D02*
X73313333Y-102291961D01*
X73313333Y-102291961D02*
X73265714Y-102196723D01*
X73265714Y-102196723D02*
X73218095Y-102006247D01*
X73218095Y-102006247D02*
X73218095Y-101863390D01*
X73218095Y-101863390D02*
X73265714Y-101672914D01*
X73265714Y-101672914D02*
X73313333Y-101577676D01*
X73313333Y-101577676D02*
X73408571Y-101482438D01*
X73408571Y-101482438D02*
X73551428Y-101434819D01*
X73551428Y-101434819D02*
X73646666Y-101434819D01*
X73646666Y-101434819D02*
X73789523Y-101482438D01*
X73789523Y-101482438D02*
X73837142Y-101530057D01*
X74789523Y-102434819D02*
X74218095Y-102434819D01*
X74503809Y-102434819D02*
X74503809Y-101434819D01*
X74503809Y-101434819D02*
X74408571Y-101577676D01*
X74408571Y-101577676D02*
X74313333Y-101672914D01*
X74313333Y-101672914D02*
X74218095Y-101720533D01*
X75122857Y-101434819D02*
X75789523Y-101434819D01*
X75789523Y-101434819D02*
X75360952Y-102434819D01*
X49133333Y-85709580D02*
X49085714Y-85757200D01*
X49085714Y-85757200D02*
X48942857Y-85804819D01*
X48942857Y-85804819D02*
X48847619Y-85804819D01*
X48847619Y-85804819D02*
X48704762Y-85757200D01*
X48704762Y-85757200D02*
X48609524Y-85661961D01*
X48609524Y-85661961D02*
X48561905Y-85566723D01*
X48561905Y-85566723D02*
X48514286Y-85376247D01*
X48514286Y-85376247D02*
X48514286Y-85233390D01*
X48514286Y-85233390D02*
X48561905Y-85042914D01*
X48561905Y-85042914D02*
X48609524Y-84947676D01*
X48609524Y-84947676D02*
X48704762Y-84852438D01*
X48704762Y-84852438D02*
X48847619Y-84804819D01*
X48847619Y-84804819D02*
X48942857Y-84804819D01*
X48942857Y-84804819D02*
X49085714Y-84852438D01*
X49085714Y-84852438D02*
X49133333Y-84900057D01*
X50038095Y-84804819D02*
X49561905Y-84804819D01*
X49561905Y-84804819D02*
X49514286Y-85281009D01*
X49514286Y-85281009D02*
X49561905Y-85233390D01*
X49561905Y-85233390D02*
X49657143Y-85185771D01*
X49657143Y-85185771D02*
X49895238Y-85185771D01*
X49895238Y-85185771D02*
X49990476Y-85233390D01*
X49990476Y-85233390D02*
X50038095Y-85281009D01*
X50038095Y-85281009D02*
X50085714Y-85376247D01*
X50085714Y-85376247D02*
X50085714Y-85614342D01*
X50085714Y-85614342D02*
X50038095Y-85709580D01*
X50038095Y-85709580D02*
X49990476Y-85757200D01*
X49990476Y-85757200D02*
X49895238Y-85804819D01*
X49895238Y-85804819D02*
X49657143Y-85804819D01*
X49657143Y-85804819D02*
X49561905Y-85757200D01*
X49561905Y-85757200D02*
X49514286Y-85709580D01*
X79169580Y-39852857D02*
X79217200Y-39900476D01*
X79217200Y-39900476D02*
X79264819Y-40043333D01*
X79264819Y-40043333D02*
X79264819Y-40138571D01*
X79264819Y-40138571D02*
X79217200Y-40281428D01*
X79217200Y-40281428D02*
X79121961Y-40376666D01*
X79121961Y-40376666D02*
X79026723Y-40424285D01*
X79026723Y-40424285D02*
X78836247Y-40471904D01*
X78836247Y-40471904D02*
X78693390Y-40471904D01*
X78693390Y-40471904D02*
X78502914Y-40424285D01*
X78502914Y-40424285D02*
X78407676Y-40376666D01*
X78407676Y-40376666D02*
X78312438Y-40281428D01*
X78312438Y-40281428D02*
X78264819Y-40138571D01*
X78264819Y-40138571D02*
X78264819Y-40043333D01*
X78264819Y-40043333D02*
X78312438Y-39900476D01*
X78312438Y-39900476D02*
X78360057Y-39852857D01*
X79264819Y-38900476D02*
X79264819Y-39471904D01*
X79264819Y-39186190D02*
X78264819Y-39186190D01*
X78264819Y-39186190D02*
X78407676Y-39281428D01*
X78407676Y-39281428D02*
X78502914Y-39376666D01*
X78502914Y-39376666D02*
X78550533Y-39471904D01*
X78264819Y-38281428D02*
X78264819Y-38186190D01*
X78264819Y-38186190D02*
X78312438Y-38090952D01*
X78312438Y-38090952D02*
X78360057Y-38043333D01*
X78360057Y-38043333D02*
X78455295Y-37995714D01*
X78455295Y-37995714D02*
X78645771Y-37948095D01*
X78645771Y-37948095D02*
X78883866Y-37948095D01*
X78883866Y-37948095D02*
X79074342Y-37995714D01*
X79074342Y-37995714D02*
X79169580Y-38043333D01*
X79169580Y-38043333D02*
X79217200Y-38090952D01*
X79217200Y-38090952D02*
X79264819Y-38186190D01*
X79264819Y-38186190D02*
X79264819Y-38281428D01*
X79264819Y-38281428D02*
X79217200Y-38376666D01*
X79217200Y-38376666D02*
X79169580Y-38424285D01*
X79169580Y-38424285D02*
X79074342Y-38471904D01*
X79074342Y-38471904D02*
X78883866Y-38519523D01*
X78883866Y-38519523D02*
X78645771Y-38519523D01*
X78645771Y-38519523D02*
X78455295Y-38471904D01*
X78455295Y-38471904D02*
X78360057Y-38424285D01*
X78360057Y-38424285D02*
X78312438Y-38376666D01*
X78312438Y-38376666D02*
X78264819Y-38281428D01*
X67270333Y-115262819D02*
X66937000Y-114786628D01*
X66698905Y-115262819D02*
X66698905Y-114262819D01*
X66698905Y-114262819D02*
X67079857Y-114262819D01*
X67079857Y-114262819D02*
X67175095Y-114310438D01*
X67175095Y-114310438D02*
X67222714Y-114358057D01*
X67222714Y-114358057D02*
X67270333Y-114453295D01*
X67270333Y-114453295D02*
X67270333Y-114596152D01*
X67270333Y-114596152D02*
X67222714Y-114691390D01*
X67222714Y-114691390D02*
X67175095Y-114739009D01*
X67175095Y-114739009D02*
X67079857Y-114786628D01*
X67079857Y-114786628D02*
X66698905Y-114786628D01*
X67746524Y-115262819D02*
X67937000Y-115262819D01*
X67937000Y-115262819D02*
X68032238Y-115215200D01*
X68032238Y-115215200D02*
X68079857Y-115167580D01*
X68079857Y-115167580D02*
X68175095Y-115024723D01*
X68175095Y-115024723D02*
X68222714Y-114834247D01*
X68222714Y-114834247D02*
X68222714Y-114453295D01*
X68222714Y-114453295D02*
X68175095Y-114358057D01*
X68175095Y-114358057D02*
X68127476Y-114310438D01*
X68127476Y-114310438D02*
X68032238Y-114262819D01*
X68032238Y-114262819D02*
X67841762Y-114262819D01*
X67841762Y-114262819D02*
X67746524Y-114310438D01*
X67746524Y-114310438D02*
X67698905Y-114358057D01*
X67698905Y-114358057D02*
X67651286Y-114453295D01*
X67651286Y-114453295D02*
X67651286Y-114691390D01*
X67651286Y-114691390D02*
X67698905Y-114786628D01*
X67698905Y-114786628D02*
X67746524Y-114834247D01*
X67746524Y-114834247D02*
X67841762Y-114881866D01*
X67841762Y-114881866D02*
X68032238Y-114881866D01*
X68032238Y-114881866D02*
X68127476Y-114834247D01*
X68127476Y-114834247D02*
X68175095Y-114786628D01*
X68175095Y-114786628D02*
X68222714Y-114691390D01*
X119927142Y-69389580D02*
X119879523Y-69437200D01*
X119879523Y-69437200D02*
X119736666Y-69484819D01*
X119736666Y-69484819D02*
X119641428Y-69484819D01*
X119641428Y-69484819D02*
X119498571Y-69437200D01*
X119498571Y-69437200D02*
X119403333Y-69341961D01*
X119403333Y-69341961D02*
X119355714Y-69246723D01*
X119355714Y-69246723D02*
X119308095Y-69056247D01*
X119308095Y-69056247D02*
X119308095Y-68913390D01*
X119308095Y-68913390D02*
X119355714Y-68722914D01*
X119355714Y-68722914D02*
X119403333Y-68627676D01*
X119403333Y-68627676D02*
X119498571Y-68532438D01*
X119498571Y-68532438D02*
X119641428Y-68484819D01*
X119641428Y-68484819D02*
X119736666Y-68484819D01*
X119736666Y-68484819D02*
X119879523Y-68532438D01*
X119879523Y-68532438D02*
X119927142Y-68580057D01*
X120784285Y-68818152D02*
X120784285Y-69484819D01*
X120546190Y-68437200D02*
X120308095Y-69151485D01*
X120308095Y-69151485D02*
X120927142Y-69151485D01*
X121736666Y-68484819D02*
X121546190Y-68484819D01*
X121546190Y-68484819D02*
X121450952Y-68532438D01*
X121450952Y-68532438D02*
X121403333Y-68580057D01*
X121403333Y-68580057D02*
X121308095Y-68722914D01*
X121308095Y-68722914D02*
X121260476Y-68913390D01*
X121260476Y-68913390D02*
X121260476Y-69294342D01*
X121260476Y-69294342D02*
X121308095Y-69389580D01*
X121308095Y-69389580D02*
X121355714Y-69437200D01*
X121355714Y-69437200D02*
X121450952Y-69484819D01*
X121450952Y-69484819D02*
X121641428Y-69484819D01*
X121641428Y-69484819D02*
X121736666Y-69437200D01*
X121736666Y-69437200D02*
X121784285Y-69389580D01*
X121784285Y-69389580D02*
X121831904Y-69294342D01*
X121831904Y-69294342D02*
X121831904Y-69056247D01*
X121831904Y-69056247D02*
X121784285Y-68961009D01*
X121784285Y-68961009D02*
X121736666Y-68913390D01*
X121736666Y-68913390D02*
X121641428Y-68865771D01*
X121641428Y-68865771D02*
X121450952Y-68865771D01*
X121450952Y-68865771D02*
X121355714Y-68913390D01*
X121355714Y-68913390D02*
X121308095Y-68961009D01*
X121308095Y-68961009D02*
X121260476Y-69056247D01*
X93187142Y-47529580D02*
X93139523Y-47577200D01*
X93139523Y-47577200D02*
X92996666Y-47624819D01*
X92996666Y-47624819D02*
X92901428Y-47624819D01*
X92901428Y-47624819D02*
X92758571Y-47577200D01*
X92758571Y-47577200D02*
X92663333Y-47481961D01*
X92663333Y-47481961D02*
X92615714Y-47386723D01*
X92615714Y-47386723D02*
X92568095Y-47196247D01*
X92568095Y-47196247D02*
X92568095Y-47053390D01*
X92568095Y-47053390D02*
X92615714Y-46862914D01*
X92615714Y-46862914D02*
X92663333Y-46767676D01*
X92663333Y-46767676D02*
X92758571Y-46672438D01*
X92758571Y-46672438D02*
X92901428Y-46624819D01*
X92901428Y-46624819D02*
X92996666Y-46624819D01*
X92996666Y-46624819D02*
X93139523Y-46672438D01*
X93139523Y-46672438D02*
X93187142Y-46720057D01*
X94139523Y-47624819D02*
X93568095Y-47624819D01*
X93853809Y-47624819D02*
X93853809Y-46624819D01*
X93853809Y-46624819D02*
X93758571Y-46767676D01*
X93758571Y-46767676D02*
X93663333Y-46862914D01*
X93663333Y-46862914D02*
X93568095Y-46910533D01*
X95091904Y-47624819D02*
X94520476Y-47624819D01*
X94806190Y-47624819D02*
X94806190Y-46624819D01*
X94806190Y-46624819D02*
X94710952Y-46767676D01*
X94710952Y-46767676D02*
X94615714Y-46862914D01*
X94615714Y-46862914D02*
X94520476Y-46910533D01*
X112693580Y-98077857D02*
X112741200Y-98125476D01*
X112741200Y-98125476D02*
X112788819Y-98268333D01*
X112788819Y-98268333D02*
X112788819Y-98363571D01*
X112788819Y-98363571D02*
X112741200Y-98506428D01*
X112741200Y-98506428D02*
X112645961Y-98601666D01*
X112645961Y-98601666D02*
X112550723Y-98649285D01*
X112550723Y-98649285D02*
X112360247Y-98696904D01*
X112360247Y-98696904D02*
X112217390Y-98696904D01*
X112217390Y-98696904D02*
X112026914Y-98649285D01*
X112026914Y-98649285D02*
X111931676Y-98601666D01*
X111931676Y-98601666D02*
X111836438Y-98506428D01*
X111836438Y-98506428D02*
X111788819Y-98363571D01*
X111788819Y-98363571D02*
X111788819Y-98268333D01*
X111788819Y-98268333D02*
X111836438Y-98125476D01*
X111836438Y-98125476D02*
X111884057Y-98077857D01*
X111788819Y-97744523D02*
X111788819Y-97125476D01*
X111788819Y-97125476D02*
X112169771Y-97458809D01*
X112169771Y-97458809D02*
X112169771Y-97315952D01*
X112169771Y-97315952D02*
X112217390Y-97220714D01*
X112217390Y-97220714D02*
X112265009Y-97173095D01*
X112265009Y-97173095D02*
X112360247Y-97125476D01*
X112360247Y-97125476D02*
X112598342Y-97125476D01*
X112598342Y-97125476D02*
X112693580Y-97173095D01*
X112693580Y-97173095D02*
X112741200Y-97220714D01*
X112741200Y-97220714D02*
X112788819Y-97315952D01*
X112788819Y-97315952D02*
X112788819Y-97601666D01*
X112788819Y-97601666D02*
X112741200Y-97696904D01*
X112741200Y-97696904D02*
X112693580Y-97744523D01*
X112217390Y-96554047D02*
X112169771Y-96649285D01*
X112169771Y-96649285D02*
X112122152Y-96696904D01*
X112122152Y-96696904D02*
X112026914Y-96744523D01*
X112026914Y-96744523D02*
X111979295Y-96744523D01*
X111979295Y-96744523D02*
X111884057Y-96696904D01*
X111884057Y-96696904D02*
X111836438Y-96649285D01*
X111836438Y-96649285D02*
X111788819Y-96554047D01*
X111788819Y-96554047D02*
X111788819Y-96363571D01*
X111788819Y-96363571D02*
X111836438Y-96268333D01*
X111836438Y-96268333D02*
X111884057Y-96220714D01*
X111884057Y-96220714D02*
X111979295Y-96173095D01*
X111979295Y-96173095D02*
X112026914Y-96173095D01*
X112026914Y-96173095D02*
X112122152Y-96220714D01*
X112122152Y-96220714D02*
X112169771Y-96268333D01*
X112169771Y-96268333D02*
X112217390Y-96363571D01*
X112217390Y-96363571D02*
X112217390Y-96554047D01*
X112217390Y-96554047D02*
X112265009Y-96649285D01*
X112265009Y-96649285D02*
X112312628Y-96696904D01*
X112312628Y-96696904D02*
X112407866Y-96744523D01*
X112407866Y-96744523D02*
X112598342Y-96744523D01*
X112598342Y-96744523D02*
X112693580Y-96696904D01*
X112693580Y-96696904D02*
X112741200Y-96649285D01*
X112741200Y-96649285D02*
X112788819Y-96554047D01*
X112788819Y-96554047D02*
X112788819Y-96363571D01*
X112788819Y-96363571D02*
X112741200Y-96268333D01*
X112741200Y-96268333D02*
X112693580Y-96220714D01*
X112693580Y-96220714D02*
X112598342Y-96173095D01*
X112598342Y-96173095D02*
X112407866Y-96173095D01*
X112407866Y-96173095D02*
X112312628Y-96220714D01*
X112312628Y-96220714D02*
X112265009Y-96268333D01*
X112265009Y-96268333D02*
X112217390Y-96363571D01*
X86666666Y-39954819D02*
X86666666Y-40669104D01*
X86666666Y-40669104D02*
X86619047Y-40811961D01*
X86619047Y-40811961D02*
X86523809Y-40907200D01*
X86523809Y-40907200D02*
X86380952Y-40954819D01*
X86380952Y-40954819D02*
X86285714Y-40954819D01*
X87142857Y-40954819D02*
X87142857Y-39954819D01*
X87142857Y-39954819D02*
X87523809Y-39954819D01*
X87523809Y-39954819D02*
X87619047Y-40002438D01*
X87619047Y-40002438D02*
X87666666Y-40050057D01*
X87666666Y-40050057D02*
X87714285Y-40145295D01*
X87714285Y-40145295D02*
X87714285Y-40288152D01*
X87714285Y-40288152D02*
X87666666Y-40383390D01*
X87666666Y-40383390D02*
X87619047Y-40431009D01*
X87619047Y-40431009D02*
X87523809Y-40478628D01*
X87523809Y-40478628D02*
X87142857Y-40478628D01*
X88095238Y-40050057D02*
X88142857Y-40002438D01*
X88142857Y-40002438D02*
X88238095Y-39954819D01*
X88238095Y-39954819D02*
X88476190Y-39954819D01*
X88476190Y-39954819D02*
X88571428Y-40002438D01*
X88571428Y-40002438D02*
X88619047Y-40050057D01*
X88619047Y-40050057D02*
X88666666Y-40145295D01*
X88666666Y-40145295D02*
X88666666Y-40240533D01*
X88666666Y-40240533D02*
X88619047Y-40383390D01*
X88619047Y-40383390D02*
X88047619Y-40954819D01*
X88047619Y-40954819D02*
X88666666Y-40954819D01*
X99286819Y-56676904D02*
X100096342Y-56676904D01*
X100096342Y-56676904D02*
X100191580Y-56629285D01*
X100191580Y-56629285D02*
X100239200Y-56581666D01*
X100239200Y-56581666D02*
X100286819Y-56486428D01*
X100286819Y-56486428D02*
X100286819Y-56295952D01*
X100286819Y-56295952D02*
X100239200Y-56200714D01*
X100239200Y-56200714D02*
X100191580Y-56153095D01*
X100191580Y-56153095D02*
X100096342Y-56105476D01*
X100096342Y-56105476D02*
X99286819Y-56105476D01*
X99286819Y-55200714D02*
X99286819Y-55391190D01*
X99286819Y-55391190D02*
X99334438Y-55486428D01*
X99334438Y-55486428D02*
X99382057Y-55534047D01*
X99382057Y-55534047D02*
X99524914Y-55629285D01*
X99524914Y-55629285D02*
X99715390Y-55676904D01*
X99715390Y-55676904D02*
X100096342Y-55676904D01*
X100096342Y-55676904D02*
X100191580Y-55629285D01*
X100191580Y-55629285D02*
X100239200Y-55581666D01*
X100239200Y-55581666D02*
X100286819Y-55486428D01*
X100286819Y-55486428D02*
X100286819Y-55295952D01*
X100286819Y-55295952D02*
X100239200Y-55200714D01*
X100239200Y-55200714D02*
X100191580Y-55153095D01*
X100191580Y-55153095D02*
X100096342Y-55105476D01*
X100096342Y-55105476D02*
X99858247Y-55105476D01*
X99858247Y-55105476D02*
X99763009Y-55153095D01*
X99763009Y-55153095D02*
X99715390Y-55200714D01*
X99715390Y-55200714D02*
X99667771Y-55295952D01*
X99667771Y-55295952D02*
X99667771Y-55486428D01*
X99667771Y-55486428D02*
X99715390Y-55581666D01*
X99715390Y-55581666D02*
X99763009Y-55629285D01*
X99763009Y-55629285D02*
X99858247Y-55676904D01*
X41748095Y-48914819D02*
X41748095Y-49724342D01*
X41748095Y-49724342D02*
X41795714Y-49819580D01*
X41795714Y-49819580D02*
X41843333Y-49867200D01*
X41843333Y-49867200D02*
X41938571Y-49914819D01*
X41938571Y-49914819D02*
X42129047Y-49914819D01*
X42129047Y-49914819D02*
X42224285Y-49867200D01*
X42224285Y-49867200D02*
X42271904Y-49819580D01*
X42271904Y-49819580D02*
X42319523Y-49724342D01*
X42319523Y-49724342D02*
X42319523Y-48914819D01*
X42938571Y-49343390D02*
X42843333Y-49295771D01*
X42843333Y-49295771D02*
X42795714Y-49248152D01*
X42795714Y-49248152D02*
X42748095Y-49152914D01*
X42748095Y-49152914D02*
X42748095Y-49105295D01*
X42748095Y-49105295D02*
X42795714Y-49010057D01*
X42795714Y-49010057D02*
X42843333Y-48962438D01*
X42843333Y-48962438D02*
X42938571Y-48914819D01*
X42938571Y-48914819D02*
X43129047Y-48914819D01*
X43129047Y-48914819D02*
X43224285Y-48962438D01*
X43224285Y-48962438D02*
X43271904Y-49010057D01*
X43271904Y-49010057D02*
X43319523Y-49105295D01*
X43319523Y-49105295D02*
X43319523Y-49152914D01*
X43319523Y-49152914D02*
X43271904Y-49248152D01*
X43271904Y-49248152D02*
X43224285Y-49295771D01*
X43224285Y-49295771D02*
X43129047Y-49343390D01*
X43129047Y-49343390D02*
X42938571Y-49343390D01*
X42938571Y-49343390D02*
X42843333Y-49391009D01*
X42843333Y-49391009D02*
X42795714Y-49438628D01*
X42795714Y-49438628D02*
X42748095Y-49533866D01*
X42748095Y-49533866D02*
X42748095Y-49724342D01*
X42748095Y-49724342D02*
X42795714Y-49819580D01*
X42795714Y-49819580D02*
X42843333Y-49867200D01*
X42843333Y-49867200D02*
X42938571Y-49914819D01*
X42938571Y-49914819D02*
X43129047Y-49914819D01*
X43129047Y-49914819D02*
X43224285Y-49867200D01*
X43224285Y-49867200D02*
X43271904Y-49819580D01*
X43271904Y-49819580D02*
X43319523Y-49724342D01*
X43319523Y-49724342D02*
X43319523Y-49533866D01*
X43319523Y-49533866D02*
X43271904Y-49438628D01*
X43271904Y-49438628D02*
X43224285Y-49391009D01*
X43224285Y-49391009D02*
X43129047Y-49343390D01*
X103677142Y-69799580D02*
X103629523Y-69847200D01*
X103629523Y-69847200D02*
X103486666Y-69894819D01*
X103486666Y-69894819D02*
X103391428Y-69894819D01*
X103391428Y-69894819D02*
X103248571Y-69847200D01*
X103248571Y-69847200D02*
X103153333Y-69751961D01*
X103153333Y-69751961D02*
X103105714Y-69656723D01*
X103105714Y-69656723D02*
X103058095Y-69466247D01*
X103058095Y-69466247D02*
X103058095Y-69323390D01*
X103058095Y-69323390D02*
X103105714Y-69132914D01*
X103105714Y-69132914D02*
X103153333Y-69037676D01*
X103153333Y-69037676D02*
X103248571Y-68942438D01*
X103248571Y-68942438D02*
X103391428Y-68894819D01*
X103391428Y-68894819D02*
X103486666Y-68894819D01*
X103486666Y-68894819D02*
X103629523Y-68942438D01*
X103629523Y-68942438D02*
X103677142Y-68990057D01*
X104534285Y-69228152D02*
X104534285Y-69894819D01*
X104296190Y-68847200D02*
X104058095Y-69561485D01*
X104058095Y-69561485D02*
X104677142Y-69561485D01*
X104962857Y-68894819D02*
X105581904Y-68894819D01*
X105581904Y-68894819D02*
X105248571Y-69275771D01*
X105248571Y-69275771D02*
X105391428Y-69275771D01*
X105391428Y-69275771D02*
X105486666Y-69323390D01*
X105486666Y-69323390D02*
X105534285Y-69371009D01*
X105534285Y-69371009D02*
X105581904Y-69466247D01*
X105581904Y-69466247D02*
X105581904Y-69704342D01*
X105581904Y-69704342D02*
X105534285Y-69799580D01*
X105534285Y-69799580D02*
X105486666Y-69847200D01*
X105486666Y-69847200D02*
X105391428Y-69894819D01*
X105391428Y-69894819D02*
X105105714Y-69894819D01*
X105105714Y-69894819D02*
X105010476Y-69847200D01*
X105010476Y-69847200D02*
X104962857Y-69799580D01*
X66159580Y-125742857D02*
X66207200Y-125790476D01*
X66207200Y-125790476D02*
X66254819Y-125933333D01*
X66254819Y-125933333D02*
X66254819Y-126028571D01*
X66254819Y-126028571D02*
X66207200Y-126171428D01*
X66207200Y-126171428D02*
X66111961Y-126266666D01*
X66111961Y-126266666D02*
X66016723Y-126314285D01*
X66016723Y-126314285D02*
X65826247Y-126361904D01*
X65826247Y-126361904D02*
X65683390Y-126361904D01*
X65683390Y-126361904D02*
X65492914Y-126314285D01*
X65492914Y-126314285D02*
X65397676Y-126266666D01*
X65397676Y-126266666D02*
X65302438Y-126171428D01*
X65302438Y-126171428D02*
X65254819Y-126028571D01*
X65254819Y-126028571D02*
X65254819Y-125933333D01*
X65254819Y-125933333D02*
X65302438Y-125790476D01*
X65302438Y-125790476D02*
X65350057Y-125742857D01*
X65350057Y-125361904D02*
X65302438Y-125314285D01*
X65302438Y-125314285D02*
X65254819Y-125219047D01*
X65254819Y-125219047D02*
X65254819Y-124980952D01*
X65254819Y-124980952D02*
X65302438Y-124885714D01*
X65302438Y-124885714D02*
X65350057Y-124838095D01*
X65350057Y-124838095D02*
X65445295Y-124790476D01*
X65445295Y-124790476D02*
X65540533Y-124790476D01*
X65540533Y-124790476D02*
X65683390Y-124838095D01*
X65683390Y-124838095D02*
X66254819Y-125409523D01*
X66254819Y-125409523D02*
X66254819Y-124790476D01*
X66254819Y-123838095D02*
X66254819Y-124409523D01*
X66254819Y-124123809D02*
X65254819Y-124123809D01*
X65254819Y-124123809D02*
X65397676Y-124219047D01*
X65397676Y-124219047D02*
X65492914Y-124314285D01*
X65492914Y-124314285D02*
X65540533Y-124409523D01*
X31923333Y-57144819D02*
X31590000Y-56668628D01*
X31351905Y-57144819D02*
X31351905Y-56144819D01*
X31351905Y-56144819D02*
X31732857Y-56144819D01*
X31732857Y-56144819D02*
X31828095Y-56192438D01*
X31828095Y-56192438D02*
X31875714Y-56240057D01*
X31875714Y-56240057D02*
X31923333Y-56335295D01*
X31923333Y-56335295D02*
X31923333Y-56478152D01*
X31923333Y-56478152D02*
X31875714Y-56573390D01*
X31875714Y-56573390D02*
X31828095Y-56621009D01*
X31828095Y-56621009D02*
X31732857Y-56668628D01*
X31732857Y-56668628D02*
X31351905Y-56668628D01*
X32256667Y-56144819D02*
X32875714Y-56144819D01*
X32875714Y-56144819D02*
X32542381Y-56525771D01*
X32542381Y-56525771D02*
X32685238Y-56525771D01*
X32685238Y-56525771D02*
X32780476Y-56573390D01*
X32780476Y-56573390D02*
X32828095Y-56621009D01*
X32828095Y-56621009D02*
X32875714Y-56716247D01*
X32875714Y-56716247D02*
X32875714Y-56954342D01*
X32875714Y-56954342D02*
X32828095Y-57049580D01*
X32828095Y-57049580D02*
X32780476Y-57097200D01*
X32780476Y-57097200D02*
X32685238Y-57144819D01*
X32685238Y-57144819D02*
X32399524Y-57144819D01*
X32399524Y-57144819D02*
X32304286Y-57097200D01*
X32304286Y-57097200D02*
X32256667Y-57049580D01*
X68334819Y-112606666D02*
X67858628Y-112939999D01*
X68334819Y-113178094D02*
X67334819Y-113178094D01*
X67334819Y-113178094D02*
X67334819Y-112797142D01*
X67334819Y-112797142D02*
X67382438Y-112701904D01*
X67382438Y-112701904D02*
X67430057Y-112654285D01*
X67430057Y-112654285D02*
X67525295Y-112606666D01*
X67525295Y-112606666D02*
X67668152Y-112606666D01*
X67668152Y-112606666D02*
X67763390Y-112654285D01*
X67763390Y-112654285D02*
X67811009Y-112701904D01*
X67811009Y-112701904D02*
X67858628Y-112797142D01*
X67858628Y-112797142D02*
X67858628Y-113178094D01*
X67763390Y-112035237D02*
X67715771Y-112130475D01*
X67715771Y-112130475D02*
X67668152Y-112178094D01*
X67668152Y-112178094D02*
X67572914Y-112225713D01*
X67572914Y-112225713D02*
X67525295Y-112225713D01*
X67525295Y-112225713D02*
X67430057Y-112178094D01*
X67430057Y-112178094D02*
X67382438Y-112130475D01*
X67382438Y-112130475D02*
X67334819Y-112035237D01*
X67334819Y-112035237D02*
X67334819Y-111844761D01*
X67334819Y-111844761D02*
X67382438Y-111749523D01*
X67382438Y-111749523D02*
X67430057Y-111701904D01*
X67430057Y-111701904D02*
X67525295Y-111654285D01*
X67525295Y-111654285D02*
X67572914Y-111654285D01*
X67572914Y-111654285D02*
X67668152Y-111701904D01*
X67668152Y-111701904D02*
X67715771Y-111749523D01*
X67715771Y-111749523D02*
X67763390Y-111844761D01*
X67763390Y-111844761D02*
X67763390Y-112035237D01*
X67763390Y-112035237D02*
X67811009Y-112130475D01*
X67811009Y-112130475D02*
X67858628Y-112178094D01*
X67858628Y-112178094D02*
X67953866Y-112225713D01*
X67953866Y-112225713D02*
X68144342Y-112225713D01*
X68144342Y-112225713D02*
X68239580Y-112178094D01*
X68239580Y-112178094D02*
X68287200Y-112130475D01*
X68287200Y-112130475D02*
X68334819Y-112035237D01*
X68334819Y-112035237D02*
X68334819Y-111844761D01*
X68334819Y-111844761D02*
X68287200Y-111749523D01*
X68287200Y-111749523D02*
X68239580Y-111701904D01*
X68239580Y-111701904D02*
X68144342Y-111654285D01*
X68144342Y-111654285D02*
X67953866Y-111654285D01*
X67953866Y-111654285D02*
X67858628Y-111701904D01*
X67858628Y-111701904D02*
X67811009Y-111749523D01*
X67811009Y-111749523D02*
X67763390Y-111844761D01*
X37397142Y-127774819D02*
X37063809Y-127298628D01*
X36825714Y-127774819D02*
X36825714Y-126774819D01*
X36825714Y-126774819D02*
X37206666Y-126774819D01*
X37206666Y-126774819D02*
X37301904Y-126822438D01*
X37301904Y-126822438D02*
X37349523Y-126870057D01*
X37349523Y-126870057D02*
X37397142Y-126965295D01*
X37397142Y-126965295D02*
X37397142Y-127108152D01*
X37397142Y-127108152D02*
X37349523Y-127203390D01*
X37349523Y-127203390D02*
X37301904Y-127251009D01*
X37301904Y-127251009D02*
X37206666Y-127298628D01*
X37206666Y-127298628D02*
X36825714Y-127298628D01*
X38349523Y-127774819D02*
X37778095Y-127774819D01*
X38063809Y-127774819D02*
X38063809Y-126774819D01*
X38063809Y-126774819D02*
X37968571Y-126917676D01*
X37968571Y-126917676D02*
X37873333Y-127012914D01*
X37873333Y-127012914D02*
X37778095Y-127060533D01*
X39301904Y-127774819D02*
X38730476Y-127774819D01*
X39016190Y-127774819D02*
X39016190Y-126774819D01*
X39016190Y-126774819D02*
X38920952Y-126917676D01*
X38920952Y-126917676D02*
X38825714Y-127012914D01*
X38825714Y-127012914D02*
X38730476Y-127060533D01*
X65510580Y-114815857D02*
X65558200Y-114863476D01*
X65558200Y-114863476D02*
X65605819Y-115006333D01*
X65605819Y-115006333D02*
X65605819Y-115101571D01*
X65605819Y-115101571D02*
X65558200Y-115244428D01*
X65558200Y-115244428D02*
X65462961Y-115339666D01*
X65462961Y-115339666D02*
X65367723Y-115387285D01*
X65367723Y-115387285D02*
X65177247Y-115434904D01*
X65177247Y-115434904D02*
X65034390Y-115434904D01*
X65034390Y-115434904D02*
X64843914Y-115387285D01*
X64843914Y-115387285D02*
X64748676Y-115339666D01*
X64748676Y-115339666D02*
X64653438Y-115244428D01*
X64653438Y-115244428D02*
X64605819Y-115101571D01*
X64605819Y-115101571D02*
X64605819Y-115006333D01*
X64605819Y-115006333D02*
X64653438Y-114863476D01*
X64653438Y-114863476D02*
X64701057Y-114815857D01*
X65605819Y-113863476D02*
X65605819Y-114434904D01*
X65605819Y-114149190D02*
X64605819Y-114149190D01*
X64605819Y-114149190D02*
X64748676Y-114244428D01*
X64748676Y-114244428D02*
X64843914Y-114339666D01*
X64843914Y-114339666D02*
X64891533Y-114434904D01*
X65034390Y-113292047D02*
X64986771Y-113387285D01*
X64986771Y-113387285D02*
X64939152Y-113434904D01*
X64939152Y-113434904D02*
X64843914Y-113482523D01*
X64843914Y-113482523D02*
X64796295Y-113482523D01*
X64796295Y-113482523D02*
X64701057Y-113434904D01*
X64701057Y-113434904D02*
X64653438Y-113387285D01*
X64653438Y-113387285D02*
X64605819Y-113292047D01*
X64605819Y-113292047D02*
X64605819Y-113101571D01*
X64605819Y-113101571D02*
X64653438Y-113006333D01*
X64653438Y-113006333D02*
X64701057Y-112958714D01*
X64701057Y-112958714D02*
X64796295Y-112911095D01*
X64796295Y-112911095D02*
X64843914Y-112911095D01*
X64843914Y-112911095D02*
X64939152Y-112958714D01*
X64939152Y-112958714D02*
X64986771Y-113006333D01*
X64986771Y-113006333D02*
X65034390Y-113101571D01*
X65034390Y-113101571D02*
X65034390Y-113292047D01*
X65034390Y-113292047D02*
X65082009Y-113387285D01*
X65082009Y-113387285D02*
X65129628Y-113434904D01*
X65129628Y-113434904D02*
X65224866Y-113482523D01*
X65224866Y-113482523D02*
X65415342Y-113482523D01*
X65415342Y-113482523D02*
X65510580Y-113434904D01*
X65510580Y-113434904D02*
X65558200Y-113387285D01*
X65558200Y-113387285D02*
X65605819Y-113292047D01*
X65605819Y-113292047D02*
X65605819Y-113101571D01*
X65605819Y-113101571D02*
X65558200Y-113006333D01*
X65558200Y-113006333D02*
X65510580Y-112958714D01*
X65510580Y-112958714D02*
X65415342Y-112911095D01*
X65415342Y-112911095D02*
X65224866Y-112911095D01*
X65224866Y-112911095D02*
X65129628Y-112958714D01*
X65129628Y-112958714D02*
X65082009Y-113006333D01*
X65082009Y-113006333D02*
X65034390Y-113101571D01*
X92057142Y-56299580D02*
X92009523Y-56347200D01*
X92009523Y-56347200D02*
X91866666Y-56394819D01*
X91866666Y-56394819D02*
X91771428Y-56394819D01*
X91771428Y-56394819D02*
X91628571Y-56347200D01*
X91628571Y-56347200D02*
X91533333Y-56251961D01*
X91533333Y-56251961D02*
X91485714Y-56156723D01*
X91485714Y-56156723D02*
X91438095Y-55966247D01*
X91438095Y-55966247D02*
X91438095Y-55823390D01*
X91438095Y-55823390D02*
X91485714Y-55632914D01*
X91485714Y-55632914D02*
X91533333Y-55537676D01*
X91533333Y-55537676D02*
X91628571Y-55442438D01*
X91628571Y-55442438D02*
X91771428Y-55394819D01*
X91771428Y-55394819D02*
X91866666Y-55394819D01*
X91866666Y-55394819D02*
X92009523Y-55442438D01*
X92009523Y-55442438D02*
X92057142Y-55490057D01*
X93009523Y-56394819D02*
X92438095Y-56394819D01*
X92723809Y-56394819D02*
X92723809Y-55394819D01*
X92723809Y-55394819D02*
X92628571Y-55537676D01*
X92628571Y-55537676D02*
X92533333Y-55632914D01*
X92533333Y-55632914D02*
X92438095Y-55680533D01*
X93390476Y-55490057D02*
X93438095Y-55442438D01*
X93438095Y-55442438D02*
X93533333Y-55394819D01*
X93533333Y-55394819D02*
X93771428Y-55394819D01*
X93771428Y-55394819D02*
X93866666Y-55442438D01*
X93866666Y-55442438D02*
X93914285Y-55490057D01*
X93914285Y-55490057D02*
X93961904Y-55585295D01*
X93961904Y-55585295D02*
X93961904Y-55680533D01*
X93961904Y-55680533D02*
X93914285Y-55823390D01*
X93914285Y-55823390D02*
X93342857Y-56394819D01*
X93342857Y-56394819D02*
X93961904Y-56394819D01*
X112857142Y-45759580D02*
X112809523Y-45807200D01*
X112809523Y-45807200D02*
X112666666Y-45854819D01*
X112666666Y-45854819D02*
X112571428Y-45854819D01*
X112571428Y-45854819D02*
X112428571Y-45807200D01*
X112428571Y-45807200D02*
X112333333Y-45711961D01*
X112333333Y-45711961D02*
X112285714Y-45616723D01*
X112285714Y-45616723D02*
X112238095Y-45426247D01*
X112238095Y-45426247D02*
X112238095Y-45283390D01*
X112238095Y-45283390D02*
X112285714Y-45092914D01*
X112285714Y-45092914D02*
X112333333Y-44997676D01*
X112333333Y-44997676D02*
X112428571Y-44902438D01*
X112428571Y-44902438D02*
X112571428Y-44854819D01*
X112571428Y-44854819D02*
X112666666Y-44854819D01*
X112666666Y-44854819D02*
X112809523Y-44902438D01*
X112809523Y-44902438D02*
X112857142Y-44950057D01*
X113714285Y-45188152D02*
X113714285Y-45854819D01*
X113476190Y-44807200D02*
X113238095Y-45521485D01*
X113238095Y-45521485D02*
X113857142Y-45521485D01*
X114761904Y-45854819D02*
X114190476Y-45854819D01*
X114476190Y-45854819D02*
X114476190Y-44854819D01*
X114476190Y-44854819D02*
X114380952Y-44997676D01*
X114380952Y-44997676D02*
X114285714Y-45092914D01*
X114285714Y-45092914D02*
X114190476Y-45140533D01*
X110499580Y-67652857D02*
X110547200Y-67700476D01*
X110547200Y-67700476D02*
X110594819Y-67843333D01*
X110594819Y-67843333D02*
X110594819Y-67938571D01*
X110594819Y-67938571D02*
X110547200Y-68081428D01*
X110547200Y-68081428D02*
X110451961Y-68176666D01*
X110451961Y-68176666D02*
X110356723Y-68224285D01*
X110356723Y-68224285D02*
X110166247Y-68271904D01*
X110166247Y-68271904D02*
X110023390Y-68271904D01*
X110023390Y-68271904D02*
X109832914Y-68224285D01*
X109832914Y-68224285D02*
X109737676Y-68176666D01*
X109737676Y-68176666D02*
X109642438Y-68081428D01*
X109642438Y-68081428D02*
X109594819Y-67938571D01*
X109594819Y-67938571D02*
X109594819Y-67843333D01*
X109594819Y-67843333D02*
X109642438Y-67700476D01*
X109642438Y-67700476D02*
X109690057Y-67652857D01*
X109928152Y-66795714D02*
X110594819Y-66795714D01*
X109547200Y-67033809D02*
X110261485Y-67271904D01*
X110261485Y-67271904D02*
X110261485Y-66652857D01*
X109928152Y-65843333D02*
X110594819Y-65843333D01*
X109547200Y-66081428D02*
X110261485Y-66319523D01*
X110261485Y-66319523D02*
X110261485Y-65700476D01*
X78914666Y-124803819D02*
X78914666Y-125518104D01*
X78914666Y-125518104D02*
X78867047Y-125660961D01*
X78867047Y-125660961D02*
X78771809Y-125756200D01*
X78771809Y-125756200D02*
X78628952Y-125803819D01*
X78628952Y-125803819D02*
X78533714Y-125803819D01*
X79343238Y-124899057D02*
X79390857Y-124851438D01*
X79390857Y-124851438D02*
X79486095Y-124803819D01*
X79486095Y-124803819D02*
X79724190Y-124803819D01*
X79724190Y-124803819D02*
X79819428Y-124851438D01*
X79819428Y-124851438D02*
X79867047Y-124899057D01*
X79867047Y-124899057D02*
X79914666Y-124994295D01*
X79914666Y-124994295D02*
X79914666Y-125089533D01*
X79914666Y-125089533D02*
X79867047Y-125232390D01*
X79867047Y-125232390D02*
X79295619Y-125803819D01*
X79295619Y-125803819D02*
X79914666Y-125803819D01*
X41688095Y-105954819D02*
X42259523Y-105954819D01*
X41973809Y-106954819D02*
X41973809Y-105954819D01*
X42592857Y-106954819D02*
X42592857Y-105954819D01*
X42592857Y-105954819D02*
X42973809Y-105954819D01*
X42973809Y-105954819D02*
X43069047Y-106002438D01*
X43069047Y-106002438D02*
X43116666Y-106050057D01*
X43116666Y-106050057D02*
X43164285Y-106145295D01*
X43164285Y-106145295D02*
X43164285Y-106288152D01*
X43164285Y-106288152D02*
X43116666Y-106383390D01*
X43116666Y-106383390D02*
X43069047Y-106431009D01*
X43069047Y-106431009D02*
X42973809Y-106478628D01*
X42973809Y-106478628D02*
X42592857Y-106478628D01*
X44069047Y-105954819D02*
X43592857Y-105954819D01*
X43592857Y-105954819D02*
X43545238Y-106431009D01*
X43545238Y-106431009D02*
X43592857Y-106383390D01*
X43592857Y-106383390D02*
X43688095Y-106335771D01*
X43688095Y-106335771D02*
X43926190Y-106335771D01*
X43926190Y-106335771D02*
X44021428Y-106383390D01*
X44021428Y-106383390D02*
X44069047Y-106431009D01*
X44069047Y-106431009D02*
X44116666Y-106526247D01*
X44116666Y-106526247D02*
X44116666Y-106764342D01*
X44116666Y-106764342D02*
X44069047Y-106859580D01*
X44069047Y-106859580D02*
X44021428Y-106907200D01*
X44021428Y-106907200D02*
X43926190Y-106954819D01*
X43926190Y-106954819D02*
X43688095Y-106954819D01*
X43688095Y-106954819D02*
X43592857Y-106907200D01*
X43592857Y-106907200D02*
X43545238Y-106859580D01*
X69672845Y-103738569D02*
X69672845Y-104548092D01*
X69672845Y-104548092D02*
X69720464Y-104643330D01*
X69720464Y-104643330D02*
X69768083Y-104690950D01*
X69768083Y-104690950D02*
X69863321Y-104738569D01*
X69863321Y-104738569D02*
X70053797Y-104738569D01*
X70053797Y-104738569D02*
X70149035Y-104690950D01*
X70149035Y-104690950D02*
X70196654Y-104643330D01*
X70196654Y-104643330D02*
X70244273Y-104548092D01*
X70244273Y-104548092D02*
X70244273Y-103738569D01*
X71149035Y-104071902D02*
X71149035Y-104738569D01*
X70910940Y-103690950D02*
X70672845Y-104405235D01*
X70672845Y-104405235D02*
X71291892Y-104405235D01*
X104437142Y-35329580D02*
X104389523Y-35377200D01*
X104389523Y-35377200D02*
X104246666Y-35424819D01*
X104246666Y-35424819D02*
X104151428Y-35424819D01*
X104151428Y-35424819D02*
X104008571Y-35377200D01*
X104008571Y-35377200D02*
X103913333Y-35281961D01*
X103913333Y-35281961D02*
X103865714Y-35186723D01*
X103865714Y-35186723D02*
X103818095Y-34996247D01*
X103818095Y-34996247D02*
X103818095Y-34853390D01*
X103818095Y-34853390D02*
X103865714Y-34662914D01*
X103865714Y-34662914D02*
X103913333Y-34567676D01*
X103913333Y-34567676D02*
X104008571Y-34472438D01*
X104008571Y-34472438D02*
X104151428Y-34424819D01*
X104151428Y-34424819D02*
X104246666Y-34424819D01*
X104246666Y-34424819D02*
X104389523Y-34472438D01*
X104389523Y-34472438D02*
X104437142Y-34520057D01*
X105389523Y-35424819D02*
X104818095Y-35424819D01*
X105103809Y-35424819D02*
X105103809Y-34424819D01*
X105103809Y-34424819D02*
X105008571Y-34567676D01*
X105008571Y-34567676D02*
X104913333Y-34662914D01*
X104913333Y-34662914D02*
X104818095Y-34710533D01*
X106246666Y-34758152D02*
X106246666Y-35424819D01*
X106008571Y-34377200D02*
X105770476Y-35091485D01*
X105770476Y-35091485D02*
X106389523Y-35091485D01*
X45733333Y-70564819D02*
X45400000Y-70088628D01*
X45161905Y-70564819D02*
X45161905Y-69564819D01*
X45161905Y-69564819D02*
X45542857Y-69564819D01*
X45542857Y-69564819D02*
X45638095Y-69612438D01*
X45638095Y-69612438D02*
X45685714Y-69660057D01*
X45685714Y-69660057D02*
X45733333Y-69755295D01*
X45733333Y-69755295D02*
X45733333Y-69898152D01*
X45733333Y-69898152D02*
X45685714Y-69993390D01*
X45685714Y-69993390D02*
X45638095Y-70041009D01*
X45638095Y-70041009D02*
X45542857Y-70088628D01*
X45542857Y-70088628D02*
X45161905Y-70088628D01*
X46114286Y-69660057D02*
X46161905Y-69612438D01*
X46161905Y-69612438D02*
X46257143Y-69564819D01*
X46257143Y-69564819D02*
X46495238Y-69564819D01*
X46495238Y-69564819D02*
X46590476Y-69612438D01*
X46590476Y-69612438D02*
X46638095Y-69660057D01*
X46638095Y-69660057D02*
X46685714Y-69755295D01*
X46685714Y-69755295D02*
X46685714Y-69850533D01*
X46685714Y-69850533D02*
X46638095Y-69993390D01*
X46638095Y-69993390D02*
X46066667Y-70564819D01*
X46066667Y-70564819D02*
X46685714Y-70564819D01*
X56918095Y-126284819D02*
X56918095Y-127094342D01*
X56918095Y-127094342D02*
X56965714Y-127189580D01*
X56965714Y-127189580D02*
X57013333Y-127237200D01*
X57013333Y-127237200D02*
X57108571Y-127284819D01*
X57108571Y-127284819D02*
X57299047Y-127284819D01*
X57299047Y-127284819D02*
X57394285Y-127237200D01*
X57394285Y-127237200D02*
X57441904Y-127189580D01*
X57441904Y-127189580D02*
X57489523Y-127094342D01*
X57489523Y-127094342D02*
X57489523Y-126284819D01*
X57870476Y-126284819D02*
X58489523Y-126284819D01*
X58489523Y-126284819D02*
X58156190Y-126665771D01*
X58156190Y-126665771D02*
X58299047Y-126665771D01*
X58299047Y-126665771D02*
X58394285Y-126713390D01*
X58394285Y-126713390D02*
X58441904Y-126761009D01*
X58441904Y-126761009D02*
X58489523Y-126856247D01*
X58489523Y-126856247D02*
X58489523Y-127094342D01*
X58489523Y-127094342D02*
X58441904Y-127189580D01*
X58441904Y-127189580D02*
X58394285Y-127237200D01*
X58394285Y-127237200D02*
X58299047Y-127284819D01*
X58299047Y-127284819D02*
X58013333Y-127284819D01*
X58013333Y-127284819D02*
X57918095Y-127237200D01*
X57918095Y-127237200D02*
X57870476Y-127189580D01*
X93892580Y-82655666D02*
X93940200Y-82703285D01*
X93940200Y-82703285D02*
X93987819Y-82846142D01*
X93987819Y-82846142D02*
X93987819Y-82941380D01*
X93987819Y-82941380D02*
X93940200Y-83084237D01*
X93940200Y-83084237D02*
X93844961Y-83179475D01*
X93844961Y-83179475D02*
X93749723Y-83227094D01*
X93749723Y-83227094D02*
X93559247Y-83274713D01*
X93559247Y-83274713D02*
X93416390Y-83274713D01*
X93416390Y-83274713D02*
X93225914Y-83227094D01*
X93225914Y-83227094D02*
X93130676Y-83179475D01*
X93130676Y-83179475D02*
X93035438Y-83084237D01*
X93035438Y-83084237D02*
X92987819Y-82941380D01*
X92987819Y-82941380D02*
X92987819Y-82846142D01*
X92987819Y-82846142D02*
X93035438Y-82703285D01*
X93035438Y-82703285D02*
X93083057Y-82655666D01*
X93416390Y-82084237D02*
X93368771Y-82179475D01*
X93368771Y-82179475D02*
X93321152Y-82227094D01*
X93321152Y-82227094D02*
X93225914Y-82274713D01*
X93225914Y-82274713D02*
X93178295Y-82274713D01*
X93178295Y-82274713D02*
X93083057Y-82227094D01*
X93083057Y-82227094D02*
X93035438Y-82179475D01*
X93035438Y-82179475D02*
X92987819Y-82084237D01*
X92987819Y-82084237D02*
X92987819Y-81893761D01*
X92987819Y-81893761D02*
X93035438Y-81798523D01*
X93035438Y-81798523D02*
X93083057Y-81750904D01*
X93083057Y-81750904D02*
X93178295Y-81703285D01*
X93178295Y-81703285D02*
X93225914Y-81703285D01*
X93225914Y-81703285D02*
X93321152Y-81750904D01*
X93321152Y-81750904D02*
X93368771Y-81798523D01*
X93368771Y-81798523D02*
X93416390Y-81893761D01*
X93416390Y-81893761D02*
X93416390Y-82084237D01*
X93416390Y-82084237D02*
X93464009Y-82179475D01*
X93464009Y-82179475D02*
X93511628Y-82227094D01*
X93511628Y-82227094D02*
X93606866Y-82274713D01*
X93606866Y-82274713D02*
X93797342Y-82274713D01*
X93797342Y-82274713D02*
X93892580Y-82227094D01*
X93892580Y-82227094D02*
X93940200Y-82179475D01*
X93940200Y-82179475D02*
X93987819Y-82084237D01*
X93987819Y-82084237D02*
X93987819Y-81893761D01*
X93987819Y-81893761D02*
X93940200Y-81798523D01*
X93940200Y-81798523D02*
X93892580Y-81750904D01*
X93892580Y-81750904D02*
X93797342Y-81703285D01*
X93797342Y-81703285D02*
X93606866Y-81703285D01*
X93606866Y-81703285D02*
X93511628Y-81750904D01*
X93511628Y-81750904D02*
X93464009Y-81798523D01*
X93464009Y-81798523D02*
X93416390Y-81893761D01*
X99349819Y-83946904D02*
X100159342Y-83946904D01*
X100159342Y-83946904D02*
X100254580Y-83899285D01*
X100254580Y-83899285D02*
X100302200Y-83851666D01*
X100302200Y-83851666D02*
X100349819Y-83756428D01*
X100349819Y-83756428D02*
X100349819Y-83565952D01*
X100349819Y-83565952D02*
X100302200Y-83470714D01*
X100302200Y-83470714D02*
X100254580Y-83423095D01*
X100254580Y-83423095D02*
X100159342Y-83375476D01*
X100159342Y-83375476D02*
X99349819Y-83375476D01*
X99349819Y-82423095D02*
X99349819Y-82899285D01*
X99349819Y-82899285D02*
X99826009Y-82946904D01*
X99826009Y-82946904D02*
X99778390Y-82899285D01*
X99778390Y-82899285D02*
X99730771Y-82804047D01*
X99730771Y-82804047D02*
X99730771Y-82565952D01*
X99730771Y-82565952D02*
X99778390Y-82470714D01*
X99778390Y-82470714D02*
X99826009Y-82423095D01*
X99826009Y-82423095D02*
X99921247Y-82375476D01*
X99921247Y-82375476D02*
X100159342Y-82375476D01*
X100159342Y-82375476D02*
X100254580Y-82423095D01*
X100254580Y-82423095D02*
X100302200Y-82470714D01*
X100302200Y-82470714D02*
X100349819Y-82565952D01*
X100349819Y-82565952D02*
X100349819Y-82804047D01*
X100349819Y-82804047D02*
X100302200Y-82899285D01*
X100302200Y-82899285D02*
X100254580Y-82946904D01*
X108624580Y-97950857D02*
X108672200Y-97998476D01*
X108672200Y-97998476D02*
X108719819Y-98141333D01*
X108719819Y-98141333D02*
X108719819Y-98236571D01*
X108719819Y-98236571D02*
X108672200Y-98379428D01*
X108672200Y-98379428D02*
X108576961Y-98474666D01*
X108576961Y-98474666D02*
X108481723Y-98522285D01*
X108481723Y-98522285D02*
X108291247Y-98569904D01*
X108291247Y-98569904D02*
X108148390Y-98569904D01*
X108148390Y-98569904D02*
X107957914Y-98522285D01*
X107957914Y-98522285D02*
X107862676Y-98474666D01*
X107862676Y-98474666D02*
X107767438Y-98379428D01*
X107767438Y-98379428D02*
X107719819Y-98236571D01*
X107719819Y-98236571D02*
X107719819Y-98141333D01*
X107719819Y-98141333D02*
X107767438Y-97998476D01*
X107767438Y-97998476D02*
X107815057Y-97950857D01*
X107719819Y-97617523D02*
X107719819Y-96998476D01*
X107719819Y-96998476D02*
X108100771Y-97331809D01*
X108100771Y-97331809D02*
X108100771Y-97188952D01*
X108100771Y-97188952D02*
X108148390Y-97093714D01*
X108148390Y-97093714D02*
X108196009Y-97046095D01*
X108196009Y-97046095D02*
X108291247Y-96998476D01*
X108291247Y-96998476D02*
X108529342Y-96998476D01*
X108529342Y-96998476D02*
X108624580Y-97046095D01*
X108624580Y-97046095D02*
X108672200Y-97093714D01*
X108672200Y-97093714D02*
X108719819Y-97188952D01*
X108719819Y-97188952D02*
X108719819Y-97474666D01*
X108719819Y-97474666D02*
X108672200Y-97569904D01*
X108672200Y-97569904D02*
X108624580Y-97617523D01*
X107719819Y-96665142D02*
X107719819Y-95998476D01*
X107719819Y-95998476D02*
X108719819Y-96427047D01*
X45006666Y-118524819D02*
X45006666Y-119239104D01*
X45006666Y-119239104D02*
X44959047Y-119381961D01*
X44959047Y-119381961D02*
X44863809Y-119477200D01*
X44863809Y-119477200D02*
X44720952Y-119524819D01*
X44720952Y-119524819D02*
X44625714Y-119524819D01*
X45482857Y-119524819D02*
X45482857Y-118524819D01*
X45482857Y-118524819D02*
X45863809Y-118524819D01*
X45863809Y-118524819D02*
X45959047Y-118572438D01*
X45959047Y-118572438D02*
X46006666Y-118620057D01*
X46006666Y-118620057D02*
X46054285Y-118715295D01*
X46054285Y-118715295D02*
X46054285Y-118858152D01*
X46054285Y-118858152D02*
X46006666Y-118953390D01*
X46006666Y-118953390D02*
X45959047Y-119001009D01*
X45959047Y-119001009D02*
X45863809Y-119048628D01*
X45863809Y-119048628D02*
X45482857Y-119048628D01*
X47006666Y-119524819D02*
X46435238Y-119524819D01*
X46720952Y-119524819D02*
X46720952Y-118524819D01*
X46720952Y-118524819D02*
X46625714Y-118667676D01*
X46625714Y-118667676D02*
X46530476Y-118762914D01*
X46530476Y-118762914D02*
X46435238Y-118810533D01*
X49747333Y-76984819D02*
X49414000Y-76508628D01*
X49175905Y-76984819D02*
X49175905Y-75984819D01*
X49175905Y-75984819D02*
X49556857Y-75984819D01*
X49556857Y-75984819D02*
X49652095Y-76032438D01*
X49652095Y-76032438D02*
X49699714Y-76080057D01*
X49699714Y-76080057D02*
X49747333Y-76175295D01*
X49747333Y-76175295D02*
X49747333Y-76318152D01*
X49747333Y-76318152D02*
X49699714Y-76413390D01*
X49699714Y-76413390D02*
X49652095Y-76461009D01*
X49652095Y-76461009D02*
X49556857Y-76508628D01*
X49556857Y-76508628D02*
X49175905Y-76508628D01*
X50699714Y-76984819D02*
X50128286Y-76984819D01*
X50414000Y-76984819D02*
X50414000Y-75984819D01*
X50414000Y-75984819D02*
X50318762Y-76127676D01*
X50318762Y-76127676D02*
X50223524Y-76222914D01*
X50223524Y-76222914D02*
X50128286Y-76270533D01*
X100327142Y-70609580D02*
X100279523Y-70657200D01*
X100279523Y-70657200D02*
X100136666Y-70704819D01*
X100136666Y-70704819D02*
X100041428Y-70704819D01*
X100041428Y-70704819D02*
X99898571Y-70657200D01*
X99898571Y-70657200D02*
X99803333Y-70561961D01*
X99803333Y-70561961D02*
X99755714Y-70466723D01*
X99755714Y-70466723D02*
X99708095Y-70276247D01*
X99708095Y-70276247D02*
X99708095Y-70133390D01*
X99708095Y-70133390D02*
X99755714Y-69942914D01*
X99755714Y-69942914D02*
X99803333Y-69847676D01*
X99803333Y-69847676D02*
X99898571Y-69752438D01*
X99898571Y-69752438D02*
X100041428Y-69704819D01*
X100041428Y-69704819D02*
X100136666Y-69704819D01*
X100136666Y-69704819D02*
X100279523Y-69752438D01*
X100279523Y-69752438D02*
X100327142Y-69800057D01*
X101184285Y-70038152D02*
X101184285Y-70704819D01*
X100946190Y-69657200D02*
X100708095Y-70371485D01*
X100708095Y-70371485D02*
X101327142Y-70371485D01*
X101660476Y-69800057D02*
X101708095Y-69752438D01*
X101708095Y-69752438D02*
X101803333Y-69704819D01*
X101803333Y-69704819D02*
X102041428Y-69704819D01*
X102041428Y-69704819D02*
X102136666Y-69752438D01*
X102136666Y-69752438D02*
X102184285Y-69800057D01*
X102184285Y-69800057D02*
X102231904Y-69895295D01*
X102231904Y-69895295D02*
X102231904Y-69990533D01*
X102231904Y-69990533D02*
X102184285Y-70133390D01*
X102184285Y-70133390D02*
X101612857Y-70704819D01*
X101612857Y-70704819D02*
X102231904Y-70704819D01*
X93729809Y-42032628D02*
X93729809Y-42508819D01*
X93396476Y-41508819D02*
X93729809Y-42032628D01*
X93729809Y-42032628D02*
X94063142Y-41508819D01*
X94348857Y-41604057D02*
X94396476Y-41556438D01*
X94396476Y-41556438D02*
X94491714Y-41508819D01*
X94491714Y-41508819D02*
X94729809Y-41508819D01*
X94729809Y-41508819D02*
X94825047Y-41556438D01*
X94825047Y-41556438D02*
X94872666Y-41604057D01*
X94872666Y-41604057D02*
X94920285Y-41699295D01*
X94920285Y-41699295D02*
X94920285Y-41794533D01*
X94920285Y-41794533D02*
X94872666Y-41937390D01*
X94872666Y-41937390D02*
X94301238Y-42508819D01*
X94301238Y-42508819D02*
X94920285Y-42508819D01*
X59407142Y-46339580D02*
X59359523Y-46387200D01*
X59359523Y-46387200D02*
X59216666Y-46434819D01*
X59216666Y-46434819D02*
X59121428Y-46434819D01*
X59121428Y-46434819D02*
X58978571Y-46387200D01*
X58978571Y-46387200D02*
X58883333Y-46291961D01*
X58883333Y-46291961D02*
X58835714Y-46196723D01*
X58835714Y-46196723D02*
X58788095Y-46006247D01*
X58788095Y-46006247D02*
X58788095Y-45863390D01*
X58788095Y-45863390D02*
X58835714Y-45672914D01*
X58835714Y-45672914D02*
X58883333Y-45577676D01*
X58883333Y-45577676D02*
X58978571Y-45482438D01*
X58978571Y-45482438D02*
X59121428Y-45434819D01*
X59121428Y-45434819D02*
X59216666Y-45434819D01*
X59216666Y-45434819D02*
X59359523Y-45482438D01*
X59359523Y-45482438D02*
X59407142Y-45530057D01*
X59740476Y-45434819D02*
X60359523Y-45434819D01*
X60359523Y-45434819D02*
X60026190Y-45815771D01*
X60026190Y-45815771D02*
X60169047Y-45815771D01*
X60169047Y-45815771D02*
X60264285Y-45863390D01*
X60264285Y-45863390D02*
X60311904Y-45911009D01*
X60311904Y-45911009D02*
X60359523Y-46006247D01*
X60359523Y-46006247D02*
X60359523Y-46244342D01*
X60359523Y-46244342D02*
X60311904Y-46339580D01*
X60311904Y-46339580D02*
X60264285Y-46387200D01*
X60264285Y-46387200D02*
X60169047Y-46434819D01*
X60169047Y-46434819D02*
X59883333Y-46434819D01*
X59883333Y-46434819D02*
X59788095Y-46387200D01*
X59788095Y-46387200D02*
X59740476Y-46339580D01*
X60978571Y-45434819D02*
X61073809Y-45434819D01*
X61073809Y-45434819D02*
X61169047Y-45482438D01*
X61169047Y-45482438D02*
X61216666Y-45530057D01*
X61216666Y-45530057D02*
X61264285Y-45625295D01*
X61264285Y-45625295D02*
X61311904Y-45815771D01*
X61311904Y-45815771D02*
X61311904Y-46053866D01*
X61311904Y-46053866D02*
X61264285Y-46244342D01*
X61264285Y-46244342D02*
X61216666Y-46339580D01*
X61216666Y-46339580D02*
X61169047Y-46387200D01*
X61169047Y-46387200D02*
X61073809Y-46434819D01*
X61073809Y-46434819D02*
X60978571Y-46434819D01*
X60978571Y-46434819D02*
X60883333Y-46387200D01*
X60883333Y-46387200D02*
X60835714Y-46339580D01*
X60835714Y-46339580D02*
X60788095Y-46244342D01*
X60788095Y-46244342D02*
X60740476Y-46053866D01*
X60740476Y-46053866D02*
X60740476Y-45815771D01*
X60740476Y-45815771D02*
X60788095Y-45625295D01*
X60788095Y-45625295D02*
X60835714Y-45530057D01*
X60835714Y-45530057D02*
X60883333Y-45482438D01*
X60883333Y-45482438D02*
X60978571Y-45434819D01*
X36203809Y-71478628D02*
X36203809Y-71954819D01*
X35870476Y-70954819D02*
X36203809Y-71478628D01*
X36203809Y-71478628D02*
X36537142Y-70954819D01*
X37394285Y-71954819D02*
X36822857Y-71954819D01*
X37108571Y-71954819D02*
X37108571Y-70954819D01*
X37108571Y-70954819D02*
X37013333Y-71097676D01*
X37013333Y-71097676D02*
X36918095Y-71192914D01*
X36918095Y-71192914D02*
X36822857Y-71240533D01*
X98867142Y-35269580D02*
X98819523Y-35317200D01*
X98819523Y-35317200D02*
X98676666Y-35364819D01*
X98676666Y-35364819D02*
X98581428Y-35364819D01*
X98581428Y-35364819D02*
X98438571Y-35317200D01*
X98438571Y-35317200D02*
X98343333Y-35221961D01*
X98343333Y-35221961D02*
X98295714Y-35126723D01*
X98295714Y-35126723D02*
X98248095Y-34936247D01*
X98248095Y-34936247D02*
X98248095Y-34793390D01*
X98248095Y-34793390D02*
X98295714Y-34602914D01*
X98295714Y-34602914D02*
X98343333Y-34507676D01*
X98343333Y-34507676D02*
X98438571Y-34412438D01*
X98438571Y-34412438D02*
X98581428Y-34364819D01*
X98581428Y-34364819D02*
X98676666Y-34364819D01*
X98676666Y-34364819D02*
X98819523Y-34412438D01*
X98819523Y-34412438D02*
X98867142Y-34460057D01*
X99819523Y-35364819D02*
X99248095Y-35364819D01*
X99533809Y-35364819D02*
X99533809Y-34364819D01*
X99533809Y-34364819D02*
X99438571Y-34507676D01*
X99438571Y-34507676D02*
X99343333Y-34602914D01*
X99343333Y-34602914D02*
X99248095Y-34650533D01*
X100152857Y-34364819D02*
X100771904Y-34364819D01*
X100771904Y-34364819D02*
X100438571Y-34745771D01*
X100438571Y-34745771D02*
X100581428Y-34745771D01*
X100581428Y-34745771D02*
X100676666Y-34793390D01*
X100676666Y-34793390D02*
X100724285Y-34841009D01*
X100724285Y-34841009D02*
X100771904Y-34936247D01*
X100771904Y-34936247D02*
X100771904Y-35174342D01*
X100771904Y-35174342D02*
X100724285Y-35269580D01*
X100724285Y-35269580D02*
X100676666Y-35317200D01*
X100676666Y-35317200D02*
X100581428Y-35364819D01*
X100581428Y-35364819D02*
X100295714Y-35364819D01*
X100295714Y-35364819D02*
X100200476Y-35317200D01*
X100200476Y-35317200D02*
X100152857Y-35269580D01*
X88357142Y-44059580D02*
X88309523Y-44107200D01*
X88309523Y-44107200D02*
X88166666Y-44154819D01*
X88166666Y-44154819D02*
X88071428Y-44154819D01*
X88071428Y-44154819D02*
X87928571Y-44107200D01*
X87928571Y-44107200D02*
X87833333Y-44011961D01*
X87833333Y-44011961D02*
X87785714Y-43916723D01*
X87785714Y-43916723D02*
X87738095Y-43726247D01*
X87738095Y-43726247D02*
X87738095Y-43583390D01*
X87738095Y-43583390D02*
X87785714Y-43392914D01*
X87785714Y-43392914D02*
X87833333Y-43297676D01*
X87833333Y-43297676D02*
X87928571Y-43202438D01*
X87928571Y-43202438D02*
X88071428Y-43154819D01*
X88071428Y-43154819D02*
X88166666Y-43154819D01*
X88166666Y-43154819D02*
X88309523Y-43202438D01*
X88309523Y-43202438D02*
X88357142Y-43250057D01*
X88738095Y-43250057D02*
X88785714Y-43202438D01*
X88785714Y-43202438D02*
X88880952Y-43154819D01*
X88880952Y-43154819D02*
X89119047Y-43154819D01*
X89119047Y-43154819D02*
X89214285Y-43202438D01*
X89214285Y-43202438D02*
X89261904Y-43250057D01*
X89261904Y-43250057D02*
X89309523Y-43345295D01*
X89309523Y-43345295D02*
X89309523Y-43440533D01*
X89309523Y-43440533D02*
X89261904Y-43583390D01*
X89261904Y-43583390D02*
X88690476Y-44154819D01*
X88690476Y-44154819D02*
X89309523Y-44154819D01*
X89642857Y-43154819D02*
X90261904Y-43154819D01*
X90261904Y-43154819D02*
X89928571Y-43535771D01*
X89928571Y-43535771D02*
X90071428Y-43535771D01*
X90071428Y-43535771D02*
X90166666Y-43583390D01*
X90166666Y-43583390D02*
X90214285Y-43631009D01*
X90214285Y-43631009D02*
X90261904Y-43726247D01*
X90261904Y-43726247D02*
X90261904Y-43964342D01*
X90261904Y-43964342D02*
X90214285Y-44059580D01*
X90214285Y-44059580D02*
X90166666Y-44107200D01*
X90166666Y-44107200D02*
X90071428Y-44154819D01*
X90071428Y-44154819D02*
X89785714Y-44154819D01*
X89785714Y-44154819D02*
X89690476Y-44107200D01*
X89690476Y-44107200D02*
X89642857Y-44059580D01*
X73094819Y-114856666D02*
X72618628Y-115189999D01*
X73094819Y-115428094D02*
X72094819Y-115428094D01*
X72094819Y-115428094D02*
X72094819Y-115047142D01*
X72094819Y-115047142D02*
X72142438Y-114951904D01*
X72142438Y-114951904D02*
X72190057Y-114904285D01*
X72190057Y-114904285D02*
X72285295Y-114856666D01*
X72285295Y-114856666D02*
X72428152Y-114856666D01*
X72428152Y-114856666D02*
X72523390Y-114904285D01*
X72523390Y-114904285D02*
X72571009Y-114951904D01*
X72571009Y-114951904D02*
X72618628Y-115047142D01*
X72618628Y-115047142D02*
X72618628Y-115428094D01*
X72094819Y-114523332D02*
X72094819Y-113856666D01*
X72094819Y-113856666D02*
X73094819Y-114285237D01*
X61488126Y-51242734D02*
X61488126Y-51890672D01*
X61488126Y-51890672D02*
X61526240Y-51966900D01*
X61526240Y-51966900D02*
X61564354Y-52005014D01*
X61564354Y-52005014D02*
X61640582Y-52043128D01*
X61640582Y-52043128D02*
X61793038Y-52043128D01*
X61793038Y-52043128D02*
X61869266Y-52005014D01*
X61869266Y-52005014D02*
X61907380Y-51966900D01*
X61907380Y-51966900D02*
X61945494Y-51890672D01*
X61945494Y-51890672D02*
X61945494Y-51242734D01*
X62745888Y-52043128D02*
X62288520Y-52043128D01*
X62517204Y-52043128D02*
X62517204Y-51242734D01*
X62517204Y-51242734D02*
X62440976Y-51357076D01*
X62440976Y-51357076D02*
X62364748Y-51433304D01*
X62364748Y-51433304D02*
X62288520Y-51471418D01*
X63127142Y-45449580D02*
X63079523Y-45497200D01*
X63079523Y-45497200D02*
X62936666Y-45544819D01*
X62936666Y-45544819D02*
X62841428Y-45544819D01*
X62841428Y-45544819D02*
X62698571Y-45497200D01*
X62698571Y-45497200D02*
X62603333Y-45401961D01*
X62603333Y-45401961D02*
X62555714Y-45306723D01*
X62555714Y-45306723D02*
X62508095Y-45116247D01*
X62508095Y-45116247D02*
X62508095Y-44973390D01*
X62508095Y-44973390D02*
X62555714Y-44782914D01*
X62555714Y-44782914D02*
X62603333Y-44687676D01*
X62603333Y-44687676D02*
X62698571Y-44592438D01*
X62698571Y-44592438D02*
X62841428Y-44544819D01*
X62841428Y-44544819D02*
X62936666Y-44544819D01*
X62936666Y-44544819D02*
X63079523Y-44592438D01*
X63079523Y-44592438D02*
X63127142Y-44640057D01*
X63460476Y-44544819D02*
X64079523Y-44544819D01*
X64079523Y-44544819D02*
X63746190Y-44925771D01*
X63746190Y-44925771D02*
X63889047Y-44925771D01*
X63889047Y-44925771D02*
X63984285Y-44973390D01*
X63984285Y-44973390D02*
X64031904Y-45021009D01*
X64031904Y-45021009D02*
X64079523Y-45116247D01*
X64079523Y-45116247D02*
X64079523Y-45354342D01*
X64079523Y-45354342D02*
X64031904Y-45449580D01*
X64031904Y-45449580D02*
X63984285Y-45497200D01*
X63984285Y-45497200D02*
X63889047Y-45544819D01*
X63889047Y-45544819D02*
X63603333Y-45544819D01*
X63603333Y-45544819D02*
X63508095Y-45497200D01*
X63508095Y-45497200D02*
X63460476Y-45449580D01*
X64460476Y-44640057D02*
X64508095Y-44592438D01*
X64508095Y-44592438D02*
X64603333Y-44544819D01*
X64603333Y-44544819D02*
X64841428Y-44544819D01*
X64841428Y-44544819D02*
X64936666Y-44592438D01*
X64936666Y-44592438D02*
X64984285Y-44640057D01*
X64984285Y-44640057D02*
X65031904Y-44735295D01*
X65031904Y-44735295D02*
X65031904Y-44830533D01*
X65031904Y-44830533D02*
X64984285Y-44973390D01*
X64984285Y-44973390D02*
X64412857Y-45544819D01*
X64412857Y-45544819D02*
X65031904Y-45544819D01*
X113957142Y-69239580D02*
X113909523Y-69287200D01*
X113909523Y-69287200D02*
X113766666Y-69334819D01*
X113766666Y-69334819D02*
X113671428Y-69334819D01*
X113671428Y-69334819D02*
X113528571Y-69287200D01*
X113528571Y-69287200D02*
X113433333Y-69191961D01*
X113433333Y-69191961D02*
X113385714Y-69096723D01*
X113385714Y-69096723D02*
X113338095Y-68906247D01*
X113338095Y-68906247D02*
X113338095Y-68763390D01*
X113338095Y-68763390D02*
X113385714Y-68572914D01*
X113385714Y-68572914D02*
X113433333Y-68477676D01*
X113433333Y-68477676D02*
X113528571Y-68382438D01*
X113528571Y-68382438D02*
X113671428Y-68334819D01*
X113671428Y-68334819D02*
X113766666Y-68334819D01*
X113766666Y-68334819D02*
X113909523Y-68382438D01*
X113909523Y-68382438D02*
X113957142Y-68430057D01*
X114814285Y-68668152D02*
X114814285Y-69334819D01*
X114576190Y-68287200D02*
X114338095Y-69001485D01*
X114338095Y-69001485D02*
X114957142Y-69001485D01*
X115814285Y-68334819D02*
X115338095Y-68334819D01*
X115338095Y-68334819D02*
X115290476Y-68811009D01*
X115290476Y-68811009D02*
X115338095Y-68763390D01*
X115338095Y-68763390D02*
X115433333Y-68715771D01*
X115433333Y-68715771D02*
X115671428Y-68715771D01*
X115671428Y-68715771D02*
X115766666Y-68763390D01*
X115766666Y-68763390D02*
X115814285Y-68811009D01*
X115814285Y-68811009D02*
X115861904Y-68906247D01*
X115861904Y-68906247D02*
X115861904Y-69144342D01*
X115861904Y-69144342D02*
X115814285Y-69239580D01*
X115814285Y-69239580D02*
X115766666Y-69287200D01*
X115766666Y-69287200D02*
X115671428Y-69334819D01*
X115671428Y-69334819D02*
X115433333Y-69334819D01*
X115433333Y-69334819D02*
X115338095Y-69287200D01*
X115338095Y-69287200D02*
X115290476Y-69239580D01*
X101451580Y-98016857D02*
X101499200Y-98064476D01*
X101499200Y-98064476D02*
X101546819Y-98207333D01*
X101546819Y-98207333D02*
X101546819Y-98302571D01*
X101546819Y-98302571D02*
X101499200Y-98445428D01*
X101499200Y-98445428D02*
X101403961Y-98540666D01*
X101403961Y-98540666D02*
X101308723Y-98588285D01*
X101308723Y-98588285D02*
X101118247Y-98635904D01*
X101118247Y-98635904D02*
X100975390Y-98635904D01*
X100975390Y-98635904D02*
X100784914Y-98588285D01*
X100784914Y-98588285D02*
X100689676Y-98540666D01*
X100689676Y-98540666D02*
X100594438Y-98445428D01*
X100594438Y-98445428D02*
X100546819Y-98302571D01*
X100546819Y-98302571D02*
X100546819Y-98207333D01*
X100546819Y-98207333D02*
X100594438Y-98064476D01*
X100594438Y-98064476D02*
X100642057Y-98016857D01*
X100546819Y-97683523D02*
X100546819Y-97064476D01*
X100546819Y-97064476D02*
X100927771Y-97397809D01*
X100927771Y-97397809D02*
X100927771Y-97254952D01*
X100927771Y-97254952D02*
X100975390Y-97159714D01*
X100975390Y-97159714D02*
X101023009Y-97112095D01*
X101023009Y-97112095D02*
X101118247Y-97064476D01*
X101118247Y-97064476D02*
X101356342Y-97064476D01*
X101356342Y-97064476D02*
X101451580Y-97112095D01*
X101451580Y-97112095D02*
X101499200Y-97159714D01*
X101499200Y-97159714D02*
X101546819Y-97254952D01*
X101546819Y-97254952D02*
X101546819Y-97540666D01*
X101546819Y-97540666D02*
X101499200Y-97635904D01*
X101499200Y-97635904D02*
X101451580Y-97683523D01*
X100546819Y-96159714D02*
X100546819Y-96635904D01*
X100546819Y-96635904D02*
X101023009Y-96683523D01*
X101023009Y-96683523D02*
X100975390Y-96635904D01*
X100975390Y-96635904D02*
X100927771Y-96540666D01*
X100927771Y-96540666D02*
X100927771Y-96302571D01*
X100927771Y-96302571D02*
X100975390Y-96207333D01*
X100975390Y-96207333D02*
X101023009Y-96159714D01*
X101023009Y-96159714D02*
X101118247Y-96112095D01*
X101118247Y-96112095D02*
X101356342Y-96112095D01*
X101356342Y-96112095D02*
X101451580Y-96159714D01*
X101451580Y-96159714D02*
X101499200Y-96207333D01*
X101499200Y-96207333D02*
X101546819Y-96302571D01*
X101546819Y-96302571D02*
X101546819Y-96540666D01*
X101546819Y-96540666D02*
X101499200Y-96635904D01*
X101499200Y-96635904D02*
X101451580Y-96683523D01*
X71549580Y-114952857D02*
X71597200Y-115000476D01*
X71597200Y-115000476D02*
X71644819Y-115143333D01*
X71644819Y-115143333D02*
X71644819Y-115238571D01*
X71644819Y-115238571D02*
X71597200Y-115381428D01*
X71597200Y-115381428D02*
X71501961Y-115476666D01*
X71501961Y-115476666D02*
X71406723Y-115524285D01*
X71406723Y-115524285D02*
X71216247Y-115571904D01*
X71216247Y-115571904D02*
X71073390Y-115571904D01*
X71073390Y-115571904D02*
X70882914Y-115524285D01*
X70882914Y-115524285D02*
X70787676Y-115476666D01*
X70787676Y-115476666D02*
X70692438Y-115381428D01*
X70692438Y-115381428D02*
X70644819Y-115238571D01*
X70644819Y-115238571D02*
X70644819Y-115143333D01*
X70644819Y-115143333D02*
X70692438Y-115000476D01*
X70692438Y-115000476D02*
X70740057Y-114952857D01*
X71644819Y-114000476D02*
X71644819Y-114571904D01*
X71644819Y-114286190D02*
X70644819Y-114286190D01*
X70644819Y-114286190D02*
X70787676Y-114381428D01*
X70787676Y-114381428D02*
X70882914Y-114476666D01*
X70882914Y-114476666D02*
X70930533Y-114571904D01*
X71644819Y-113524285D02*
X71644819Y-113333809D01*
X71644819Y-113333809D02*
X71597200Y-113238571D01*
X71597200Y-113238571D02*
X71549580Y-113190952D01*
X71549580Y-113190952D02*
X71406723Y-113095714D01*
X71406723Y-113095714D02*
X71216247Y-113048095D01*
X71216247Y-113048095D02*
X70835295Y-113048095D01*
X70835295Y-113048095D02*
X70740057Y-113095714D01*
X70740057Y-113095714D02*
X70692438Y-113143333D01*
X70692438Y-113143333D02*
X70644819Y-113238571D01*
X70644819Y-113238571D02*
X70644819Y-113429047D01*
X70644819Y-113429047D02*
X70692438Y-113524285D01*
X70692438Y-113524285D02*
X70740057Y-113571904D01*
X70740057Y-113571904D02*
X70835295Y-113619523D01*
X70835295Y-113619523D02*
X71073390Y-113619523D01*
X71073390Y-113619523D02*
X71168628Y-113571904D01*
X71168628Y-113571904D02*
X71216247Y-113524285D01*
X71216247Y-113524285D02*
X71263866Y-113429047D01*
X71263866Y-113429047D02*
X71263866Y-113238571D01*
X71263866Y-113238571D02*
X71216247Y-113143333D01*
X71216247Y-113143333D02*
X71168628Y-113095714D01*
X71168628Y-113095714D02*
X71073390Y-113048095D01*
X33957142Y-89749580D02*
X33909523Y-89797200D01*
X33909523Y-89797200D02*
X33766666Y-89844819D01*
X33766666Y-89844819D02*
X33671428Y-89844819D01*
X33671428Y-89844819D02*
X33528571Y-89797200D01*
X33528571Y-89797200D02*
X33433333Y-89701961D01*
X33433333Y-89701961D02*
X33385714Y-89606723D01*
X33385714Y-89606723D02*
X33338095Y-89416247D01*
X33338095Y-89416247D02*
X33338095Y-89273390D01*
X33338095Y-89273390D02*
X33385714Y-89082914D01*
X33385714Y-89082914D02*
X33433333Y-88987676D01*
X33433333Y-88987676D02*
X33528571Y-88892438D01*
X33528571Y-88892438D02*
X33671428Y-88844819D01*
X33671428Y-88844819D02*
X33766666Y-88844819D01*
X33766666Y-88844819D02*
X33909523Y-88892438D01*
X33909523Y-88892438D02*
X33957142Y-88940057D01*
X34909523Y-89844819D02*
X34338095Y-89844819D01*
X34623809Y-89844819D02*
X34623809Y-88844819D01*
X34623809Y-88844819D02*
X34528571Y-88987676D01*
X34528571Y-88987676D02*
X34433333Y-89082914D01*
X34433333Y-89082914D02*
X34338095Y-89130533D01*
X35766666Y-88844819D02*
X35576190Y-88844819D01*
X35576190Y-88844819D02*
X35480952Y-88892438D01*
X35480952Y-88892438D02*
X35433333Y-88940057D01*
X35433333Y-88940057D02*
X35338095Y-89082914D01*
X35338095Y-89082914D02*
X35290476Y-89273390D01*
X35290476Y-89273390D02*
X35290476Y-89654342D01*
X35290476Y-89654342D02*
X35338095Y-89749580D01*
X35338095Y-89749580D02*
X35385714Y-89797200D01*
X35385714Y-89797200D02*
X35480952Y-89844819D01*
X35480952Y-89844819D02*
X35671428Y-89844819D01*
X35671428Y-89844819D02*
X35766666Y-89797200D01*
X35766666Y-89797200D02*
X35814285Y-89749580D01*
X35814285Y-89749580D02*
X35861904Y-89654342D01*
X35861904Y-89654342D02*
X35861904Y-89416247D01*
X35861904Y-89416247D02*
X35814285Y-89321009D01*
X35814285Y-89321009D02*
X35766666Y-89273390D01*
X35766666Y-89273390D02*
X35671428Y-89225771D01*
X35671428Y-89225771D02*
X35480952Y-89225771D01*
X35480952Y-89225771D02*
X35385714Y-89273390D01*
X35385714Y-89273390D02*
X35338095Y-89321009D01*
X35338095Y-89321009D02*
X35290476Y-89416247D01*
X33657142Y-69759580D02*
X33609523Y-69807200D01*
X33609523Y-69807200D02*
X33466666Y-69854819D01*
X33466666Y-69854819D02*
X33371428Y-69854819D01*
X33371428Y-69854819D02*
X33228571Y-69807200D01*
X33228571Y-69807200D02*
X33133333Y-69711961D01*
X33133333Y-69711961D02*
X33085714Y-69616723D01*
X33085714Y-69616723D02*
X33038095Y-69426247D01*
X33038095Y-69426247D02*
X33038095Y-69283390D01*
X33038095Y-69283390D02*
X33085714Y-69092914D01*
X33085714Y-69092914D02*
X33133333Y-68997676D01*
X33133333Y-68997676D02*
X33228571Y-68902438D01*
X33228571Y-68902438D02*
X33371428Y-68854819D01*
X33371428Y-68854819D02*
X33466666Y-68854819D01*
X33466666Y-68854819D02*
X33609523Y-68902438D01*
X33609523Y-68902438D02*
X33657142Y-68950057D01*
X34609523Y-69854819D02*
X34038095Y-69854819D01*
X34323809Y-69854819D02*
X34323809Y-68854819D01*
X34323809Y-68854819D02*
X34228571Y-68997676D01*
X34228571Y-68997676D02*
X34133333Y-69092914D01*
X34133333Y-69092914D02*
X34038095Y-69140533D01*
X35514285Y-68854819D02*
X35038095Y-68854819D01*
X35038095Y-68854819D02*
X34990476Y-69331009D01*
X34990476Y-69331009D02*
X35038095Y-69283390D01*
X35038095Y-69283390D02*
X35133333Y-69235771D01*
X35133333Y-69235771D02*
X35371428Y-69235771D01*
X35371428Y-69235771D02*
X35466666Y-69283390D01*
X35466666Y-69283390D02*
X35514285Y-69331009D01*
X35514285Y-69331009D02*
X35561904Y-69426247D01*
X35561904Y-69426247D02*
X35561904Y-69664342D01*
X35561904Y-69664342D02*
X35514285Y-69759580D01*
X35514285Y-69759580D02*
X35466666Y-69807200D01*
X35466666Y-69807200D02*
X35371428Y-69854819D01*
X35371428Y-69854819D02*
X35133333Y-69854819D01*
X35133333Y-69854819D02*
X35038095Y-69807200D01*
X35038095Y-69807200D02*
X34990476Y-69759580D01*
X52133333Y-56429580D02*
X52085714Y-56477200D01*
X52085714Y-56477200D02*
X51942857Y-56524819D01*
X51942857Y-56524819D02*
X51847619Y-56524819D01*
X51847619Y-56524819D02*
X51704762Y-56477200D01*
X51704762Y-56477200D02*
X51609524Y-56381961D01*
X51609524Y-56381961D02*
X51561905Y-56286723D01*
X51561905Y-56286723D02*
X51514286Y-56096247D01*
X51514286Y-56096247D02*
X51514286Y-55953390D01*
X51514286Y-55953390D02*
X51561905Y-55762914D01*
X51561905Y-55762914D02*
X51609524Y-55667676D01*
X51609524Y-55667676D02*
X51704762Y-55572438D01*
X51704762Y-55572438D02*
X51847619Y-55524819D01*
X51847619Y-55524819D02*
X51942857Y-55524819D01*
X51942857Y-55524819D02*
X52085714Y-55572438D01*
X52085714Y-55572438D02*
X52133333Y-55620057D01*
X53085714Y-56524819D02*
X52514286Y-56524819D01*
X52800000Y-56524819D02*
X52800000Y-55524819D01*
X52800000Y-55524819D02*
X52704762Y-55667676D01*
X52704762Y-55667676D02*
X52609524Y-55762914D01*
X52609524Y-55762914D02*
X52514286Y-55810533D01*
X32113666Y-127128819D02*
X32113666Y-127843104D01*
X32113666Y-127843104D02*
X32066047Y-127985961D01*
X32066047Y-127985961D02*
X31970809Y-128081200D01*
X31970809Y-128081200D02*
X31827952Y-128128819D01*
X31827952Y-128128819D02*
X31732714Y-128128819D01*
X33113666Y-128128819D02*
X32542238Y-128128819D01*
X32827952Y-128128819D02*
X32827952Y-127128819D01*
X32827952Y-127128819D02*
X32732714Y-127271676D01*
X32732714Y-127271676D02*
X32637476Y-127366914D01*
X32637476Y-127366914D02*
X32542238Y-127414533D01*
X48483333Y-61159580D02*
X48435714Y-61207200D01*
X48435714Y-61207200D02*
X48292857Y-61254819D01*
X48292857Y-61254819D02*
X48197619Y-61254819D01*
X48197619Y-61254819D02*
X48054762Y-61207200D01*
X48054762Y-61207200D02*
X47959524Y-61111961D01*
X47959524Y-61111961D02*
X47911905Y-61016723D01*
X47911905Y-61016723D02*
X47864286Y-60826247D01*
X47864286Y-60826247D02*
X47864286Y-60683390D01*
X47864286Y-60683390D02*
X47911905Y-60492914D01*
X47911905Y-60492914D02*
X47959524Y-60397676D01*
X47959524Y-60397676D02*
X48054762Y-60302438D01*
X48054762Y-60302438D02*
X48197619Y-60254819D01*
X48197619Y-60254819D02*
X48292857Y-60254819D01*
X48292857Y-60254819D02*
X48435714Y-60302438D01*
X48435714Y-60302438D02*
X48483333Y-60350057D01*
X48864286Y-60350057D02*
X48911905Y-60302438D01*
X48911905Y-60302438D02*
X49007143Y-60254819D01*
X49007143Y-60254819D02*
X49245238Y-60254819D01*
X49245238Y-60254819D02*
X49340476Y-60302438D01*
X49340476Y-60302438D02*
X49388095Y-60350057D01*
X49388095Y-60350057D02*
X49435714Y-60445295D01*
X49435714Y-60445295D02*
X49435714Y-60540533D01*
X49435714Y-60540533D02*
X49388095Y-60683390D01*
X49388095Y-60683390D02*
X48816667Y-61254819D01*
X48816667Y-61254819D02*
X49435714Y-61254819D01*
X113147142Y-72989580D02*
X113099523Y-73037200D01*
X113099523Y-73037200D02*
X112956666Y-73084819D01*
X112956666Y-73084819D02*
X112861428Y-73084819D01*
X112861428Y-73084819D02*
X112718571Y-73037200D01*
X112718571Y-73037200D02*
X112623333Y-72941961D01*
X112623333Y-72941961D02*
X112575714Y-72846723D01*
X112575714Y-72846723D02*
X112528095Y-72656247D01*
X112528095Y-72656247D02*
X112528095Y-72513390D01*
X112528095Y-72513390D02*
X112575714Y-72322914D01*
X112575714Y-72322914D02*
X112623333Y-72227676D01*
X112623333Y-72227676D02*
X112718571Y-72132438D01*
X112718571Y-72132438D02*
X112861428Y-72084819D01*
X112861428Y-72084819D02*
X112956666Y-72084819D01*
X112956666Y-72084819D02*
X113099523Y-72132438D01*
X113099523Y-72132438D02*
X113147142Y-72180057D01*
X113480476Y-72084819D02*
X114099523Y-72084819D01*
X114099523Y-72084819D02*
X113766190Y-72465771D01*
X113766190Y-72465771D02*
X113909047Y-72465771D01*
X113909047Y-72465771D02*
X114004285Y-72513390D01*
X114004285Y-72513390D02*
X114051904Y-72561009D01*
X114051904Y-72561009D02*
X114099523Y-72656247D01*
X114099523Y-72656247D02*
X114099523Y-72894342D01*
X114099523Y-72894342D02*
X114051904Y-72989580D01*
X114051904Y-72989580D02*
X114004285Y-73037200D01*
X114004285Y-73037200D02*
X113909047Y-73084819D01*
X113909047Y-73084819D02*
X113623333Y-73084819D01*
X113623333Y-73084819D02*
X113528095Y-73037200D01*
X113528095Y-73037200D02*
X113480476Y-72989580D01*
X114956666Y-72418152D02*
X114956666Y-73084819D01*
X114718571Y-72037200D02*
X114480476Y-72751485D01*
X114480476Y-72751485D02*
X115099523Y-72751485D01*
X120187142Y-96889580D02*
X120139523Y-96937200D01*
X120139523Y-96937200D02*
X119996666Y-96984819D01*
X119996666Y-96984819D02*
X119901428Y-96984819D01*
X119901428Y-96984819D02*
X119758571Y-96937200D01*
X119758571Y-96937200D02*
X119663333Y-96841961D01*
X119663333Y-96841961D02*
X119615714Y-96746723D01*
X119615714Y-96746723D02*
X119568095Y-96556247D01*
X119568095Y-96556247D02*
X119568095Y-96413390D01*
X119568095Y-96413390D02*
X119615714Y-96222914D01*
X119615714Y-96222914D02*
X119663333Y-96127676D01*
X119663333Y-96127676D02*
X119758571Y-96032438D01*
X119758571Y-96032438D02*
X119901428Y-95984819D01*
X119901428Y-95984819D02*
X119996666Y-95984819D01*
X119996666Y-95984819D02*
X120139523Y-96032438D01*
X120139523Y-96032438D02*
X120187142Y-96080057D01*
X120520476Y-95984819D02*
X121139523Y-95984819D01*
X121139523Y-95984819D02*
X120806190Y-96365771D01*
X120806190Y-96365771D02*
X120949047Y-96365771D01*
X120949047Y-96365771D02*
X121044285Y-96413390D01*
X121044285Y-96413390D02*
X121091904Y-96461009D01*
X121091904Y-96461009D02*
X121139523Y-96556247D01*
X121139523Y-96556247D02*
X121139523Y-96794342D01*
X121139523Y-96794342D02*
X121091904Y-96889580D01*
X121091904Y-96889580D02*
X121044285Y-96937200D01*
X121044285Y-96937200D02*
X120949047Y-96984819D01*
X120949047Y-96984819D02*
X120663333Y-96984819D01*
X120663333Y-96984819D02*
X120568095Y-96937200D01*
X120568095Y-96937200D02*
X120520476Y-96889580D01*
X121615714Y-96984819D02*
X121806190Y-96984819D01*
X121806190Y-96984819D02*
X121901428Y-96937200D01*
X121901428Y-96937200D02*
X121949047Y-96889580D01*
X121949047Y-96889580D02*
X122044285Y-96746723D01*
X122044285Y-96746723D02*
X122091904Y-96556247D01*
X122091904Y-96556247D02*
X122091904Y-96175295D01*
X122091904Y-96175295D02*
X122044285Y-96080057D01*
X122044285Y-96080057D02*
X121996666Y-96032438D01*
X121996666Y-96032438D02*
X121901428Y-95984819D01*
X121901428Y-95984819D02*
X121710952Y-95984819D01*
X121710952Y-95984819D02*
X121615714Y-96032438D01*
X121615714Y-96032438D02*
X121568095Y-96080057D01*
X121568095Y-96080057D02*
X121520476Y-96175295D01*
X121520476Y-96175295D02*
X121520476Y-96413390D01*
X121520476Y-96413390D02*
X121568095Y-96508628D01*
X121568095Y-96508628D02*
X121615714Y-96556247D01*
X121615714Y-96556247D02*
X121710952Y-96603866D01*
X121710952Y-96603866D02*
X121901428Y-96603866D01*
X121901428Y-96603866D02*
X121996666Y-96556247D01*
X121996666Y-96556247D02*
X122044285Y-96508628D01*
X122044285Y-96508628D02*
X122091904Y-96413390D01*
X73644819Y-113186666D02*
X73168628Y-113519999D01*
X73644819Y-113758094D02*
X72644819Y-113758094D01*
X72644819Y-113758094D02*
X72644819Y-113377142D01*
X72644819Y-113377142D02*
X72692438Y-113281904D01*
X72692438Y-113281904D02*
X72740057Y-113234285D01*
X72740057Y-113234285D02*
X72835295Y-113186666D01*
X72835295Y-113186666D02*
X72978152Y-113186666D01*
X72978152Y-113186666D02*
X73073390Y-113234285D01*
X73073390Y-113234285D02*
X73121009Y-113281904D01*
X73121009Y-113281904D02*
X73168628Y-113377142D01*
X73168628Y-113377142D02*
X73168628Y-113758094D01*
X72644819Y-112329523D02*
X72644819Y-112519999D01*
X72644819Y-112519999D02*
X72692438Y-112615237D01*
X72692438Y-112615237D02*
X72740057Y-112662856D01*
X72740057Y-112662856D02*
X72882914Y-112758094D01*
X72882914Y-112758094D02*
X73073390Y-112805713D01*
X73073390Y-112805713D02*
X73454342Y-112805713D01*
X73454342Y-112805713D02*
X73549580Y-112758094D01*
X73549580Y-112758094D02*
X73597200Y-112710475D01*
X73597200Y-112710475D02*
X73644819Y-112615237D01*
X73644819Y-112615237D02*
X73644819Y-112424761D01*
X73644819Y-112424761D02*
X73597200Y-112329523D01*
X73597200Y-112329523D02*
X73549580Y-112281904D01*
X73549580Y-112281904D02*
X73454342Y-112234285D01*
X73454342Y-112234285D02*
X73216247Y-112234285D01*
X73216247Y-112234285D02*
X73121009Y-112281904D01*
X73121009Y-112281904D02*
X73073390Y-112329523D01*
X73073390Y-112329523D02*
X73025771Y-112424761D01*
X73025771Y-112424761D02*
X73025771Y-112615237D01*
X73025771Y-112615237D02*
X73073390Y-112710475D01*
X73073390Y-112710475D02*
X73121009Y-112758094D01*
X73121009Y-112758094D02*
X73216247Y-112805713D01*
X46857142Y-79249580D02*
X46809523Y-79297200D01*
X46809523Y-79297200D02*
X46666666Y-79344819D01*
X46666666Y-79344819D02*
X46571428Y-79344819D01*
X46571428Y-79344819D02*
X46428571Y-79297200D01*
X46428571Y-79297200D02*
X46333333Y-79201961D01*
X46333333Y-79201961D02*
X46285714Y-79106723D01*
X46285714Y-79106723D02*
X46238095Y-78916247D01*
X46238095Y-78916247D02*
X46238095Y-78773390D01*
X46238095Y-78773390D02*
X46285714Y-78582914D01*
X46285714Y-78582914D02*
X46333333Y-78487676D01*
X46333333Y-78487676D02*
X46428571Y-78392438D01*
X46428571Y-78392438D02*
X46571428Y-78344819D01*
X46571428Y-78344819D02*
X46666666Y-78344819D01*
X46666666Y-78344819D02*
X46809523Y-78392438D01*
X46809523Y-78392438D02*
X46857142Y-78440057D01*
X47238095Y-78440057D02*
X47285714Y-78392438D01*
X47285714Y-78392438D02*
X47380952Y-78344819D01*
X47380952Y-78344819D02*
X47619047Y-78344819D01*
X47619047Y-78344819D02*
X47714285Y-78392438D01*
X47714285Y-78392438D02*
X47761904Y-78440057D01*
X47761904Y-78440057D02*
X47809523Y-78535295D01*
X47809523Y-78535295D02*
X47809523Y-78630533D01*
X47809523Y-78630533D02*
X47761904Y-78773390D01*
X47761904Y-78773390D02*
X47190476Y-79344819D01*
X47190476Y-79344819D02*
X47809523Y-79344819D01*
X48714285Y-78344819D02*
X48238095Y-78344819D01*
X48238095Y-78344819D02*
X48190476Y-78821009D01*
X48190476Y-78821009D02*
X48238095Y-78773390D01*
X48238095Y-78773390D02*
X48333333Y-78725771D01*
X48333333Y-78725771D02*
X48571428Y-78725771D01*
X48571428Y-78725771D02*
X48666666Y-78773390D01*
X48666666Y-78773390D02*
X48714285Y-78821009D01*
X48714285Y-78821009D02*
X48761904Y-78916247D01*
X48761904Y-78916247D02*
X48761904Y-79154342D01*
X48761904Y-79154342D02*
X48714285Y-79249580D01*
X48714285Y-79249580D02*
X48666666Y-79297200D01*
X48666666Y-79297200D02*
X48571428Y-79344819D01*
X48571428Y-79344819D02*
X48333333Y-79344819D01*
X48333333Y-79344819D02*
X48238095Y-79297200D01*
X48238095Y-79297200D02*
X48190476Y-79249580D01*
X47473333Y-66949580D02*
X47425714Y-66997200D01*
X47425714Y-66997200D02*
X47282857Y-67044819D01*
X47282857Y-67044819D02*
X47187619Y-67044819D01*
X47187619Y-67044819D02*
X47044762Y-66997200D01*
X47044762Y-66997200D02*
X46949524Y-66901961D01*
X46949524Y-66901961D02*
X46901905Y-66806723D01*
X46901905Y-66806723D02*
X46854286Y-66616247D01*
X46854286Y-66616247D02*
X46854286Y-66473390D01*
X46854286Y-66473390D02*
X46901905Y-66282914D01*
X46901905Y-66282914D02*
X46949524Y-66187676D01*
X46949524Y-66187676D02*
X47044762Y-66092438D01*
X47044762Y-66092438D02*
X47187619Y-66044819D01*
X47187619Y-66044819D02*
X47282857Y-66044819D01*
X47282857Y-66044819D02*
X47425714Y-66092438D01*
X47425714Y-66092438D02*
X47473333Y-66140057D01*
X47806667Y-66044819D02*
X48425714Y-66044819D01*
X48425714Y-66044819D02*
X48092381Y-66425771D01*
X48092381Y-66425771D02*
X48235238Y-66425771D01*
X48235238Y-66425771D02*
X48330476Y-66473390D01*
X48330476Y-66473390D02*
X48378095Y-66521009D01*
X48378095Y-66521009D02*
X48425714Y-66616247D01*
X48425714Y-66616247D02*
X48425714Y-66854342D01*
X48425714Y-66854342D02*
X48378095Y-66949580D01*
X48378095Y-66949580D02*
X48330476Y-66997200D01*
X48330476Y-66997200D02*
X48235238Y-67044819D01*
X48235238Y-67044819D02*
X47949524Y-67044819D01*
X47949524Y-67044819D02*
X47854286Y-66997200D01*
X47854286Y-66997200D02*
X47806667Y-66949580D01*
X81143333Y-92379580D02*
X81095714Y-92427200D01*
X81095714Y-92427200D02*
X80952857Y-92474819D01*
X80952857Y-92474819D02*
X80857619Y-92474819D01*
X80857619Y-92474819D02*
X80714762Y-92427200D01*
X80714762Y-92427200D02*
X80619524Y-92331961D01*
X80619524Y-92331961D02*
X80571905Y-92236723D01*
X80571905Y-92236723D02*
X80524286Y-92046247D01*
X80524286Y-92046247D02*
X80524286Y-91903390D01*
X80524286Y-91903390D02*
X80571905Y-91712914D01*
X80571905Y-91712914D02*
X80619524Y-91617676D01*
X80619524Y-91617676D02*
X80714762Y-91522438D01*
X80714762Y-91522438D02*
X80857619Y-91474819D01*
X80857619Y-91474819D02*
X80952857Y-91474819D01*
X80952857Y-91474819D02*
X81095714Y-91522438D01*
X81095714Y-91522438D02*
X81143333Y-91570057D01*
X81476667Y-91474819D02*
X82143333Y-91474819D01*
X82143333Y-91474819D02*
X81714762Y-92474819D01*
X65299333Y-91987580D02*
X65251714Y-92035200D01*
X65251714Y-92035200D02*
X65108857Y-92082819D01*
X65108857Y-92082819D02*
X65013619Y-92082819D01*
X65013619Y-92082819D02*
X64870762Y-92035200D01*
X64870762Y-92035200D02*
X64775524Y-91939961D01*
X64775524Y-91939961D02*
X64727905Y-91844723D01*
X64727905Y-91844723D02*
X64680286Y-91654247D01*
X64680286Y-91654247D02*
X64680286Y-91511390D01*
X64680286Y-91511390D02*
X64727905Y-91320914D01*
X64727905Y-91320914D02*
X64775524Y-91225676D01*
X64775524Y-91225676D02*
X64870762Y-91130438D01*
X64870762Y-91130438D02*
X65013619Y-91082819D01*
X65013619Y-91082819D02*
X65108857Y-91082819D01*
X65108857Y-91082819D02*
X65251714Y-91130438D01*
X65251714Y-91130438D02*
X65299333Y-91178057D01*
X66156476Y-91082819D02*
X65966000Y-91082819D01*
X65966000Y-91082819D02*
X65870762Y-91130438D01*
X65870762Y-91130438D02*
X65823143Y-91178057D01*
X65823143Y-91178057D02*
X65727905Y-91320914D01*
X65727905Y-91320914D02*
X65680286Y-91511390D01*
X65680286Y-91511390D02*
X65680286Y-91892342D01*
X65680286Y-91892342D02*
X65727905Y-91987580D01*
X65727905Y-91987580D02*
X65775524Y-92035200D01*
X65775524Y-92035200D02*
X65870762Y-92082819D01*
X65870762Y-92082819D02*
X66061238Y-92082819D01*
X66061238Y-92082819D02*
X66156476Y-92035200D01*
X66156476Y-92035200D02*
X66204095Y-91987580D01*
X66204095Y-91987580D02*
X66251714Y-91892342D01*
X66251714Y-91892342D02*
X66251714Y-91654247D01*
X66251714Y-91654247D02*
X66204095Y-91559009D01*
X66204095Y-91559009D02*
X66156476Y-91511390D01*
X66156476Y-91511390D02*
X66061238Y-91463771D01*
X66061238Y-91463771D02*
X65870762Y-91463771D01*
X65870762Y-91463771D02*
X65775524Y-91511390D01*
X65775524Y-91511390D02*
X65727905Y-91559009D01*
X65727905Y-91559009D02*
X65680286Y-91654247D01*
X52177142Y-76429580D02*
X52129523Y-76477200D01*
X52129523Y-76477200D02*
X51986666Y-76524819D01*
X51986666Y-76524819D02*
X51891428Y-76524819D01*
X51891428Y-76524819D02*
X51748571Y-76477200D01*
X51748571Y-76477200D02*
X51653333Y-76381961D01*
X51653333Y-76381961D02*
X51605714Y-76286723D01*
X51605714Y-76286723D02*
X51558095Y-76096247D01*
X51558095Y-76096247D02*
X51558095Y-75953390D01*
X51558095Y-75953390D02*
X51605714Y-75762914D01*
X51605714Y-75762914D02*
X51653333Y-75667676D01*
X51653333Y-75667676D02*
X51748571Y-75572438D01*
X51748571Y-75572438D02*
X51891428Y-75524819D01*
X51891428Y-75524819D02*
X51986666Y-75524819D01*
X51986666Y-75524819D02*
X52129523Y-75572438D01*
X52129523Y-75572438D02*
X52177142Y-75620057D01*
X52558095Y-75620057D02*
X52605714Y-75572438D01*
X52605714Y-75572438D02*
X52700952Y-75524819D01*
X52700952Y-75524819D02*
X52939047Y-75524819D01*
X52939047Y-75524819D02*
X53034285Y-75572438D01*
X53034285Y-75572438D02*
X53081904Y-75620057D01*
X53081904Y-75620057D02*
X53129523Y-75715295D01*
X53129523Y-75715295D02*
X53129523Y-75810533D01*
X53129523Y-75810533D02*
X53081904Y-75953390D01*
X53081904Y-75953390D02*
X52510476Y-76524819D01*
X52510476Y-76524819D02*
X53129523Y-76524819D01*
X53986666Y-75524819D02*
X53796190Y-75524819D01*
X53796190Y-75524819D02*
X53700952Y-75572438D01*
X53700952Y-75572438D02*
X53653333Y-75620057D01*
X53653333Y-75620057D02*
X53558095Y-75762914D01*
X53558095Y-75762914D02*
X53510476Y-75953390D01*
X53510476Y-75953390D02*
X53510476Y-76334342D01*
X53510476Y-76334342D02*
X53558095Y-76429580D01*
X53558095Y-76429580D02*
X53605714Y-76477200D01*
X53605714Y-76477200D02*
X53700952Y-76524819D01*
X53700952Y-76524819D02*
X53891428Y-76524819D01*
X53891428Y-76524819D02*
X53986666Y-76477200D01*
X53986666Y-76477200D02*
X54034285Y-76429580D01*
X54034285Y-76429580D02*
X54081904Y-76334342D01*
X54081904Y-76334342D02*
X54081904Y-76096247D01*
X54081904Y-76096247D02*
X54034285Y-76001009D01*
X54034285Y-76001009D02*
X53986666Y-75953390D01*
X53986666Y-75953390D02*
X53891428Y-75905771D01*
X53891428Y-75905771D02*
X53700952Y-75905771D01*
X53700952Y-75905771D02*
X53605714Y-75953390D01*
X53605714Y-75953390D02*
X53558095Y-76001009D01*
X53558095Y-76001009D02*
X53510476Y-76096247D01*
X103991580Y-97889857D02*
X104039200Y-97937476D01*
X104039200Y-97937476D02*
X104086819Y-98080333D01*
X104086819Y-98080333D02*
X104086819Y-98175571D01*
X104086819Y-98175571D02*
X104039200Y-98318428D01*
X104039200Y-98318428D02*
X103943961Y-98413666D01*
X103943961Y-98413666D02*
X103848723Y-98461285D01*
X103848723Y-98461285D02*
X103658247Y-98508904D01*
X103658247Y-98508904D02*
X103515390Y-98508904D01*
X103515390Y-98508904D02*
X103324914Y-98461285D01*
X103324914Y-98461285D02*
X103229676Y-98413666D01*
X103229676Y-98413666D02*
X103134438Y-98318428D01*
X103134438Y-98318428D02*
X103086819Y-98175571D01*
X103086819Y-98175571D02*
X103086819Y-98080333D01*
X103086819Y-98080333D02*
X103134438Y-97937476D01*
X103134438Y-97937476D02*
X103182057Y-97889857D01*
X103086819Y-97556523D02*
X103086819Y-96937476D01*
X103086819Y-96937476D02*
X103467771Y-97270809D01*
X103467771Y-97270809D02*
X103467771Y-97127952D01*
X103467771Y-97127952D02*
X103515390Y-97032714D01*
X103515390Y-97032714D02*
X103563009Y-96985095D01*
X103563009Y-96985095D02*
X103658247Y-96937476D01*
X103658247Y-96937476D02*
X103896342Y-96937476D01*
X103896342Y-96937476D02*
X103991580Y-96985095D01*
X103991580Y-96985095D02*
X104039200Y-97032714D01*
X104039200Y-97032714D02*
X104086819Y-97127952D01*
X104086819Y-97127952D02*
X104086819Y-97413666D01*
X104086819Y-97413666D02*
X104039200Y-97508904D01*
X104039200Y-97508904D02*
X103991580Y-97556523D01*
X103086819Y-96080333D02*
X103086819Y-96270809D01*
X103086819Y-96270809D02*
X103134438Y-96366047D01*
X103134438Y-96366047D02*
X103182057Y-96413666D01*
X103182057Y-96413666D02*
X103324914Y-96508904D01*
X103324914Y-96508904D02*
X103515390Y-96556523D01*
X103515390Y-96556523D02*
X103896342Y-96556523D01*
X103896342Y-96556523D02*
X103991580Y-96508904D01*
X103991580Y-96508904D02*
X104039200Y-96461285D01*
X104039200Y-96461285D02*
X104086819Y-96366047D01*
X104086819Y-96366047D02*
X104086819Y-96175571D01*
X104086819Y-96175571D02*
X104039200Y-96080333D01*
X104039200Y-96080333D02*
X103991580Y-96032714D01*
X103991580Y-96032714D02*
X103896342Y-95985095D01*
X103896342Y-95985095D02*
X103658247Y-95985095D01*
X103658247Y-95985095D02*
X103563009Y-96032714D01*
X103563009Y-96032714D02*
X103515390Y-96080333D01*
X103515390Y-96080333D02*
X103467771Y-96175571D01*
X103467771Y-96175571D02*
X103467771Y-96366047D01*
X103467771Y-96366047D02*
X103515390Y-96461285D01*
X103515390Y-96461285D02*
X103563009Y-96508904D01*
X103563009Y-96508904D02*
X103658247Y-96556523D01*
X77604819Y-114532857D02*
X77128628Y-114866190D01*
X77604819Y-115104285D02*
X76604819Y-115104285D01*
X76604819Y-115104285D02*
X76604819Y-114723333D01*
X76604819Y-114723333D02*
X76652438Y-114628095D01*
X76652438Y-114628095D02*
X76700057Y-114580476D01*
X76700057Y-114580476D02*
X76795295Y-114532857D01*
X76795295Y-114532857D02*
X76938152Y-114532857D01*
X76938152Y-114532857D02*
X77033390Y-114580476D01*
X77033390Y-114580476D02*
X77081009Y-114628095D01*
X77081009Y-114628095D02*
X77128628Y-114723333D01*
X77128628Y-114723333D02*
X77128628Y-115104285D01*
X77604819Y-113580476D02*
X77604819Y-114151904D01*
X77604819Y-113866190D02*
X76604819Y-113866190D01*
X76604819Y-113866190D02*
X76747676Y-113961428D01*
X76747676Y-113961428D02*
X76842914Y-114056666D01*
X76842914Y-114056666D02*
X76890533Y-114151904D01*
X76604819Y-112961428D02*
X76604819Y-112866190D01*
X76604819Y-112866190D02*
X76652438Y-112770952D01*
X76652438Y-112770952D02*
X76700057Y-112723333D01*
X76700057Y-112723333D02*
X76795295Y-112675714D01*
X76795295Y-112675714D02*
X76985771Y-112628095D01*
X76985771Y-112628095D02*
X77223866Y-112628095D01*
X77223866Y-112628095D02*
X77414342Y-112675714D01*
X77414342Y-112675714D02*
X77509580Y-112723333D01*
X77509580Y-112723333D02*
X77557200Y-112770952D01*
X77557200Y-112770952D02*
X77604819Y-112866190D01*
X77604819Y-112866190D02*
X77604819Y-112961428D01*
X77604819Y-112961428D02*
X77557200Y-113056666D01*
X77557200Y-113056666D02*
X77509580Y-113104285D01*
X77509580Y-113104285D02*
X77414342Y-113151904D01*
X77414342Y-113151904D02*
X77223866Y-113199523D01*
X77223866Y-113199523D02*
X76985771Y-113199523D01*
X76985771Y-113199523D02*
X76795295Y-113151904D01*
X76795295Y-113151904D02*
X76700057Y-113104285D01*
X76700057Y-113104285D02*
X76652438Y-113056666D01*
X76652438Y-113056666D02*
X76604819Y-112961428D01*
X41828095Y-102114819D02*
X42399523Y-102114819D01*
X42113809Y-103114819D02*
X42113809Y-102114819D01*
X42732857Y-103114819D02*
X42732857Y-102114819D01*
X42732857Y-102114819D02*
X43113809Y-102114819D01*
X43113809Y-102114819D02*
X43209047Y-102162438D01*
X43209047Y-102162438D02*
X43256666Y-102210057D01*
X43256666Y-102210057D02*
X43304285Y-102305295D01*
X43304285Y-102305295D02*
X43304285Y-102448152D01*
X43304285Y-102448152D02*
X43256666Y-102543390D01*
X43256666Y-102543390D02*
X43209047Y-102591009D01*
X43209047Y-102591009D02*
X43113809Y-102638628D01*
X43113809Y-102638628D02*
X42732857Y-102638628D01*
X43637619Y-102114819D02*
X44304285Y-102114819D01*
X44304285Y-102114819D02*
X43875714Y-103114819D01*
X35597142Y-52324819D02*
X35263809Y-51848628D01*
X35025714Y-52324819D02*
X35025714Y-51324819D01*
X35025714Y-51324819D02*
X35406666Y-51324819D01*
X35406666Y-51324819D02*
X35501904Y-51372438D01*
X35501904Y-51372438D02*
X35549523Y-51420057D01*
X35549523Y-51420057D02*
X35597142Y-51515295D01*
X35597142Y-51515295D02*
X35597142Y-51658152D01*
X35597142Y-51658152D02*
X35549523Y-51753390D01*
X35549523Y-51753390D02*
X35501904Y-51801009D01*
X35501904Y-51801009D02*
X35406666Y-51848628D01*
X35406666Y-51848628D02*
X35025714Y-51848628D01*
X36549523Y-52324819D02*
X35978095Y-52324819D01*
X36263809Y-52324819D02*
X36263809Y-51324819D01*
X36263809Y-51324819D02*
X36168571Y-51467676D01*
X36168571Y-51467676D02*
X36073333Y-51562914D01*
X36073333Y-51562914D02*
X35978095Y-51610533D01*
X37120952Y-51753390D02*
X37025714Y-51705771D01*
X37025714Y-51705771D02*
X36978095Y-51658152D01*
X36978095Y-51658152D02*
X36930476Y-51562914D01*
X36930476Y-51562914D02*
X36930476Y-51515295D01*
X36930476Y-51515295D02*
X36978095Y-51420057D01*
X36978095Y-51420057D02*
X37025714Y-51372438D01*
X37025714Y-51372438D02*
X37120952Y-51324819D01*
X37120952Y-51324819D02*
X37311428Y-51324819D01*
X37311428Y-51324819D02*
X37406666Y-51372438D01*
X37406666Y-51372438D02*
X37454285Y-51420057D01*
X37454285Y-51420057D02*
X37501904Y-51515295D01*
X37501904Y-51515295D02*
X37501904Y-51562914D01*
X37501904Y-51562914D02*
X37454285Y-51658152D01*
X37454285Y-51658152D02*
X37406666Y-51705771D01*
X37406666Y-51705771D02*
X37311428Y-51753390D01*
X37311428Y-51753390D02*
X37120952Y-51753390D01*
X37120952Y-51753390D02*
X37025714Y-51801009D01*
X37025714Y-51801009D02*
X36978095Y-51848628D01*
X36978095Y-51848628D02*
X36930476Y-51943866D01*
X36930476Y-51943866D02*
X36930476Y-52134342D01*
X36930476Y-52134342D02*
X36978095Y-52229580D01*
X36978095Y-52229580D02*
X37025714Y-52277200D01*
X37025714Y-52277200D02*
X37120952Y-52324819D01*
X37120952Y-52324819D02*
X37311428Y-52324819D01*
X37311428Y-52324819D02*
X37406666Y-52277200D01*
X37406666Y-52277200D02*
X37454285Y-52229580D01*
X37454285Y-52229580D02*
X37501904Y-52134342D01*
X37501904Y-52134342D02*
X37501904Y-51943866D01*
X37501904Y-51943866D02*
X37454285Y-51848628D01*
X37454285Y-51848628D02*
X37406666Y-51801009D01*
X37406666Y-51801009D02*
X37311428Y-51753390D01*
X58293095Y-115714819D02*
X58293095Y-116524342D01*
X58293095Y-116524342D02*
X58340714Y-116619580D01*
X58340714Y-116619580D02*
X58388333Y-116667200D01*
X58388333Y-116667200D02*
X58483571Y-116714819D01*
X58483571Y-116714819D02*
X58674047Y-116714819D01*
X58674047Y-116714819D02*
X58769285Y-116667200D01*
X58769285Y-116667200D02*
X58816904Y-116619580D01*
X58816904Y-116619580D02*
X58864523Y-116524342D01*
X58864523Y-116524342D02*
X58864523Y-115714819D01*
X59293095Y-115810057D02*
X59340714Y-115762438D01*
X59340714Y-115762438D02*
X59435952Y-115714819D01*
X59435952Y-115714819D02*
X59674047Y-115714819D01*
X59674047Y-115714819D02*
X59769285Y-115762438D01*
X59769285Y-115762438D02*
X59816904Y-115810057D01*
X59816904Y-115810057D02*
X59864523Y-115905295D01*
X59864523Y-115905295D02*
X59864523Y-116000533D01*
X59864523Y-116000533D02*
X59816904Y-116143390D01*
X59816904Y-116143390D02*
X59245476Y-116714819D01*
X59245476Y-116714819D02*
X59864523Y-116714819D01*
X84927142Y-50344819D02*
X84593809Y-49868628D01*
X84355714Y-50344819D02*
X84355714Y-49344819D01*
X84355714Y-49344819D02*
X84736666Y-49344819D01*
X84736666Y-49344819D02*
X84831904Y-49392438D01*
X84831904Y-49392438D02*
X84879523Y-49440057D01*
X84879523Y-49440057D02*
X84927142Y-49535295D01*
X84927142Y-49535295D02*
X84927142Y-49678152D01*
X84927142Y-49678152D02*
X84879523Y-49773390D01*
X84879523Y-49773390D02*
X84831904Y-49821009D01*
X84831904Y-49821009D02*
X84736666Y-49868628D01*
X84736666Y-49868628D02*
X84355714Y-49868628D01*
X85879523Y-50344819D02*
X85308095Y-50344819D01*
X85593809Y-50344819D02*
X85593809Y-49344819D01*
X85593809Y-49344819D02*
X85498571Y-49487676D01*
X85498571Y-49487676D02*
X85403333Y-49582914D01*
X85403333Y-49582914D02*
X85308095Y-49630533D01*
X86736666Y-49678152D02*
X86736666Y-50344819D01*
X86498571Y-49297200D02*
X86260476Y-50011485D01*
X86260476Y-50011485D02*
X86879523Y-50011485D01*
X95972333Y-63031580D02*
X95924714Y-63079200D01*
X95924714Y-63079200D02*
X95781857Y-63126819D01*
X95781857Y-63126819D02*
X95686619Y-63126819D01*
X95686619Y-63126819D02*
X95543762Y-63079200D01*
X95543762Y-63079200D02*
X95448524Y-62983961D01*
X95448524Y-62983961D02*
X95400905Y-62888723D01*
X95400905Y-62888723D02*
X95353286Y-62698247D01*
X95353286Y-62698247D02*
X95353286Y-62555390D01*
X95353286Y-62555390D02*
X95400905Y-62364914D01*
X95400905Y-62364914D02*
X95448524Y-62269676D01*
X95448524Y-62269676D02*
X95543762Y-62174438D01*
X95543762Y-62174438D02*
X95686619Y-62126819D01*
X95686619Y-62126819D02*
X95781857Y-62126819D01*
X95781857Y-62126819D02*
X95924714Y-62174438D01*
X95924714Y-62174438D02*
X95972333Y-62222057D01*
X96448524Y-63126819D02*
X96639000Y-63126819D01*
X96639000Y-63126819D02*
X96734238Y-63079200D01*
X96734238Y-63079200D02*
X96781857Y-63031580D01*
X96781857Y-63031580D02*
X96877095Y-62888723D01*
X96877095Y-62888723D02*
X96924714Y-62698247D01*
X96924714Y-62698247D02*
X96924714Y-62317295D01*
X96924714Y-62317295D02*
X96877095Y-62222057D01*
X96877095Y-62222057D02*
X96829476Y-62174438D01*
X96829476Y-62174438D02*
X96734238Y-62126819D01*
X96734238Y-62126819D02*
X96543762Y-62126819D01*
X96543762Y-62126819D02*
X96448524Y-62174438D01*
X96448524Y-62174438D02*
X96400905Y-62222057D01*
X96400905Y-62222057D02*
X96353286Y-62317295D01*
X96353286Y-62317295D02*
X96353286Y-62555390D01*
X96353286Y-62555390D02*
X96400905Y-62650628D01*
X96400905Y-62650628D02*
X96448524Y-62698247D01*
X96448524Y-62698247D02*
X96543762Y-62745866D01*
X96543762Y-62745866D02*
X96734238Y-62745866D01*
X96734238Y-62745866D02*
X96829476Y-62698247D01*
X96829476Y-62698247D02*
X96877095Y-62650628D01*
X96877095Y-62650628D02*
X96924714Y-62555390D01*
X70858142Y-92561580D02*
X70810523Y-92609200D01*
X70810523Y-92609200D02*
X70667666Y-92656819D01*
X70667666Y-92656819D02*
X70572428Y-92656819D01*
X70572428Y-92656819D02*
X70429571Y-92609200D01*
X70429571Y-92609200D02*
X70334333Y-92513961D01*
X70334333Y-92513961D02*
X70286714Y-92418723D01*
X70286714Y-92418723D02*
X70239095Y-92228247D01*
X70239095Y-92228247D02*
X70239095Y-92085390D01*
X70239095Y-92085390D02*
X70286714Y-91894914D01*
X70286714Y-91894914D02*
X70334333Y-91799676D01*
X70334333Y-91799676D02*
X70429571Y-91704438D01*
X70429571Y-91704438D02*
X70572428Y-91656819D01*
X70572428Y-91656819D02*
X70667666Y-91656819D01*
X70667666Y-91656819D02*
X70810523Y-91704438D01*
X70810523Y-91704438D02*
X70858142Y-91752057D01*
X71239095Y-91752057D02*
X71286714Y-91704438D01*
X71286714Y-91704438D02*
X71381952Y-91656819D01*
X71381952Y-91656819D02*
X71620047Y-91656819D01*
X71620047Y-91656819D02*
X71715285Y-91704438D01*
X71715285Y-91704438D02*
X71762904Y-91752057D01*
X71762904Y-91752057D02*
X71810523Y-91847295D01*
X71810523Y-91847295D02*
X71810523Y-91942533D01*
X71810523Y-91942533D02*
X71762904Y-92085390D01*
X71762904Y-92085390D02*
X71191476Y-92656819D01*
X71191476Y-92656819D02*
X71810523Y-92656819D01*
X72143857Y-91656819D02*
X72810523Y-91656819D01*
X72810523Y-91656819D02*
X72381952Y-92656819D01*
X37918095Y-73754819D02*
X38489523Y-73754819D01*
X38203809Y-74754819D02*
X38203809Y-73754819D01*
X38822857Y-74754819D02*
X38822857Y-73754819D01*
X38822857Y-73754819D02*
X39203809Y-73754819D01*
X39203809Y-73754819D02*
X39299047Y-73802438D01*
X39299047Y-73802438D02*
X39346666Y-73850057D01*
X39346666Y-73850057D02*
X39394285Y-73945295D01*
X39394285Y-73945295D02*
X39394285Y-74088152D01*
X39394285Y-74088152D02*
X39346666Y-74183390D01*
X39346666Y-74183390D02*
X39299047Y-74231009D01*
X39299047Y-74231009D02*
X39203809Y-74278628D01*
X39203809Y-74278628D02*
X38822857Y-74278628D01*
X40251428Y-73754819D02*
X40060952Y-73754819D01*
X40060952Y-73754819D02*
X39965714Y-73802438D01*
X39965714Y-73802438D02*
X39918095Y-73850057D01*
X39918095Y-73850057D02*
X39822857Y-73992914D01*
X39822857Y-73992914D02*
X39775238Y-74183390D01*
X39775238Y-74183390D02*
X39775238Y-74564342D01*
X39775238Y-74564342D02*
X39822857Y-74659580D01*
X39822857Y-74659580D02*
X39870476Y-74707200D01*
X39870476Y-74707200D02*
X39965714Y-74754819D01*
X39965714Y-74754819D02*
X40156190Y-74754819D01*
X40156190Y-74754819D02*
X40251428Y-74707200D01*
X40251428Y-74707200D02*
X40299047Y-74659580D01*
X40299047Y-74659580D02*
X40346666Y-74564342D01*
X40346666Y-74564342D02*
X40346666Y-74326247D01*
X40346666Y-74326247D02*
X40299047Y-74231009D01*
X40299047Y-74231009D02*
X40251428Y-74183390D01*
X40251428Y-74183390D02*
X40156190Y-74135771D01*
X40156190Y-74135771D02*
X39965714Y-74135771D01*
X39965714Y-74135771D02*
X39870476Y-74183390D01*
X39870476Y-74183390D02*
X39822857Y-74231009D01*
X39822857Y-74231009D02*
X39775238Y-74326247D01*
X107877142Y-72329580D02*
X107829523Y-72377200D01*
X107829523Y-72377200D02*
X107686666Y-72424819D01*
X107686666Y-72424819D02*
X107591428Y-72424819D01*
X107591428Y-72424819D02*
X107448571Y-72377200D01*
X107448571Y-72377200D02*
X107353333Y-72281961D01*
X107353333Y-72281961D02*
X107305714Y-72186723D01*
X107305714Y-72186723D02*
X107258095Y-71996247D01*
X107258095Y-71996247D02*
X107258095Y-71853390D01*
X107258095Y-71853390D02*
X107305714Y-71662914D01*
X107305714Y-71662914D02*
X107353333Y-71567676D01*
X107353333Y-71567676D02*
X107448571Y-71472438D01*
X107448571Y-71472438D02*
X107591428Y-71424819D01*
X107591428Y-71424819D02*
X107686666Y-71424819D01*
X107686666Y-71424819D02*
X107829523Y-71472438D01*
X107829523Y-71472438D02*
X107877142Y-71520057D01*
X108210476Y-71424819D02*
X108829523Y-71424819D01*
X108829523Y-71424819D02*
X108496190Y-71805771D01*
X108496190Y-71805771D02*
X108639047Y-71805771D01*
X108639047Y-71805771D02*
X108734285Y-71853390D01*
X108734285Y-71853390D02*
X108781904Y-71901009D01*
X108781904Y-71901009D02*
X108829523Y-71996247D01*
X108829523Y-71996247D02*
X108829523Y-72234342D01*
X108829523Y-72234342D02*
X108781904Y-72329580D01*
X108781904Y-72329580D02*
X108734285Y-72377200D01*
X108734285Y-72377200D02*
X108639047Y-72424819D01*
X108639047Y-72424819D02*
X108353333Y-72424819D01*
X108353333Y-72424819D02*
X108258095Y-72377200D01*
X108258095Y-72377200D02*
X108210476Y-72329580D01*
X109162857Y-71424819D02*
X109781904Y-71424819D01*
X109781904Y-71424819D02*
X109448571Y-71805771D01*
X109448571Y-71805771D02*
X109591428Y-71805771D01*
X109591428Y-71805771D02*
X109686666Y-71853390D01*
X109686666Y-71853390D02*
X109734285Y-71901009D01*
X109734285Y-71901009D02*
X109781904Y-71996247D01*
X109781904Y-71996247D02*
X109781904Y-72234342D01*
X109781904Y-72234342D02*
X109734285Y-72329580D01*
X109734285Y-72329580D02*
X109686666Y-72377200D01*
X109686666Y-72377200D02*
X109591428Y-72424819D01*
X109591428Y-72424819D02*
X109305714Y-72424819D01*
X109305714Y-72424819D02*
X109210476Y-72377200D01*
X109210476Y-72377200D02*
X109162857Y-72329580D01*
X44127142Y-127924819D02*
X43793809Y-127448628D01*
X43555714Y-127924819D02*
X43555714Y-126924819D01*
X43555714Y-126924819D02*
X43936666Y-126924819D01*
X43936666Y-126924819D02*
X44031904Y-126972438D01*
X44031904Y-126972438D02*
X44079523Y-127020057D01*
X44079523Y-127020057D02*
X44127142Y-127115295D01*
X44127142Y-127115295D02*
X44127142Y-127258152D01*
X44127142Y-127258152D02*
X44079523Y-127353390D01*
X44079523Y-127353390D02*
X44031904Y-127401009D01*
X44031904Y-127401009D02*
X43936666Y-127448628D01*
X43936666Y-127448628D02*
X43555714Y-127448628D01*
X45079523Y-127924819D02*
X44508095Y-127924819D01*
X44793809Y-127924819D02*
X44793809Y-126924819D01*
X44793809Y-126924819D02*
X44698571Y-127067676D01*
X44698571Y-127067676D02*
X44603333Y-127162914D01*
X44603333Y-127162914D02*
X44508095Y-127210533D01*
X45412857Y-126924819D02*
X46031904Y-126924819D01*
X46031904Y-126924819D02*
X45698571Y-127305771D01*
X45698571Y-127305771D02*
X45841428Y-127305771D01*
X45841428Y-127305771D02*
X45936666Y-127353390D01*
X45936666Y-127353390D02*
X45984285Y-127401009D01*
X45984285Y-127401009D02*
X46031904Y-127496247D01*
X46031904Y-127496247D02*
X46031904Y-127734342D01*
X46031904Y-127734342D02*
X45984285Y-127829580D01*
X45984285Y-127829580D02*
X45936666Y-127877200D01*
X45936666Y-127877200D02*
X45841428Y-127924819D01*
X45841428Y-127924819D02*
X45555714Y-127924819D01*
X45555714Y-127924819D02*
X45460476Y-127877200D01*
X45460476Y-127877200D02*
X45412857Y-127829580D01*
X69579580Y-44902857D02*
X69627200Y-44950476D01*
X69627200Y-44950476D02*
X69674819Y-45093333D01*
X69674819Y-45093333D02*
X69674819Y-45188571D01*
X69674819Y-45188571D02*
X69627200Y-45331428D01*
X69627200Y-45331428D02*
X69531961Y-45426666D01*
X69531961Y-45426666D02*
X69436723Y-45474285D01*
X69436723Y-45474285D02*
X69246247Y-45521904D01*
X69246247Y-45521904D02*
X69103390Y-45521904D01*
X69103390Y-45521904D02*
X68912914Y-45474285D01*
X68912914Y-45474285D02*
X68817676Y-45426666D01*
X68817676Y-45426666D02*
X68722438Y-45331428D01*
X68722438Y-45331428D02*
X68674819Y-45188571D01*
X68674819Y-45188571D02*
X68674819Y-45093333D01*
X68674819Y-45093333D02*
X68722438Y-44950476D01*
X68722438Y-44950476D02*
X68770057Y-44902857D01*
X68674819Y-44569523D02*
X68674819Y-43950476D01*
X68674819Y-43950476D02*
X69055771Y-44283809D01*
X69055771Y-44283809D02*
X69055771Y-44140952D01*
X69055771Y-44140952D02*
X69103390Y-44045714D01*
X69103390Y-44045714D02*
X69151009Y-43998095D01*
X69151009Y-43998095D02*
X69246247Y-43950476D01*
X69246247Y-43950476D02*
X69484342Y-43950476D01*
X69484342Y-43950476D02*
X69579580Y-43998095D01*
X69579580Y-43998095D02*
X69627200Y-44045714D01*
X69627200Y-44045714D02*
X69674819Y-44140952D01*
X69674819Y-44140952D02*
X69674819Y-44426666D01*
X69674819Y-44426666D02*
X69627200Y-44521904D01*
X69627200Y-44521904D02*
X69579580Y-44569523D01*
X69674819Y-42998095D02*
X69674819Y-43569523D01*
X69674819Y-43283809D02*
X68674819Y-43283809D01*
X68674819Y-43283809D02*
X68817676Y-43379047D01*
X68817676Y-43379047D02*
X68912914Y-43474285D01*
X68912914Y-43474285D02*
X68960533Y-43569523D01*
X75568095Y-92786819D02*
X76139523Y-92786819D01*
X75853809Y-93786819D02*
X75853809Y-92786819D01*
X76472857Y-93786819D02*
X76472857Y-92786819D01*
X76472857Y-92786819D02*
X76853809Y-92786819D01*
X76853809Y-92786819D02*
X76949047Y-92834438D01*
X76949047Y-92834438D02*
X76996666Y-92882057D01*
X76996666Y-92882057D02*
X77044285Y-92977295D01*
X77044285Y-92977295D02*
X77044285Y-93120152D01*
X77044285Y-93120152D02*
X76996666Y-93215390D01*
X76996666Y-93215390D02*
X76949047Y-93263009D01*
X76949047Y-93263009D02*
X76853809Y-93310628D01*
X76853809Y-93310628D02*
X76472857Y-93310628D01*
X77377619Y-92786819D02*
X77996666Y-92786819D01*
X77996666Y-92786819D02*
X77663333Y-93167771D01*
X77663333Y-93167771D02*
X77806190Y-93167771D01*
X77806190Y-93167771D02*
X77901428Y-93215390D01*
X77901428Y-93215390D02*
X77949047Y-93263009D01*
X77949047Y-93263009D02*
X77996666Y-93358247D01*
X77996666Y-93358247D02*
X77996666Y-93596342D01*
X77996666Y-93596342D02*
X77949047Y-93691580D01*
X77949047Y-93691580D02*
X77901428Y-93739200D01*
X77901428Y-93739200D02*
X77806190Y-93786819D01*
X77806190Y-93786819D02*
X77520476Y-93786819D01*
X77520476Y-93786819D02*
X77425238Y-93739200D01*
X77425238Y-93739200D02*
X77377619Y-93691580D01*
X50416666Y-125254819D02*
X50416666Y-125969104D01*
X50416666Y-125969104D02*
X50369047Y-126111961D01*
X50369047Y-126111961D02*
X50273809Y-126207200D01*
X50273809Y-126207200D02*
X50130952Y-126254819D01*
X50130952Y-126254819D02*
X50035714Y-126254819D01*
X50892857Y-126254819D02*
X50892857Y-125254819D01*
X50892857Y-125254819D02*
X51273809Y-125254819D01*
X51273809Y-125254819D02*
X51369047Y-125302438D01*
X51369047Y-125302438D02*
X51416666Y-125350057D01*
X51416666Y-125350057D02*
X51464285Y-125445295D01*
X51464285Y-125445295D02*
X51464285Y-125588152D01*
X51464285Y-125588152D02*
X51416666Y-125683390D01*
X51416666Y-125683390D02*
X51369047Y-125731009D01*
X51369047Y-125731009D02*
X51273809Y-125778628D01*
X51273809Y-125778628D02*
X50892857Y-125778628D01*
X51797619Y-125254819D02*
X52416666Y-125254819D01*
X52416666Y-125254819D02*
X52083333Y-125635771D01*
X52083333Y-125635771D02*
X52226190Y-125635771D01*
X52226190Y-125635771D02*
X52321428Y-125683390D01*
X52321428Y-125683390D02*
X52369047Y-125731009D01*
X52369047Y-125731009D02*
X52416666Y-125826247D01*
X52416666Y-125826247D02*
X52416666Y-126064342D01*
X52416666Y-126064342D02*
X52369047Y-126159580D01*
X52369047Y-126159580D02*
X52321428Y-126207200D01*
X52321428Y-126207200D02*
X52226190Y-126254819D01*
X52226190Y-126254819D02*
X51940476Y-126254819D01*
X51940476Y-126254819D02*
X51845238Y-126207200D01*
X51845238Y-126207200D02*
X51797619Y-126159580D01*
X75169580Y-114752857D02*
X75217200Y-114800476D01*
X75217200Y-114800476D02*
X75264819Y-114943333D01*
X75264819Y-114943333D02*
X75264819Y-115038571D01*
X75264819Y-115038571D02*
X75217200Y-115181428D01*
X75217200Y-115181428D02*
X75121961Y-115276666D01*
X75121961Y-115276666D02*
X75026723Y-115324285D01*
X75026723Y-115324285D02*
X74836247Y-115371904D01*
X74836247Y-115371904D02*
X74693390Y-115371904D01*
X74693390Y-115371904D02*
X74502914Y-115324285D01*
X74502914Y-115324285D02*
X74407676Y-115276666D01*
X74407676Y-115276666D02*
X74312438Y-115181428D01*
X74312438Y-115181428D02*
X74264819Y-115038571D01*
X74264819Y-115038571D02*
X74264819Y-114943333D01*
X74264819Y-114943333D02*
X74312438Y-114800476D01*
X74312438Y-114800476D02*
X74360057Y-114752857D01*
X74360057Y-114371904D02*
X74312438Y-114324285D01*
X74312438Y-114324285D02*
X74264819Y-114229047D01*
X74264819Y-114229047D02*
X74264819Y-113990952D01*
X74264819Y-113990952D02*
X74312438Y-113895714D01*
X74312438Y-113895714D02*
X74360057Y-113848095D01*
X74360057Y-113848095D02*
X74455295Y-113800476D01*
X74455295Y-113800476D02*
X74550533Y-113800476D01*
X74550533Y-113800476D02*
X74693390Y-113848095D01*
X74693390Y-113848095D02*
X75264819Y-114419523D01*
X75264819Y-114419523D02*
X75264819Y-113800476D01*
X74264819Y-113181428D02*
X74264819Y-113086190D01*
X74264819Y-113086190D02*
X74312438Y-112990952D01*
X74312438Y-112990952D02*
X74360057Y-112943333D01*
X74360057Y-112943333D02*
X74455295Y-112895714D01*
X74455295Y-112895714D02*
X74645771Y-112848095D01*
X74645771Y-112848095D02*
X74883866Y-112848095D01*
X74883866Y-112848095D02*
X75074342Y-112895714D01*
X75074342Y-112895714D02*
X75169580Y-112943333D01*
X75169580Y-112943333D02*
X75217200Y-112990952D01*
X75217200Y-112990952D02*
X75264819Y-113086190D01*
X75264819Y-113086190D02*
X75264819Y-113181428D01*
X75264819Y-113181428D02*
X75217200Y-113276666D01*
X75217200Y-113276666D02*
X75169580Y-113324285D01*
X75169580Y-113324285D02*
X75074342Y-113371904D01*
X75074342Y-113371904D02*
X74883866Y-113419523D01*
X74883866Y-113419523D02*
X74645771Y-113419523D01*
X74645771Y-113419523D02*
X74455295Y-113371904D01*
X74455295Y-113371904D02*
X74360057Y-113324285D01*
X74360057Y-113324285D02*
X74312438Y-113276666D01*
X74312438Y-113276666D02*
X74264819Y-113181428D01*
X41212833Y-85754319D02*
X40879500Y-85278128D01*
X40641405Y-85754319D02*
X40641405Y-84754319D01*
X40641405Y-84754319D02*
X41022357Y-84754319D01*
X41022357Y-84754319D02*
X41117595Y-84801938D01*
X41117595Y-84801938D02*
X41165214Y-84849557D01*
X41165214Y-84849557D02*
X41212833Y-84944795D01*
X41212833Y-84944795D02*
X41212833Y-85087652D01*
X41212833Y-85087652D02*
X41165214Y-85182890D01*
X41165214Y-85182890D02*
X41117595Y-85230509D01*
X41117595Y-85230509D02*
X41022357Y-85278128D01*
X41022357Y-85278128D02*
X40641405Y-85278128D01*
X42069976Y-85087652D02*
X42069976Y-85754319D01*
X41831881Y-84706700D02*
X41593786Y-85420985D01*
X41593786Y-85420985D02*
X42212833Y-85420985D01*
X91837142Y-46049580D02*
X91789523Y-46097200D01*
X91789523Y-46097200D02*
X91646666Y-46144819D01*
X91646666Y-46144819D02*
X91551428Y-46144819D01*
X91551428Y-46144819D02*
X91408571Y-46097200D01*
X91408571Y-46097200D02*
X91313333Y-46001961D01*
X91313333Y-46001961D02*
X91265714Y-45906723D01*
X91265714Y-45906723D02*
X91218095Y-45716247D01*
X91218095Y-45716247D02*
X91218095Y-45573390D01*
X91218095Y-45573390D02*
X91265714Y-45382914D01*
X91265714Y-45382914D02*
X91313333Y-45287676D01*
X91313333Y-45287676D02*
X91408571Y-45192438D01*
X91408571Y-45192438D02*
X91551428Y-45144819D01*
X91551428Y-45144819D02*
X91646666Y-45144819D01*
X91646666Y-45144819D02*
X91789523Y-45192438D01*
X91789523Y-45192438D02*
X91837142Y-45240057D01*
X92218095Y-45240057D02*
X92265714Y-45192438D01*
X92265714Y-45192438D02*
X92360952Y-45144819D01*
X92360952Y-45144819D02*
X92599047Y-45144819D01*
X92599047Y-45144819D02*
X92694285Y-45192438D01*
X92694285Y-45192438D02*
X92741904Y-45240057D01*
X92741904Y-45240057D02*
X92789523Y-45335295D01*
X92789523Y-45335295D02*
X92789523Y-45430533D01*
X92789523Y-45430533D02*
X92741904Y-45573390D01*
X92741904Y-45573390D02*
X92170476Y-46144819D01*
X92170476Y-46144819D02*
X92789523Y-46144819D01*
X93646666Y-45478152D02*
X93646666Y-46144819D01*
X93408571Y-45097200D02*
X93170476Y-45811485D01*
X93170476Y-45811485D02*
X93789523Y-45811485D01*
X40767142Y-127754819D02*
X40433809Y-127278628D01*
X40195714Y-127754819D02*
X40195714Y-126754819D01*
X40195714Y-126754819D02*
X40576666Y-126754819D01*
X40576666Y-126754819D02*
X40671904Y-126802438D01*
X40671904Y-126802438D02*
X40719523Y-126850057D01*
X40719523Y-126850057D02*
X40767142Y-126945295D01*
X40767142Y-126945295D02*
X40767142Y-127088152D01*
X40767142Y-127088152D02*
X40719523Y-127183390D01*
X40719523Y-127183390D02*
X40671904Y-127231009D01*
X40671904Y-127231009D02*
X40576666Y-127278628D01*
X40576666Y-127278628D02*
X40195714Y-127278628D01*
X41719523Y-127754819D02*
X41148095Y-127754819D01*
X41433809Y-127754819D02*
X41433809Y-126754819D01*
X41433809Y-126754819D02*
X41338571Y-126897676D01*
X41338571Y-126897676D02*
X41243333Y-126992914D01*
X41243333Y-126992914D02*
X41148095Y-127040533D01*
X42100476Y-126850057D02*
X42148095Y-126802438D01*
X42148095Y-126802438D02*
X42243333Y-126754819D01*
X42243333Y-126754819D02*
X42481428Y-126754819D01*
X42481428Y-126754819D02*
X42576666Y-126802438D01*
X42576666Y-126802438D02*
X42624285Y-126850057D01*
X42624285Y-126850057D02*
X42671904Y-126945295D01*
X42671904Y-126945295D02*
X42671904Y-127040533D01*
X42671904Y-127040533D02*
X42624285Y-127183390D01*
X42624285Y-127183390D02*
X42052857Y-127754819D01*
X42052857Y-127754819D02*
X42671904Y-127754819D01*
X96401142Y-47805580D02*
X96353523Y-47853200D01*
X96353523Y-47853200D02*
X96210666Y-47900819D01*
X96210666Y-47900819D02*
X96115428Y-47900819D01*
X96115428Y-47900819D02*
X95972571Y-47853200D01*
X95972571Y-47853200D02*
X95877333Y-47757961D01*
X95877333Y-47757961D02*
X95829714Y-47662723D01*
X95829714Y-47662723D02*
X95782095Y-47472247D01*
X95782095Y-47472247D02*
X95782095Y-47329390D01*
X95782095Y-47329390D02*
X95829714Y-47138914D01*
X95829714Y-47138914D02*
X95877333Y-47043676D01*
X95877333Y-47043676D02*
X95972571Y-46948438D01*
X95972571Y-46948438D02*
X96115428Y-46900819D01*
X96115428Y-46900819D02*
X96210666Y-46900819D01*
X96210666Y-46900819D02*
X96353523Y-46948438D01*
X96353523Y-46948438D02*
X96401142Y-46996057D01*
X96782095Y-46996057D02*
X96829714Y-46948438D01*
X96829714Y-46948438D02*
X96924952Y-46900819D01*
X96924952Y-46900819D02*
X97163047Y-46900819D01*
X97163047Y-46900819D02*
X97258285Y-46948438D01*
X97258285Y-46948438D02*
X97305904Y-46996057D01*
X97305904Y-46996057D02*
X97353523Y-47091295D01*
X97353523Y-47091295D02*
X97353523Y-47186533D01*
X97353523Y-47186533D02*
X97305904Y-47329390D01*
X97305904Y-47329390D02*
X96734476Y-47900819D01*
X96734476Y-47900819D02*
X97353523Y-47900819D01*
X97924952Y-47329390D02*
X97829714Y-47281771D01*
X97829714Y-47281771D02*
X97782095Y-47234152D01*
X97782095Y-47234152D02*
X97734476Y-47138914D01*
X97734476Y-47138914D02*
X97734476Y-47091295D01*
X97734476Y-47091295D02*
X97782095Y-46996057D01*
X97782095Y-46996057D02*
X97829714Y-46948438D01*
X97829714Y-46948438D02*
X97924952Y-46900819D01*
X97924952Y-46900819D02*
X98115428Y-46900819D01*
X98115428Y-46900819D02*
X98210666Y-46948438D01*
X98210666Y-46948438D02*
X98258285Y-46996057D01*
X98258285Y-46996057D02*
X98305904Y-47091295D01*
X98305904Y-47091295D02*
X98305904Y-47138914D01*
X98305904Y-47138914D02*
X98258285Y-47234152D01*
X98258285Y-47234152D02*
X98210666Y-47281771D01*
X98210666Y-47281771D02*
X98115428Y-47329390D01*
X98115428Y-47329390D02*
X97924952Y-47329390D01*
X97924952Y-47329390D02*
X97829714Y-47377009D01*
X97829714Y-47377009D02*
X97782095Y-47424628D01*
X97782095Y-47424628D02*
X97734476Y-47519866D01*
X97734476Y-47519866D02*
X97734476Y-47710342D01*
X97734476Y-47710342D02*
X97782095Y-47805580D01*
X97782095Y-47805580D02*
X97829714Y-47853200D01*
X97829714Y-47853200D02*
X97924952Y-47900819D01*
X97924952Y-47900819D02*
X98115428Y-47900819D01*
X98115428Y-47900819D02*
X98210666Y-47853200D01*
X98210666Y-47853200D02*
X98258285Y-47805580D01*
X98258285Y-47805580D02*
X98305904Y-47710342D01*
X98305904Y-47710342D02*
X98305904Y-47519866D01*
X98305904Y-47519866D02*
X98258285Y-47424628D01*
X98258285Y-47424628D02*
X98210666Y-47377009D01*
X98210666Y-47377009D02*
X98115428Y-47329390D01*
X76729580Y-44902857D02*
X76777200Y-44950476D01*
X76777200Y-44950476D02*
X76824819Y-45093333D01*
X76824819Y-45093333D02*
X76824819Y-45188571D01*
X76824819Y-45188571D02*
X76777200Y-45331428D01*
X76777200Y-45331428D02*
X76681961Y-45426666D01*
X76681961Y-45426666D02*
X76586723Y-45474285D01*
X76586723Y-45474285D02*
X76396247Y-45521904D01*
X76396247Y-45521904D02*
X76253390Y-45521904D01*
X76253390Y-45521904D02*
X76062914Y-45474285D01*
X76062914Y-45474285D02*
X75967676Y-45426666D01*
X75967676Y-45426666D02*
X75872438Y-45331428D01*
X75872438Y-45331428D02*
X75824819Y-45188571D01*
X75824819Y-45188571D02*
X75824819Y-45093333D01*
X75824819Y-45093333D02*
X75872438Y-44950476D01*
X75872438Y-44950476D02*
X75920057Y-44902857D01*
X75920057Y-44521904D02*
X75872438Y-44474285D01*
X75872438Y-44474285D02*
X75824819Y-44379047D01*
X75824819Y-44379047D02*
X75824819Y-44140952D01*
X75824819Y-44140952D02*
X75872438Y-44045714D01*
X75872438Y-44045714D02*
X75920057Y-43998095D01*
X75920057Y-43998095D02*
X76015295Y-43950476D01*
X76015295Y-43950476D02*
X76110533Y-43950476D01*
X76110533Y-43950476D02*
X76253390Y-43998095D01*
X76253390Y-43998095D02*
X76824819Y-44569523D01*
X76824819Y-44569523D02*
X76824819Y-43950476D01*
X76824819Y-43474285D02*
X76824819Y-43283809D01*
X76824819Y-43283809D02*
X76777200Y-43188571D01*
X76777200Y-43188571D02*
X76729580Y-43140952D01*
X76729580Y-43140952D02*
X76586723Y-43045714D01*
X76586723Y-43045714D02*
X76396247Y-42998095D01*
X76396247Y-42998095D02*
X76015295Y-42998095D01*
X76015295Y-42998095D02*
X75920057Y-43045714D01*
X75920057Y-43045714D02*
X75872438Y-43093333D01*
X75872438Y-43093333D02*
X75824819Y-43188571D01*
X75824819Y-43188571D02*
X75824819Y-43379047D01*
X75824819Y-43379047D02*
X75872438Y-43474285D01*
X75872438Y-43474285D02*
X75920057Y-43521904D01*
X75920057Y-43521904D02*
X76015295Y-43569523D01*
X76015295Y-43569523D02*
X76253390Y-43569523D01*
X76253390Y-43569523D02*
X76348628Y-43521904D01*
X76348628Y-43521904D02*
X76396247Y-43474285D01*
X76396247Y-43474285D02*
X76443866Y-43379047D01*
X76443866Y-43379047D02*
X76443866Y-43188571D01*
X76443866Y-43188571D02*
X76396247Y-43093333D01*
X76396247Y-43093333D02*
X76348628Y-43045714D01*
X76348628Y-43045714D02*
X76253390Y-42998095D01*
X102757142Y-47159580D02*
X102709523Y-47207200D01*
X102709523Y-47207200D02*
X102566666Y-47254819D01*
X102566666Y-47254819D02*
X102471428Y-47254819D01*
X102471428Y-47254819D02*
X102328571Y-47207200D01*
X102328571Y-47207200D02*
X102233333Y-47111961D01*
X102233333Y-47111961D02*
X102185714Y-47016723D01*
X102185714Y-47016723D02*
X102138095Y-46826247D01*
X102138095Y-46826247D02*
X102138095Y-46683390D01*
X102138095Y-46683390D02*
X102185714Y-46492914D01*
X102185714Y-46492914D02*
X102233333Y-46397676D01*
X102233333Y-46397676D02*
X102328571Y-46302438D01*
X102328571Y-46302438D02*
X102471428Y-46254819D01*
X102471428Y-46254819D02*
X102566666Y-46254819D01*
X102566666Y-46254819D02*
X102709523Y-46302438D01*
X102709523Y-46302438D02*
X102757142Y-46350057D01*
X103614285Y-46588152D02*
X103614285Y-47254819D01*
X103376190Y-46207200D02*
X103138095Y-46921485D01*
X103138095Y-46921485D02*
X103757142Y-46921485D01*
X104328571Y-46254819D02*
X104423809Y-46254819D01*
X104423809Y-46254819D02*
X104519047Y-46302438D01*
X104519047Y-46302438D02*
X104566666Y-46350057D01*
X104566666Y-46350057D02*
X104614285Y-46445295D01*
X104614285Y-46445295D02*
X104661904Y-46635771D01*
X104661904Y-46635771D02*
X104661904Y-46873866D01*
X104661904Y-46873866D02*
X104614285Y-47064342D01*
X104614285Y-47064342D02*
X104566666Y-47159580D01*
X104566666Y-47159580D02*
X104519047Y-47207200D01*
X104519047Y-47207200D02*
X104423809Y-47254819D01*
X104423809Y-47254819D02*
X104328571Y-47254819D01*
X104328571Y-47254819D02*
X104233333Y-47207200D01*
X104233333Y-47207200D02*
X104185714Y-47159580D01*
X104185714Y-47159580D02*
X104138095Y-47064342D01*
X104138095Y-47064342D02*
X104090476Y-46873866D01*
X104090476Y-46873866D02*
X104090476Y-46635771D01*
X104090476Y-46635771D02*
X104138095Y-46445295D01*
X104138095Y-46445295D02*
X104185714Y-46350057D01*
X104185714Y-46350057D02*
X104233333Y-46302438D01*
X104233333Y-46302438D02*
X104328571Y-46254819D01*
D11*
%TO.C,R20*%
X89865000Y-112414564D02*
X89865000Y-111960436D01*
X91335000Y-112414564D02*
X91335000Y-111960436D01*
%TO.C,R19*%
X92465000Y-112427064D02*
X92465000Y-111972936D01*
X93935000Y-112427064D02*
X93935000Y-111972936D01*
%TO.C,J4*%
X85220000Y-116640000D02*
X85220000Y-118290000D01*
X85220000Y-121710000D02*
X85220000Y-128800000D01*
X87390000Y-116640000D02*
X85220000Y-116640000D01*
X87390000Y-116640000D02*
X87390000Y-114800000D01*
X96210000Y-116640000D02*
X98380000Y-116640000D01*
X98380000Y-116640000D02*
X98380000Y-118290000D01*
X98380000Y-121710000D02*
X98380000Y-128800000D01*
%TO.C,C53*%
X100365000Y-112038748D02*
X100365000Y-112561252D01*
X101835000Y-112038748D02*
X101835000Y-112561252D01*
%TO.C,C52*%
X86888748Y-113535000D02*
X87411252Y-113535000D01*
X86888748Y-112065000D02*
X87411252Y-112065000D01*
%TO.C,C51*%
X97461252Y-112465000D02*
X96938748Y-112465000D01*
X97461252Y-113935000D02*
X96938748Y-113935000D01*
%TO.C,J3*%
X90880000Y-29640000D02*
X29860000Y-29640000D01*
X92150000Y-29640000D02*
X93480000Y-29640000D01*
X29860000Y-29640000D02*
X29860000Y-34840000D01*
X93480000Y-34840000D02*
X29860000Y-34840000D01*
X90880000Y-32240000D02*
X93480000Y-32240000D01*
X93480000Y-29640000D02*
X93480000Y-30970000D01*
X90880000Y-29640000D02*
X90880000Y-32240000D01*
X93480000Y-32240000D02*
X93480000Y-34840000D01*
%TO.C,C22*%
X66775000Y-109974748D02*
X66775000Y-110497252D01*
X65305000Y-109974748D02*
X65305000Y-110497252D01*
%TO.C,C4*%
X51762252Y-72236000D02*
X51239748Y-72236000D01*
X51762252Y-70766000D02*
X51239748Y-70766000D01*
%TO.C,TP4*%
X73328000Y-97536000D02*
G75*
G03*
X69928000Y-97536000I-1700000J0D01*
G01*
X69928000Y-97536000D02*
G75*
G03*
X73328000Y-97536000I1700000J0D01*
G01*
%TO.C,C17*%
X74699002Y-104891750D02*
X74176498Y-104891750D01*
X74699002Y-103421750D02*
X74176498Y-103421750D01*
%TO.C,C5*%
X52270252Y-84809000D02*
X51747748Y-84809000D01*
X52270252Y-83339000D02*
X51747748Y-83339000D01*
%TO.C,C10*%
X77675000Y-44071252D02*
X77675000Y-43548748D01*
X79145000Y-44071252D02*
X79145000Y-43548748D01*
%TO.C,R9*%
X67083000Y-117598564D02*
X67083000Y-117144436D01*
X68553000Y-117598564D02*
X68553000Y-117144436D01*
%TO.C,C46*%
X121909000Y-66997252D02*
X121909000Y-66474748D01*
X123379000Y-66997252D02*
X123379000Y-66474748D01*
%TO.C,C11*%
X92735000Y-51121252D02*
X92735000Y-50598748D01*
X94205000Y-51121252D02*
X94205000Y-50598748D01*
%TO.C,C38*%
X111660000Y-94267252D02*
X111660000Y-93744748D01*
X113130000Y-94267252D02*
X113130000Y-93744748D01*
%TO.C,JP2*%
X84960000Y-46120000D02*
X84960000Y-43320000D01*
X86960000Y-46120000D02*
X84960000Y-46120000D01*
X84960000Y-43320000D02*
X86960000Y-43320000D01*
X86960000Y-43320000D02*
X86960000Y-46120000D01*
%TO.C,U6*%
X101432000Y-62415000D02*
X101432000Y-61215000D01*
X101032000Y-61215000D02*
X101032000Y-50615000D01*
X101432000Y-61215000D02*
X101032000Y-61215000D01*
X123232000Y-61215000D02*
X123632000Y-61215000D01*
X123632000Y-61215000D02*
X123632000Y-50615000D01*
X101032000Y-50615000D02*
X101432000Y-50615000D01*
X123232000Y-50615000D02*
X123632000Y-50615000D01*
%TO.C,U8*%
X33352500Y-45402500D02*
X33352500Y-45685000D01*
X33352500Y-45685000D02*
X31700000Y-45685000D01*
X33352500Y-50897500D02*
X33352500Y-50615000D01*
X36100000Y-45402500D02*
X33352500Y-45402500D01*
X36100000Y-45402500D02*
X38847500Y-45402500D01*
X36100000Y-50897500D02*
X33352500Y-50897500D01*
X36100000Y-50897500D02*
X38847500Y-50897500D01*
X38847500Y-45402500D02*
X38847500Y-45685000D01*
X38847500Y-50897500D02*
X38847500Y-50615000D01*
%TO.C,C43*%
X102859000Y-66992252D02*
X102859000Y-66469748D01*
X104329000Y-66992252D02*
X104329000Y-66469748D01*
%TO.C,C21*%
X64035000Y-121988252D02*
X64035000Y-121465748D01*
X65505000Y-121988252D02*
X65505000Y-121465748D01*
%TO.C,SW1*%
X33295000Y-58620000D02*
X39755000Y-58620000D01*
X33295000Y-58650000D02*
X33295000Y-58620000D01*
X33295000Y-60550000D02*
X33295000Y-63150000D01*
X33295000Y-65080000D02*
X33295000Y-65050000D01*
X33295000Y-65080000D02*
X39755000Y-65080000D01*
X39755000Y-58620000D02*
X39755000Y-58650000D01*
X39755000Y-60550000D02*
X39755000Y-63150000D01*
X39755000Y-65080000D02*
X39755000Y-65050000D01*
%TO.C,R3*%
X33527064Y-55535000D02*
X33072936Y-55535000D01*
X33527064Y-54065000D02*
X33072936Y-54065000D01*
%TO.C,R8*%
X70235000Y-112785436D02*
X70235000Y-113239564D01*
X68765000Y-112785436D02*
X68765000Y-113239564D01*
%TO.C,R11*%
X37238000Y-124964564D02*
X37238000Y-124510436D01*
X38708000Y-124964564D02*
X38708000Y-124510436D01*
%TO.C,C18*%
X66013000Y-117848748D02*
X66013000Y-118371252D01*
X64543000Y-117848748D02*
X64543000Y-118371252D01*
%TO.C,C12*%
X90655000Y-53978748D02*
X90655000Y-54501252D01*
X89185000Y-53978748D02*
X89185000Y-54501252D01*
%TO.C,C41*%
X111543000Y-45173748D02*
X111543000Y-45696252D01*
X110073000Y-45173748D02*
X110073000Y-45696252D01*
%TO.C,C44*%
X107558000Y-66997252D02*
X107558000Y-66474748D01*
X109028000Y-66997252D02*
X109028000Y-66474748D01*
%TO.C,J2*%
X77568000Y-125285000D02*
X77568000Y-123585000D01*
X68228000Y-125285000D02*
X68228000Y-123585000D01*
%TO.C,TP5*%
X41480000Y-106610000D02*
G75*
G03*
X38080000Y-106610000I-1700000J0D01*
G01*
X38080000Y-106610000D02*
G75*
G03*
X41480000Y-106610000I1700000J0D01*
G01*
D10*
%TO.C,U4*%
X69251750Y-105559250D02*
X74526750Y-105559250D01*
X70526750Y-110959250D02*
X74526750Y-110959250D01*
D11*
%TO.C,C14*%
X108565000Y-35428748D02*
X108565000Y-35951252D01*
X107095000Y-35428748D02*
X107095000Y-35951252D01*
%TO.C,R2*%
X46907064Y-72635000D02*
X46452936Y-72635000D01*
X46907064Y-71165000D02*
X46452936Y-71165000D01*
%TO.C,U3*%
X63180000Y-125697000D02*
X57170000Y-125697000D01*
X60930000Y-118877000D02*
X57170000Y-118877000D01*
X57170000Y-125697000D02*
X57170000Y-124437000D01*
X57170000Y-118877000D02*
X57170000Y-120137000D01*
%TO.C,C8*%
X92864000Y-79179748D02*
X92864000Y-79702252D01*
X94334000Y-79179748D02*
X94334000Y-79702252D01*
%TO.C,U5*%
X101495000Y-89685000D02*
X101495000Y-88485000D01*
X101095000Y-88485000D02*
X101095000Y-77885000D01*
X101495000Y-88485000D02*
X101095000Y-88485000D01*
X123295000Y-88485000D02*
X123695000Y-88485000D01*
X123695000Y-88485000D02*
X123695000Y-77885000D01*
X101095000Y-77885000D02*
X101495000Y-77885000D01*
X123295000Y-77885000D02*
X123695000Y-77885000D01*
%TO.C,C37*%
X107596000Y-94267252D02*
X107596000Y-93744748D01*
X109066000Y-94267252D02*
X109066000Y-93744748D01*
%TO.C,JP1*%
X47387000Y-121654000D02*
X47387000Y-118854000D01*
X49387000Y-121654000D02*
X47387000Y-121654000D01*
X47387000Y-118854000D02*
X49387000Y-118854000D01*
X49387000Y-118854000D02*
X49387000Y-121654000D01*
%TO.C,R1*%
X46989564Y-77265000D02*
X46535436Y-77265000D01*
X46989564Y-75795000D02*
X46535436Y-75795000D01*
%TO.C,C42*%
X100700000Y-66997252D02*
X100700000Y-66474748D01*
X102170000Y-66997252D02*
X102170000Y-66474748D01*
%TO.C,Y2*%
X96180000Y-43080000D02*
X108780000Y-43080000D01*
X108780000Y-37980000D02*
X96180000Y-37980000D01*
X108780000Y-43080000D02*
X108780000Y-37980000D01*
%TO.C,C30*%
X61645000Y-48468748D02*
X61645000Y-48991252D01*
X60175000Y-48468748D02*
X60175000Y-48991252D01*
%TO.C,Y1*%
X30724000Y-86134000D02*
X35824000Y-86134000D01*
X35824000Y-86134000D02*
X35824000Y-73534000D01*
X30724000Y-73534000D02*
X30724000Y-86134000D01*
%TO.C,C13*%
X96085000Y-35238748D02*
X96085000Y-35761252D01*
X97555000Y-35238748D02*
X97555000Y-35761252D01*
%TO.C,C23*%
X89069000Y-46158748D02*
X89069000Y-46681252D01*
X87599000Y-46158748D02*
X87599000Y-46681252D01*
%TO.C,R7*%
X71147000Y-117725564D02*
X71147000Y-117271436D01*
X72617000Y-117725564D02*
X72617000Y-117271436D01*
D12*
%TO.C,U1*%
X58263000Y-55707000D02*
X58263000Y-82707000D01*
X58263000Y-82707000D02*
X86263000Y-82707000D01*
X59263000Y-54707000D02*
X58263000Y-55707000D01*
X86263000Y-54707000D02*
X59263000Y-54707000D01*
X86263000Y-82707000D02*
X86263000Y-54707000D01*
D13*
X60116550Y-56207000D02*
G75*
G03*
X59409450Y-56207000I-353550J0D01*
G01*
X59409450Y-56207000D02*
G75*
G03*
X60116550Y-56207000I353550J0D01*
G01*
D11*
%TO.C,C32*%
X64125000Y-48458748D02*
X64125000Y-48981252D01*
X62655000Y-48458748D02*
X62655000Y-48981252D01*
%TO.C,C45*%
X111622000Y-66997252D02*
X111622000Y-66474748D01*
X113092000Y-66997252D02*
X113092000Y-66474748D01*
%TO.C,C35*%
X100865000Y-94267252D02*
X100865000Y-93744748D01*
X102335000Y-94267252D02*
X102335000Y-93744748D01*
%TO.C,C19*%
X70585000Y-117147748D02*
X70585000Y-117670252D01*
X69115000Y-117147748D02*
X69115000Y-117670252D01*
%TO.C,C16*%
X33128748Y-86875000D02*
X33651252Y-86875000D01*
X33128748Y-88345000D02*
X33651252Y-88345000D01*
%TO.C,C15*%
X33068748Y-70465000D02*
X33591252Y-70465000D01*
X33068748Y-71935000D02*
X33591252Y-71935000D01*
%TO.C,C1*%
X51762252Y-58647000D02*
X51239748Y-58647000D01*
X51762252Y-57177000D02*
X51239748Y-57177000D01*
%TO.C,J1*%
X35047000Y-126674000D02*
X33717000Y-126674000D01*
X35047000Y-125344000D02*
X35047000Y-126674000D01*
X35047000Y-124074000D02*
X35047000Y-101154000D01*
X35047000Y-124074000D02*
X32447000Y-124074000D01*
X35047000Y-101154000D02*
X29847000Y-101154000D01*
X32447000Y-126674000D02*
X29847000Y-126674000D01*
X32447000Y-124074000D02*
X32447000Y-126674000D01*
X29847000Y-126674000D02*
X29847000Y-101154000D01*
%TO.C,JP4*%
X48070000Y-75118000D02*
X45270000Y-75118000D01*
X48070000Y-73118000D02*
X48070000Y-75118000D01*
X45270000Y-75118000D02*
X45270000Y-73118000D01*
X45270000Y-73118000D02*
X48070000Y-73118000D01*
%TO.C,C2*%
X51823252Y-62711000D02*
X51300748Y-62711000D01*
X51823252Y-61241000D02*
X51300748Y-61241000D01*
%TO.C,C34*%
X111606000Y-72728748D02*
X111606000Y-73251252D01*
X110136000Y-72728748D02*
X110136000Y-73251252D01*
%TO.C,C39*%
X122074000Y-94267252D02*
X122074000Y-93744748D01*
X123544000Y-94267252D02*
X123544000Y-93744748D01*
%TO.C,R6*%
X73179000Y-117725564D02*
X73179000Y-117271436D01*
X74649000Y-117725564D02*
X74649000Y-117271436D01*
%TO.C,C25*%
X51921252Y-80375000D02*
X51398748Y-80375000D01*
X51921252Y-78905000D02*
X51398748Y-78905000D01*
%TO.C,C3*%
X51889252Y-68172000D02*
X51366748Y-68172000D01*
X51889252Y-66702000D02*
X51366748Y-66702000D01*
%TO.C,C7*%
X80618000Y-88765748D02*
X80618000Y-89288252D01*
X79148000Y-88765748D02*
X79148000Y-89288252D01*
%TO.C,C6*%
X66267000Y-88572748D02*
X66267000Y-89095252D01*
X64797000Y-88572748D02*
X64797000Y-89095252D01*
%TO.C,C26*%
X51218748Y-73705000D02*
X51741252Y-73705000D01*
X51218748Y-75175000D02*
X51741252Y-75175000D01*
%TO.C,C36*%
X102897000Y-94267252D02*
X102897000Y-93744748D01*
X104367000Y-94267252D02*
X104367000Y-93744748D01*
%TO.C,TP1*%
X48239500Y-82759500D02*
G75*
G03*
X44839500Y-82759500I-1700000J0D01*
G01*
X44839500Y-82759500D02*
G75*
G03*
X48239500Y-82759500I1700000J0D01*
G01*
%TO.C,R10*%
X77494500Y-117598564D02*
X77494500Y-117144436D01*
X78964500Y-117598564D02*
X78964500Y-117144436D01*
%TO.C,TP2*%
X48263000Y-86950500D02*
G75*
G03*
X44863000Y-86950500I-1700000J0D01*
G01*
X44863000Y-86950500D02*
G75*
G03*
X48263000Y-86950500I1700000J0D01*
G01*
%TO.C,TP7*%
X41490000Y-102260000D02*
G75*
G03*
X38090000Y-102260000I-1700000J0D01*
G01*
X38090000Y-102260000D02*
G75*
G03*
X41490000Y-102260000I1700000J0D01*
G01*
%TO.C,R18*%
X32472936Y-51965000D02*
X32927064Y-51965000D01*
X32472936Y-53435000D02*
X32927064Y-53435000D01*
%TO.C,U2*%
X63155000Y-115170000D02*
X57145000Y-115170000D01*
X60905000Y-108350000D02*
X57145000Y-108350000D01*
X57145000Y-115170000D02*
X57145000Y-113910000D01*
X57145000Y-108350000D02*
X57145000Y-109610000D01*
%TO.C,R14*%
X89045500Y-49941936D02*
X89045500Y-50396064D01*
X87575500Y-49941936D02*
X87575500Y-50396064D01*
%TO.C,C9*%
X95404000Y-66108252D02*
X95404000Y-65585748D01*
X96874000Y-66108252D02*
X96874000Y-65585748D01*
%TO.C,C27*%
X70766000Y-89095252D02*
X70766000Y-88572748D01*
X72236000Y-89095252D02*
X72236000Y-88572748D01*
%TO.C,TP6*%
X43900000Y-75610000D02*
G75*
G03*
X40500000Y-75610000I-1700000J0D01*
G01*
X40500000Y-75610000D02*
G75*
G03*
X43900000Y-75610000I1700000J0D01*
G01*
%TO.C,C33*%
X106780000Y-72728748D02*
X106780000Y-73251252D01*
X105310000Y-72728748D02*
X105310000Y-73251252D01*
%TO.C,R13*%
X43969000Y-124964564D02*
X43969000Y-124510436D01*
X45439000Y-124964564D02*
X45439000Y-124510436D01*
%TO.C,C31*%
X68350000Y-48776252D02*
X68350000Y-48253748D01*
X69820000Y-48776252D02*
X69820000Y-48253748D01*
%TO.C,TP3*%
X78530000Y-95830000D02*
G75*
G03*
X75130000Y-95830000I-1700000J0D01*
G01*
X75130000Y-95830000D02*
G75*
G03*
X78530000Y-95830000I1700000J0D01*
G01*
%TO.C,JP3*%
X49387000Y-123441000D02*
X49387000Y-126241000D01*
X47387000Y-123441000D02*
X49387000Y-123441000D01*
X49387000Y-126241000D02*
X47387000Y-126241000D01*
X47387000Y-126241000D02*
X47387000Y-123441000D01*
%TO.C,C20*%
X76681000Y-117147748D02*
X76681000Y-117670252D01*
X75211000Y-117147748D02*
X75211000Y-117670252D01*
%TO.C,R4*%
X42345064Y-87685500D02*
X41890936Y-87685500D01*
X42345064Y-86215500D02*
X41890936Y-86215500D01*
%TO.C,C24*%
X91355000Y-49968748D02*
X91355000Y-50491252D01*
X89885000Y-49968748D02*
X89885000Y-50491252D01*
%TO.C,R12*%
X40540000Y-124964564D02*
X40540000Y-124510436D01*
X42010000Y-124964564D02*
X42010000Y-124510436D01*
%TO.C,C28*%
X96975000Y-50568748D02*
X96975000Y-51091252D01*
X95505000Y-50568748D02*
X95505000Y-51091252D01*
%TO.C,R5*%
X42218064Y-83494500D02*
X41763936Y-83494500D01*
X42218064Y-82024500D02*
X41763936Y-82024500D01*
%TO.C,C29*%
X77525000Y-48308748D02*
X77525000Y-48831252D01*
X76055000Y-48308748D02*
X76055000Y-48831252D01*
%TO.C,C40*%
X106717000Y-45300748D02*
X106717000Y-45823252D01*
X105247000Y-45300748D02*
X105247000Y-45823252D01*
%TD*%
M02*
