%TF.GenerationSoftware,KiCad,Pcbnew,7.0.10*%
%TF.CreationDate,2024-02-10T01:11:15-05:00*%
%TF.ProjectId,9260-first,39323630-2d66-4697-9273-742e6b696361,rev?*%
%TF.SameCoordinates,Original*%
%TF.FileFunction,Copper,L1,Top*%
%TF.FilePolarity,Positive*%
%FSLAX46Y46*%
G04 Gerber Fmt 4.6, Leading zero omitted, Abs format (unit mm)*
G04 Created by KiCad (PCBNEW 7.0.10) date 2024-02-10 01:11:15*
%MOMM*%
%LPD*%
G01*
G04 APERTURE LIST*
G04 Aperture macros list*
%AMRoundRect*
0 Rectangle with rounded corners*
0 $1 Rounding radius*
0 $2 $3 $4 $5 $6 $7 $8 $9 X,Y pos of 4 corners*
0 Add a 4 corners polygon primitive as box body*
4,1,4,$2,$3,$4,$5,$6,$7,$8,$9,$2,$3,0*
0 Add four circle primitives for the rounded corners*
1,1,$1+$1,$2,$3*
1,1,$1+$1,$4,$5*
1,1,$1+$1,$6,$7*
1,1,$1+$1,$8,$9*
0 Add four rect primitives between the rounded corners*
20,1,$1+$1,$2,$3,$4,$5,0*
20,1,$1+$1,$4,$5,$6,$7,0*
20,1,$1+$1,$6,$7,$8,$9,0*
20,1,$1+$1,$8,$9,$2,$3,0*%
G04 Aperture macros list end*
%TA.AperFunction,SMDPad,CuDef*%
%ADD10RoundRect,0.250000X0.450000X-0.262500X0.450000X0.262500X-0.450000X0.262500X-0.450000X-0.262500X0*%
%TD*%
%TA.AperFunction,SMDPad,CuDef*%
%ADD11RoundRect,0.325000X-0.325000X-1.175000X0.325000X-1.175000X0.325000X1.175000X-0.325000X1.175000X0*%
%TD*%
%TA.AperFunction,ComponentPad*%
%ADD12O,1.200000X2.900000*%
%TD*%
%TA.AperFunction,SMDPad,CuDef*%
%ADD13RoundRect,0.250000X-0.475000X0.250000X-0.475000X-0.250000X0.475000X-0.250000X0.475000X0.250000X0*%
%TD*%
%TA.AperFunction,SMDPad,CuDef*%
%ADD14RoundRect,0.250000X-0.250000X-0.475000X0.250000X-0.475000X0.250000X0.475000X-0.250000X0.475000X0*%
%TD*%
%TA.AperFunction,SMDPad,CuDef*%
%ADD15RoundRect,0.250000X0.250000X0.475000X-0.250000X0.475000X-0.250000X-0.475000X0.250000X-0.475000X0*%
%TD*%
%TA.AperFunction,ComponentPad*%
%ADD16O,1.700000X1.700000*%
%TD*%
%TA.AperFunction,ComponentPad*%
%ADD17R,1.700000X1.700000*%
%TD*%
%TA.AperFunction,ComponentPad*%
%ADD18C,3.000000*%
%TD*%
%TA.AperFunction,SMDPad,CuDef*%
%ADD19RoundRect,0.250000X0.475000X-0.250000X0.475000X0.250000X-0.475000X0.250000X-0.475000X-0.250000X0*%
%TD*%
%TA.AperFunction,SMDPad,CuDef*%
%ADD20R,1.500000X1.000000*%
%TD*%
%TA.AperFunction,SMDPad,CuDef*%
%ADD21R,0.458000X1.510000*%
%TD*%
%TA.AperFunction,SMDPad,CuDef*%
%ADD22RoundRect,0.150000X-0.650000X-0.150000X0.650000X-0.150000X0.650000X0.150000X-0.650000X0.150000X0*%
%TD*%
%TA.AperFunction,SMDPad,CuDef*%
%ADD23R,1.550000X1.300000*%
%TD*%
%TA.AperFunction,SMDPad,CuDef*%
%ADD24RoundRect,0.250000X0.262500X0.450000X-0.262500X0.450000X-0.262500X-0.450000X0.262500X-0.450000X0*%
%TD*%
%TA.AperFunction,SMDPad,CuDef*%
%ADD25RoundRect,0.250000X-0.450000X0.262500X-0.450000X-0.262500X0.450000X-0.262500X0.450000X0.262500X0*%
%TD*%
%TA.AperFunction,ComponentPad*%
%ADD26O,1.000000X1.800000*%
%TD*%
%TA.AperFunction,ComponentPad*%
%ADD27O,1.000000X2.100000*%
%TD*%
%TA.AperFunction,SMDPad,CuDef*%
%ADD28RoundRect,0.150000X-0.150000X-0.425000X0.150000X-0.425000X0.150000X0.425000X-0.150000X0.425000X0*%
%TD*%
%TA.AperFunction,SMDPad,CuDef*%
%ADD29RoundRect,0.075000X-0.075000X-0.500000X0.075000X-0.500000X0.075000X0.500000X-0.075000X0.500000X0*%
%TD*%
%TA.AperFunction,SMDPad,CuDef*%
%ADD30R,1.200000X0.400000*%
%TD*%
%TA.AperFunction,SMDPad,CuDef*%
%ADD31R,2.000000X1.500000*%
%TD*%
%TA.AperFunction,SMDPad,CuDef*%
%ADD32R,2.000000X3.800000*%
%TD*%
%TA.AperFunction,SMDPad,CuDef*%
%ADD33R,4.500000X2.000000*%
%TD*%
%TA.AperFunction,SMDPad,CuDef*%
%ADD34R,2.000000X4.500000*%
%TD*%
%TA.AperFunction,SMDPad,CuDef*%
%ADD35RoundRect,0.038400X-0.711600X-0.121600X0.711600X-0.121600X0.711600X0.121600X-0.711600X0.121600X0*%
%TD*%
%TA.AperFunction,SMDPad,CuDef*%
%ADD36RoundRect,0.160000X0.000000X-0.590000X0.000000X-0.590000X0.000000X0.590000X0.000000X0.590000X0*%
%TD*%
%TA.AperFunction,SMDPad,CuDef*%
%ADD37R,1.000000X1.500000*%
%TD*%
%TA.AperFunction,SMDPad,CuDef*%
%ADD38RoundRect,0.250000X-0.262500X-0.450000X0.262500X-0.450000X0.262500X0.450000X-0.262500X0.450000X0*%
%TD*%
%TA.AperFunction,ViaPad*%
%ADD39C,0.800000*%
%TD*%
%TA.AperFunction,Conductor*%
%ADD40C,0.152000*%
%TD*%
%TA.AperFunction,Conductor*%
%ADD41C,0.250000*%
%TD*%
%TA.AperFunction,Conductor*%
%ADD42C,0.300000*%
%TD*%
%TA.AperFunction,Conductor*%
%ADD43C,0.200000*%
%TD*%
%TA.AperFunction,Conductor*%
%ADD44C,1.000000*%
%TD*%
G04 APERTURE END LIST*
D10*
%TO.P,R20,1*%
%TO.N,Net-(J4-D-)*%
X90600000Y-113100000D03*
%TO.P,R20,2*%
%TO.N,HDMA*%
X90600000Y-111275000D03*
%TD*%
%TO.P,R19,1*%
%TO.N,Net-(J4-D+)*%
X93200000Y-113112500D03*
%TO.P,R19,2*%
%TO.N,HDPA*%
X93200000Y-111287500D03*
%TD*%
D11*
%TO.P,J4,1,VBUS*%
%TO.N,VBUS*%
X88300000Y-116300000D03*
%TO.P,J4,2,D-*%
%TO.N,Net-(J4-D-)*%
X90800000Y-116300000D03*
%TO.P,J4,3,D+*%
%TO.N,Net-(J4-D+)*%
X92800000Y-116300000D03*
%TO.P,J4,4,GND*%
%TO.N,GND*%
X95300000Y-116300000D03*
D12*
%TO.P,J4,5,Shield*%
X85400000Y-120000000D03*
X98200000Y-120000000D03*
%TD*%
D13*
%TO.P,C53,1*%
%TO.N,GND*%
X101100000Y-111350000D03*
%TO.P,C53,2*%
%TO.N,VBUS*%
X101100000Y-113250000D03*
%TD*%
D14*
%TO.P,C52,1*%
%TO.N,GND*%
X86200000Y-112800000D03*
%TO.P,C52,2*%
%TO.N,Net-(J4-D-)*%
X88100000Y-112800000D03*
%TD*%
D15*
%TO.P,C51,1*%
%TO.N,GND*%
X98150000Y-113200000D03*
%TO.P,C51,2*%
%TO.N,Net-(J4-D+)*%
X96250000Y-113200000D03*
%TD*%
D16*
%TO.P,J3,50,Pin_50*%
%TO.N,3V3*%
X31190000Y-33510000D03*
%TO.P,J3,49,Pin_49*%
%TO.N,GND*%
X31190000Y-30970000D03*
%TO.P,J3,48,Pin_48*%
%TO.N,PA29*%
X33730000Y-33510000D03*
%TO.P,J3,47,Pin_47*%
%TO.N,PA28*%
X33730000Y-30970000D03*
%TO.P,J3,46,Pin_46*%
%TO.N,PA27*%
X36270000Y-33510000D03*
%TO.P,J3,45,Pin_45*%
%TO.N,PA26*%
X36270000Y-30970000D03*
%TO.P,J3,44,Pin_44*%
%TO.N,PA25*%
X38810000Y-33510000D03*
%TO.P,J3,43,Pin_43*%
%TO.N,PA24*%
X38810000Y-30970000D03*
%TO.P,J3,42,Pin_42*%
%TO.N,PA23*%
X41350000Y-33510000D03*
%TO.P,J3,41,Pin_41*%
%TO.N,PA22*%
X41350000Y-30970000D03*
%TO.P,J3,40,Pin_40*%
%TO.N,PA21*%
X43890000Y-33510000D03*
%TO.P,J3,39,Pin_39*%
%TO.N,PA20*%
X43890000Y-30970000D03*
%TO.P,J3,38,Pin_38*%
%TO.N,PA19*%
X46430000Y-33510000D03*
%TO.P,J3,37,Pin_37*%
%TO.N,PA18*%
X46430000Y-30970000D03*
%TO.P,J3,36,Pin_36*%
%TO.N,PA17*%
X48970000Y-33510000D03*
%TO.P,J3,35,Pin_35*%
%TO.N,PA16*%
X48970000Y-30970000D03*
%TO.P,J3,34,Pin_34*%
%TO.N,PA15*%
X51510000Y-33510000D03*
%TO.P,J3,33,Pin_33*%
%TO.N,PA14*%
X51510000Y-30970000D03*
%TO.P,J3,32,Pin_32*%
%TO.N,PA13*%
X54050000Y-33510000D03*
%TO.P,J3,31,Pin_31*%
%TO.N,PA12*%
X54050000Y-30970000D03*
%TO.P,J3,30,Pin_30*%
%TO.N,PA11*%
X56590000Y-33510000D03*
%TO.P,J3,29,Pin_29*%
%TO.N,PA10*%
X56590000Y-30970000D03*
%TO.P,J3,28,Pin_28*%
%TO.N,PA9*%
X59130000Y-33510000D03*
%TO.P,J3,27,Pin_27*%
%TO.N,PA8*%
X59130000Y-30970000D03*
%TO.P,J3,26,Pin_26*%
%TO.N,PA7*%
X61670000Y-33510000D03*
%TO.P,J3,25,Pin_25*%
%TO.N,PA6*%
X61670000Y-30970000D03*
%TO.P,J3,24,Pin_24*%
%TO.N,PA5*%
X64210000Y-33510000D03*
%TO.P,J3,23,Pin_23*%
%TO.N,PA4*%
X64210000Y-30970000D03*
%TO.P,J3,22,Pin_22*%
%TO.N,PA3*%
X66750000Y-33510000D03*
%TO.P,J3,21,Pin_21*%
%TO.N,PA2*%
X66750000Y-30970000D03*
%TO.P,J3,20,Pin_20*%
%TO.N,PA1*%
X69290000Y-33510000D03*
%TO.P,J3,19,Pin_19*%
%TO.N,PA0*%
X69290000Y-30970000D03*
%TO.P,J3,18,Pin_18*%
%TO.N,PB31*%
X71830000Y-33510000D03*
%TO.P,J3,17,Pin_17*%
%TO.N,PB30*%
X71830000Y-30970000D03*
%TO.P,J3,16,Pin_16*%
%TO.N,PB29*%
X74370000Y-33510000D03*
%TO.P,J3,15,Pin_15*%
%TO.N,PB28*%
X74370000Y-30970000D03*
%TO.P,J3,14,Pin_14*%
%TO.N,PB27*%
X76910000Y-33510000D03*
%TO.P,J3,13,Pin_13*%
%TO.N,PB26*%
X76910000Y-30970000D03*
%TO.P,J3,12,Pin_12*%
%TO.N,PB25*%
X79450000Y-33510000D03*
%TO.P,J3,11,Pin_11*%
%TO.N,PB24*%
X79450000Y-30970000D03*
%TO.P,J3,10,Pin_10*%
%TO.N,PB23*%
X81990000Y-33510000D03*
%TO.P,J3,9,Pin_9*%
%TO.N,PB22*%
X81990000Y-30970000D03*
%TO.P,J3,8,Pin_8*%
%TO.N,PB21*%
X84530000Y-33510000D03*
%TO.P,J3,7,Pin_7*%
%TO.N,PB20*%
X84530000Y-30970000D03*
%TO.P,J3,6,Pin_6*%
%TO.N,PB11*%
X87070000Y-33510000D03*
%TO.P,J3,5,Pin_5*%
%TO.N,PB10*%
X87070000Y-30970000D03*
%TO.P,J3,4,Pin_4*%
%TO.N,PC1*%
X89610000Y-33510000D03*
%TO.P,J3,3,Pin_3*%
%TO.N,PC0*%
X89610000Y-30970000D03*
%TO.P,J3,2,Pin_2*%
%TO.N,3V3*%
X92150000Y-33510000D03*
D17*
%TO.P,J3,1,Pin_1*%
%TO.N,GND*%
X92150000Y-30970000D03*
%TD*%
D13*
%TO.P,C22,1*%
%TO.N,VBUS*%
X66040000Y-109286000D03*
%TO.P,C22,2*%
%TO.N,GND*%
X66040000Y-111186000D03*
%TD*%
D15*
%TO.P,C4,1*%
%TO.N,3V3*%
X52451000Y-71501000D03*
%TO.P,C4,2*%
%TO.N,GND*%
X50551000Y-71501000D03*
%TD*%
D18*
%TO.P,TP4,1,1*%
%TO.N,A15*%
X71628000Y-97536000D03*
%TD*%
D15*
%TO.P,C17,1*%
%TO.N,GND*%
X75387750Y-104156750D03*
%TO.P,C17,2*%
%TO.N,Net-(U4-3V3OUT)*%
X73487750Y-104156750D03*
%TD*%
%TO.P,C5,1*%
%TO.N,3V3*%
X52959000Y-84074000D03*
%TO.P,C5,2*%
%TO.N,GND*%
X51059000Y-84074000D03*
%TD*%
D19*
%TO.P,C10,1*%
%TO.N,3V3*%
X78410000Y-44760000D03*
%TO.P,C10,2*%
%TO.N,GND*%
X78410000Y-42860000D03*
%TD*%
D10*
%TO.P,R9,1*%
%TO.N,Net-(J2-CC1)*%
X67818000Y-118284000D03*
%TO.P,R9,2*%
%TO.N,GND*%
X67818000Y-116459000D03*
%TD*%
D19*
%TO.P,C46,1*%
%TO.N,GND*%
X122644000Y-67686000D03*
%TO.P,C46,2*%
%TO.N,3V3*%
X122644000Y-65786000D03*
%TD*%
%TO.P,C11,1*%
%TO.N,1V8*%
X93470000Y-51810000D03*
%TO.P,C11,2*%
%TO.N,GND*%
X93470000Y-49910000D03*
%TD*%
%TO.P,C38,1*%
%TO.N,GND*%
X112395000Y-94956000D03*
%TO.P,C38,2*%
%TO.N,3V3*%
X112395000Y-93056000D03*
%TD*%
D20*
%TO.P,JP2,1,A*%
%TO.N,Net-(JP2-A)*%
X85960000Y-45370000D03*
%TO.P,JP2,2,B*%
%TO.N,3V3*%
X85960000Y-44070000D03*
%TD*%
D21*
%TO.P,U6,1,VDD*%
%TO.N,3V3*%
X101932000Y-61665000D03*
%TO.P,U6,2,DQ0*%
%TO.N,D16*%
X102732000Y-61665000D03*
%TO.P,U6,3,VDDQ*%
%TO.N,3V3*%
X103532000Y-61665000D03*
%TO.P,U6,4,DQ1*%
%TO.N,D17*%
X104332000Y-61665000D03*
%TO.P,U6,5,DQ2*%
%TO.N,D18*%
X105132000Y-61665000D03*
%TO.P,U6,6,VSSQ*%
%TO.N,GND*%
X105932000Y-61665000D03*
%TO.P,U6,7,DQ3*%
%TO.N,D19*%
X106732000Y-61665000D03*
%TO.P,U6,8,DQ4*%
%TO.N,D20*%
X107532000Y-61665000D03*
%TO.P,U6,9,VDDQ*%
%TO.N,3V3*%
X108332000Y-61665000D03*
%TO.P,U6,10,DQ5*%
%TO.N,D21*%
X109132000Y-61665000D03*
%TO.P,U6,11,DQ6*%
%TO.N,D22*%
X109932000Y-61665000D03*
%TO.P,U6,12,VSSQ*%
%TO.N,GND*%
X110732000Y-61665000D03*
%TO.P,U6,13,DQ7*%
%TO.N,D23*%
X111532000Y-61665000D03*
%TO.P,U6,14,VDD*%
%TO.N,3V3*%
X112332000Y-61665000D03*
%TO.P,U6,15,DQML*%
%TO.N,A1*%
X113132000Y-61665000D03*
%TO.P,U6,16,~{WE}*%
%TO.N,SDWE*%
X113932000Y-61665000D03*
%TO.P,U6,17,~{CAS}*%
%TO.N,CAS*%
X114732000Y-61665000D03*
%TO.P,U6,18,~{RAS}*%
%TO.N,RAS*%
X115532000Y-61665000D03*
%TO.P,U6,19,~{CS}*%
%TO.N,SDCS*%
X116332000Y-61665000D03*
%TO.P,U6,20,BA0*%
%TO.N,A16*%
X117132000Y-61665000D03*
%TO.P,U6,21,BA1*%
%TO.N,A17*%
X117932000Y-61665000D03*
%TO.P,U6,22,A10*%
%TO.N,SDA10*%
X118732000Y-61665000D03*
%TO.P,U6,23,A0*%
%TO.N,A2*%
X119532000Y-61665000D03*
%TO.P,U6,24,A1*%
%TO.N,A3*%
X120332000Y-61665000D03*
%TO.P,U6,25,A2*%
%TO.N,A4*%
X121132000Y-61665000D03*
%TO.P,U6,26,A3*%
%TO.N,A5*%
X121932000Y-61665000D03*
%TO.P,U6,27,VDD*%
%TO.N,3V3*%
X122732000Y-61665000D03*
%TO.P,U6,28,VSS*%
%TO.N,GND*%
X122732000Y-50165000D03*
%TO.P,U6,29,A4*%
%TO.N,A6*%
X121932000Y-50165000D03*
%TO.P,U6,30,A5*%
%TO.N,A7*%
X121132000Y-50165000D03*
%TO.P,U6,31,A6*%
%TO.N,A8*%
X120332000Y-50165000D03*
%TO.P,U6,32,A7*%
%TO.N,A9*%
X119532000Y-50165000D03*
%TO.P,U6,33,A8*%
%TO.N,A10*%
X118732000Y-50165000D03*
%TO.P,U6,34,A9*%
%TO.N,A11*%
X117932000Y-50165000D03*
%TO.P,U6,35,A11*%
%TO.N,A13*%
X117132000Y-50165000D03*
%TO.P,U6,36,A12*%
%TO.N,A14*%
X116332000Y-50165000D03*
%TO.P,U6,37,CKE*%
%TO.N,SDCKE*%
X115532000Y-50165000D03*
%TO.P,U6,38,CLK*%
%TO.N,SDCK*%
X114732000Y-50165000D03*
%TO.P,U6,39,DQMH*%
%TO.N,NBS3*%
X113932000Y-50165000D03*
%TO.P,U6,40,NC*%
%TO.N,unconnected-(U6-NC-Pad40)*%
X113132000Y-50165000D03*
%TO.P,U6,41,VSS*%
%TO.N,GND*%
X112332000Y-50165000D03*
%TO.P,U6,42,DQ8*%
%TO.N,D24*%
X111532000Y-50165000D03*
%TO.P,U6,43,VDDQ*%
%TO.N,3V3*%
X110732000Y-50165000D03*
%TO.P,U6,44,DQ9*%
%TO.N,D25*%
X109932000Y-50165000D03*
%TO.P,U6,45,DQ10*%
%TO.N,D26*%
X109132000Y-50165000D03*
%TO.P,U6,46,VSSQ*%
%TO.N,GND*%
X108332000Y-50165000D03*
%TO.P,U6,47,DQ11*%
%TO.N,D27*%
X107532000Y-50165000D03*
%TO.P,U6,48,DQ12*%
%TO.N,D28*%
X106732000Y-50165000D03*
%TO.P,U6,49,VDDQ*%
%TO.N,3V3*%
X105932000Y-50165000D03*
%TO.P,U6,50,DQ13*%
%TO.N,D29*%
X105132000Y-50165000D03*
%TO.P,U6,51,DQ14*%
%TO.N,D30*%
X104332000Y-50165000D03*
%TO.P,U6,52,VSSQ*%
%TO.N,GND*%
X103532000Y-50165000D03*
%TO.P,U6,53,DQ15*%
%TO.N,D31*%
X102732000Y-50165000D03*
%TO.P,U6,54,VSS*%
%TO.N,GND*%
X101932000Y-50165000D03*
%TD*%
D22*
%TO.P,U8,1,SI*%
%TO.N,PA1*%
X32500000Y-46245000D03*
%TO.P,U8,2,SCK*%
%TO.N,PA2*%
X32500000Y-47515000D03*
%TO.P,U8,3,~{RESET}*%
%TO.N,NRST*%
X32500000Y-48785000D03*
%TO.P,U8,4,~{CS}*%
%TO.N,SPI0_NPCS1*%
X32500000Y-50055000D03*
%TO.P,U8,5,~{WP}*%
%TO.N,unconnected-(U8-~{WP}-Pad5)*%
X39700000Y-50055000D03*
%TO.P,U8,6,VCC*%
%TO.N,3V3*%
X39700000Y-48785000D03*
%TO.P,U8,7,GND*%
%TO.N,GND*%
X39700000Y-47515000D03*
%TO.P,U8,8,SO*%
%TO.N,PA0*%
X39700000Y-46245000D03*
%TD*%
D19*
%TO.P,C43,1*%
%TO.N,GND*%
X103594000Y-67681000D03*
%TO.P,C43,2*%
%TO.N,3V3*%
X103594000Y-65781000D03*
%TD*%
%TO.P,C21,1*%
%TO.N,GND*%
X64770000Y-122677000D03*
%TO.P,C21,2*%
%TO.N,VBUS*%
X64770000Y-120777000D03*
%TD*%
D23*
%TO.P,SW1,1,1*%
%TO.N,NRST*%
X32550000Y-59600000D03*
X40500000Y-59600000D03*
%TO.P,SW1,2,2*%
%TO.N,GND*%
X32550000Y-64100000D03*
X40500000Y-64100000D03*
%TD*%
D24*
%TO.P,R3,1*%
%TO.N,NRST*%
X34212500Y-54800000D03*
%TO.P,R3,2*%
%TO.N,3V3*%
X32387500Y-54800000D03*
%TD*%
D25*
%TO.P,R8,1*%
%TO.N,Net-(U4-~{CTS})*%
X69500000Y-112100000D03*
%TO.P,R8,2*%
%TO.N,GND*%
X69500000Y-113925000D03*
%TD*%
D10*
%TO.P,R11,1*%
%TO.N,3V3*%
X37973000Y-125650000D03*
%TO.P,R11,2*%
%TO.N,Net-(J1-Pin_5)*%
X37973000Y-123825000D03*
%TD*%
D13*
%TO.P,C18,1*%
%TO.N,GND*%
X65278000Y-117160000D03*
%TO.P,C18,2*%
%TO.N,VBUS*%
X65278000Y-119060000D03*
%TD*%
%TO.P,C12,1*%
%TO.N,1V8*%
X89920000Y-53290000D03*
%TO.P,C12,2*%
%TO.N,GND*%
X89920000Y-55190000D03*
%TD*%
%TO.P,C41,1*%
%TO.N,GND*%
X110808000Y-44485000D03*
%TO.P,C41,2*%
%TO.N,3V3*%
X110808000Y-46385000D03*
%TD*%
D19*
%TO.P,C44,1*%
%TO.N,GND*%
X108293000Y-67686000D03*
%TO.P,C44,2*%
%TO.N,3V3*%
X108293000Y-65786000D03*
%TD*%
D26*
%TO.P,J2,S1,SHIELD*%
%TO.N,GND*%
X77218000Y-126460000D03*
D27*
X77218000Y-122280000D03*
D26*
X68578000Y-126460000D03*
D27*
X68578000Y-122280000D03*
D28*
%TO.P,J2,B12,GND*%
X69698000Y-121705000D03*
%TO.P,J2,B9,VBUS*%
%TO.N,VBUS*%
X70498000Y-121705000D03*
D29*
%TO.P,J2,B8,SBU2*%
%TO.N,unconnected-(J2-SBU2-PadB8)*%
X71148000Y-121705000D03*
%TO.P,J2,B7,D-*%
%TO.N,Net-(C20-Pad2)*%
X72148000Y-121705000D03*
%TO.P,J2,B6,D+*%
%TO.N,Net-(C19-Pad2)*%
X73648000Y-121705000D03*
%TO.P,J2,B5,CC2*%
%TO.N,Net-(J2-CC2)*%
X74648000Y-121705000D03*
D28*
%TO.P,J2,B4,VBUS*%
%TO.N,VBUS*%
X75298000Y-121705000D03*
%TO.P,J2,B1,GND*%
%TO.N,GND*%
X76098000Y-121705000D03*
%TO.P,J2,A12,GND*%
X76098000Y-121705000D03*
%TO.P,J2,A9,VBUS*%
%TO.N,VBUS*%
X75298000Y-121705000D03*
D29*
%TO.P,J2,A8,SBU1*%
%TO.N,unconnected-(J2-SBU1-PadA8)*%
X74148000Y-121705000D03*
%TO.P,J2,A7,D-*%
%TO.N,Net-(C20-Pad2)*%
X73148000Y-121705000D03*
%TO.P,J2,A6,D+*%
%TO.N,Net-(C19-Pad2)*%
X72648000Y-121705000D03*
%TO.P,J2,A5,CC1*%
%TO.N,Net-(J2-CC1)*%
X71648000Y-121705000D03*
D28*
%TO.P,J2,A4,VBUS*%
%TO.N,VBUS*%
X70498000Y-121705000D03*
%TO.P,J2,A1,GND*%
%TO.N,GND*%
X69698000Y-121705000D03*
%TD*%
D18*
%TO.P,TP5,1,1*%
%TO.N,Net-(J1-Pin_17)*%
X39780000Y-106610000D03*
%TD*%
D30*
%TO.P,U4,1,TXD*%
%TO.N,PB14*%
X69926750Y-106061750D03*
%TO.P,U4,2,~{RTS}*%
%TO.N,unconnected-(U4-~{RTS}-Pad2)*%
X69926750Y-106696750D03*
%TO.P,U4,3,VCCIO*%
%TO.N,Net-(U4-3V3OUT)*%
X69926750Y-107331750D03*
%TO.P,U4,4,RXD*%
%TO.N,PB15*%
X69926750Y-107966750D03*
%TO.P,U4,5,GND*%
%TO.N,GND*%
X69926750Y-108601750D03*
%TO.P,U4,6,~{CTS}*%
%TO.N,Net-(U4-~{CTS})*%
X69926750Y-109236750D03*
%TO.P,U4,7,CBUS2*%
%TO.N,unconnected-(U4-CBUS2-Pad7)*%
X69926750Y-109871750D03*
%TO.P,U4,8,USBDP*%
%TO.N,Net-(U4-USBDP)*%
X69926750Y-110506750D03*
%TO.P,U4,9,USBDM*%
%TO.N,Net-(U4-USBDM)*%
X75126750Y-110506750D03*
%TO.P,U4,10,3V3OUT*%
%TO.N,Net-(U4-3V3OUT)*%
X75126750Y-109871750D03*
%TO.P,U4,11,~{RESET}*%
X75126750Y-109236750D03*
%TO.P,U4,12,VCC*%
%TO.N,VBUS*%
X75126750Y-108601750D03*
%TO.P,U4,13,GND*%
%TO.N,GND*%
X75126750Y-107966750D03*
%TO.P,U4,14,CBUS1*%
%TO.N,unconnected-(U4-CBUS1-Pad14)*%
X75126750Y-107331750D03*
%TO.P,U4,15,CBUS0*%
%TO.N,BCD*%
X75126750Y-106696750D03*
%TO.P,U4,16,CBUS3*%
%TO.N,SLEEP*%
X75126750Y-106061750D03*
%TD*%
D13*
%TO.P,C14,1*%
%TO.N,GND*%
X107830000Y-34740000D03*
%TO.P,C14,2*%
%TO.N,Net-(U1-XIN)*%
X107830000Y-36640000D03*
%TD*%
D24*
%TO.P,R2,1*%
%TO.N,Net-(JP4-A)*%
X47592500Y-71900000D03*
%TO.P,R2,2*%
%TO.N,3V3*%
X45767500Y-71900000D03*
%TD*%
D31*
%TO.P,U3,1,GND*%
%TO.N,GND*%
X62230000Y-124587000D03*
%TO.P,U3,2,VO*%
%TO.N,3V3*%
X62230000Y-122287000D03*
D32*
X55930000Y-122287000D03*
D31*
%TO.P,U3,3,VI*%
%TO.N,VBUS*%
X62230000Y-119987000D03*
%TD*%
D13*
%TO.P,C8,2*%
%TO.N,GND*%
X93599000Y-80391000D03*
%TO.P,C8,1*%
%TO.N,3V3*%
X93599000Y-78491000D03*
%TD*%
D21*
%TO.P,U5,1,VDD*%
%TO.N,3V3*%
X101995000Y-88935000D03*
%TO.P,U5,2,DQ0*%
%TO.N,D0*%
X102795000Y-88935000D03*
%TO.P,U5,3,VDDQ*%
%TO.N,3V3*%
X103595000Y-88935000D03*
%TO.P,U5,4,DQ1*%
%TO.N,D1*%
X104395000Y-88935000D03*
%TO.P,U5,5,DQ2*%
%TO.N,D2*%
X105195000Y-88935000D03*
%TO.P,U5,6,VSSQ*%
%TO.N,GND*%
X105995000Y-88935000D03*
%TO.P,U5,7,DQ3*%
%TO.N,D3*%
X106795000Y-88935000D03*
%TO.P,U5,8,DQ4*%
%TO.N,D4*%
X107595000Y-88935000D03*
%TO.P,U5,9,VDDQ*%
%TO.N,3V3*%
X108395000Y-88935000D03*
%TO.P,U5,10,DQ5*%
%TO.N,D5*%
X109195000Y-88935000D03*
%TO.P,U5,11,DQ6*%
%TO.N,D6*%
X109995000Y-88935000D03*
%TO.P,U5,12,VSSQ*%
%TO.N,GND*%
X110795000Y-88935000D03*
%TO.P,U5,13,DQ7*%
%TO.N,D7*%
X111595000Y-88935000D03*
%TO.P,U5,14,VDD*%
%TO.N,3V3*%
X112395000Y-88935000D03*
%TO.P,U5,15,DQML*%
%TO.N,A0*%
X113195000Y-88935000D03*
%TO.P,U5,16,~{WE}*%
%TO.N,SDWE*%
X113995000Y-88935000D03*
%TO.P,U5,17,~{CAS}*%
%TO.N,CAS*%
X114795000Y-88935000D03*
%TO.P,U5,18,~{RAS}*%
%TO.N,RAS*%
X115595000Y-88935000D03*
%TO.P,U5,19,~{CS}*%
%TO.N,SDCS*%
X116395000Y-88935000D03*
%TO.P,U5,20,BA0*%
%TO.N,A16*%
X117195000Y-88935000D03*
%TO.P,U5,21,BA1*%
%TO.N,A17*%
X117995000Y-88935000D03*
%TO.P,U5,22,A10*%
%TO.N,SDA10*%
X118795000Y-88935000D03*
%TO.P,U5,23,A0*%
%TO.N,A2*%
X119595000Y-88935000D03*
%TO.P,U5,24,A1*%
%TO.N,A3*%
X120395000Y-88935000D03*
%TO.P,U5,25,A2*%
%TO.N,A4*%
X121195000Y-88935000D03*
%TO.P,U5,26,A3*%
%TO.N,A5*%
X121995000Y-88935000D03*
%TO.P,U5,27,VDD*%
%TO.N,3V3*%
X122795000Y-88935000D03*
%TO.P,U5,28,VSS*%
%TO.N,GND*%
X122795000Y-77435000D03*
%TO.P,U5,29,A4*%
%TO.N,A6*%
X121995000Y-77435000D03*
%TO.P,U5,30,A5*%
%TO.N,A7*%
X121195000Y-77435000D03*
%TO.P,U5,31,A6*%
%TO.N,A8*%
X120395000Y-77435000D03*
%TO.P,U5,32,A7*%
%TO.N,A9*%
X119595000Y-77435000D03*
%TO.P,U5,33,A8*%
%TO.N,A10*%
X118795000Y-77435000D03*
%TO.P,U5,34,A9*%
%TO.N,A11*%
X117995000Y-77435000D03*
%TO.P,U5,35,A11*%
%TO.N,A13*%
X117195000Y-77435000D03*
%TO.P,U5,36,A12*%
%TO.N,A14*%
X116395000Y-77435000D03*
%TO.P,U5,37,CKE*%
%TO.N,SDCKE*%
X115595000Y-77435000D03*
%TO.P,U5,38,CLK*%
%TO.N,SDCK*%
X114795000Y-77435000D03*
%TO.P,U5,39,DQMH*%
%TO.N,NBS1*%
X113995000Y-77435000D03*
%TO.P,U5,40,NC*%
%TO.N,unconnected-(U5-NC-Pad40)*%
X113195000Y-77435000D03*
%TO.P,U5,41,VSS*%
%TO.N,GND*%
X112395000Y-77435000D03*
%TO.P,U5,42,DQ8*%
%TO.N,D8*%
X111595000Y-77435000D03*
%TO.P,U5,43,VDDQ*%
%TO.N,3V3*%
X110795000Y-77435000D03*
%TO.P,U5,44,DQ9*%
%TO.N,D9*%
X109995000Y-77435000D03*
%TO.P,U5,45,DQ10*%
%TO.N,D10*%
X109195000Y-77435000D03*
%TO.P,U5,46,VSSQ*%
%TO.N,GND*%
X108395000Y-77435000D03*
%TO.P,U5,47,DQ11*%
%TO.N,D11*%
X107595000Y-77435000D03*
%TO.P,U5,48,DQ12*%
%TO.N,D12*%
X106795000Y-77435000D03*
%TO.P,U5,49,VDDQ*%
%TO.N,3V3*%
X105995000Y-77435000D03*
%TO.P,U5,50,DQ13*%
%TO.N,D13*%
X105195000Y-77435000D03*
%TO.P,U5,51,DQ14*%
%TO.N,D14*%
X104395000Y-77435000D03*
%TO.P,U5,52,VSSQ*%
%TO.N,GND*%
X103595000Y-77435000D03*
%TO.P,U5,53,DQ15*%
%TO.N,D15*%
X102795000Y-77435000D03*
%TO.P,U5,54,VSS*%
%TO.N,GND*%
X101995000Y-77435000D03*
%TD*%
D19*
%TO.P,C37,1*%
%TO.N,GND*%
X108331000Y-94956000D03*
%TO.P,C37,2*%
%TO.N,3V3*%
X108331000Y-93056000D03*
%TD*%
D20*
%TO.P,JP1,1,A*%
%TO.N,Net-(J1-Pin_3)*%
X48387000Y-120904000D03*
%TO.P,JP1,2,B*%
%TO.N,Net-(JP1-B)*%
X48387000Y-119604000D03*
%TD*%
D24*
%TO.P,R1,1*%
%TO.N,/OSCSEL*%
X47675000Y-76530000D03*
%TO.P,R1,2*%
%TO.N,GND*%
X45850000Y-76530000D03*
%TD*%
D19*
%TO.P,C42,1*%
%TO.N,GND*%
X101435000Y-67686000D03*
%TO.P,C42,2*%
%TO.N,3V3*%
X101435000Y-65786000D03*
%TD*%
D33*
%TO.P,Y2,2,2*%
%TO.N,Net-(U1-XOUT)*%
X97830000Y-40530000D03*
%TO.P,Y2,1,1*%
%TO.N,Net-(U1-XIN)*%
X106330000Y-40530000D03*
%TD*%
D13*
%TO.P,C30,1*%
%TO.N,GND*%
X60910000Y-47780000D03*
%TO.P,C30,2*%
%TO.N,1V8*%
X60910000Y-49680000D03*
%TD*%
D34*
%TO.P,Y1,1,1*%
%TO.N,Net-(U1-XIN32)*%
X33274000Y-83684000D03*
%TO.P,Y1,2,2*%
%TO.N,Net-(U1-XOUT32)*%
X33274000Y-75184000D03*
%TD*%
D13*
%TO.P,C13,2*%
%TO.N,Net-(U1-XOUT)*%
X96820000Y-36450000D03*
%TO.P,C13,1*%
%TO.N,GND*%
X96820000Y-34550000D03*
%TD*%
%TO.P,C23,1*%
%TO.N,GND*%
X88334000Y-45470000D03*
%TO.P,C23,2*%
%TO.N,Net-(C23-Pad2)*%
X88334000Y-47370000D03*
%TD*%
D10*
%TO.P,R7,1*%
%TO.N,Net-(C19-Pad2)*%
X71882000Y-118411000D03*
%TO.P,R7,2*%
%TO.N,Net-(U4-USBDP)*%
X71882000Y-116586000D03*
%TD*%
D35*
%TO.P,U1,1,PA24/TWCK/ETX3*%
%TO.N,PA24*%
X56963000Y-55957000D03*
%TO.P,U1,2,PA25/TLCK0/ERX2*%
%TO.N,PA25*%
X56963000Y-56457000D03*
%TO.P,U1,3,PA26/TIOA0/ERX3*%
%TO.N,PA26*%
X56963000Y-56957000D03*
%TO.P,U1,4,PA27/TIOA1/ERXCK*%
%TO.N,PA27*%
X56963000Y-57457000D03*
%TO.P,U1,5,VDDIOP0@5*%
%TO.N,3V3*%
X56963000Y-57957000D03*
%TO.P,U1,6,GND@6*%
%TO.N,GND*%
X56963000Y-58457000D03*
%TO.P,U1,7,PA28/TIOA2/ECRS*%
%TO.N,PA28*%
X56963000Y-58957000D03*
%TO.P,U1,8,PA29/SCK1/ECOL*%
%TO.N,PA29*%
X56963000Y-59457000D03*
%TO.P,U1,9,TIOA3/SPI1_MISO/PB0*%
%TO.N,PB0*%
X56963000Y-59957000D03*
%TO.P,U1,10,TIOB3/SPI1_MOSI/PB1*%
%TO.N,PB1*%
X56963000Y-60457000D03*
%TO.P,U1,11,TIOA4/SPI1_SPCK/PB2*%
%TO.N,PB2*%
X56963000Y-60957000D03*
%TO.P,U1,12,TIOA5/SPI1_NPCS0/PB3*%
%TO.N,PB3*%
X56963000Y-61457000D03*
%TO.P,U1,13,VDDIOP0@13*%
%TO.N,3V3*%
X56963000Y-61957000D03*
%TO.P,U1,14,GND@14*%
%TO.N,GND*%
X56963000Y-62457000D03*
%TO.P,U1,15,TXD0/PB4*%
%TO.N,PB4*%
X56963000Y-62957000D03*
%TO.P,U1,16,RXD0/PB5*%
%TO.N,PB5*%
X56963000Y-63457000D03*
%TO.P,U1,17,TCLK1/TXD1/PB6*%
%TO.N,PB6*%
X56963000Y-63957000D03*
%TO.P,U1,18,TCLK2/RXD1/PB7*%
%TO.N,PB7*%
X56963000Y-64457000D03*
%TO.P,U1,19,TXD2/PB8*%
%TO.N,PB8*%
X56963000Y-64957000D03*
%TO.P,U1,20,RXD2/PB9*%
%TO.N,PB9*%
X56963000Y-65457000D03*
%TO.P,U1,21,DRXD/PB14*%
%TO.N,PB14*%
X56963000Y-65957000D03*
%TO.P,U1,22,DTXD/PB15*%
%TO.N,PB15*%
X56963000Y-66457000D03*
%TO.P,U1,23,TCLK3/TK0/PB16*%
%TO.N,PB16*%
X56963000Y-66957000D03*
%TO.P,U1,24,VDDIOP0@24*%
%TO.N,3V3*%
X56963000Y-67457000D03*
%TO.P,U1,25,GND@25*%
%TO.N,GND*%
X56963000Y-67957000D03*
%TO.P,U1,26,TCLK4/TF0/PB17*%
%TO.N,PB17*%
X56963000Y-68457000D03*
%TO.P,U1,27,TIOB4/TD0/PB18*%
%TO.N,PB18*%
X56963000Y-68957000D03*
%TO.P,U1,28,TIOB5/RD0/PB19*%
%TO.N,PB19*%
X56963000Y-69457000D03*
%TO.P,U1,29,TDO*%
%TO.N,Net-(J1-Pin_13)*%
X56963000Y-69957000D03*
%TO.P,U1,30,TDI*%
%TO.N,Net-(J1-Pin_5)*%
X56963000Y-70457000D03*
%TO.P,U1,31,TMS*%
%TO.N,Net-(J1-Pin_7)*%
X56963000Y-70957000D03*
%TO.P,U1,32,VDDIOP0@32*%
%TO.N,3V3*%
X56963000Y-71457000D03*
%TO.P,U1,33,GND@33*%
%TO.N,GND*%
X56963000Y-71957000D03*
%TO.P,U1,34,TCK*%
%TO.N,Net-(J1-Pin_9)*%
X56963000Y-72457000D03*
%TO.P,U1,35,NTRST*%
%TO.N,Net-(JP1-B)*%
X56963000Y-72957000D03*
%TO.P,U1,36,NRST*%
%TO.N,NRST*%
X56963000Y-73457000D03*
%TO.P,U1,37,RTCK*%
%TO.N,Net-(J1-Pin_11)*%
X56963000Y-73957000D03*
%TO.P,U1,38,VDDCORE@38*%
%TO.N,1V8*%
X56963000Y-74457000D03*
%TO.P,U1,39,GND@39*%
%TO.N,GND*%
X56963000Y-74957000D03*
%TO.P,U1,40,BMS*%
%TO.N,Net-(JP4-A)*%
X56963000Y-75457000D03*
%TO.P,U1,41,OSCSEL*%
%TO.N,/OSCSEL*%
X56963000Y-75957000D03*
%TO.P,U1,42,TST*%
%TO.N,unconnected-(U1-TST-Pad42)*%
X56963000Y-76457000D03*
%TO.P,U1,43,JTAGSEL*%
%TO.N,Net-(U1-JTAGSEL)*%
X56963000Y-76957000D03*
%TO.P,U1,44,GNDBU*%
%TO.N,GND*%
X56963000Y-77457000D03*
%TO.P,U1,45,XOUT32*%
%TO.N,Net-(U1-XOUT32)*%
X56963000Y-77957000D03*
%TO.P,U1,46,XIN32*%
%TO.N,Net-(U1-XIN32)*%
X56963000Y-78457000D03*
%TO.P,U1,47,VDDBU*%
%TO.N,1V8*%
X56963000Y-78957000D03*
%TO.P,U1,48,WKUP*%
%TO.N,/WKUP*%
X56963000Y-79457000D03*
%TO.P,U1,49,SHDN*%
%TO.N,/SHDN*%
X56963000Y-79957000D03*
%TO.P,U1,50,HDMA*%
%TO.N,HDMA*%
X56963000Y-80457000D03*
%TO.P,U1,51,HDPA*%
%TO.N,HDPA*%
X56963000Y-80957000D03*
%TO.P,U1,52,VDDIOP0@52*%
%TO.N,3V3*%
X56963000Y-81457000D03*
D36*
%TO.P,U1,53,GND@53*%
%TO.N,GND*%
X59513000Y-84007000D03*
%TO.P,U1,54,DDM*%
%TO.N,unconnected-(U1-DDM-Pad54)*%
X60013000Y-84007000D03*
%TO.P,U1,55,DDP*%
%TO.N,unconnected-(U1-DDP-Pad55)*%
X60513000Y-84007000D03*
%TO.P,U1,56,NCS6/FIQ/PC13*%
%TO.N,RDYBSY*%
X61013000Y-84007000D03*
%TO.P,U1,57,SPI0_NPCS1/NCS2/PC11*%
%TO.N,SPI0_NPCS1*%
X61513000Y-84007000D03*
%TO.P,U1,58,CTS3/A25_CFRNW/PC10*%
%TO.N,PC10*%
X62013000Y-84007000D03*
%TO.P,U1,59,IRQ2/NCS3_NANDCS/PC14*%
%TO.N,NANDCS*%
X62513000Y-84007000D03*
%TO.P,U1,60,TIOB0/NCS5_CFCS1/PC9*%
%TO.N,PC9*%
X63013000Y-84007000D03*
%TO.P,U1,61,RTS3/NCS4_CFCS0/PC8*%
%TO.N,PC8*%
X63513000Y-84007000D03*
%TO.P,U1,62,SPI1_NPCS2/A23/PC4*%
%TO.N,A23*%
X64013000Y-84007000D03*
%TO.P,U1,63,CFCE1/TIOB2/PC6*%
%TO.N,PC6*%
X64513000Y-84007000D03*
%TO.P,U1,64,CFCE2/TIOB1/PC7*%
%TO.N,PC7*%
X65013000Y-84007000D03*
%TO.P,U1,65,VDDIOM@65*%
%TO.N,3V3*%
X65513000Y-84007000D03*
%TO.P,U1,66,GND@66*%
%TO.N,GND*%
X66013000Y-84007000D03*
%TO.P,U1,67,SPI1_NPCS1/A24/PC5*%
%TO.N,A24*%
X66513000Y-84007000D03*
%TO.P,U1,68,NCSO*%
%TO.N,NCS0*%
X67013000Y-84007000D03*
%TO.P,U1,69,CFOE/NRD*%
%TO.N,NRD*%
X67513000Y-84007000D03*
%TO.P,U1,70,CFWE/NWE/NWR0*%
%TO.N,NWE*%
X68013000Y-84007000D03*
%TO.P,U1,71,NANDOE*%
%TO.N,NANDOE*%
X68513000Y-84007000D03*
%TO.P,U1,72,NANDWE*%
%TO.N,NANDWE*%
X69013000Y-84007000D03*
%TO.P,U1,73,A22*%
%TO.N,NANDCLE*%
X69513000Y-84007000D03*
%TO.P,U1,74,A21*%
%TO.N,NANDALE*%
X70013000Y-84007000D03*
%TO.P,U1,75,A20*%
%TO.N,A20*%
X70513000Y-84007000D03*
%TO.P,U1,76,A19*%
%TO.N,A19*%
X71013000Y-84007000D03*
%TO.P,U1,77,VDDCORE@77*%
%TO.N,1V8*%
X71513000Y-84007000D03*
%TO.P,U1,78,GND@78*%
%TO.N,GND*%
X72013000Y-84007000D03*
%TO.P,U1,79,A18*%
%TO.N,A18*%
X72513000Y-84007000D03*
%TO.P,U1,80,BA1/A17*%
%TO.N,A17*%
X73013000Y-84007000D03*
%TO.P,U1,81,BA0/A16*%
%TO.N,A16*%
X73513000Y-84007000D03*
%TO.P,U1,82,A15*%
%TO.N,A15*%
X74013000Y-84007000D03*
%TO.P,U1,83,A14*%
%TO.N,A14*%
X74513000Y-84007000D03*
%TO.P,U1,84,A13*%
%TO.N,A13*%
X75013000Y-84007000D03*
%TO.P,U1,85,A12*%
%TO.N,A12*%
X75513000Y-84007000D03*
%TO.P,U1,86,A11*%
%TO.N,A11*%
X76013000Y-84007000D03*
%TO.P,U1,87,A10*%
%TO.N,A10*%
X76513000Y-84007000D03*
%TO.P,U1,88,A9*%
%TO.N,A9*%
X77013000Y-84007000D03*
%TO.P,U1,89,A8*%
%TO.N,A8*%
X77513000Y-84007000D03*
%TO.P,U1,90,VDDIOM@90*%
%TO.N,3V3*%
X78013000Y-84007000D03*
%TO.P,U1,91,GND@91*%
%TO.N,GND*%
X78513000Y-84007000D03*
%TO.P,U1,92,A7*%
%TO.N,A7*%
X79013000Y-84007000D03*
%TO.P,U1,93,A6*%
%TO.N,A6*%
X79513000Y-84007000D03*
%TO.P,U1,94,A5*%
%TO.N,A5*%
X80013000Y-84007000D03*
%TO.P,U1,95,A4*%
%TO.N,A4*%
X80513000Y-84007000D03*
%TO.P,U1,96,A3*%
%TO.N,A3*%
X81013000Y-84007000D03*
%TO.P,U1,97,A2*%
%TO.N,A2*%
X81513000Y-84007000D03*
%TO.P,U1,98,NWR2/NBS2/A1*%
%TO.N,A1*%
X82013000Y-84007000D03*
%TO.P,U1,99,NBS0/A0*%
%TO.N,A0*%
X82513000Y-84007000D03*
%TO.P,U1,100,SDA10*%
%TO.N,SDA10*%
X83013000Y-84007000D03*
%TO.P,U1,101,CFIOW/NBS3/NWR3*%
%TO.N,NBS3*%
X83513000Y-84007000D03*
%TO.P,U1,102,CFIOR/NBS1/NWR1*%
%TO.N,NBS1*%
X84013000Y-84007000D03*
%TO.P,U1,103,SDCS/NCS1*%
%TO.N,SDCS*%
X84513000Y-84007000D03*
%TO.P,U1,104,~{CAS}*%
%TO.N,CAS*%
X85013000Y-84007000D03*
D35*
%TO.P,U1,105,~{RAS}*%
%TO.N,RAS*%
X87563000Y-81457000D03*
%TO.P,U1,106,D0*%
%TO.N,D0*%
X87563000Y-80957000D03*
%TO.P,U1,107,D1*%
%TO.N,D1*%
X87563000Y-80457000D03*
%TO.P,U1,108,D2*%
%TO.N,D2*%
X87563000Y-79957000D03*
%TO.P,U1,109,D3*%
%TO.N,D3*%
X87563000Y-79457000D03*
%TO.P,U1,110,D4*%
%TO.N,D4*%
X87563000Y-78957000D03*
%TO.P,U1,111,D5*%
%TO.N,D5*%
X87563000Y-78457000D03*
%TO.P,U1,112,D6*%
%TO.N,D6*%
X87563000Y-77957000D03*
%TO.P,U1,113,GND@113*%
%TO.N,GND*%
X87563000Y-77457000D03*
%TO.P,U1,114,VDDIOM@114*%
%TO.N,3V3*%
X87563000Y-76957000D03*
%TO.P,U1,115,SDCK*%
%TO.N,SDCK*%
X87563000Y-76457000D03*
%TO.P,U1,116,~{SDWE}*%
%TO.N,SDWE*%
X87563000Y-75957000D03*
%TO.P,U1,117,SDCKE*%
%TO.N,SDCKE*%
X87563000Y-75457000D03*
%TO.P,U1,118,D7*%
%TO.N,D7*%
X87563000Y-74957000D03*
%TO.P,U1,119,D8*%
%TO.N,D8*%
X87563000Y-74457000D03*
%TO.P,U1,120,D9*%
%TO.N,D9*%
X87563000Y-73957000D03*
%TO.P,U1,121,D10*%
%TO.N,D10*%
X87563000Y-73457000D03*
%TO.P,U1,122,D11*%
%TO.N,D11*%
X87563000Y-72957000D03*
%TO.P,U1,123,D12*%
%TO.N,D12*%
X87563000Y-72457000D03*
%TO.P,U1,124,D13*%
%TO.N,D13*%
X87563000Y-71957000D03*
%TO.P,U1,125,D14*%
%TO.N,D14*%
X87563000Y-71457000D03*
%TO.P,U1,126,D15*%
%TO.N,D15*%
X87563000Y-70957000D03*
%TO.P,U1,127,IRQ1/NWAIT/PC15*%
%TO.N,NWAIT*%
X87563000Y-70457000D03*
%TO.P,U1,128,SPI0_NPCS2/D16/PC16*%
%TO.N,D16*%
X87563000Y-69957000D03*
%TO.P,U1,129,SPI0_NPCS3/D17/PC17*%
%TO.N,D17*%
X87563000Y-69457000D03*
%TO.P,U1,130,SPI1_NPCS1/D18/PC18*%
%TO.N,D18*%
X87563000Y-68957000D03*
%TO.P,U1,131,SPI1_NPCS2/D19/PC19*%
%TO.N,D19*%
X87563000Y-68457000D03*
%TO.P,U1,132,VDDIOM@132*%
%TO.N,3V3*%
X87563000Y-67957000D03*
%TO.P,U1,133,GND@133*%
%TO.N,GND*%
X87563000Y-67457000D03*
%TO.P,U1,134,SPI1_NPCS3/D20/PC20*%
%TO.N,D20*%
X87563000Y-66957000D03*
%TO.P,U1,135,EF100/D21/PC21*%
%TO.N,D21*%
X87563000Y-66457000D03*
%TO.P,U1,136,TCLK5/D22/PC22*%
%TO.N,D22*%
X87563000Y-65957000D03*
%TO.P,U1,137,D23/PC23*%
%TO.N,D23*%
X87563000Y-65457000D03*
%TO.P,U1,138,D24/PC24*%
%TO.N,D24*%
X87563000Y-64957000D03*
%TO.P,U1,139,D25/PC25*%
%TO.N,D25*%
X87563000Y-64457000D03*
%TO.P,U1,140,D26/PC26*%
%TO.N,D26*%
X87563000Y-63957000D03*
%TO.P,U1,141,D27/PC27*%
%TO.N,D27*%
X87563000Y-63457000D03*
%TO.P,U1,142,D28/PC28*%
%TO.N,D28*%
X87563000Y-62957000D03*
%TO.P,U1,143,D29/PC29*%
%TO.N,D29*%
X87563000Y-62457000D03*
%TO.P,U1,144,D30/PC30*%
%TO.N,D30*%
X87563000Y-61957000D03*
%TO.P,U1,145,D31/PC31*%
%TO.N,D31*%
X87563000Y-61457000D03*
%TO.P,U1,146,GND@146*%
%TO.N,GND*%
X87563000Y-60957000D03*
%TO.P,U1,147,VDDCORE@147*%
%TO.N,1V8*%
X87563000Y-60457000D03*
%TO.P,U1,148,VDDPLL@148*%
X87563000Y-59957000D03*
%TO.P,U1,149,XIN*%
%TO.N,Net-(U1-XIN)*%
X87563000Y-59457000D03*
%TO.P,U1,150,XOUT*%
%TO.N,Net-(U1-XOUT)*%
X87563000Y-58957000D03*
%TO.P,U1,151,GNDPLL@151*%
%TO.N,GND*%
X87563000Y-58457000D03*
%TO.P,U1,152,NC@152*%
%TO.N,unconnected-(U1-NC@152-Pad152)*%
X87563000Y-57957000D03*
%TO.P,U1,153,GNDPLL@153*%
%TO.N,GND*%
X87563000Y-57457000D03*
%TO.P,U1,154,PLLRCA*%
%TO.N,Net-(U1-PLLRCA)*%
X87563000Y-56957000D03*
%TO.P,U1,155,VDDPLL@155*%
%TO.N,1V8*%
X87563000Y-56457000D03*
%TO.P,U1,156,GNDANA*%
%TO.N,GND*%
X87563000Y-55957000D03*
D36*
%TO.P,U1,157,ADVREF*%
%TO.N,Net-(JP2-A)*%
X85013000Y-53407000D03*
%TO.P,U1,158,SCK3/AD0/PC0*%
%TO.N,PC0*%
X84513000Y-53407000D03*
%TO.P,U1,159,PCK0/AD1/PC1*%
%TO.N,PC1*%
X84013000Y-53407000D03*
%TO.P,U1,160,VDDANA*%
%TO.N,3V3*%
X83513000Y-53407000D03*
%TO.P,U1,161,ISI_D8/TXD3/PB10*%
%TO.N,PB10*%
X83013000Y-53407000D03*
%TO.P,U1,162,ISI_D9/RXD3/PB11*%
%TO.N,PB11*%
X82513000Y-53407000D03*
%TO.P,U1,163,ISI_D0/RK0/PB20*%
%TO.N,PB20*%
X82013000Y-53407000D03*
%TO.P,U1,164,ISI_D1/RF0/PB21*%
%TO.N,PB21*%
X81513000Y-53407000D03*
%TO.P,U1,165,ISI_D2/DSR0/PB22*%
%TO.N,PB22*%
X81013000Y-53407000D03*
%TO.P,U1,166,ISI_D3/DCD0/PB23*%
%TO.N,PB23*%
X80513000Y-53407000D03*
%TO.P,U1,167,ISI_D4/DTR0/PB24*%
%TO.N,PB24*%
X80013000Y-53407000D03*
%TO.P,U1,168,ISI_D5/RI0/PB25*%
%TO.N,PB25*%
X79513000Y-53407000D03*
%TO.P,U1,169,VDDIOP1*%
%TO.N,3V3*%
X79013000Y-53407000D03*
%TO.P,U1,170,GND@170*%
%TO.N,GND*%
X78513000Y-53407000D03*
%TO.P,U1,171,ISI_D6/RTS0/PB26*%
%TO.N,PB26*%
X78013000Y-53407000D03*
%TO.P,U1,172,ISI_D7/CTS0/PB27*%
%TO.N,PB27*%
X77513000Y-53407000D03*
%TO.P,U1,173,GND@173*%
%TO.N,GND*%
X77013000Y-53407000D03*
%TO.P,U1,174,VDDCORE@174*%
%TO.N,1V8*%
X76513000Y-53407000D03*
%TO.P,U1,175,ISI_PCK/RTS1/PB28*%
%TO.N,PB28*%
X76013000Y-53407000D03*
%TO.P,U1,176,ISI_VSYNC/CTS1/PB29*%
%TO.N,PB29*%
X75513000Y-53407000D03*
%TO.P,U1,177,ISI_HSYNC/PCK0/PB30*%
%TO.N,PB30*%
X75013000Y-53407000D03*
%TO.P,U1,178,ISI_MCK/PCK1/PB31*%
%TO.N,PB31*%
X74513000Y-53407000D03*
%TO.P,U1,179,PA0/SPI0_MISO/MCDB0*%
%TO.N,PA0*%
X74013000Y-53407000D03*
%TO.P,U1,180,PA1/SPI0_MOSI/MCCDB*%
%TO.N,PA1*%
X73513000Y-53407000D03*
%TO.P,U1,181,PA2/SPI0_SPCK*%
%TO.N,PA2*%
X73013000Y-53407000D03*
%TO.P,U1,182,PA3/SPI0_NPCS0/MCDB3*%
%TO.N,PA3*%
X72513000Y-53407000D03*
%TO.P,U1,183,PA4/RTS2/MCDB2*%
%TO.N,PA4*%
X72013000Y-53407000D03*
%TO.P,U1,184,PA5/CTS2/MCDB1*%
%TO.N,PA5*%
X71513000Y-53407000D03*
%TO.P,U1,185,PA6/MCDA0*%
%TO.N,PA6*%
X71013000Y-53407000D03*
%TO.P,U1,186,PA7/MCCDA*%
%TO.N,PA7*%
X70513000Y-53407000D03*
%TO.P,U1,187,VDDIOP0@187*%
%TO.N,3V3*%
X70013000Y-53407000D03*
%TO.P,U1,188,GND@188*%
%TO.N,GND*%
X69513000Y-53407000D03*
%TO.P,U1,189,PA8/MCCK*%
%TO.N,PA8*%
X69013000Y-53407000D03*
%TO.P,U1,190,PA9/MCDA1*%
%TO.N,PA9*%
X68513000Y-53407000D03*
%TO.P,U1,191,PA10/MCDA2/ETX2*%
%TO.N,PA10*%
X68013000Y-53407000D03*
%TO.P,U1,192,PA11/MCDA3/ETX3*%
%TO.N,PA11*%
X67513000Y-53407000D03*
%TO.P,U1,193,PA12/ETX0*%
%TO.N,PA12*%
X67013000Y-53407000D03*
%TO.P,U1,194,PA13/ETX1*%
%TO.N,PA13*%
X66513000Y-53407000D03*
%TO.P,U1,195,PA14/ERX0*%
%TO.N,PA14*%
X66013000Y-53407000D03*
%TO.P,U1,196,PA15/ERX1*%
%TO.N,PA15*%
X65513000Y-53407000D03*
%TO.P,U1,197,PA16/ETXEN*%
%TO.N,PA16*%
X65013000Y-53407000D03*
%TO.P,U1,198,PA17/ERXDV*%
%TO.N,PA17*%
X64513000Y-53407000D03*
%TO.P,U1,199,VDDIOP0@199*%
%TO.N,3V3*%
X64013000Y-53407000D03*
%TO.P,U1,200,GND@200*%
%TO.N,GND*%
X63513000Y-53407000D03*
%TO.P,U1,201,PA18/ERXER*%
%TO.N,PA18*%
X63013000Y-53407000D03*
%TO.P,U1,202,PA19/ETXCK*%
%TO.N,PA19*%
X62513000Y-53407000D03*
%TO.P,U1,203,VDDC0RE@203*%
%TO.N,1V8*%
X62013000Y-53407000D03*
%TO.P,U1,204,GND@204*%
%TO.N,GND*%
X61513000Y-53407000D03*
%TO.P,U1,205,PA20/EMDC*%
%TO.N,PA20*%
X61013000Y-53407000D03*
%TO.P,U1,206,PA21/EMDIO*%
%TO.N,PA21*%
X60513000Y-53407000D03*
%TO.P,U1,207,PA22/ADTRG/ETXER*%
%TO.N,PA22*%
X60013000Y-53407000D03*
%TO.P,U1,208,PA23/TWD/ETX2*%
%TO.N,PA23*%
X59513000Y-53407000D03*
%TD*%
D13*
%TO.P,C32,1*%
%TO.N,GND*%
X63390000Y-47770000D03*
%TO.P,C32,2*%
%TO.N,3V3*%
X63390000Y-49670000D03*
%TD*%
D19*
%TO.P,C45,1*%
%TO.N,GND*%
X112357000Y-67686000D03*
%TO.P,C45,2*%
%TO.N,3V3*%
X112357000Y-65786000D03*
%TD*%
%TO.P,C35,1*%
%TO.N,GND*%
X101600000Y-94956000D03*
%TO.P,C35,2*%
%TO.N,3V3*%
X101600000Y-93056000D03*
%TD*%
D13*
%TO.P,C19,1*%
%TO.N,GND*%
X69850000Y-116459000D03*
%TO.P,C19,2*%
%TO.N,Net-(C19-Pad2)*%
X69850000Y-118359000D03*
%TD*%
D14*
%TO.P,C16,1*%
%TO.N,GND*%
X32440000Y-87610000D03*
%TO.P,C16,2*%
%TO.N,Net-(U1-XIN32)*%
X34340000Y-87610000D03*
%TD*%
%TO.P,C15,1*%
%TO.N,GND*%
X32380000Y-71200000D03*
%TO.P,C15,2*%
%TO.N,Net-(U1-XOUT32)*%
X34280000Y-71200000D03*
%TD*%
D15*
%TO.P,C1,1*%
%TO.N,3V3*%
X52451000Y-57912000D03*
%TO.P,C1,2*%
%TO.N,GND*%
X50551000Y-57912000D03*
%TD*%
D17*
%TO.P,J1,1,Pin_1*%
%TO.N,3V3*%
X33717000Y-125344000D03*
D16*
%TO.P,J1,2,Pin_2*%
X31177000Y-125344000D03*
%TO.P,J1,3,Pin_3*%
%TO.N,Net-(J1-Pin_3)*%
X33717000Y-122804000D03*
%TO.P,J1,4,Pin_4*%
%TO.N,GND*%
X31177000Y-122804000D03*
%TO.P,J1,5,Pin_5*%
%TO.N,Net-(J1-Pin_5)*%
X33717000Y-120264000D03*
%TO.P,J1,6,Pin_6*%
%TO.N,GND*%
X31177000Y-120264000D03*
%TO.P,J1,7,Pin_7*%
%TO.N,Net-(J1-Pin_7)*%
X33717000Y-117724000D03*
%TO.P,J1,8,Pin_8*%
%TO.N,GND*%
X31177000Y-117724000D03*
%TO.P,J1,9,Pin_9*%
%TO.N,Net-(J1-Pin_9)*%
X33717000Y-115184000D03*
%TO.P,J1,10,Pin_10*%
%TO.N,GND*%
X31177000Y-115184000D03*
%TO.P,J1,11,Pin_11*%
%TO.N,Net-(J1-Pin_11)*%
X33717000Y-112644000D03*
%TO.P,J1,12,Pin_12*%
%TO.N,GND*%
X31177000Y-112644000D03*
%TO.P,J1,13,Pin_13*%
%TO.N,Net-(J1-Pin_13)*%
X33717000Y-110104000D03*
%TO.P,J1,14,Pin_14*%
%TO.N,GND*%
X31177000Y-110104000D03*
%TO.P,J1,15,Pin_15*%
%TO.N,NRST*%
X33717000Y-107564000D03*
%TO.P,J1,16,Pin_16*%
%TO.N,GND*%
X31177000Y-107564000D03*
%TO.P,J1,17,Pin_17*%
%TO.N,Net-(J1-Pin_17)*%
X33717000Y-105024000D03*
%TO.P,J1,18,Pin_18*%
%TO.N,GND*%
X31177000Y-105024000D03*
%TO.P,J1,19,Pin_19*%
%TO.N,Net-(J1-Pin_19)*%
X33717000Y-102484000D03*
%TO.P,J1,20,Pin_20*%
%TO.N,GND*%
X31177000Y-102484000D03*
%TD*%
D37*
%TO.P,JP4,1,A*%
%TO.N,Net-(JP4-A)*%
X47320000Y-74118000D03*
%TO.P,JP4,2,B*%
%TO.N,GND*%
X46020000Y-74118000D03*
%TD*%
D15*
%TO.P,C2,1*%
%TO.N,3V3*%
X52512000Y-61976000D03*
%TO.P,C2,2*%
%TO.N,GND*%
X50612000Y-61976000D03*
%TD*%
D13*
%TO.P,C34,1*%
%TO.N,GND*%
X110871000Y-72040000D03*
%TO.P,C34,2*%
%TO.N,3V3*%
X110871000Y-73940000D03*
%TD*%
D19*
%TO.P,C39,1*%
%TO.N,GND*%
X122809000Y-94956000D03*
%TO.P,C39,2*%
%TO.N,3V3*%
X122809000Y-93056000D03*
%TD*%
D10*
%TO.P,R6,1*%
%TO.N,Net-(C20-Pad2)*%
X73914000Y-118411000D03*
%TO.P,R6,2*%
%TO.N,Net-(U4-USBDM)*%
X73914000Y-116586000D03*
%TD*%
D15*
%TO.P,C25,1*%
%TO.N,1V8*%
X52610000Y-79640000D03*
%TO.P,C25,2*%
%TO.N,GND*%
X50710000Y-79640000D03*
%TD*%
%TO.P,C3,1*%
%TO.N,3V3*%
X52578000Y-67437000D03*
%TO.P,C3,2*%
%TO.N,GND*%
X50678000Y-67437000D03*
%TD*%
D13*
%TO.P,C7,1*%
%TO.N,3V3*%
X79883000Y-88077000D03*
%TO.P,C7,2*%
%TO.N,GND*%
X79883000Y-89977000D03*
%TD*%
%TO.P,C6,1*%
%TO.N,3V3*%
X65532000Y-87884000D03*
%TO.P,C6,2*%
%TO.N,GND*%
X65532000Y-89784000D03*
%TD*%
D14*
%TO.P,C26,1*%
%TO.N,GND*%
X50530000Y-74440000D03*
%TO.P,C26,2*%
%TO.N,1V8*%
X52430000Y-74440000D03*
%TD*%
D19*
%TO.P,C36,1*%
%TO.N,GND*%
X103632000Y-94956000D03*
%TO.P,C36,2*%
%TO.N,3V3*%
X103632000Y-93056000D03*
%TD*%
D18*
%TO.P,TP1,1,1*%
%TO.N,/WKUP*%
X46539500Y-82759500D03*
%TD*%
D10*
%TO.P,R10,1*%
%TO.N,Net-(J2-CC2)*%
X78229500Y-118284000D03*
%TO.P,R10,2*%
%TO.N,GND*%
X78229500Y-116459000D03*
%TD*%
D18*
%TO.P,TP2,1,1*%
%TO.N,/SHDN*%
X46563000Y-86950500D03*
%TD*%
%TO.P,TP7,1,1*%
%TO.N,Net-(J1-Pin_19)*%
X39790000Y-102260000D03*
%TD*%
D38*
%TO.P,R18,1*%
%TO.N,3V3*%
X31787500Y-52700000D03*
%TO.P,R18,2*%
%TO.N,SPI0_NPCS1*%
X33612500Y-52700000D03*
%TD*%
D31*
%TO.P,U2,1,GND*%
%TO.N,GND*%
X62205000Y-114060000D03*
%TO.P,U2,2,VO*%
%TO.N,1V8*%
X62205000Y-111760000D03*
D32*
X55905000Y-111760000D03*
D31*
%TO.P,U2,3,VI*%
%TO.N,VBUS*%
X62205000Y-109460000D03*
%TD*%
D25*
%TO.P,R14,1*%
%TO.N,Net-(C23-Pad2)*%
X88310500Y-49256500D03*
%TO.P,R14,2*%
%TO.N,Net-(U1-PLLRCA)*%
X88310500Y-51081500D03*
%TD*%
D19*
%TO.P,C9,1*%
%TO.N,3V3*%
X96139000Y-66797000D03*
%TO.P,C9,2*%
%TO.N,GND*%
X96139000Y-64897000D03*
%TD*%
%TO.P,C27,1*%
%TO.N,GND*%
X71501000Y-89784000D03*
%TO.P,C27,2*%
%TO.N,1V8*%
X71501000Y-87884000D03*
%TD*%
D18*
%TO.P,TP6,1,1*%
%TO.N,Net-(U1-JTAGSEL)*%
X42200000Y-75610000D03*
%TD*%
D13*
%TO.P,C33,1*%
%TO.N,GND*%
X106045000Y-72040000D03*
%TO.P,C33,2*%
%TO.N,3V3*%
X106045000Y-73940000D03*
%TD*%
D10*
%TO.P,R13,1*%
%TO.N,3V3*%
X44704000Y-125650000D03*
%TO.P,R13,2*%
%TO.N,Net-(J1-Pin_9)*%
X44704000Y-123825000D03*
%TD*%
D19*
%TO.P,C31,1*%
%TO.N,3V3*%
X69085000Y-49465000D03*
%TO.P,C31,2*%
%TO.N,GND*%
X69085000Y-47565000D03*
%TD*%
D18*
%TO.P,TP3,1,1*%
%TO.N,A12*%
X76830000Y-95830000D03*
%TD*%
D20*
%TO.P,JP3,1,A*%
%TO.N,Net-(J1-Pin_11)*%
X48387000Y-124191000D03*
%TO.P,JP3,2,B*%
%TO.N,3V3*%
X48387000Y-125491000D03*
%TD*%
D13*
%TO.P,C20,1*%
%TO.N,GND*%
X75946000Y-116459000D03*
%TO.P,C20,2*%
%TO.N,Net-(C20-Pad2)*%
X75946000Y-118359000D03*
%TD*%
D24*
%TO.P,R4,1*%
%TO.N,/SHDN*%
X43030500Y-86950500D03*
%TO.P,R4,2*%
%TO.N,1V8*%
X41205500Y-86950500D03*
%TD*%
D13*
%TO.P,C24,1*%
%TO.N,GND*%
X90620000Y-49280000D03*
%TO.P,C24,2*%
%TO.N,Net-(U1-PLLRCA)*%
X90620000Y-51180000D03*
%TD*%
D10*
%TO.P,R12,1*%
%TO.N,3V3*%
X41275000Y-125650000D03*
%TO.P,R12,2*%
%TO.N,Net-(J1-Pin_7)*%
X41275000Y-123825000D03*
%TD*%
D13*
%TO.P,C28,1*%
%TO.N,GND*%
X96240000Y-49880000D03*
%TO.P,C28,2*%
%TO.N,1V8*%
X96240000Y-51780000D03*
%TD*%
D24*
%TO.P,R5,1*%
%TO.N,/WKUP*%
X42903500Y-82759500D03*
%TO.P,R5,2*%
%TO.N,1V8*%
X41078500Y-82759500D03*
%TD*%
D13*
%TO.P,C29,1*%
%TO.N,GND*%
X76790000Y-47620000D03*
%TO.P,C29,2*%
%TO.N,1V8*%
X76790000Y-49520000D03*
%TD*%
%TO.P,C40,1*%
%TO.N,GND*%
X105982000Y-44612000D03*
%TO.P,C40,2*%
%TO.N,3V3*%
X105982000Y-46512000D03*
%TD*%
D39*
%TO.N,NRST*%
X50410000Y-73050000D03*
X50430000Y-98450000D03*
%TO.N,GND*%
X92290000Y-86150000D03*
X89450000Y-86150000D03*
X111690000Y-80220000D03*
X105528436Y-87551564D03*
X110730000Y-87450000D03*
X94830000Y-81610000D03*
X49486807Y-77280000D03*
X44580000Y-76590000D03*
X58840000Y-55380000D03*
X61970000Y-58530000D03*
X82070000Y-76550000D03*
%TO.N,HDMA*%
X66490000Y-99480000D03*
X58960000Y-78830000D03*
%TO.N,GND*%
X85530000Y-67255000D03*
%TO.N,3V3*%
X104920000Y-92488000D03*
X106930000Y-92488000D03*
X111497000Y-92488000D03*
%TO.N,GND*%
X76340000Y-46240000D03*
%TO.N,SPI0_NPCS1*%
X55600000Y-66755000D03*
%TO.N,GND*%
X44550000Y-74160000D03*
%TO.N,1V8*%
X55800000Y-104200000D03*
X55170000Y-79180000D03*
X55560000Y-74457000D03*
X85500000Y-59200000D03*
%TO.N,3V3*%
X112612000Y-60200000D03*
X122700000Y-60200000D03*
X127400000Y-60200000D03*
X123272000Y-86540000D03*
X127460000Y-86600000D03*
%TO.N,GND*%
X38800000Y-64100000D03*
X101100000Y-109800000D03*
%TO.N,VBUS*%
X100900000Y-114400000D03*
X80700000Y-114400000D03*
X86100000Y-114400000D03*
%TO.N,GND*%
X84700000Y-112800000D03*
%TO.N,HDPA*%
X66400000Y-96730000D03*
X59580127Y-79746579D03*
%TO.N,GND*%
X97300000Y-116300000D03*
X76600000Y-104200000D03*
X76600000Y-108000000D03*
X68100000Y-109100000D03*
X66000000Y-112500000D03*
X78200000Y-115100000D03*
X75900000Y-115100000D03*
X69600000Y-115200000D03*
X108400000Y-74000000D03*
X101200000Y-74100000D03*
X104600000Y-72100000D03*
X112400000Y-69000000D03*
X97800000Y-63900000D03*
X112400000Y-74000000D03*
X110800000Y-70800000D03*
X103600000Y-74100000D03*
X108300000Y-69000000D03*
X105900000Y-63200000D03*
X121300000Y-95000000D03*
X110900000Y-94956000D03*
X106900000Y-95000000D03*
X104900000Y-95000000D03*
X59170000Y-47410000D03*
X41480000Y-47750000D03*
X109470000Y-34800000D03*
X95350000Y-34560000D03*
X91280000Y-54360000D03*
%TO.N,1V8*%
X88580000Y-53910000D03*
X76250000Y-55300000D03*
X62215000Y-55340000D03*
%TO.N,GND*%
X79900000Y-91460000D03*
X66960000Y-89800000D03*
X32500000Y-89200000D03*
X32300000Y-69800000D03*
X49300000Y-80100000D03*
X49150000Y-84130000D03*
X49030000Y-73670000D03*
X49070000Y-70880000D03*
X105932000Y-67672000D03*
X110740000Y-63330000D03*
X124260000Y-77450000D03*
X122740000Y-48460000D03*
X112320000Y-48340000D03*
X108331000Y-44485000D03*
X108290000Y-48340000D03*
X103530000Y-48320000D03*
X101920000Y-48300000D03*
X90560000Y-45460000D03*
X90620000Y-47880000D03*
X87563000Y-55187000D03*
X93440000Y-48400000D03*
X96230000Y-48450000D03*
%TO.N,SPI0_NPCS1*%
X61000000Y-82302000D03*
%TO.N,PA2*%
X33970000Y-44430000D03*
%TO.N,PA1*%
X37850000Y-44350000D03*
%TO.N,PA0*%
X41298966Y-46341034D03*
%TO.N,GND*%
X48920000Y-67470000D03*
X48550000Y-61920000D03*
X50530000Y-56360000D03*
X69085000Y-46041000D03*
X99441000Y-94869000D03*
X72013000Y-82010000D03*
X64300000Y-124200000D03*
X71500000Y-91100000D03*
X66294000Y-115951000D03*
X63006000Y-46480000D03*
X66215000Y-81780000D03*
X62738000Y-115951000D03*
X85600000Y-60960000D03*
X63881000Y-75057000D03*
X78380000Y-41210000D03*
X84250000Y-57940000D03*
X69311000Y-56610000D03*
X59020000Y-62659000D03*
X64000000Y-81800000D03*
X62500000Y-57300000D03*
X78715000Y-81940000D03*
X77750000Y-56570000D03*
X64008000Y-72771000D03*
X59664458Y-60285541D03*
X64008000Y-69723000D03*
%TO.N,Net-(C19-Pad2)*%
X74168000Y-120015000D03*
X72136000Y-120015000D03*
%TO.N,Net-(J1-Pin_3)*%
X46736000Y-120904000D03*
%TO.N,Net-(J1-Pin_5)*%
X53400000Y-69900000D03*
%TO.N,Net-(J1-Pin_7)*%
X51600000Y-70100000D03*
%TO.N,Net-(J1-Pin_9)*%
X39929500Y-119050500D03*
X59950000Y-72659000D03*
%TO.N,Net-(J1-Pin_11)*%
X59180000Y-73957000D03*
X49911000Y-112649000D03*
%TO.N,Net-(J1-Pin_13)*%
X46700000Y-110104000D03*
X54400000Y-69590000D03*
%TO.N,PB14*%
X59760000Y-65840000D03*
X68326000Y-106045000D03*
%TO.N,PB15*%
X59210000Y-66650000D03*
X67437000Y-107569000D03*
%TO.N,D7*%
X111506000Y-91059000D03*
X90043000Y-75182000D03*
%TO.N,A0*%
X113411000Y-97536000D03*
X114300000Y-94742000D03*
%TO.N,SDWE*%
X113919000Y-63627000D03*
X111760000Y-85344000D03*
%TO.N,CAS*%
X113990000Y-90840000D03*
X114808000Y-81640000D03*
X85598000Y-85344000D03*
X114808000Y-64897000D03*
%TO.N,RAS*%
X115561710Y-63888069D03*
X115561710Y-82550000D03*
%TO.N,SDCS*%
X116322633Y-63239224D03*
X116322633Y-81620000D03*
%TO.N,A16*%
X117346443Y-83173557D03*
X73436425Y-87200000D03*
X117083644Y-93157644D03*
X117132887Y-63825307D03*
%TO.N,A17*%
X72808425Y-85615505D03*
X117910229Y-63196226D03*
X117910229Y-82230000D03*
X117983000Y-92329000D03*
%TO.N,SDA10*%
X118735626Y-63760784D03*
X118735626Y-82800000D03*
%TO.N,A2*%
X119545717Y-63174475D03*
X119545717Y-82280000D03*
%TO.N,A3*%
X120400000Y-83000000D03*
X120322718Y-63803978D03*
%TO.N,A4*%
X121148882Y-63240544D03*
X121195000Y-83770000D03*
%TO.N,A5*%
X122007000Y-63754000D03*
X121990000Y-84390000D03*
%TO.N,A7*%
X126619000Y-91694000D03*
X127000000Y-93345000D03*
%TO.N,A8*%
X125823495Y-92549495D03*
X126750653Y-94619653D03*
%TO.N,A9*%
X125095000Y-91440000D03*
X126374306Y-96021306D03*
%TO.N,A10*%
X124370000Y-90297000D03*
X125997959Y-97422959D03*
%TO.N,A11*%
X123645000Y-91440000D03*
X125431112Y-99015112D03*
%TO.N,A13*%
X122622016Y-87440000D03*
X125181765Y-100289765D03*
%TO.N,A14*%
X113900000Y-106642000D03*
X116912000Y-87220000D03*
%TO.N,SDCK*%
X114681000Y-55499000D03*
X92895847Y-77232000D03*
X112930000Y-75311000D03*
%TO.N,NBS1*%
X84836000Y-80264000D03*
X112780000Y-79121000D03*
%TO.N,A1*%
X82550000Y-80645000D03*
X103500000Y-56500000D03*
%TO.N,NBS3*%
X109500000Y-55400000D03*
X84900000Y-78200000D03*
%TO.N,Net-(JP1-B)*%
X52449000Y-100459000D03*
X52655627Y-72805000D03*
%TD*%
D40*
%TO.N,Net-(U1-JTAGSEL)*%
X42200000Y-75610000D02*
X44048000Y-77458000D01*
X44048000Y-77458000D02*
X48282000Y-77458000D01*
X55789000Y-76609000D02*
X56137000Y-76957000D01*
X48282000Y-77458000D02*
X49131000Y-76609000D01*
X49131000Y-76609000D02*
X55789000Y-76609000D01*
X56137000Y-76957000D02*
X56963000Y-76957000D01*
%TO.N,A8*%
X77513000Y-86853000D02*
X78359000Y-87699000D01*
X78359000Y-87699000D02*
X78359000Y-91099000D01*
X78359000Y-91099000D02*
X81574000Y-94314000D01*
X77513000Y-84007000D02*
X77513000Y-86853000D01*
X81574000Y-94314000D02*
X83646000Y-94314000D01*
X118119306Y-103251000D02*
X126750653Y-94619653D01*
X83646000Y-94314000D02*
X92583000Y-103251000D01*
X92583000Y-103251000D02*
X118119306Y-103251000D01*
%TO.N,A9*%
X81490000Y-95190000D02*
X82900000Y-95190000D01*
X77013000Y-87173000D02*
X77909000Y-88069000D01*
X77909000Y-88069000D02*
X77909000Y-91609000D01*
X118382612Y-104013000D02*
X126374306Y-96021306D01*
X77909000Y-91609000D02*
X81490000Y-95190000D01*
X77013000Y-84007000D02*
X77013000Y-87173000D01*
X82900000Y-95190000D02*
X91723000Y-104013000D01*
X91723000Y-104013000D02*
X118382612Y-104013000D01*
%TO.N,A10*%
X76513000Y-84007000D02*
X76513000Y-87983000D01*
X76513000Y-87983000D02*
X77407198Y-88877198D01*
X77407198Y-88877198D02*
X77407198Y-92141990D01*
X77407198Y-92141990D02*
X89913208Y-104648000D01*
X89913208Y-104648000D02*
X118772918Y-104648000D01*
X118772918Y-104648000D02*
X125997959Y-97422959D01*
%TO.N,A14*%
X113900000Y-106642000D02*
X84189960Y-106642000D01*
X84189960Y-106642000D02*
X74513000Y-96965040D01*
X74513000Y-96965040D02*
X74513000Y-84007000D01*
%TO.N,A13*%
X75013000Y-84007000D02*
X75013000Y-96897940D01*
X75013000Y-96897940D02*
X83906060Y-105791000D01*
X83906060Y-105791000D02*
X119680530Y-105791000D01*
X119680530Y-105791000D02*
X125181765Y-100289765D01*
D41*
%TO.N,A15*%
X74013000Y-84007000D02*
X74013000Y-86819152D01*
X74013000Y-86819152D02*
X74113425Y-86919577D01*
X74113425Y-86919577D02*
X74113425Y-87480423D01*
X74113425Y-87480423D02*
X74013000Y-87580848D01*
X74013000Y-87580848D02*
X74013000Y-92103000D01*
X74013000Y-92103000D02*
X71628000Y-94488000D01*
X71628000Y-94488000D02*
X71628000Y-97536000D01*
%TO.N,A16*%
X73513000Y-87123425D02*
X73513000Y-84007000D01*
X73436425Y-87200000D02*
X73513000Y-87123425D01*
D42*
%TO.N,SDCK*%
X112930000Y-75311000D02*
X113676000Y-75311000D01*
X113676000Y-75311000D02*
X114795000Y-76430000D01*
X114795000Y-76430000D02*
X114795000Y-77435000D01*
D43*
%TO.N,GND*%
X112395000Y-77435000D02*
X112230000Y-77270000D01*
X112230000Y-77270000D02*
X112230000Y-74170000D01*
X112230000Y-74170000D02*
X112400000Y-74000000D01*
D40*
%TO.N,NBS1*%
X113995000Y-78075000D02*
X113995000Y-77435000D01*
X112780000Y-79121000D02*
X112949000Y-79121000D01*
X112949000Y-79121000D02*
X113995000Y-78075000D01*
D43*
%TO.N,GND*%
X111690000Y-80220000D02*
X111690000Y-79130000D01*
X111690000Y-79130000D02*
X112395000Y-78425000D01*
X112395000Y-78425000D02*
X112395000Y-77435000D01*
D40*
%TO.N,A1*%
X103500000Y-56500000D02*
X103515000Y-56515000D01*
X103515000Y-56515000D02*
X110095000Y-56515000D01*
X110095000Y-56515000D02*
X113300000Y-59720000D01*
X113300000Y-59720000D02*
X113300000Y-61497000D01*
X113300000Y-61497000D02*
X113132000Y-61665000D01*
D42*
%TO.N,3V3*%
X112612000Y-60200000D02*
X112332000Y-60480000D01*
X112332000Y-60480000D02*
X112332000Y-61665000D01*
D40*
%TO.N,D27*%
X87563000Y-63457000D02*
X89957604Y-63457000D01*
X89957604Y-63457000D02*
X100074604Y-53340000D01*
X100074604Y-53340000D02*
X105920000Y-53340000D01*
X105920000Y-53340000D02*
X107532000Y-51728000D01*
X107532000Y-51728000D02*
X107532000Y-50165000D01*
D42*
%TO.N,1V8*%
X87563000Y-56457000D02*
X88378664Y-56457000D01*
X88800000Y-56035664D02*
X88800000Y-54410000D01*
X88378664Y-56457000D02*
X88800000Y-56035664D01*
X88800000Y-54410000D02*
X88893000Y-54317000D01*
X88580000Y-53910000D02*
X88580000Y-54004000D01*
X88580000Y-54004000D02*
X88893000Y-54317000D01*
%TO.N,GND*%
X87563000Y-55187000D02*
X87563000Y-55957000D01*
%TO.N,Net-(U1-PLLRCA)*%
X85980000Y-55030000D02*
X88340000Y-52670000D01*
X88340000Y-52670000D02*
X89830000Y-51180000D01*
X88310500Y-51081500D02*
X88310500Y-52640500D01*
X88310500Y-52640500D02*
X88340000Y-52670000D01*
X87563000Y-56957000D02*
X86747336Y-56957000D01*
X86747336Y-56957000D02*
X85980000Y-56189664D01*
X85980000Y-56189664D02*
X85980000Y-55030000D01*
X89830000Y-51180000D02*
X90620000Y-51180000D01*
D43*
%TO.N,PB30*%
X75013000Y-53407000D02*
X75013000Y-50180470D01*
X75013000Y-50180470D02*
X74018000Y-49185469D01*
X73030000Y-33940000D02*
X73030000Y-32170000D01*
X74018000Y-49185469D02*
X74018000Y-34928000D01*
X74018000Y-34928000D02*
X73030000Y-33940000D01*
X73030000Y-32170000D02*
X71830000Y-30970000D01*
%TO.N,PA0*%
X69290000Y-30970000D02*
X70728000Y-32408000D01*
X70728000Y-32408000D02*
X70728000Y-34198000D01*
X70728000Y-34198000D02*
X73308000Y-36778000D01*
X73308000Y-36778000D02*
X73308000Y-49471078D01*
X73308000Y-49471078D02*
X74013000Y-50176078D01*
X74013000Y-50176078D02*
X74013000Y-53407000D01*
%TO.N,PA21*%
X60513000Y-53407000D02*
X60513000Y-51363000D01*
X60513000Y-51363000D02*
X43890000Y-34740000D01*
X43890000Y-34740000D02*
X43890000Y-33510000D01*
%TO.N,PA20*%
X61013000Y-53407000D02*
X61013000Y-51497000D01*
X61020000Y-51231862D02*
X59730000Y-49941862D01*
X61013000Y-51497000D02*
X61020000Y-51490000D01*
X61020000Y-51490000D02*
X61020000Y-51231862D01*
X59730000Y-49210000D02*
X44992000Y-34472000D01*
X59730000Y-49941862D02*
X59730000Y-49210000D01*
X44992000Y-34472000D02*
X44992000Y-32072000D01*
X44992000Y-32072000D02*
X43890000Y-30970000D01*
%TO.N,PA27*%
X56963000Y-57457000D02*
X55117000Y-57457000D01*
X55117000Y-57457000D02*
X53230000Y-55570000D01*
X53230000Y-55570000D02*
X53230000Y-53160000D01*
X36270000Y-36200000D02*
X36270000Y-33510000D01*
X53230000Y-53160000D02*
X36270000Y-36200000D01*
%TO.N,PA26*%
X55847000Y-56957000D02*
X53920000Y-55030000D01*
X53920000Y-52290000D02*
X37372000Y-35742000D01*
X56963000Y-56957000D02*
X55847000Y-56957000D01*
X37372000Y-32072000D02*
X36270000Y-30970000D01*
X53920000Y-55030000D02*
X53920000Y-52290000D01*
X37372000Y-35742000D02*
X37372000Y-32072000D01*
D42*
%TO.N,SPI0_NPCS1*%
X32000000Y-50055000D02*
X33265000Y-50055000D01*
X33265000Y-50055000D02*
X33612500Y-50402500D01*
X33612500Y-50402500D02*
X33612500Y-52700000D01*
D43*
%TO.N,NRST*%
X31700001Y-48785000D02*
X31120000Y-49365001D01*
X32848000Y-53435500D02*
X34212500Y-54800000D01*
X32848000Y-52248000D02*
X32848000Y-53435500D01*
X31120000Y-49365001D02*
X31120000Y-50520000D01*
X32500000Y-48785000D02*
X31700001Y-48785000D01*
X31120000Y-50520000D02*
X32848000Y-52248000D01*
D42*
%TO.N,GND*%
X41480000Y-47750000D02*
X41245000Y-47515000D01*
X41245000Y-47515000D02*
X39200000Y-47515000D01*
%TO.N,3V3*%
X39700000Y-48785000D02*
X41725000Y-48785000D01*
X42780000Y-46240000D02*
X37480000Y-40940000D01*
X41725000Y-48785000D02*
X42780000Y-47730000D01*
X42780000Y-47730000D02*
X42780000Y-46240000D01*
X37480000Y-40940000D02*
X30196000Y-40940000D01*
D44*
X30196000Y-48200000D02*
X30196000Y-40940000D01*
X30196000Y-40940000D02*
X30196000Y-34504000D01*
D43*
%TO.N,PA29*%
X56963000Y-59457000D02*
X48807129Y-59457000D01*
X45430000Y-47790000D02*
X33730000Y-36090000D01*
X48807129Y-59457000D02*
X45430000Y-56079871D01*
X45430000Y-56079871D02*
X45430000Y-47790000D01*
X33730000Y-36090000D02*
X33730000Y-33510000D01*
%TO.N,PA28*%
X49517000Y-58957000D02*
X48028000Y-57468000D01*
X48028000Y-57468000D02*
X48028000Y-49168000D01*
X56963000Y-58957000D02*
X49517000Y-58957000D01*
X48028000Y-49168000D02*
X34832000Y-35972000D01*
X34832000Y-35972000D02*
X34832000Y-32072000D01*
X34832000Y-32072000D02*
X33730000Y-30970000D01*
%TO.N,PA2*%
X32400000Y-44430000D02*
X30948000Y-45882000D01*
X30948000Y-47262999D02*
X31200001Y-47515000D01*
X33970000Y-44430000D02*
X32400000Y-44430000D01*
X30948000Y-45882000D02*
X30948000Y-47262999D01*
X31200001Y-47515000D02*
X32000000Y-47515000D01*
D42*
%TO.N,Net-(J1-Pin_9)*%
X39929500Y-119050500D02*
X36063000Y-115184000D01*
D43*
%TO.N,HDPA*%
X66400000Y-96730000D02*
X69470000Y-99800000D01*
X69470000Y-99800000D02*
X76200000Y-99800000D01*
X91642500Y-109730000D02*
X93200000Y-111287500D01*
X76200000Y-99800000D02*
X86130000Y-109730000D01*
X86130000Y-109730000D02*
X91642500Y-109730000D01*
%TO.N,HDMA*%
X66490000Y-99480000D02*
X66500000Y-99480000D01*
X66500000Y-99480000D02*
X69830000Y-102810000D01*
X86505000Y-111275000D02*
X90600000Y-111275000D01*
X69830000Y-102810000D02*
X78040000Y-102810000D01*
X78040000Y-102810000D02*
X86505000Y-111275000D01*
D40*
%TO.N,D0*%
X102795000Y-88935000D02*
X102795000Y-88101000D01*
X88541000Y-81261000D02*
X88541000Y-81223988D01*
X102795000Y-88101000D02*
X102324000Y-87630000D01*
X102324000Y-87630000D02*
X94910000Y-87630000D01*
X94910000Y-87630000D02*
X88541000Y-81261000D01*
X88541000Y-81223988D02*
X88274012Y-80957000D01*
X88274012Y-80957000D02*
X87563000Y-80957000D01*
%TO.N,D5*%
X109195000Y-88935000D02*
X109195000Y-87930000D01*
X89130584Y-78457000D02*
X87563000Y-78457000D01*
X109195000Y-87930000D02*
X105945000Y-84680000D01*
X105945000Y-84680000D02*
X95353584Y-84680000D01*
X95353584Y-84680000D02*
X89130584Y-78457000D01*
%TO.N,SDCKE*%
X87563000Y-75457000D02*
X89318000Y-75457000D01*
X89318000Y-75457000D02*
X89318000Y-75482305D01*
X111873000Y-82310000D02*
X115595000Y-78588000D01*
X89318000Y-75482305D02*
X89742695Y-75907000D01*
X99836000Y-82310000D02*
X111873000Y-82310000D01*
X89742695Y-75907000D02*
X93433000Y-75907000D01*
X93433000Y-75907000D02*
X99836000Y-82310000D01*
X115595000Y-78588000D02*
X115595000Y-77435000D01*
%TO.N,SDWE*%
X87563000Y-75957000D02*
X89155695Y-75957000D01*
X89705695Y-76507000D02*
X93271000Y-76507000D01*
X99524000Y-82760000D02*
X109176000Y-82760000D01*
X89155695Y-75957000D02*
X89705695Y-76507000D01*
X93271000Y-76507000D02*
X99524000Y-82760000D01*
X109176000Y-82760000D02*
X111760000Y-85344000D01*
D43*
%TO.N,3V3*%
X93599000Y-78491000D02*
X98368000Y-83260000D01*
X98368000Y-83260000D02*
X107630000Y-83260000D01*
X107630000Y-83260000D02*
X112395000Y-88025000D01*
X112395000Y-88025000D02*
X112395000Y-88935000D01*
D40*
%TO.N,D13*%
X87563000Y-71957000D02*
X95877000Y-71957000D01*
X100991000Y-78701396D02*
X101802604Y-79513000D01*
X104122000Y-79513000D02*
X105195000Y-78440000D01*
X95877000Y-71957000D02*
X100991000Y-77071000D01*
X100991000Y-77071000D02*
X100991000Y-78701396D01*
X101802604Y-79513000D02*
X104122000Y-79513000D01*
X105195000Y-78440000D02*
X105195000Y-77435000D01*
%TO.N,D11*%
X87563000Y-72957000D02*
X94537000Y-72957000D01*
X100091000Y-78511000D02*
X100091000Y-79074188D01*
X94537000Y-72957000D02*
X100091000Y-78511000D01*
X106687000Y-80413000D02*
X107595000Y-79505000D01*
X100091000Y-79074188D02*
X101429812Y-80413000D01*
X101429812Y-80413000D02*
X106687000Y-80413000D01*
X107595000Y-79505000D02*
X107595000Y-77435000D01*
%TO.N,D12*%
X87563000Y-72457000D02*
X90477507Y-72457000D01*
X90477507Y-72457000D02*
X90517507Y-72497000D01*
X100541000Y-78887792D02*
X101616208Y-79963000D01*
X90517507Y-72497000D02*
X95177000Y-72497000D01*
X95177000Y-72497000D02*
X100541000Y-77861000D01*
X100541000Y-77861000D02*
X100541000Y-78887792D01*
X101616208Y-79963000D02*
X105584000Y-79963000D01*
X105584000Y-79963000D02*
X106795000Y-78752000D01*
X106795000Y-78752000D02*
X106795000Y-77435000D01*
%TO.N,D14*%
X101441000Y-78515000D02*
X101989000Y-79063000D01*
X96927000Y-71457000D02*
X101441000Y-75971000D01*
X101989000Y-79063000D02*
X103436000Y-79063000D01*
X87563000Y-71457000D02*
X96927000Y-71457000D01*
X101441000Y-75971000D02*
X101441000Y-78515000D01*
X104395000Y-78104000D02*
X104395000Y-77435000D01*
X103436000Y-79063000D02*
X104395000Y-78104000D01*
%TO.N,D15*%
X87563000Y-70957000D02*
X99567000Y-70957000D01*
X102795000Y-74185000D02*
X102795000Y-77435000D01*
X99567000Y-70957000D02*
X102795000Y-74185000D01*
%TO.N,D16*%
X87563000Y-69957000D02*
X98699000Y-69957000D01*
X100385000Y-68271000D02*
X100385000Y-61578000D01*
X101378000Y-60585000D02*
X102657000Y-60585000D01*
X100385000Y-61578000D02*
X101378000Y-60585000D01*
X98699000Y-69957000D02*
X100385000Y-68271000D01*
X102657000Y-60585000D02*
X102732000Y-60660000D01*
X102732000Y-60660000D02*
X102732000Y-61665000D01*
D43*
%TO.N,1V8*%
X41205500Y-86950500D02*
X41205500Y-82886500D01*
X41205500Y-82886500D02*
X41078500Y-82759500D01*
X41078500Y-82759500D02*
X43086000Y-80752000D01*
X43086000Y-80752000D02*
X51498000Y-80752000D01*
X51498000Y-80752000D02*
X52610000Y-79640000D01*
D41*
%TO.N,/SHDN*%
X53334910Y-82804000D02*
X49518577Y-82804000D01*
X46563000Y-85759577D02*
X46563000Y-86950500D01*
X49518577Y-82804000D02*
X46563000Y-85759577D01*
%TO.N,/WKUP*%
X56963000Y-79457000D02*
X55873000Y-79457000D01*
X55873000Y-79457000D02*
X53820000Y-81510000D01*
X53820000Y-81510000D02*
X47789000Y-81510000D01*
X47789000Y-81510000D02*
X46539500Y-82759500D01*
D42*
%TO.N,GND*%
X49486807Y-77280000D02*
X49663807Y-77457000D01*
X49663807Y-77457000D02*
X56963000Y-77457000D01*
D43*
X44580000Y-76590000D02*
X45790000Y-76590000D01*
X45790000Y-76590000D02*
X45850000Y-76530000D01*
X44550000Y-74160000D02*
X45978000Y-74160000D01*
X45978000Y-74160000D02*
X46020000Y-74118000D01*
%TO.N,Net-(JP4-A)*%
X47320000Y-74118000D02*
X48659000Y-75457000D01*
X48659000Y-75457000D02*
X56963000Y-75457000D01*
%TO.N,3V3*%
X45767500Y-71900000D02*
X41015500Y-71900000D01*
X41015500Y-71900000D02*
X36615500Y-67500000D01*
%TO.N,GND*%
X45680000Y-76700000D02*
X45850000Y-76530000D01*
D42*
X49150000Y-84130000D02*
X49206000Y-84074000D01*
X49206000Y-84074000D02*
X51059000Y-84074000D01*
D43*
%TO.N,NRST*%
X50430000Y-98450000D02*
X48212297Y-100667703D01*
X48212297Y-100667703D02*
X48200000Y-100667703D01*
X48200000Y-100667703D02*
X40453703Y-108414000D01*
X40453703Y-108414000D02*
X34567000Y-108414000D01*
X34567000Y-108414000D02*
X33717000Y-107564000D01*
D42*
X50410000Y-73050000D02*
X50247222Y-73050000D01*
X50247222Y-73050000D02*
X46970000Y-69772778D01*
D43*
X50817000Y-73457000D02*
X56963000Y-73457000D01*
D42*
X46970000Y-69772778D02*
X46970000Y-66070000D01*
X46970000Y-66070000D02*
X40500000Y-59600000D01*
D43*
X50410000Y-73050000D02*
X50817000Y-73457000D01*
D44*
%TO.N,GND*%
X92260000Y-86150000D02*
X92290000Y-86150000D01*
X92260000Y-86150000D02*
X89450000Y-86150000D01*
D42*
X105995000Y-88018128D02*
X105528436Y-87551564D01*
X105995000Y-88935000D02*
X105995000Y-88018128D01*
D40*
%TO.N,D2*%
X105195000Y-88935000D02*
X105195000Y-88155000D01*
X105195000Y-88155000D02*
X103654000Y-86614000D01*
X103654000Y-86614000D02*
X95378396Y-86614000D01*
X95378396Y-86614000D02*
X88721396Y-79957000D01*
X88721396Y-79957000D02*
X87563000Y-79957000D01*
D42*
%TO.N,GND*%
X110795000Y-87515000D02*
X110730000Y-87450000D01*
X110795000Y-88935000D02*
X110795000Y-87515000D01*
D43*
X93611000Y-80391000D02*
X94830000Y-81610000D01*
X93599000Y-80391000D02*
X93611000Y-80391000D01*
D40*
%TO.N,A4*%
X121195000Y-83770000D02*
X121195000Y-88935000D01*
%TO.N,A5*%
X121910000Y-84470000D02*
X121910000Y-88850000D01*
X121990000Y-84390000D02*
X121910000Y-84470000D01*
X121910000Y-88850000D02*
X121995000Y-88935000D01*
%TO.N,A3*%
X120395000Y-83005000D02*
X120395000Y-88935000D01*
X120400000Y-83000000D02*
X120395000Y-83005000D01*
D42*
%TO.N,3V3*%
X83513000Y-53407000D02*
X83513000Y-57447000D01*
X83513000Y-57447000D02*
X79013000Y-61947000D01*
X79013000Y-61947000D02*
X79013000Y-61957000D01*
X83513000Y-53407000D02*
X83513000Y-54156999D01*
X83513000Y-54156999D02*
X83815001Y-54459000D01*
X83815001Y-54459000D02*
X85231000Y-54459000D01*
X85231000Y-54459000D02*
X87020000Y-52670000D01*
X87020000Y-52670000D02*
X87020000Y-44080000D01*
X87020000Y-44080000D02*
X87010000Y-44070000D01*
X87010000Y-44070000D02*
X85960000Y-44070000D01*
D41*
%TO.N,Net-(JP2-A)*%
X85013000Y-53407000D02*
X85920000Y-52500000D01*
X85920000Y-52500000D02*
X85920000Y-45410000D01*
X85920000Y-45410000D02*
X85960000Y-45370000D01*
D43*
%TO.N,PB29*%
X75513000Y-53407000D02*
X75513000Y-50182666D01*
X75513000Y-50182666D02*
X74750000Y-49419666D01*
X74750000Y-49419666D02*
X74750000Y-33890000D01*
X74750000Y-33890000D02*
X74370000Y-33510000D01*
%TO.N,PB28*%
X76013000Y-53407000D02*
X76013000Y-50184862D01*
X76013000Y-50184862D02*
X75580000Y-49751862D01*
X75580000Y-49751862D02*
X75580000Y-32180000D01*
X75580000Y-32180000D02*
X74370000Y-30970000D01*
%TO.N,PB27*%
X77513000Y-53407000D02*
X77513000Y-51351890D01*
X77081000Y-45701000D02*
X77081000Y-33681000D01*
X77513000Y-51351890D02*
X78240000Y-50624890D01*
X78240000Y-50624890D02*
X78240000Y-46860000D01*
X78240000Y-46860000D02*
X77081000Y-45701000D01*
X77081000Y-33681000D02*
X76910000Y-33510000D01*
%TO.N,PA14*%
X66013000Y-50821681D02*
X65878000Y-50686680D01*
X65878000Y-46896464D02*
X52800000Y-33818464D01*
X65878000Y-50686680D02*
X65878000Y-46896464D01*
X52800000Y-33818464D02*
X52800000Y-32260000D01*
X66013000Y-53407000D02*
X66013000Y-50821681D01*
X52800000Y-32260000D02*
X51510000Y-30970000D01*
%TO.N,PA12*%
X66582000Y-45060464D02*
X55320000Y-33798464D01*
X66582000Y-50395074D02*
X66582000Y-45060464D01*
X67013000Y-53407000D02*
X67013000Y-50826075D01*
X55320000Y-33798464D02*
X55320000Y-32240000D01*
X67013000Y-50826075D02*
X66582000Y-50395074D01*
X55320000Y-32240000D02*
X54050000Y-30970000D01*
%TO.N,PA10*%
X68013000Y-50830469D02*
X67286000Y-50103468D01*
X67286000Y-50103468D02*
X67286000Y-43224464D01*
X68013000Y-53407000D02*
X68013000Y-50830469D01*
X67286000Y-43224464D02*
X57880000Y-33818464D01*
X57880000Y-33818464D02*
X57880000Y-32260000D01*
X57880000Y-32260000D02*
X56590000Y-30970000D01*
%TO.N,PA8*%
X67990000Y-41388464D02*
X60410000Y-33808464D01*
X60410000Y-32250000D02*
X59130000Y-30970000D01*
X69013000Y-50834862D02*
X67990000Y-49811862D01*
X69013000Y-53407000D02*
X69013000Y-50834862D01*
X60410000Y-33808464D02*
X60410000Y-32250000D01*
X67990000Y-49811862D02*
X67990000Y-41388464D01*
%TO.N,PA6*%
X71013000Y-53407000D02*
X71013000Y-50162902D01*
X71013000Y-50162902D02*
X70660000Y-49809902D01*
X70660000Y-49809902D02*
X70660000Y-41518464D01*
X70660000Y-41518464D02*
X62930000Y-33788464D01*
X62930000Y-33788464D02*
X62930000Y-32230000D01*
X62930000Y-32230000D02*
X61670000Y-30970000D01*
%TO.N,PA15*%
X65513000Y-53407000D02*
X65513000Y-47069326D01*
X63104000Y-45124000D02*
X51510000Y-33530000D01*
X65513000Y-47069326D02*
X63567674Y-45124000D01*
X63567674Y-45124000D02*
X63104000Y-45124000D01*
X51510000Y-33530000D02*
X51510000Y-33510000D01*
%TO.N,PA16*%
X65013000Y-53407000D02*
X65013000Y-47067129D01*
X65013000Y-47067129D02*
X63421871Y-45476000D01*
X63421871Y-45476000D02*
X62016000Y-45476000D01*
X62016000Y-45476000D02*
X51152000Y-34612000D01*
X51152000Y-34612000D02*
X51053536Y-34612000D01*
X50100000Y-32100000D02*
X48970000Y-30970000D01*
X51053536Y-34612000D02*
X50100000Y-33658464D01*
X50100000Y-33658464D02*
X50100000Y-32100000D01*
%TO.N,PA17*%
X64513000Y-53407000D02*
X64513000Y-47064932D01*
X63276068Y-45828000D02*
X61288000Y-45828000D01*
X64513000Y-47064932D02*
X63276068Y-45828000D01*
X61288000Y-45828000D02*
X48970000Y-33510000D01*
%TO.N,PA18*%
X63013000Y-53407000D02*
X63013000Y-50734862D01*
X62310000Y-47240335D02*
X61745665Y-46676000D01*
X48552000Y-34612000D02*
X48513536Y-34612000D01*
X61745665Y-46676000D02*
X60616000Y-46676000D01*
X62310000Y-50031862D02*
X62310000Y-47240335D01*
X63013000Y-50734862D02*
X62310000Y-50031862D01*
X48513536Y-34612000D02*
X47680000Y-33778464D01*
X60616000Y-46676000D02*
X48552000Y-34612000D01*
X47680000Y-33778464D02*
X47680000Y-32220000D01*
X47680000Y-32220000D02*
X46430000Y-30970000D01*
%TO.N,PA19*%
X62513000Y-53407000D02*
X62513000Y-50732666D01*
X62513000Y-50732666D02*
X61887000Y-50106666D01*
X61887000Y-50106666D02*
X61887000Y-47315138D01*
X46520000Y-33510000D02*
X46430000Y-33510000D01*
X61887000Y-47315138D02*
X61599862Y-47028000D01*
X61599862Y-47028000D02*
X60038000Y-47028000D01*
X60038000Y-47028000D02*
X46520000Y-33510000D01*
%TO.N,PA22*%
X60013000Y-53407000D02*
X60013000Y-51913000D01*
X42590000Y-34490000D02*
X42590000Y-32210000D01*
X42590000Y-32210000D02*
X41350000Y-30970000D01*
X60013000Y-51913000D02*
X42590000Y-34490000D01*
D42*
%TO.N,GND*%
X50530000Y-56360000D02*
X50530000Y-57891000D01*
X50530000Y-57891000D02*
X50551000Y-57912000D01*
D43*
%TO.N,PA25*%
X56963000Y-56457000D02*
X56218048Y-56457000D01*
X56218048Y-56457000D02*
X55240000Y-55478952D01*
X38810000Y-35870000D02*
X38810000Y-33510000D01*
X55240000Y-55478952D02*
X55240000Y-52300000D01*
X55240000Y-52300000D02*
X38810000Y-35870000D01*
%TO.N,PA23*%
X59513000Y-53407000D02*
X59513000Y-52723000D01*
X59513000Y-52723000D02*
X41350000Y-34560000D01*
X41350000Y-34560000D02*
X41350000Y-33510000D01*
%TO.N,PA24*%
X56963000Y-55957000D02*
X56963000Y-51893000D01*
X40248000Y-35178000D02*
X40248000Y-32408000D01*
X56963000Y-51893000D02*
X40248000Y-35178000D01*
X40248000Y-32408000D02*
X38810000Y-30970000D01*
D42*
%TO.N,Net-(J1-Pin_13)*%
X54400000Y-69590000D02*
X54767000Y-69957000D01*
X54767000Y-69957000D02*
X56963000Y-69957000D01*
D41*
%TO.N,Net-(U1-XOUT32)*%
X56963000Y-77957000D02*
X36047000Y-77957000D01*
X36047000Y-77957000D02*
X33274000Y-75184000D01*
D43*
%TO.N,/OSCSEL*%
X56963000Y-75957000D02*
X48066000Y-75957000D01*
X48066000Y-75957000D02*
X47675000Y-76348000D01*
D40*
%TO.N,A6*%
X79513000Y-84007000D02*
X79513000Y-85483000D01*
X79513000Y-85483000D02*
X81710000Y-87680000D01*
X81710000Y-87680000D02*
X81710000Y-88570000D01*
X126730000Y-90916873D02*
X126730000Y-82788000D01*
X126730000Y-82788000D02*
X121995000Y-78053000D01*
X95121000Y-101981000D02*
X117348000Y-101981000D01*
X81710000Y-88570000D02*
X95121000Y-101981000D01*
X117348000Y-101981000D02*
X127247000Y-92082000D01*
X127247000Y-91433873D02*
X126730000Y-90916873D01*
X127247000Y-92082000D02*
X127247000Y-91433873D01*
X121995000Y-78053000D02*
X121995000Y-77435000D01*
%TO.N,A11*%
X76013000Y-84007000D02*
X76013000Y-88966495D01*
X76013000Y-88966495D02*
X76957198Y-89910693D01*
X76957198Y-89910693D02*
X76957198Y-93147198D01*
X89093000Y-105283000D02*
X119163224Y-105283000D01*
X76957198Y-93147198D02*
X89093000Y-105283000D01*
X119163224Y-105283000D02*
X125431112Y-99015112D01*
%TO.N,D6*%
X109995000Y-88935000D02*
X109995000Y-87930000D01*
X109995000Y-87930000D02*
X106085000Y-84020000D01*
X88411190Y-77957000D02*
X87563000Y-77957000D01*
X106085000Y-84020000D02*
X95329980Y-84020000D01*
X95329980Y-84020000D02*
X89316980Y-78007000D01*
X89316980Y-78007000D02*
X88461190Y-78007000D01*
X88461190Y-78007000D02*
X88411190Y-77957000D01*
D42*
%TO.N,GND*%
X64000000Y-81800000D02*
X63800000Y-81600000D01*
X61205222Y-81598000D02*
X61203222Y-81600000D01*
X63800000Y-81600000D02*
X61788778Y-81600000D01*
X61203222Y-81600000D02*
X60570000Y-81600000D01*
X61788778Y-81600000D02*
X61786778Y-81598000D01*
X61786778Y-81598000D02*
X61205222Y-81598000D01*
X60570000Y-81600000D02*
X59513000Y-82657000D01*
X59513000Y-82657000D02*
X59513000Y-84007000D01*
D40*
%TO.N,A7*%
X79013000Y-84007000D02*
X79013000Y-85660486D01*
X93853000Y-102616000D02*
X117729000Y-102616000D01*
X79013000Y-85660486D02*
X80934000Y-87581486D01*
X80934000Y-87581486D02*
X80934000Y-89697000D01*
X80934000Y-89697000D02*
X93853000Y-102616000D01*
X117729000Y-102616000D02*
X127000000Y-93345000D01*
D44*
%TO.N,3V3*%
X53700000Y-87270000D02*
X58250000Y-82720000D01*
X58250000Y-82720000D02*
X72263000Y-68707000D01*
D42*
X56963000Y-81457000D02*
X58226000Y-82720000D01*
X58226000Y-82720000D02*
X58250000Y-82720000D01*
X56124000Y-82296000D02*
X56124000Y-82316000D01*
X56124000Y-82316000D02*
X54366000Y-84074000D01*
X54366000Y-84074000D02*
X52959000Y-84074000D01*
D44*
X53700000Y-97000000D02*
X53700000Y-87270000D01*
D43*
%TO.N,Net-(J1-Pin_17)*%
X33717000Y-105024000D02*
X38194000Y-105024000D01*
X38194000Y-105024000D02*
X39780000Y-106610000D01*
%TO.N,Net-(J1-Pin_19)*%
X33717000Y-102484000D02*
X39566000Y-102484000D01*
X39566000Y-102484000D02*
X39790000Y-102260000D01*
%TO.N,1V8*%
X55560000Y-74457000D02*
X54500000Y-74457000D01*
D41*
%TO.N,/WKUP*%
X46539500Y-82759500D02*
X47140500Y-83360500D01*
%TO.N,/SHDN*%
X56963000Y-79957000D02*
X56181910Y-79957000D01*
X56181910Y-79957000D02*
X53334910Y-82804000D01*
D44*
%TO.N,GND*%
X58840000Y-55380000D02*
X58840000Y-55400000D01*
X58840000Y-55400000D02*
X61970000Y-58530000D01*
D42*
X82977000Y-77457000D02*
X82070000Y-76550000D01*
X87563000Y-77457000D02*
X82977000Y-77457000D01*
X78513000Y-82142000D02*
X78513000Y-84007000D01*
X78715000Y-81940000D02*
X78513000Y-82142000D01*
X72013000Y-82010000D02*
X72013000Y-84007000D01*
X66215000Y-81780000D02*
X66013000Y-81982000D01*
X66013000Y-81982000D02*
X66013000Y-84007000D01*
D44*
%TO.N,1V8*%
X71501000Y-87884000D02*
X71146000Y-87884000D01*
X71146000Y-87884000D02*
X55800000Y-103230000D01*
X55800000Y-103230000D02*
X55800000Y-104200000D01*
D42*
%TO.N,GND*%
X59650541Y-60285541D02*
X57822000Y-58457000D01*
X59664458Y-60285541D02*
X59650541Y-60285541D01*
X57822000Y-58457000D02*
X56963000Y-58457000D01*
D43*
%TO.N,HDMA*%
X57712999Y-80457000D02*
X58960000Y-79209999D01*
X58960000Y-79209999D02*
X58960000Y-78830000D01*
X56963000Y-80457000D02*
X57712999Y-80457000D01*
%TO.N,HDPA*%
X58369706Y-80957000D02*
X56963000Y-80957000D01*
X59580127Y-79746579D02*
X58369706Y-80957000D01*
D44*
%TO.N,3V3*%
X87700000Y-128300000D02*
X61943000Y-128300000D01*
X61943000Y-128300000D02*
X55930000Y-122287000D01*
D42*
%TO.N,1V8*%
X87563000Y-60457000D02*
X86757000Y-60457000D01*
X86757000Y-60457000D02*
X86257000Y-59957000D01*
%TO.N,GND*%
X64008000Y-69723000D02*
X59953000Y-69723000D01*
X59953000Y-69723000D02*
X58187000Y-67957000D01*
X58187000Y-67957000D02*
X56963000Y-67957000D01*
X59020000Y-62659000D02*
X58818000Y-62457000D01*
X58818000Y-62457000D02*
X56963000Y-62457000D01*
X62500000Y-57300000D02*
X63513000Y-56287000D01*
X63513000Y-56287000D02*
X63513000Y-53407000D01*
X69311000Y-56610000D02*
X69513000Y-56408000D01*
X69513000Y-56408000D02*
X69513000Y-53407000D01*
X76962000Y-55782000D02*
X76962000Y-54238328D01*
X76962000Y-54238328D02*
X77013000Y-54187328D01*
X77750000Y-56570000D02*
X76962000Y-55782000D01*
X77013000Y-54187328D02*
X77013000Y-53407000D01*
X78513000Y-55807000D02*
X78513000Y-53407000D01*
X77750000Y-56570000D02*
X78513000Y-55807000D01*
X84250000Y-57940000D02*
X84767000Y-58457000D01*
X84767000Y-58457000D02*
X87563000Y-58457000D01*
X84250000Y-57940000D02*
X84733000Y-57457000D01*
X84733000Y-57457000D02*
X87563000Y-57457000D01*
X85732000Y-67457000D02*
X85530000Y-67255000D01*
X87563000Y-67457000D02*
X85732000Y-67457000D01*
X85600000Y-60960000D02*
X85760000Y-61120000D01*
X85600000Y-60960000D02*
X85603000Y-60957000D01*
X85603000Y-60957000D02*
X87563000Y-60957000D01*
%TO.N,3V3*%
X108331000Y-93056000D02*
X107498000Y-93056000D01*
X107498000Y-93056000D02*
X106930000Y-92488000D01*
D40*
%TO.N,A13*%
X122622016Y-87440000D02*
X122622016Y-83702016D01*
X117195000Y-78275000D02*
X117195000Y-77435000D01*
X122622016Y-83702016D02*
X117195000Y-78275000D01*
D42*
%TO.N,3V3*%
X123272000Y-86540000D02*
X123324016Y-86592016D01*
X123324016Y-86592016D02*
X123324016Y-88405984D01*
X123324016Y-88405984D02*
X122795000Y-88935000D01*
D44*
X128109000Y-85951000D02*
X128109000Y-60909000D01*
X127460000Y-86600000D02*
X128109000Y-87249000D01*
X128109000Y-112191000D02*
X112000000Y-128300000D01*
X128109000Y-87249000D02*
X128109000Y-112191000D01*
X112000000Y-128300000D02*
X87700000Y-128300000D01*
X53700000Y-101900000D02*
X53700000Y-97000000D01*
X127460000Y-86600000D02*
X128109000Y-85951000D01*
X128109000Y-60909000D02*
X127400000Y-60200000D01*
D40*
%TO.N,A7*%
X126619000Y-91694000D02*
X126340000Y-91415000D01*
X121195000Y-78142000D02*
X121195000Y-77435000D01*
X126340000Y-91415000D02*
X126340000Y-83287000D01*
X126340000Y-83287000D02*
X121195000Y-78142000D01*
%TO.N,A14*%
X116395000Y-77435000D02*
X116395000Y-80804240D01*
X116395000Y-80804240D02*
X117070000Y-81479240D01*
X117070000Y-81479240D02*
X117070000Y-82561873D01*
X117070000Y-82561873D02*
X116718443Y-82913430D01*
X116718443Y-82913430D02*
X116718443Y-87026443D01*
X116718443Y-87026443D02*
X116912000Y-87220000D01*
D41*
%TO.N,A16*%
X117346443Y-83173557D02*
X117346443Y-83173556D01*
X117346443Y-83173556D02*
X117195000Y-83022113D01*
%TO.N,CAS*%
X114808000Y-81640000D02*
X114795000Y-81653000D01*
D40*
X114795000Y-81653000D02*
X114795000Y-88935000D01*
%TO.N,RAS*%
X115595000Y-82583290D02*
X115595000Y-88935000D01*
X115561710Y-82550000D02*
X115595000Y-82583290D01*
%TO.N,SDCS*%
X116230000Y-81712633D02*
X116230000Y-88770000D01*
X116322633Y-81620000D02*
X116230000Y-81712633D01*
X116230000Y-88770000D02*
X116395000Y-88935000D01*
%TO.N,A16*%
X117195000Y-83022113D02*
X117540000Y-83367113D01*
X117540000Y-87950000D02*
X117538000Y-87952000D01*
X117538000Y-88592000D02*
X117195000Y-88935000D01*
X117540000Y-83367113D02*
X117540000Y-87950000D01*
X117538000Y-87952000D02*
X117538000Y-88592000D01*
%TO.N,SDA10*%
X118795000Y-82859374D02*
X118795000Y-88935000D01*
X118735626Y-82800000D02*
X118795000Y-82859374D01*
%TO.N,A2*%
X119545717Y-82280000D02*
X119595000Y-82329283D01*
X119595000Y-82329283D02*
X119595000Y-88935000D01*
D41*
%TO.N,A17*%
X117910229Y-82230000D02*
X117995000Y-82314771D01*
D40*
X117995000Y-82314771D02*
X117995000Y-88935000D01*
D41*
%TO.N,CAS*%
X113990000Y-90840000D02*
X114795000Y-90035000D01*
X114795000Y-90035000D02*
X114795000Y-88935000D01*
D42*
%TO.N,3V3*%
X104920000Y-92488000D02*
X104200000Y-92488000D01*
X104200000Y-92488000D02*
X103632000Y-93056000D01*
X112395000Y-93056000D02*
X112065000Y-93056000D01*
X112065000Y-93056000D02*
X111497000Y-92488000D01*
%TO.N,PB15*%
X59210000Y-66650000D02*
X59017000Y-66457000D01*
X59017000Y-66457000D02*
X56963000Y-66457000D01*
D43*
%TO.N,PB26*%
X78013000Y-53407000D02*
X78013000Y-51354086D01*
X77433000Y-45363000D02*
X77433000Y-41234932D01*
X78611000Y-50756086D02*
X78611000Y-46541000D01*
X78012000Y-40655932D02*
X78012000Y-32072000D01*
X78611000Y-46541000D02*
X77433000Y-45363000D01*
X78013000Y-51354086D02*
X78611000Y-50756086D01*
X77433000Y-41234932D02*
X78012000Y-40655932D01*
X78012000Y-32072000D02*
X76910000Y-30970000D01*
D42*
%TO.N,GND*%
X76790000Y-46690000D02*
X76340000Y-46240000D01*
X76790000Y-47620000D02*
X76790000Y-46690000D01*
X62500000Y-57300000D02*
X61513000Y-56313000D01*
X61513000Y-56313000D02*
X61513000Y-53407000D01*
%TO.N,3V3*%
X87563000Y-76957000D02*
X84257000Y-76957000D01*
X84257000Y-76957000D02*
X81500000Y-74200000D01*
X81500000Y-74200000D02*
X78618950Y-74200000D01*
X78618950Y-74200000D02*
X78028475Y-73609525D01*
%TO.N,SPI0_NPCS1*%
X49438224Y-66200000D02*
X35938224Y-52700000D01*
X55600000Y-66755000D02*
X55045000Y-66200000D01*
X55045000Y-66200000D02*
X49438224Y-66200000D01*
X35938224Y-52700000D02*
X33612500Y-52700000D01*
D43*
%TO.N,PA0*%
X41202932Y-46245000D02*
X39200000Y-46245000D01*
X41298966Y-46341034D02*
X41202932Y-46245000D01*
D44*
%TO.N,3V3*%
X30196000Y-52800000D02*
X30196000Y-49400000D01*
X30196000Y-49400000D02*
X30196000Y-48200000D01*
D42*
X32387500Y-54800000D02*
X32387500Y-53300000D01*
X32387500Y-53300000D02*
X31787500Y-52700000D01*
%TO.N,NRST*%
X34212500Y-54800000D02*
X35700000Y-54800000D01*
X35700000Y-54800000D02*
X40500000Y-59600000D01*
X40500000Y-59600000D02*
X32550000Y-59600000D01*
X32000000Y-48785000D02*
X32000000Y-48800000D01*
D44*
%TO.N,3V3*%
X30196000Y-54400000D02*
X30196000Y-52800000D01*
X31787500Y-52700000D02*
X30296000Y-52700000D01*
X30296000Y-52700000D02*
X30196000Y-52800000D01*
X30196000Y-55000000D02*
X30196000Y-54400000D01*
D42*
%TO.N,Net-(J1-Pin_5)*%
X53400000Y-69900000D02*
X53970000Y-70470000D01*
X53970000Y-70470000D02*
X56950000Y-70470000D01*
X56950000Y-70470000D02*
X56963000Y-70457000D01*
%TO.N,Net-(JP1-B)*%
X52655627Y-72805000D02*
X52807627Y-72957000D01*
X52807627Y-72957000D02*
X56963000Y-72957000D01*
%TO.N,Net-(J1-Pin_7)*%
X53419572Y-70957000D02*
X56963000Y-70957000D01*
X51600000Y-70100000D02*
X52562572Y-70100000D01*
X52562572Y-70100000D02*
X53419572Y-70957000D01*
%TO.N,Net-(J1-Pin_13)*%
X46700000Y-110104000D02*
X33717000Y-110104000D01*
D44*
%TO.N,1V8*%
X55905000Y-104305000D02*
X55800000Y-104200000D01*
X55905000Y-111760000D02*
X55905000Y-104305000D01*
D43*
X54500000Y-78957000D02*
X53793000Y-78957000D01*
X56963000Y-78957000D02*
X54500000Y-78957000D01*
X54500000Y-74457000D02*
X52486000Y-74457000D01*
X56963000Y-74457000D02*
X54500000Y-74457000D01*
D42*
X86257000Y-59957000D02*
X85500000Y-59200000D01*
X87563000Y-59957000D02*
X86257000Y-59957000D01*
D41*
%TO.N,NBS3*%
X109500000Y-55400000D02*
X113932000Y-50968000D01*
X113932000Y-50968000D02*
X113932000Y-50165000D01*
D44*
%TO.N,3V3*%
X127400000Y-60200000D02*
X128109000Y-59491000D01*
X128109000Y-59491000D02*
X128109000Y-51909000D01*
X128109000Y-51909000D02*
X122450000Y-46250000D01*
D42*
X122732000Y-60232000D02*
X122700000Y-60200000D01*
X122732000Y-61665000D02*
X122732000Y-60232000D01*
D40*
%TO.N,A11*%
X123900000Y-91185000D02*
X123900000Y-90715127D01*
X123900000Y-90715127D02*
X123742000Y-90557127D01*
X123900000Y-89878873D02*
X123900000Y-84181396D01*
X123900000Y-84181396D02*
X117995000Y-78276396D01*
X123742000Y-90557127D02*
X123742000Y-90036873D01*
X123645000Y-91440000D02*
X123900000Y-91185000D01*
X123742000Y-90036873D02*
X123900000Y-89878873D01*
X117995000Y-78276396D02*
X117995000Y-77435000D01*
D43*
%TO.N,GND*%
X32550000Y-64100000D02*
X38800000Y-64100000D01*
X40500000Y-64100000D02*
X38800000Y-64100000D01*
D42*
%TO.N,VBUS*%
X100900000Y-114400000D02*
X100900000Y-113450000D01*
X100900000Y-113450000D02*
X101100000Y-113250000D01*
X80700000Y-114400000D02*
X79379500Y-114400000D01*
X88000000Y-116300000D02*
X88300000Y-116300000D01*
X86100000Y-114400000D02*
X88000000Y-116300000D01*
D43*
%TO.N,GND*%
X101100000Y-111350000D02*
X101100000Y-109800000D01*
D42*
%TO.N,VBUS*%
X79279500Y-115900000D02*
X79279500Y-118840500D01*
X79279500Y-111854500D02*
X79279500Y-115900000D01*
D43*
%TO.N,GND*%
X86200000Y-112800000D02*
X84700000Y-112800000D01*
%TO.N,Net-(J4-D-)*%
X88100000Y-112800000D02*
X90300000Y-112800000D01*
X90300000Y-112800000D02*
X90600000Y-113100000D01*
%TO.N,Net-(J4-D+)*%
X96250000Y-113200000D02*
X93287500Y-113200000D01*
X93287500Y-113200000D02*
X93200000Y-113112500D01*
%TO.N,GND*%
X98150000Y-113200000D02*
X98150000Y-115450000D01*
X98150000Y-115450000D02*
X97300000Y-116300000D01*
%TO.N,Net-(J4-D-)*%
X90600000Y-113100000D02*
X90600000Y-116100000D01*
X90600000Y-116100000D02*
X90800000Y-116300000D01*
%TO.N,Net-(J4-D+)*%
X93200000Y-113112500D02*
X93200000Y-115900000D01*
X93200000Y-115900000D02*
X92800000Y-116300000D01*
%TO.N,SPI0_NPCS1*%
X61513000Y-82815000D02*
X61513000Y-84007000D01*
X61000000Y-82302000D02*
X61513000Y-82815000D01*
D44*
%TO.N,GND*%
X95300000Y-116300000D02*
X97300000Y-116300000D01*
%TO.N,3V3*%
X122450000Y-46250000D02*
X108860000Y-32660000D01*
D42*
X110808000Y-46385000D02*
X122315000Y-46385000D01*
X122315000Y-46385000D02*
X122450000Y-46250000D01*
D44*
X30196000Y-91696000D02*
X30196000Y-67500000D01*
X30196000Y-67500000D02*
X30196000Y-55000000D01*
D43*
X36615500Y-67500000D02*
X30196000Y-67500000D01*
D44*
X53700000Y-98100000D02*
X50500000Y-94900000D01*
X50500000Y-94900000D02*
X33400000Y-94900000D01*
X33400000Y-94900000D02*
X30196000Y-91696000D01*
X30196000Y-34504000D02*
X31190000Y-33510000D01*
X53700000Y-120057000D02*
X53700000Y-98100000D01*
X53700000Y-98100000D02*
X53700000Y-97000000D01*
D42*
%TO.N,GND*%
X32300000Y-69800000D02*
X32300000Y-71120000D01*
X32300000Y-71120000D02*
X32380000Y-71200000D01*
X32500000Y-89200000D02*
X32500000Y-87670000D01*
X32500000Y-87670000D02*
X32440000Y-87610000D01*
D44*
%TO.N,3V3*%
X108860000Y-32660000D02*
X93000000Y-32660000D01*
X93000000Y-32660000D02*
X92150000Y-33510000D01*
D43*
%TO.N,1V8*%
X53793000Y-78957000D02*
X52650000Y-80100000D01*
D42*
%TO.N,GND*%
X49300000Y-80100000D02*
X50750000Y-80100000D01*
D44*
%TO.N,3V3*%
X55930000Y-122287000D02*
X54221500Y-120578500D01*
X54221500Y-120578500D02*
X53700000Y-120057000D01*
D42*
X48387000Y-125491000D02*
X49309000Y-125491000D01*
X49309000Y-125491000D02*
X54221500Y-120578500D01*
X56124000Y-82296000D02*
X56124000Y-82324000D01*
D43*
%TO.N,GND*%
X76556750Y-104156750D02*
X76600000Y-104200000D01*
X75387750Y-104156750D02*
X76556750Y-104156750D01*
X76566750Y-107966750D02*
X76600000Y-108000000D01*
X75126750Y-107966750D02*
X76566750Y-107966750D01*
X69500000Y-113925000D02*
X69500000Y-115100000D01*
X69500000Y-115100000D02*
X69600000Y-115200000D01*
X69850000Y-116459000D02*
X69850000Y-115450000D01*
X69850000Y-115450000D02*
X69600000Y-115200000D01*
X67818000Y-116459000D02*
X66802000Y-116459000D01*
X66802000Y-116459000D02*
X66294000Y-115951000D01*
X65278000Y-117160000D02*
X65278000Y-116967000D01*
X65278000Y-116967000D02*
X66294000Y-115951000D01*
D42*
X66294000Y-115951000D02*
X66294000Y-116144000D01*
D43*
X68598250Y-108601750D02*
X68100000Y-109100000D01*
X69926750Y-108601750D02*
X68598250Y-108601750D01*
X66040000Y-112460000D02*
X66000000Y-112500000D01*
X66040000Y-111186000D02*
X66040000Y-112460000D01*
D44*
X62205000Y-114060000D02*
X62205000Y-115418000D01*
X62205000Y-115418000D02*
X62738000Y-115951000D01*
X64300000Y-124200000D02*
X64300000Y-123147000D01*
X64300000Y-123147000D02*
X64770000Y-122677000D01*
X64300000Y-124200000D02*
X62617000Y-124200000D01*
X62617000Y-124200000D02*
X62230000Y-124587000D01*
D42*
X78229500Y-115129500D02*
X78200000Y-115100000D01*
X78229500Y-116459000D02*
X78229500Y-115129500D01*
X75946000Y-115146000D02*
X75900000Y-115100000D01*
X75946000Y-116459000D02*
X75946000Y-115146000D01*
D43*
X69500000Y-113925000D02*
X69825000Y-113925000D01*
%TO.N,Net-(U4-~{CTS})*%
X69500000Y-112100000D02*
X68500000Y-111100000D01*
X68500000Y-111100000D02*
X68500000Y-109863500D01*
X68500000Y-109863500D02*
X69126750Y-109236750D01*
X69126750Y-109236750D02*
X69926750Y-109236750D01*
%TO.N,GND*%
X108395000Y-74005000D02*
X108400000Y-74000000D01*
X108395000Y-77435000D02*
X108395000Y-74005000D01*
D42*
%TO.N,3V3*%
X110871000Y-73940000D02*
X109831000Y-72900000D01*
X109831000Y-72900000D02*
X107085000Y-72900000D01*
X107085000Y-72900000D02*
X106045000Y-73940000D01*
D43*
%TO.N,GND*%
X101995000Y-74895000D02*
X101200000Y-74100000D01*
X101995000Y-77435000D02*
X101995000Y-74895000D01*
X104660000Y-72040000D02*
X104600000Y-72100000D01*
X106045000Y-72040000D02*
X104660000Y-72040000D01*
X110871000Y-72040000D02*
X110871000Y-70871000D01*
X110871000Y-70871000D02*
X110800000Y-70800000D01*
D42*
%TO.N,3V3*%
X110871000Y-73940000D02*
X111898000Y-72913000D01*
X111898000Y-69490778D02*
X111300000Y-68892778D01*
X111898000Y-72913000D02*
X111898000Y-69490778D01*
X111300000Y-66843000D02*
X112357000Y-65786000D01*
X111300000Y-68892778D02*
X111300000Y-66843000D01*
%TO.N,GND*%
X112357000Y-68957000D02*
X112400000Y-69000000D01*
X112357000Y-67686000D02*
X112357000Y-68957000D01*
D43*
X108300000Y-69000000D02*
X108300000Y-67693000D01*
X108300000Y-67693000D02*
X108293000Y-67686000D01*
D42*
%TO.N,3V3*%
X103594000Y-65781000D02*
X108288000Y-65781000D01*
X108288000Y-65781000D02*
X108293000Y-65786000D01*
%TO.N,GND*%
X97800000Y-63900000D02*
X96803000Y-64897000D01*
X96803000Y-64897000D02*
X96139000Y-64897000D01*
D41*
%TO.N,A12*%
X75513000Y-84007000D02*
X75513000Y-94817000D01*
X75513000Y-94817000D02*
X76581000Y-95885000D01*
D42*
%TO.N,GND*%
X71500000Y-91100000D02*
X71501000Y-91099000D01*
X71501000Y-91099000D02*
X71501000Y-89784000D01*
D43*
X103595000Y-74105000D02*
X103600000Y-74100000D01*
X103595000Y-77435000D02*
X103595000Y-74105000D01*
D42*
X105932000Y-63168000D02*
X105900000Y-63200000D01*
X105932000Y-61665000D02*
X105932000Y-63168000D01*
X121344000Y-94956000D02*
X121300000Y-95000000D01*
X122809000Y-94956000D02*
X121344000Y-94956000D01*
X110900000Y-94956000D02*
X108331000Y-94956000D01*
X112395000Y-94956000D02*
X110900000Y-94956000D01*
X106944000Y-94956000D02*
X106900000Y-95000000D01*
X108331000Y-94956000D02*
X106944000Y-94956000D01*
X104856000Y-94956000D02*
X104900000Y-95000000D01*
X103632000Y-94956000D02*
X104856000Y-94956000D01*
D41*
%TO.N,NBS3*%
X84900000Y-78200000D02*
X83513000Y-79587000D01*
X83513000Y-79587000D02*
X83513000Y-84007000D01*
D42*
%TO.N,SDCK*%
X114681000Y-55499000D02*
X114732000Y-55448000D01*
X114732000Y-55448000D02*
X114732000Y-50165000D01*
%TO.N,GND*%
X59540000Y-47780000D02*
X59170000Y-47410000D01*
X60910000Y-47780000D02*
X59540000Y-47780000D01*
X109410000Y-34740000D02*
X109470000Y-34800000D01*
X107830000Y-34740000D02*
X109410000Y-34740000D01*
X95360000Y-34550000D02*
X95350000Y-34560000D01*
X96820000Y-34550000D02*
X95360000Y-34550000D01*
X90450000Y-55190000D02*
X91280000Y-54360000D01*
X89920000Y-55190000D02*
X90450000Y-55190000D01*
D43*
%TO.N,1V8*%
X62013000Y-53407000D02*
X62013000Y-55138000D01*
X76513000Y-55037000D02*
X76513000Y-53407000D01*
X62013000Y-55138000D02*
X62215000Y-55340000D01*
X76250000Y-55300000D02*
X76513000Y-55037000D01*
D44*
X55905000Y-111760000D02*
X62205000Y-111760000D01*
D42*
%TO.N,3V3*%
X101995000Y-90430000D02*
X101995000Y-92661000D01*
X101995000Y-88935000D02*
X101995000Y-90430000D01*
X103632000Y-90520000D02*
X103632000Y-88972000D01*
X103632000Y-93056000D02*
X103632000Y-90520000D01*
X103542000Y-90430000D02*
X103632000Y-90520000D01*
X101995000Y-90430000D02*
X103542000Y-90430000D01*
%TO.N,GND*%
X79883000Y-91443000D02*
X79900000Y-91460000D01*
X79883000Y-89977000D02*
X79883000Y-91443000D01*
X66944000Y-89784000D02*
X66960000Y-89800000D01*
X65532000Y-89784000D02*
X66944000Y-89784000D01*
%TO.N,Net-(U1-XOUT32)*%
X34280000Y-71200000D02*
X34280000Y-74178000D01*
X34280000Y-74178000D02*
X33274000Y-75184000D01*
D41*
%TO.N,Net-(U1-XIN32)*%
X33274000Y-83684000D02*
X33274000Y-86544000D01*
X33274000Y-86544000D02*
X34340000Y-87610000D01*
D42*
%TO.N,GND*%
X49800000Y-74440000D02*
X49030000Y-73670000D01*
X50530000Y-74440000D02*
X49800000Y-74440000D01*
X49691000Y-71501000D02*
X49070000Y-70880000D01*
X50551000Y-71501000D02*
X49691000Y-71501000D01*
%TO.N,3V3*%
X105982000Y-46512000D02*
X110681000Y-46512000D01*
X110681000Y-46512000D02*
X110808000Y-46385000D01*
X101932000Y-63130000D02*
X101932000Y-65289000D01*
X101932000Y-61665000D02*
X101932000Y-63130000D01*
X103532000Y-61914000D02*
X103532000Y-63210000D01*
X103532000Y-63210000D02*
X103532000Y-65719000D01*
X101932000Y-63130000D02*
X103452000Y-63130000D01*
X103452000Y-63130000D02*
X103532000Y-63210000D01*
X108332000Y-64300000D02*
X108332000Y-65747000D01*
X108332000Y-64300000D02*
X112282000Y-64300000D01*
X108332000Y-61665000D02*
X108332000Y-64300000D01*
X112332000Y-64250000D02*
X112332000Y-65761000D01*
X112282000Y-64300000D02*
X112332000Y-64250000D01*
X112332000Y-61665000D02*
X112332000Y-64250000D01*
%TO.N,GND*%
X110732000Y-63322000D02*
X110740000Y-63330000D01*
X110732000Y-61665000D02*
X110732000Y-63322000D01*
X124245000Y-77435000D02*
X124260000Y-77450000D01*
X122795000Y-77435000D02*
X124245000Y-77435000D01*
X122732000Y-48468000D02*
X122740000Y-48460000D01*
X122732000Y-50165000D02*
X122732000Y-48468000D01*
X112332000Y-48352000D02*
X112320000Y-48340000D01*
X112332000Y-50165000D02*
X112332000Y-48352000D01*
X108332000Y-44486000D02*
X108331000Y-44485000D01*
X108332000Y-48382000D02*
X108290000Y-48340000D01*
X108332000Y-50165000D02*
X108332000Y-48382000D01*
X103532000Y-48322000D02*
X103530000Y-48320000D01*
X103532000Y-50165000D02*
X103532000Y-48322000D01*
X101932000Y-48312000D02*
X101920000Y-48300000D01*
X101932000Y-50165000D02*
X101932000Y-48312000D01*
%TO.N,3V3*%
X85960000Y-44070000D02*
X85960000Y-39700000D01*
X85960000Y-39700000D02*
X92150000Y-33510000D01*
%TO.N,GND*%
X90550000Y-45470000D02*
X90560000Y-45460000D01*
X88334000Y-45470000D02*
X90550000Y-45470000D01*
X90620000Y-49280000D02*
X90620000Y-47880000D01*
%TO.N,Net-(C23-Pad2)*%
X88310500Y-49256500D02*
X88310500Y-47393500D01*
X88310500Y-47393500D02*
X88334000Y-47370000D01*
%TO.N,1V8*%
X88893000Y-54317000D02*
X89920000Y-53290000D01*
%TO.N,GND*%
X87563000Y-57457000D02*
X88378664Y-57457000D01*
X88378664Y-57457000D02*
X89920000Y-55915664D01*
X89920000Y-55915664D02*
X89920000Y-55190000D01*
X93470000Y-48430000D02*
X93440000Y-48400000D01*
X93470000Y-49910000D02*
X93470000Y-48430000D01*
X96266000Y-48486000D02*
X96230000Y-48450000D01*
X96266000Y-49784000D02*
X96266000Y-48486000D01*
X93470000Y-49910000D02*
X96140000Y-49910000D01*
X96140000Y-49910000D02*
X96266000Y-49784000D01*
D43*
%TO.N,Net-(U1-XOUT)*%
X92000000Y-55269999D02*
X92000000Y-46360000D01*
X92000000Y-46360000D02*
X97830000Y-40530000D01*
X88312999Y-58957000D02*
X92000000Y-55269999D01*
X87563000Y-58957000D02*
X88312999Y-58957000D01*
%TO.N,Net-(U1-XIN)*%
X87563000Y-59457000D02*
X88310802Y-59457000D01*
X92352000Y-55415802D02*
X92352000Y-51028000D01*
X88310802Y-59457000D02*
X92352000Y-55415802D01*
X92352000Y-51028000D02*
X92448000Y-50932000D01*
X92448000Y-50932000D02*
X97428000Y-50932000D01*
X97428000Y-50932000D02*
X106330000Y-42030000D01*
X106330000Y-42030000D02*
X106330000Y-40530000D01*
D42*
%TO.N,1V8*%
X93470000Y-51810000D02*
X93470000Y-54865664D01*
X93470000Y-54865664D02*
X88378664Y-59957000D01*
X88378664Y-59957000D02*
X87563000Y-59957000D01*
%TO.N,Net-(U1-XOUT)*%
X96820000Y-36450000D02*
X97830000Y-37460000D01*
X97830000Y-37460000D02*
X97830000Y-40530000D01*
%TO.N,Net-(U1-XIN)*%
X107830000Y-36640000D02*
X106330000Y-38140000D01*
X106330000Y-38140000D02*
X106330000Y-40530000D01*
%TO.N,GND*%
X107640000Y-34550000D02*
X107830000Y-34740000D01*
%TO.N,Net-(J1-Pin_9)*%
X59950000Y-72659000D02*
X59748000Y-72457000D01*
X59748000Y-72457000D02*
X56963000Y-72457000D01*
%TO.N,Net-(J1-Pin_11)*%
X59180000Y-73957000D02*
X56963000Y-73957000D01*
D43*
%TO.N,PA1*%
X35955000Y-46245000D02*
X37850000Y-44350000D01*
X32000000Y-46245000D02*
X35955000Y-46245000D01*
D42*
%TO.N,GND*%
X48953000Y-67437000D02*
X48920000Y-67470000D01*
X50678000Y-67437000D02*
X48953000Y-67437000D01*
X48606000Y-61976000D02*
X48550000Y-61920000D01*
X50612000Y-61976000D02*
X48606000Y-61976000D01*
D43*
%TO.N,1V8*%
X62013000Y-53407000D02*
X62013000Y-50783000D01*
X62013000Y-50783000D02*
X60910000Y-49680000D01*
D42*
%TO.N,3V3*%
X64013000Y-53407000D02*
X64013000Y-50293000D01*
X64013000Y-50293000D02*
X63390000Y-49670000D01*
D43*
%TO.N,PA13*%
X66513000Y-53407000D02*
X66513000Y-50823877D01*
X66513000Y-50823877D02*
X66230000Y-50540877D01*
X66230000Y-50540877D02*
X66230000Y-45690000D01*
X66230000Y-45690000D02*
X54050000Y-33510000D01*
%TO.N,PA11*%
X67513000Y-53407000D02*
X67513000Y-50828272D01*
X67513000Y-50828272D02*
X66934000Y-50249271D01*
X66934000Y-43854000D02*
X56590000Y-33510000D01*
X66934000Y-50249271D02*
X66934000Y-43854000D01*
%TO.N,PA9*%
X68513000Y-53407000D02*
X68513000Y-50832666D01*
X68513000Y-50832666D02*
X67638000Y-49957665D01*
X67638000Y-49957665D02*
X67638000Y-42018000D01*
X67638000Y-42018000D02*
X59130000Y-33510000D01*
D42*
%TO.N,3V3*%
X70013000Y-53407000D02*
X70013000Y-50393000D01*
X70013000Y-50393000D02*
X69085000Y-49465000D01*
D43*
%TO.N,PA7*%
X70513000Y-53407000D02*
X70513000Y-50160706D01*
X70513000Y-50160706D02*
X70230000Y-49877706D01*
X70230000Y-49877706D02*
X70230000Y-42070000D01*
X70230000Y-42070000D02*
X61670000Y-33510000D01*
%TO.N,PA5*%
X71513000Y-53407000D02*
X71513000Y-50165098D01*
X71513000Y-50165098D02*
X71060000Y-49712098D01*
X71060000Y-49712098D02*
X71060000Y-40360000D01*
X71060000Y-40360000D02*
X64210000Y-33510000D01*
%TO.N,PA4*%
X72013000Y-53407000D02*
X72013000Y-50167294D01*
X72013000Y-50167294D02*
X71460000Y-49614294D01*
X71460000Y-39778464D02*
X65340000Y-33658464D01*
X65340000Y-33658464D02*
X65340000Y-32100000D01*
X71460000Y-49614294D02*
X71460000Y-39778464D01*
X65340000Y-32100000D02*
X64210000Y-30970000D01*
%TO.N,PA3*%
X72513000Y-53407000D02*
X72513000Y-50169490D01*
X72513000Y-50169490D02*
X71970000Y-49626490D01*
X71970000Y-49626490D02*
X71970000Y-38730000D01*
X71970000Y-38730000D02*
X66750000Y-33510000D01*
%TO.N,PA2*%
X73013000Y-50171686D02*
X72400000Y-49558686D01*
X67852000Y-32072000D02*
X66750000Y-30970000D01*
X72400000Y-38178464D02*
X67852000Y-33630464D01*
X73013000Y-53407000D02*
X73013000Y-50171686D01*
X67852000Y-33630464D02*
X67852000Y-32072000D01*
X72400000Y-49558686D02*
X72400000Y-38178464D01*
%TO.N,PA1*%
X73513000Y-53407000D02*
X73513000Y-50173882D01*
X73513000Y-50173882D02*
X72956000Y-49616880D01*
X72956000Y-37176000D02*
X69290000Y-33510000D01*
X72956000Y-49616880D02*
X72956000Y-37176000D01*
%TO.N,PB31*%
X74513000Y-53407000D02*
X74513000Y-50178274D01*
X74513000Y-50178274D02*
X73660000Y-49325274D01*
X73660000Y-49325274D02*
X73660000Y-35340000D01*
X73660000Y-35340000D02*
X71830000Y-33510000D01*
%TO.N,1V8*%
X76513000Y-53407000D02*
X76513000Y-49797000D01*
X76513000Y-49797000D02*
X76790000Y-49520000D01*
D42*
%TO.N,GND*%
X77013000Y-53407000D02*
X77013000Y-51255572D01*
X77013000Y-51255572D02*
X77830000Y-50438572D01*
X77830000Y-48660000D02*
X76790000Y-47620000D01*
X77830000Y-50438572D02*
X77830000Y-48660000D01*
%TO.N,3V3*%
X79013000Y-53407000D02*
X79013000Y-45363000D01*
X79013000Y-45363000D02*
X78410000Y-44760000D01*
D43*
%TO.N,1V8*%
X77110000Y-50035918D02*
X77110000Y-49570000D01*
%TO.N,GND*%
X78410000Y-42860000D02*
X78410000Y-41240000D01*
X78410000Y-41240000D02*
X78380000Y-41210000D01*
%TO.N,PB25*%
X79513000Y-53407000D02*
X79513000Y-33573000D01*
X79513000Y-33573000D02*
X79450000Y-33510000D01*
%TO.N,PB24*%
X80013000Y-53407000D02*
X80013000Y-34505464D01*
X80013000Y-34505464D02*
X80552000Y-33966464D01*
X80552000Y-33966464D02*
X80552000Y-32072000D01*
X80552000Y-32072000D02*
X79450000Y-30970000D01*
%TO.N,PB23*%
X80513000Y-53407000D02*
X80513000Y-34987000D01*
X80513000Y-34987000D02*
X81990000Y-33510000D01*
%TO.N,PB22*%
X81013000Y-53407000D02*
X81013000Y-36045464D01*
X81013000Y-36045464D02*
X83092000Y-33966464D01*
X83092000Y-33966464D02*
X83092000Y-32072000D01*
X83092000Y-32072000D02*
X81990000Y-30970000D01*
%TO.N,PB21*%
X81513000Y-53407000D02*
X81513000Y-36527000D01*
X81513000Y-36527000D02*
X84530000Y-33510000D01*
%TO.N,PB20*%
X82013000Y-53407000D02*
X82013000Y-37585464D01*
X82013000Y-37585464D02*
X85632000Y-33966464D01*
X85632000Y-33966464D02*
X85632000Y-32072000D01*
X85632000Y-32072000D02*
X84530000Y-30970000D01*
%TO.N,PB11*%
X82513000Y-53407000D02*
X82513000Y-38067000D01*
X82513000Y-38067000D02*
X87070000Y-33510000D01*
%TO.N,PB10*%
X83013000Y-53407000D02*
X83013000Y-39127000D01*
X88172000Y-32072000D02*
X87070000Y-30970000D01*
X83013000Y-39127000D02*
X88172000Y-33968000D01*
X88172000Y-33968000D02*
X88172000Y-32072000D01*
%TO.N,PC1*%
X84013000Y-53407000D02*
X84013000Y-39107000D01*
X84013000Y-39107000D02*
X89610000Y-33510000D01*
%TO.N,PC0*%
X84513000Y-53407000D02*
X84513000Y-40165464D01*
X84513000Y-40165464D02*
X90712000Y-33966464D01*
X90712000Y-33966464D02*
X90712000Y-32072000D01*
X90712000Y-32072000D02*
X89610000Y-30970000D01*
D42*
%TO.N,3V3*%
X52496000Y-57957000D02*
X52451000Y-57912000D01*
X67474000Y-63918000D02*
X72263000Y-68707000D01*
X108395000Y-92992000D02*
X108331000Y-93056000D01*
X78013000Y-84007000D02*
X78013000Y-73625000D01*
X72263000Y-62093695D02*
X72263000Y-68707000D01*
X87563000Y-67957000D02*
X73013000Y-67957000D01*
X78013000Y-86207000D02*
X79883000Y-88077000D01*
X69085000Y-49465000D02*
X68994000Y-49556000D01*
D43*
X88882903Y-76957000D02*
X90416903Y-78491000D01*
D42*
X110795000Y-74016000D02*
X110871000Y-73940000D01*
X67046695Y-68707000D02*
X72263000Y-68707000D01*
X70013000Y-53407000D02*
X70013000Y-59843695D01*
X70013000Y-59843695D02*
X72263000Y-62093695D01*
X56963000Y-81457000D02*
X56124000Y-82296000D01*
D43*
X87563000Y-76957000D02*
X88882903Y-76957000D01*
D42*
X56963000Y-61957000D02*
X52531000Y-61957000D01*
X79013000Y-61957000D02*
X72263000Y-68707000D01*
X110732000Y-50165000D02*
X110732000Y-46461000D01*
X79013000Y-53407000D02*
X79013000Y-61957000D01*
X56963000Y-67457000D02*
X63383695Y-67457000D01*
X44704000Y-125650000D02*
X41275000Y-125650000D01*
X52598000Y-67457000D02*
X52578000Y-67437000D01*
X52531000Y-61957000D02*
X52512000Y-61976000D01*
X55930000Y-122287000D02*
X62230000Y-122287000D01*
X34023000Y-125650000D02*
X33717000Y-125344000D01*
X64633695Y-68707000D02*
X72263000Y-68707000D01*
X44863000Y-125491000D02*
X44704000Y-125650000D01*
X108395000Y-88935000D02*
X108395000Y-92992000D01*
X52495000Y-71457000D02*
X52451000Y-71501000D01*
X87598000Y-67922000D02*
X95014000Y-67922000D01*
X65513000Y-84007000D02*
X65513000Y-77714305D01*
X73013000Y-67957000D02*
X72263000Y-68707000D01*
X56963000Y-71457000D02*
X69425000Y-71457000D01*
X65188000Y-77389305D02*
X65188000Y-75782000D01*
X67474000Y-62638695D02*
X67474000Y-63918000D01*
X65188000Y-75782000D02*
X69469000Y-71501000D01*
X65532000Y-87884000D02*
X65513000Y-87865000D01*
X105932000Y-50165000D02*
X105932000Y-46562000D01*
X56963000Y-61957000D02*
X60296695Y-61957000D01*
X122732000Y-61665000D02*
X122732000Y-65698000D01*
X110732000Y-46461000D02*
X110808000Y-46385000D01*
X56963000Y-57957000D02*
X52496000Y-57957000D01*
X110795000Y-77435000D02*
X110795000Y-74016000D01*
X105932000Y-46562000D02*
X105982000Y-46512000D01*
X60296695Y-61957000D02*
X67046695Y-68707000D01*
X122795000Y-88935000D02*
X122795000Y-93042000D01*
D43*
X90416903Y-78491000D02*
X93599000Y-78491000D01*
D42*
X37973000Y-125650000D02*
X34023000Y-125650000D01*
X112395000Y-88935000D02*
X112395000Y-93056000D01*
X56963000Y-57957000D02*
X58328695Y-57957000D01*
X122644000Y-65786000D02*
X112357000Y-65786000D01*
X56963000Y-67457000D02*
X52598000Y-67457000D01*
X65513000Y-87865000D02*
X65513000Y-84007000D01*
X72263000Y-68707000D02*
X69469000Y-71501000D01*
X78013000Y-73625000D02*
X78028475Y-73609525D01*
X108332000Y-65747000D02*
X108293000Y-65786000D01*
X105995000Y-77435000D02*
X105995000Y-73990000D01*
X41275000Y-125650000D02*
X37973000Y-125650000D01*
X112332000Y-65761000D02*
X112357000Y-65786000D01*
X87563000Y-67957000D02*
X87598000Y-67922000D01*
X69425000Y-71457000D02*
X69469000Y-71501000D01*
X122795000Y-93042000D02*
X122809000Y-93056000D01*
X78013000Y-84007000D02*
X78013000Y-86207000D01*
X63383695Y-67457000D02*
X64633695Y-68707000D01*
X101440000Y-65781000D02*
X101435000Y-65786000D01*
X64013000Y-59177695D02*
X67474000Y-62638695D01*
X48641000Y-125745000D02*
X48387000Y-125491000D01*
X78028475Y-73609525D02*
X73125950Y-68707000D01*
X105995000Y-73990000D02*
X106045000Y-73940000D01*
X101995000Y-92661000D02*
X101600000Y-93056000D01*
X64289695Y-63918000D02*
X67474000Y-63918000D01*
X64013000Y-53407000D02*
X64013000Y-59177695D01*
X33717000Y-125344000D02*
X31177000Y-125344000D01*
X56963000Y-71457000D02*
X52495000Y-71457000D01*
X103532000Y-65719000D02*
X103594000Y-65781000D01*
X58328695Y-57957000D02*
X64289695Y-63918000D01*
X95014000Y-67922000D02*
X96139000Y-66797000D01*
X73125950Y-68707000D02*
X72263000Y-68707000D01*
X103632000Y-88972000D02*
X103595000Y-88935000D01*
X63265000Y-49655000D02*
X63260000Y-49650000D01*
X48387000Y-125491000D02*
X44863000Y-125491000D01*
X65513000Y-77714305D02*
X65188000Y-77389305D01*
X122732000Y-65698000D02*
X122644000Y-65786000D01*
X101932000Y-65289000D02*
X101435000Y-65786000D01*
D43*
%TO.N,1V8*%
X96254000Y-51696000D02*
X96266000Y-51684000D01*
X71513000Y-87872000D02*
X71501000Y-87884000D01*
X52486000Y-74457000D02*
X52451000Y-74422000D01*
X71513000Y-84007000D02*
X71513000Y-87872000D01*
X71464000Y-87847000D02*
X71501000Y-87884000D01*
D42*
X96266000Y-52889000D02*
X89182500Y-59972500D01*
D43*
X71513000Y-83451000D02*
X71501000Y-83439000D01*
D42*
X89182500Y-59972500D02*
X88698000Y-60457000D01*
X88698000Y-60457000D02*
X87563000Y-60457000D01*
X96266000Y-51684000D02*
X96266000Y-52889000D01*
D43*
X89167000Y-59957000D02*
X89182500Y-59972500D01*
X71513000Y-84007000D02*
X71513000Y-83451000D01*
D42*
X87563000Y-59957000D02*
X89167000Y-59957000D01*
D41*
%TO.N,Net-(U1-XOUT32)*%
X33020000Y-74930000D02*
X33274000Y-75184000D01*
%TO.N,Net-(U1-XIN32)*%
X33147000Y-83811000D02*
X33274000Y-83684000D01*
X38501000Y-78457000D02*
X33274000Y-83684000D01*
X56963000Y-78457000D02*
X38501000Y-78457000D01*
%TO.N,Net-(U4-3V3OUT)*%
X72339750Y-105807750D02*
X72339750Y-107204750D01*
X73487750Y-104156750D02*
X73487750Y-104659750D01*
X69926750Y-107331750D02*
X72212750Y-107331750D01*
X75126750Y-109871750D02*
X74946750Y-109871750D01*
X72339750Y-107204750D02*
X72212750Y-107331750D01*
X72627250Y-107552250D02*
X74311750Y-109236750D01*
X72212750Y-107331750D02*
X72406750Y-107331750D01*
X73487750Y-104659750D02*
X72339750Y-105807750D01*
X74946750Y-109871750D02*
X72627250Y-107552250D01*
X72406750Y-107331750D02*
X72627250Y-107552250D01*
X74311750Y-109236750D02*
X75126750Y-109236750D01*
D42*
%TO.N,GND*%
X63194000Y-71957000D02*
X56963000Y-71957000D01*
X78229500Y-116459000D02*
X75946000Y-116459000D01*
X76098000Y-121705000D02*
X76643000Y-121705000D01*
X50678000Y-62042000D02*
X50612000Y-61976000D01*
X108293000Y-67686000D02*
X105918000Y-67686000D01*
X110808000Y-44485000D02*
X108331000Y-44485000D01*
X69080000Y-47570000D02*
X69085000Y-47565000D01*
X63881000Y-75057000D02*
X60211190Y-75057000D01*
X101435000Y-67686000D02*
X103589000Y-67686000D01*
X68578000Y-122280000D02*
X68578000Y-126460000D01*
X64008000Y-72771000D02*
X63194000Y-71957000D01*
X63881000Y-75057000D02*
X63781000Y-74957000D01*
X57811190Y-77457000D02*
X56963000Y-77457000D01*
X106109000Y-44485000D02*
X105982000Y-44612000D01*
X105918000Y-67686000D02*
X103599000Y-67686000D01*
X108331000Y-44485000D02*
X106109000Y-44485000D01*
X50673000Y-74544000D02*
X50551000Y-74422000D01*
X63255000Y-47745000D02*
X63260000Y-47750000D01*
X87563000Y-67457000D02*
X93579000Y-67457000D01*
X112357000Y-67686000D02*
X122644000Y-67686000D01*
X105995000Y-88935000D02*
X105995000Y-92620000D01*
X99528000Y-94956000D02*
X99441000Y-94869000D01*
X78229500Y-116459000D02*
X78742500Y-116459000D01*
X93579000Y-67457000D02*
X96139000Y-64897000D01*
X63260000Y-46734000D02*
X63006000Y-46480000D01*
X63781000Y-74957000D02*
X56963000Y-74957000D01*
X110795000Y-93356000D02*
X112395000Y-94956000D01*
X103599000Y-67686000D02*
X103594000Y-67681000D01*
X101600000Y-94956000D02*
X99528000Y-94956000D01*
X50612000Y-57973000D02*
X50551000Y-57912000D01*
X63260000Y-47750000D02*
X63260000Y-46734000D01*
X69085000Y-47565000D02*
X69085000Y-46041000D01*
X110795000Y-88935000D02*
X110795000Y-93356000D01*
X69698000Y-121705000D02*
X69153000Y-121705000D01*
X105932000Y-67672000D02*
X105918000Y-67686000D01*
X69153000Y-121705000D02*
X68578000Y-122280000D01*
X77218000Y-122280000D02*
X77218000Y-126460000D01*
X50551000Y-67564000D02*
X50678000Y-67437000D01*
X103632000Y-94956000D02*
X101600000Y-94956000D01*
X103589000Y-67686000D02*
X103594000Y-67681000D01*
X60211190Y-75057000D02*
X57811190Y-77457000D01*
X76643000Y-121705000D02*
X77218000Y-122280000D01*
X105995000Y-92620000D02*
X108331000Y-94956000D01*
D41*
%TO.N,Net-(C19-Pad2)*%
X72390000Y-118919000D02*
X71882000Y-118411000D01*
X73648000Y-121705000D02*
X73648000Y-121130100D01*
X72648000Y-121705000D02*
X72648000Y-121063000D01*
X72390000Y-120805000D02*
X72390000Y-120015000D01*
X72648000Y-121063000D02*
X72390000Y-120805000D01*
X72390000Y-120015000D02*
X72390000Y-118919000D01*
X69850000Y-118359000D02*
X71830000Y-118359000D01*
X72136000Y-120015000D02*
X72390000Y-120015000D01*
X71830000Y-118359000D02*
X71882000Y-118411000D01*
X73648000Y-121130100D02*
X74168000Y-120610100D01*
X74168000Y-120610100D02*
X74168000Y-120015000D01*
%TO.N,Net-(C20-Pad2)*%
X73360000Y-118965000D02*
X73914000Y-118411000D01*
X73148000Y-122382000D02*
X73148000Y-121705000D01*
X72148000Y-121705000D02*
X72148000Y-122328000D01*
X75946000Y-118359000D02*
X73966000Y-118359000D01*
X73148000Y-121705000D02*
X73148000Y-120942000D01*
X73148000Y-120942000D02*
X73360000Y-120730000D01*
X72148000Y-122328000D02*
X72430000Y-122610000D01*
X73360000Y-120730000D02*
X73360000Y-118965000D01*
X72430000Y-122610000D02*
X72920000Y-122610000D01*
X72920000Y-122610000D02*
X73148000Y-122382000D01*
X73966000Y-118359000D02*
X73914000Y-118411000D01*
D42*
%TO.N,Net-(J1-Pin_3)*%
X46736000Y-120904000D02*
X48387000Y-120904000D01*
%TO.N,Net-(J1-Pin_5)*%
X37278000Y-123825000D02*
X33717000Y-120264000D01*
X37973000Y-123825000D02*
X37278000Y-123825000D01*
%TO.N,Net-(J1-Pin_7)*%
X39818000Y-123825000D02*
X33717000Y-117724000D01*
X41275000Y-123825000D02*
X39818000Y-123825000D01*
%TO.N,Net-(J1-Pin_9)*%
X36063000Y-115184000D02*
X33717000Y-115184000D01*
X44704000Y-123825000D02*
X36063000Y-115184000D01*
%TO.N,Net-(J1-Pin_11)*%
X49906000Y-112644000D02*
X33717000Y-112644000D01*
X48387000Y-124191000D02*
X36840000Y-112644000D01*
X49911000Y-112649000D02*
X49906000Y-112644000D01*
X36840000Y-112644000D02*
X33717000Y-112644000D01*
D41*
%TO.N,Net-(JP4-A)*%
X47442000Y-74440000D02*
X47442000Y-72050500D01*
X47442000Y-72050500D02*
X47592500Y-71900000D01*
X47677000Y-74205000D02*
X47442000Y-74440000D01*
%TO.N,Net-(U4-USBDM)*%
X73914000Y-116586000D02*
X73914000Y-111719500D01*
X73914000Y-111719500D02*
X75126750Y-110506750D01*
%TO.N,Net-(U4-USBDP)*%
X71882000Y-116586000D02*
X71882000Y-112462000D01*
X71882000Y-112462000D02*
X69926750Y-110506750D01*
%TO.N,Net-(J2-CC1)*%
X69977000Y-119380000D02*
X68914000Y-119380000D01*
X71648000Y-121705000D02*
X71648000Y-121051000D01*
X71648000Y-121051000D02*
X69977000Y-119380000D01*
X68914000Y-119380000D02*
X67818000Y-118284000D01*
%TO.N,Net-(J2-CC2)*%
X74648000Y-121705000D02*
X74648000Y-121130001D01*
X76271001Y-119507000D02*
X77006500Y-119507000D01*
X77006500Y-119507000D02*
X78229500Y-118284000D01*
X74648000Y-121130001D02*
X76271001Y-119507000D01*
D42*
%TO.N,PB14*%
X68326000Y-106045000D02*
X68342750Y-106061750D01*
X59740000Y-65820000D02*
X58572991Y-65820000D01*
X68342750Y-106061750D02*
X69926750Y-106061750D01*
X58572991Y-65820000D02*
X58435991Y-65957000D01*
X58435991Y-65957000D02*
X56963000Y-65957000D01*
X59760000Y-65840000D02*
X59740000Y-65820000D01*
%TO.N,PB15*%
X67834750Y-107966750D02*
X69926750Y-107966750D01*
X67437000Y-107569000D02*
X67834750Y-107966750D01*
D40*
%TO.N,D1*%
X104395000Y-88935000D02*
X104395000Y-88257000D01*
X104395000Y-88257000D02*
X103318000Y-87180000D01*
X95308000Y-87180000D02*
X88585000Y-80457000D01*
X88585000Y-80457000D02*
X87563000Y-80457000D01*
X103318000Y-87180000D02*
X95308000Y-87180000D01*
%TO.N,D3*%
X104717000Y-85852000D02*
X95252792Y-85852000D01*
X88857792Y-79457000D02*
X87563000Y-79457000D01*
X106795000Y-88935000D02*
X106795000Y-87930000D01*
X106795000Y-87930000D02*
X104717000Y-85852000D01*
X95252792Y-85852000D02*
X88857792Y-79457000D01*
%TO.N,D4*%
X104882000Y-85217000D02*
X95254188Y-85217000D01*
X107595000Y-88935000D02*
X107595000Y-87930000D01*
X95254188Y-85217000D02*
X88994188Y-78957000D01*
X88994188Y-78957000D02*
X87563000Y-78957000D01*
X107595000Y-87930000D02*
X104882000Y-85217000D01*
%TO.N,D7*%
X89818000Y-74957000D02*
X87563000Y-74957000D01*
X87563000Y-74957000D02*
X87578000Y-74942000D01*
X90043000Y-75182000D02*
X89818000Y-74957000D01*
X87578000Y-74942000D02*
X88011000Y-74942000D01*
X111506000Y-91059000D02*
X111506000Y-89024000D01*
X111506000Y-89024000D02*
X111595000Y-88935000D01*
%TO.N,A0*%
X114300000Y-93485196D02*
X113195000Y-92380196D01*
X113411000Y-97536000D02*
X95123000Y-97536000D01*
X114300000Y-94742000D02*
X114300000Y-93485196D01*
X113195000Y-92380196D02*
X113195000Y-88935000D01*
X82513000Y-84926000D02*
X82513000Y-84007000D01*
X95123000Y-97536000D02*
X82513000Y-84926000D01*
%TO.N,SDWE*%
X113932000Y-63614000D02*
X113919000Y-63627000D01*
X111760000Y-85344000D02*
X113995000Y-87579000D01*
X113995000Y-87579000D02*
X113995000Y-88935000D01*
X113932000Y-61665000D02*
X113932000Y-63614000D01*
D41*
%TO.N,CAS*%
X114732000Y-64821000D02*
X114808000Y-64897000D01*
X85598000Y-85344000D02*
X85013000Y-84759000D01*
X85013000Y-84759000D02*
X85013000Y-84007000D01*
X114732000Y-61665000D02*
X114732000Y-64821000D01*
D40*
%TO.N,RAS*%
X115532000Y-63858359D02*
X115561710Y-63888069D01*
X115595000Y-94590000D02*
X115595000Y-88935000D01*
X87563000Y-85531000D02*
X97813000Y-95781000D01*
X87563000Y-81457000D02*
X87563000Y-85531000D01*
X115532000Y-61665000D02*
X115532000Y-63858359D01*
X114404000Y-95781000D02*
X115595000Y-94590000D01*
X97813000Y-95781000D02*
X114404000Y-95781000D01*
%TO.N,SDCS*%
X116332000Y-94488000D02*
X114638000Y-96182000D01*
X84513000Y-85275000D02*
X84513000Y-84007000D01*
X116332000Y-61665000D02*
X116332000Y-63229857D01*
X114638000Y-96182000D02*
X95420000Y-96182000D01*
X116332000Y-63229857D02*
X116322633Y-63239224D01*
X95420000Y-96182000D02*
X84513000Y-85275000D01*
X116395000Y-88935000D02*
X116332000Y-88998000D01*
X116332000Y-88998000D02*
X116332000Y-94488000D01*
D41*
%TO.N,A16*%
X117083644Y-93157644D02*
X117195000Y-93046288D01*
X117195000Y-93046288D02*
X117195000Y-88935000D01*
X117132000Y-63824420D02*
X117132887Y-63825307D01*
X117132000Y-61665000D02*
X117132000Y-63824420D01*
%TO.N,A17*%
X73013000Y-85410930D02*
X73013000Y-84007000D01*
X117932000Y-63174455D02*
X117910229Y-63196226D01*
X72808425Y-85615505D02*
X73013000Y-85410930D01*
X117995000Y-88935000D02*
X117995000Y-92317000D01*
X117995000Y-92317000D02*
X117983000Y-92329000D01*
X117932000Y-61665000D02*
X117932000Y-63174455D01*
D40*
%TO.N,SDA10*%
X83327968Y-85033000D02*
X83013000Y-84718032D01*
X118795000Y-88935000D02*
X118795000Y-92660000D01*
X83382000Y-85033000D02*
X83327968Y-85033000D01*
X118795000Y-92660000D02*
X114808000Y-96647000D01*
X83013000Y-84718032D02*
X83013000Y-84007000D01*
X114808000Y-96647000D02*
X94996000Y-96647000D01*
X94996000Y-96647000D02*
X83382000Y-85033000D01*
X118732000Y-61665000D02*
X118732000Y-63757158D01*
X118732000Y-63757158D02*
X118735626Y-63760784D01*
%TO.N,A2*%
X96266000Y-99314000D02*
X81985000Y-85033000D01*
X81985000Y-85033000D02*
X81827968Y-85033000D01*
X119595000Y-88935000D02*
X119595000Y-92495000D01*
X119532000Y-61665000D02*
X119532000Y-63160758D01*
X81513000Y-84718032D02*
X81513000Y-84007000D01*
X119595000Y-92495000D02*
X112776000Y-99314000D01*
X81827968Y-85033000D02*
X81513000Y-84718032D01*
X119532000Y-63160758D02*
X119545717Y-63174475D01*
X112776000Y-99314000D02*
X96266000Y-99314000D01*
%TO.N,A3*%
X112649000Y-100203000D02*
X96332486Y-100203000D01*
X96332486Y-100203000D02*
X81013000Y-84883514D01*
X120332000Y-61665000D02*
X120332000Y-63794696D01*
X120395000Y-92457000D02*
X112649000Y-100203000D01*
X81013000Y-84883514D02*
X81013000Y-84007000D01*
X120395000Y-88935000D02*
X120395000Y-92457000D01*
X120332000Y-63794696D02*
X120322718Y-63803978D01*
%TO.N,A4*%
X121132000Y-63223662D02*
X121148882Y-63240544D01*
X121195000Y-92292000D02*
X112543000Y-100944000D01*
X96463102Y-100944000D02*
X80513000Y-84993898D01*
X121132000Y-61665000D02*
X121132000Y-63223662D01*
X80513000Y-84993898D02*
X80513000Y-84007000D01*
X112543000Y-100944000D02*
X96463102Y-100944000D01*
X121195000Y-88935000D02*
X121195000Y-92292000D01*
%TO.N,A5*%
X121932000Y-63679000D02*
X122007000Y-63754000D01*
X121995000Y-88935000D02*
X121995000Y-92394196D01*
X80013000Y-85347000D02*
X80013000Y-84007000D01*
X121995000Y-92394196D02*
X112916196Y-101473000D01*
X96139000Y-101473000D02*
X80013000Y-85347000D01*
X112916196Y-101473000D02*
X96139000Y-101473000D01*
X121932000Y-61665000D02*
X121932000Y-63679000D01*
%TO.N,A6*%
X126559000Y-71964000D02*
X126559000Y-55528000D01*
X121995000Y-77435000D02*
X121995000Y-76528000D01*
X121995000Y-76528000D02*
X126559000Y-71964000D01*
X126559000Y-55528000D02*
X121932000Y-50901000D01*
X121932000Y-50901000D02*
X121932000Y-50165000D01*
%TO.N,A7*%
X121195000Y-77435000D02*
X121195000Y-76528000D01*
X121132000Y-51072000D02*
X121132000Y-50165000D01*
X121195000Y-76528000D02*
X126207000Y-71516000D01*
X126207000Y-71516000D02*
X126207000Y-56147000D01*
X126207000Y-56147000D02*
X121132000Y-51072000D01*
%TO.N,A8*%
X125855000Y-56424000D02*
X120332000Y-50901000D01*
X120332000Y-50901000D02*
X120332000Y-50165000D01*
X125855000Y-71068000D02*
X125855000Y-56424000D01*
X125823495Y-92549495D02*
X125823495Y-83868495D01*
X120395000Y-77435000D02*
X120395000Y-76528000D01*
X120395000Y-78440000D02*
X120395000Y-77435000D01*
X125823495Y-83868495D02*
X120395000Y-78440000D01*
X120395000Y-76528000D02*
X125855000Y-71068000D01*
%TO.N,A9*%
X119532000Y-50825000D02*
X119532000Y-50165000D01*
X125095000Y-91440000D02*
X125095000Y-83940000D01*
X119595000Y-77435000D02*
X119595000Y-76528000D01*
X125503000Y-56796000D02*
X119532000Y-50825000D01*
X119595000Y-76528000D02*
X125503000Y-70620000D01*
X119595000Y-78440000D02*
X119595000Y-77435000D01*
X125095000Y-83940000D02*
X119595000Y-78440000D01*
X125503000Y-70620000D02*
X125503000Y-56796000D01*
%TO.N,A10*%
X124370000Y-84015000D02*
X118795000Y-78440000D01*
X124370000Y-90297000D02*
X124370000Y-84015000D01*
X125151000Y-70172000D02*
X125151000Y-57320000D01*
X118732000Y-50901000D02*
X118732000Y-50165000D01*
X125151000Y-57320000D02*
X118732000Y-50901000D01*
X118795000Y-78440000D02*
X118795000Y-77435000D01*
X118795000Y-76528000D02*
X125151000Y-70172000D01*
X118795000Y-77435000D02*
X118795000Y-76528000D01*
%TO.N,A11*%
X117932000Y-51072000D02*
X117932000Y-50165000D01*
X117995000Y-76528000D02*
X124799000Y-69724000D01*
X117995000Y-77435000D02*
X117995000Y-76528000D01*
X124799000Y-69724000D02*
X124799000Y-57939000D01*
X124799000Y-57939000D02*
X117932000Y-51072000D01*
%TO.N,A13*%
X124447000Y-58153000D02*
X117132000Y-50838000D01*
X124447000Y-69276000D02*
X124447000Y-58153000D01*
X117132000Y-50838000D02*
X117132000Y-50165000D01*
X117195000Y-76528000D02*
X124447000Y-69276000D01*
X117195000Y-77435000D02*
X117195000Y-76528000D01*
%TO.N,A14*%
X116395000Y-76528000D02*
X124095000Y-68828000D01*
X116395000Y-77435000D02*
X116395000Y-76528000D01*
X124095000Y-58563000D02*
X116332000Y-50800000D01*
X116332000Y-50800000D02*
X116332000Y-50165000D01*
X124095000Y-68828000D02*
X124095000Y-58563000D01*
%TO.N,SDCKE*%
X123694000Y-68331000D02*
X123694000Y-59686000D01*
X115595000Y-77435000D02*
X115595000Y-76430000D01*
X115595000Y-76430000D02*
X123694000Y-68331000D01*
X115532000Y-51524000D02*
X115532000Y-50165000D01*
X123694000Y-59686000D02*
X115532000Y-51524000D01*
D42*
%TO.N,SDCK*%
X92895847Y-77232000D02*
X92625847Y-76962000D01*
X89019299Y-76457000D02*
X87563000Y-76457000D01*
X92625847Y-76962000D02*
X89524299Y-76962000D01*
X89524299Y-76962000D02*
X89019299Y-76457000D01*
D40*
%TO.N,NBS1*%
X84013000Y-81087000D02*
X84836000Y-80264000D01*
X84013000Y-84007000D02*
X84013000Y-81087000D01*
%TO.N,D8*%
X87563000Y-74457000D02*
X92745000Y-74457000D01*
X108101000Y-81763000D02*
X111595000Y-78269000D01*
X111595000Y-78269000D02*
X111595000Y-77435000D01*
X100051000Y-81763000D02*
X108101000Y-81763000D01*
X92745000Y-74457000D02*
X100051000Y-81763000D01*
%TO.N,D9*%
X107409000Y-81313000D02*
X109995000Y-78727000D01*
X87563000Y-73957000D02*
X93261000Y-73957000D01*
X100617000Y-81313000D02*
X107409000Y-81313000D01*
X93261000Y-73957000D02*
X100617000Y-81313000D01*
X109995000Y-78727000D02*
X109995000Y-77435000D01*
%TO.N,D10*%
X87563000Y-73457000D02*
X93777000Y-73457000D01*
X101183000Y-80863000D02*
X106970000Y-80863000D01*
X109195000Y-78638000D02*
X109195000Y-77435000D01*
X93777000Y-73457000D02*
X101183000Y-80863000D01*
X106970000Y-80863000D02*
X109195000Y-78638000D01*
%TO.N,D17*%
X104077000Y-60135000D02*
X104332000Y-60390000D01*
X87563000Y-69457000D02*
X90680299Y-69457000D01*
X99935000Y-61391604D02*
X101191604Y-60135000D01*
X90680299Y-69457000D02*
X90890299Y-69247000D01*
X104332000Y-60390000D02*
X104332000Y-61665000D01*
X98393000Y-69247000D02*
X99935000Y-67705000D01*
X101191604Y-60135000D02*
X104077000Y-60135000D01*
X99935000Y-67705000D02*
X99935000Y-61391604D01*
X90890299Y-69247000D02*
X98393000Y-69247000D01*
%TO.N,D18*%
X87563000Y-68957000D02*
X90543903Y-68957000D01*
X99485000Y-67393000D02*
X99485000Y-61205208D01*
X105132000Y-60553604D02*
X105132000Y-61665000D01*
X90703903Y-68797000D02*
X98081000Y-68797000D01*
X101005208Y-59685000D02*
X104263396Y-59685000D01*
X90543903Y-68957000D02*
X90703903Y-68797000D01*
X99485000Y-61205208D02*
X101005208Y-59685000D01*
X98081000Y-68797000D02*
X99485000Y-67393000D01*
X104263396Y-59685000D02*
X105132000Y-60553604D01*
%TO.N,D19*%
X90517507Y-68347000D02*
X97769000Y-68347000D01*
X105307000Y-59235000D02*
X106732000Y-60660000D01*
X90407507Y-68457000D02*
X90517507Y-68347000D01*
X100818812Y-59235000D02*
X105307000Y-59235000D01*
X99035000Y-61018812D02*
X100818812Y-59235000D01*
X99035000Y-67081000D02*
X99035000Y-61018812D01*
X87563000Y-68457000D02*
X90407507Y-68457000D01*
X106732000Y-60660000D02*
X106732000Y-61665000D01*
X97769000Y-68347000D02*
X99035000Y-67081000D01*
%TO.N,D20*%
X107532000Y-60823604D02*
X107532000Y-61665000D01*
X87563000Y-66957000D02*
X92047000Y-66957000D01*
X100219000Y-58785000D02*
X105493396Y-58785000D01*
X105493396Y-58785000D02*
X107532000Y-60823604D01*
X92047000Y-66957000D02*
X100219000Y-58785000D01*
%TO.N,D21*%
X87563000Y-66457000D02*
X91658000Y-66457000D01*
X106976000Y-58335000D02*
X109132000Y-60491000D01*
X99780000Y-58335000D02*
X106976000Y-58335000D01*
X91658000Y-66457000D02*
X99780000Y-58335000D01*
X109132000Y-60491000D02*
X109132000Y-61665000D01*
%TO.N,D22*%
X87563000Y-65957000D02*
X91269000Y-65957000D01*
X109932000Y-60654604D02*
X109932000Y-61665000D01*
X107162396Y-57885000D02*
X109932000Y-60654604D01*
X99341000Y-57885000D02*
X107162396Y-57885000D01*
X91269000Y-65957000D02*
X99341000Y-57885000D01*
%TO.N,D23*%
X107975000Y-57435000D02*
X111532000Y-60992000D01*
X98639624Y-57435000D02*
X107975000Y-57435000D01*
X111532000Y-60992000D02*
X111532000Y-61665000D01*
X87563000Y-65457000D02*
X90617624Y-65457000D01*
X90617624Y-65457000D02*
X98639624Y-57435000D01*
%TO.N,A1*%
X82550000Y-80645000D02*
X82013000Y-81182000D01*
X82013000Y-81182000D02*
X82013000Y-84007000D01*
%TO.N,D24*%
X99812228Y-55626000D02*
X108077000Y-55626000D01*
X111532000Y-52171000D02*
X111532000Y-50165000D01*
X87563000Y-64957000D02*
X90481228Y-64957000D01*
X108077000Y-55626000D02*
X111532000Y-52171000D01*
X90481228Y-64957000D02*
X99812228Y-55626000D01*
%TO.N,D25*%
X87563000Y-64457000D02*
X90344832Y-64457000D01*
X109932000Y-52882000D02*
X109932000Y-50165000D01*
X108204000Y-54610000D02*
X109932000Y-52882000D01*
X90344832Y-64457000D02*
X100191832Y-54610000D01*
X100191832Y-54610000D02*
X108204000Y-54610000D01*
%TO.N,D26*%
X90094000Y-63957000D02*
X100203000Y-53848000D01*
X100203000Y-53848000D02*
X108204000Y-53848000D01*
X109132000Y-52920000D02*
X109132000Y-50165000D01*
X87563000Y-63957000D02*
X90094000Y-63957000D01*
X108204000Y-53848000D02*
X109132000Y-52920000D01*
%TO.N,D28*%
X87563000Y-62957000D02*
X89821208Y-62957000D01*
X106732000Y-51129000D02*
X106732000Y-50165000D01*
X99888208Y-52890000D02*
X104971000Y-52890000D01*
X89821208Y-62957000D02*
X99888208Y-52890000D01*
X104971000Y-52890000D02*
X106732000Y-51129000D01*
%TO.N,D29*%
X87563000Y-62457000D02*
X89308000Y-62457000D01*
X105132000Y-51078000D02*
X105132000Y-50165000D01*
X89308000Y-62457000D02*
X99441000Y-52324000D01*
X103886000Y-52324000D02*
X105132000Y-51078000D01*
X99441000Y-52324000D02*
X103886000Y-52324000D01*
%TO.N,D30*%
X99187000Y-51816000D02*
X103757604Y-51816000D01*
X89046000Y-61957000D02*
X99187000Y-51816000D01*
X104332000Y-51241604D02*
X104332000Y-50165000D01*
X103757604Y-51816000D02*
X104332000Y-51241604D01*
X87563000Y-61957000D02*
X89046000Y-61957000D01*
%TO.N,D31*%
X102732000Y-50938000D02*
X102732000Y-50165000D01*
X88411190Y-61457000D02*
X98623190Y-51245000D01*
X98623190Y-51245000D02*
X102425000Y-51245000D01*
X102425000Y-51245000D02*
X102732000Y-50938000D01*
X87563000Y-61457000D02*
X88411190Y-61457000D01*
D42*
%TO.N,Net-(JP1-B)*%
X52480000Y-100490000D02*
X52480000Y-115511000D01*
X52480000Y-115511000D02*
X48387000Y-119604000D01*
X52449000Y-100459000D02*
X52480000Y-100490000D01*
%TO.N,VBUS*%
X70498000Y-121705000D02*
X70498000Y-121130001D01*
X62379000Y-109286000D02*
X62205000Y-109460000D01*
X63881000Y-110109000D02*
X63232000Y-109460000D01*
X64770000Y-120777000D02*
X64770000Y-119987000D01*
X75126750Y-108601750D02*
X76026750Y-108601750D01*
X70498000Y-121130001D02*
X69354999Y-119987000D01*
X71443305Y-123190000D02*
X74341120Y-123190000D01*
X79279500Y-118840500D02*
X77340000Y-120780000D01*
X65278000Y-119060000D02*
X65278000Y-119987000D01*
X64770000Y-119987000D02*
X62230000Y-119987000D01*
X70498000Y-121705000D02*
X70498000Y-122244695D01*
X75298000Y-121130001D02*
X75298000Y-121705000D01*
X66040000Y-109286000D02*
X62379000Y-109286000D01*
X75298000Y-122233120D02*
X75298000Y-121705000D01*
X75648001Y-120780000D02*
X75298000Y-121130001D01*
X65278000Y-119987000D02*
X64770000Y-119987000D01*
X70498000Y-122244695D02*
X71443305Y-123190000D01*
X63881000Y-118336000D02*
X63881000Y-110109000D01*
X63232000Y-109460000D02*
X62205000Y-109460000D01*
X77340000Y-120780000D02*
X75648001Y-120780000D01*
X76026750Y-108601750D02*
X79279500Y-111854500D01*
X69354999Y-119987000D02*
X65278000Y-119987000D01*
X62230000Y-119987000D02*
X63881000Y-118336000D01*
X74341120Y-123190000D02*
X75298000Y-122233120D01*
D41*
%TO.N,/SHDN*%
X46563000Y-86950500D02*
X43030500Y-86950500D01*
%TO.N,/WKUP*%
X46539500Y-82759500D02*
X42903500Y-82759500D01*
%TD*%
%TA.AperFunction,Conductor*%
%TO.N,3V3*%
G36*
X73302677Y-67075685D02*
G01*
X73323319Y-67092319D01*
X73750681Y-67519681D01*
X73784166Y-67581004D01*
X73787000Y-67607362D01*
X73787000Y-69679638D01*
X73767315Y-69746677D01*
X73750681Y-69767319D01*
X73323319Y-70194681D01*
X73261996Y-70228166D01*
X73235638Y-70231000D01*
X71290362Y-70231000D01*
X71223323Y-70211315D01*
X71202681Y-70194681D01*
X70775319Y-69767319D01*
X70741834Y-69705996D01*
X70739000Y-69679638D01*
X70739000Y-67607362D01*
X70758685Y-67540323D01*
X70775319Y-67519681D01*
X71202681Y-67092319D01*
X71264004Y-67058834D01*
X71290362Y-67056000D01*
X73235638Y-67056000D01*
X73302677Y-67075685D01*
G37*
%TD.AperFunction*%
%TD*%
M02*
