%TF.GenerationSoftware,KiCad,Pcbnew,7.0.10*%
%TF.CreationDate,2024-02-10T01:11:15-05:00*%
%TF.ProjectId,9260-first,39323630-2d66-4697-9273-742e6b696361,rev?*%
%TF.SameCoordinates,Original*%
%TF.FileFunction,Copper,L2,Bot*%
%TF.FilePolarity,Positive*%
%FSLAX46Y46*%
G04 Gerber Fmt 4.6, Leading zero omitted, Abs format (unit mm)*
G04 Created by KiCad (PCBNEW 7.0.10) date 2024-02-10 01:11:15*
%MOMM*%
%LPD*%
G01*
G04 APERTURE LIST*
%TA.AperFunction,ComponentPad*%
%ADD10O,1.200000X2.900000*%
%TD*%
%TA.AperFunction,ComponentPad*%
%ADD11O,1.700000X1.700000*%
%TD*%
%TA.AperFunction,ComponentPad*%
%ADD12R,1.700000X1.700000*%
%TD*%
%TA.AperFunction,ComponentPad*%
%ADD13C,3.000000*%
%TD*%
%TA.AperFunction,ComponentPad*%
%ADD14O,1.000000X1.800000*%
%TD*%
%TA.AperFunction,ComponentPad*%
%ADD15O,1.000000X2.100000*%
%TD*%
%TA.AperFunction,ViaPad*%
%ADD16C,0.800000*%
%TD*%
%TA.AperFunction,Conductor*%
%ADD17C,0.152000*%
%TD*%
%TA.AperFunction,Conductor*%
%ADD18C,0.300000*%
%TD*%
%TA.AperFunction,Conductor*%
%ADD19C,0.200000*%
%TD*%
%TA.AperFunction,Conductor*%
%ADD20C,1.000000*%
%TD*%
G04 APERTURE END LIST*
D10*
%TO.P,J4,5,Shield*%
%TO.N,GND*%
X85400000Y-120000000D03*
X98200000Y-120000000D03*
%TD*%
D11*
%TO.P,J3,50,Pin_50*%
%TO.N,3V3*%
X31190000Y-33510000D03*
%TO.P,J3,49,Pin_49*%
%TO.N,GND*%
X31190000Y-30970000D03*
%TO.P,J3,48,Pin_48*%
%TO.N,PA29*%
X33730000Y-33510000D03*
%TO.P,J3,47,Pin_47*%
%TO.N,PA28*%
X33730000Y-30970000D03*
%TO.P,J3,46,Pin_46*%
%TO.N,PA27*%
X36270000Y-33510000D03*
%TO.P,J3,45,Pin_45*%
%TO.N,PA26*%
X36270000Y-30970000D03*
%TO.P,J3,44,Pin_44*%
%TO.N,PA25*%
X38810000Y-33510000D03*
%TO.P,J3,43,Pin_43*%
%TO.N,PA24*%
X38810000Y-30970000D03*
%TO.P,J3,42,Pin_42*%
%TO.N,PA23*%
X41350000Y-33510000D03*
%TO.P,J3,41,Pin_41*%
%TO.N,PA22*%
X41350000Y-30970000D03*
%TO.P,J3,40,Pin_40*%
%TO.N,PA21*%
X43890000Y-33510000D03*
%TO.P,J3,39,Pin_39*%
%TO.N,PA20*%
X43890000Y-30970000D03*
%TO.P,J3,38,Pin_38*%
%TO.N,PA19*%
X46430000Y-33510000D03*
%TO.P,J3,37,Pin_37*%
%TO.N,PA18*%
X46430000Y-30970000D03*
%TO.P,J3,36,Pin_36*%
%TO.N,PA17*%
X48970000Y-33510000D03*
%TO.P,J3,35,Pin_35*%
%TO.N,PA16*%
X48970000Y-30970000D03*
%TO.P,J3,34,Pin_34*%
%TO.N,PA15*%
X51510000Y-33510000D03*
%TO.P,J3,33,Pin_33*%
%TO.N,PA14*%
X51510000Y-30970000D03*
%TO.P,J3,32,Pin_32*%
%TO.N,PA13*%
X54050000Y-33510000D03*
%TO.P,J3,31,Pin_31*%
%TO.N,PA12*%
X54050000Y-30970000D03*
%TO.P,J3,30,Pin_30*%
%TO.N,PA11*%
X56590000Y-33510000D03*
%TO.P,J3,29,Pin_29*%
%TO.N,PA10*%
X56590000Y-30970000D03*
%TO.P,J3,28,Pin_28*%
%TO.N,PA9*%
X59130000Y-33510000D03*
%TO.P,J3,27,Pin_27*%
%TO.N,PA8*%
X59130000Y-30970000D03*
%TO.P,J3,26,Pin_26*%
%TO.N,PA7*%
X61670000Y-33510000D03*
%TO.P,J3,25,Pin_25*%
%TO.N,PA6*%
X61670000Y-30970000D03*
%TO.P,J3,24,Pin_24*%
%TO.N,PA5*%
X64210000Y-33510000D03*
%TO.P,J3,23,Pin_23*%
%TO.N,PA4*%
X64210000Y-30970000D03*
%TO.P,J3,22,Pin_22*%
%TO.N,PA3*%
X66750000Y-33510000D03*
%TO.P,J3,21,Pin_21*%
%TO.N,PA2*%
X66750000Y-30970000D03*
%TO.P,J3,20,Pin_20*%
%TO.N,PA1*%
X69290000Y-33510000D03*
%TO.P,J3,19,Pin_19*%
%TO.N,PA0*%
X69290000Y-30970000D03*
%TO.P,J3,18,Pin_18*%
%TO.N,PB31*%
X71830000Y-33510000D03*
%TO.P,J3,17,Pin_17*%
%TO.N,PB30*%
X71830000Y-30970000D03*
%TO.P,J3,16,Pin_16*%
%TO.N,PB29*%
X74370000Y-33510000D03*
%TO.P,J3,15,Pin_15*%
%TO.N,PB28*%
X74370000Y-30970000D03*
%TO.P,J3,14,Pin_14*%
%TO.N,PB27*%
X76910000Y-33510000D03*
%TO.P,J3,13,Pin_13*%
%TO.N,PB26*%
X76910000Y-30970000D03*
%TO.P,J3,12,Pin_12*%
%TO.N,PB25*%
X79450000Y-33510000D03*
%TO.P,J3,11,Pin_11*%
%TO.N,PB24*%
X79450000Y-30970000D03*
%TO.P,J3,10,Pin_10*%
%TO.N,PB23*%
X81990000Y-33510000D03*
%TO.P,J3,9,Pin_9*%
%TO.N,PB22*%
X81990000Y-30970000D03*
%TO.P,J3,8,Pin_8*%
%TO.N,PB21*%
X84530000Y-33510000D03*
%TO.P,J3,7,Pin_7*%
%TO.N,PB20*%
X84530000Y-30970000D03*
%TO.P,J3,6,Pin_6*%
%TO.N,PB11*%
X87070000Y-33510000D03*
%TO.P,J3,5,Pin_5*%
%TO.N,PB10*%
X87070000Y-30970000D03*
%TO.P,J3,4,Pin_4*%
%TO.N,PC1*%
X89610000Y-33510000D03*
%TO.P,J3,3,Pin_3*%
%TO.N,PC0*%
X89610000Y-30970000D03*
%TO.P,J3,2,Pin_2*%
%TO.N,3V3*%
X92150000Y-33510000D03*
D12*
%TO.P,J3,1,Pin_1*%
%TO.N,GND*%
X92150000Y-30970000D03*
%TD*%
D13*
%TO.P,TP4,1,1*%
%TO.N,A15*%
X71628000Y-97536000D03*
%TD*%
D14*
%TO.P,J2,S1,SHIELD*%
%TO.N,GND*%
X77218000Y-126460000D03*
D15*
X77218000Y-122280000D03*
D14*
X68578000Y-126460000D03*
D15*
X68578000Y-122280000D03*
%TD*%
D13*
%TO.P,TP5,1,1*%
%TO.N,Net-(J1-Pin_17)*%
X39780000Y-106610000D03*
%TD*%
D12*
%TO.P,J1,1,Pin_1*%
%TO.N,3V3*%
X33717000Y-125344000D03*
D11*
%TO.P,J1,2,Pin_2*%
X31177000Y-125344000D03*
%TO.P,J1,3,Pin_3*%
%TO.N,Net-(J1-Pin_3)*%
X33717000Y-122804000D03*
%TO.P,J1,4,Pin_4*%
%TO.N,GND*%
X31177000Y-122804000D03*
%TO.P,J1,5,Pin_5*%
%TO.N,Net-(J1-Pin_5)*%
X33717000Y-120264000D03*
%TO.P,J1,6,Pin_6*%
%TO.N,GND*%
X31177000Y-120264000D03*
%TO.P,J1,7,Pin_7*%
%TO.N,Net-(J1-Pin_7)*%
X33717000Y-117724000D03*
%TO.P,J1,8,Pin_8*%
%TO.N,GND*%
X31177000Y-117724000D03*
%TO.P,J1,9,Pin_9*%
%TO.N,Net-(J1-Pin_9)*%
X33717000Y-115184000D03*
%TO.P,J1,10,Pin_10*%
%TO.N,GND*%
X31177000Y-115184000D03*
%TO.P,J1,11,Pin_11*%
%TO.N,Net-(J1-Pin_11)*%
X33717000Y-112644000D03*
%TO.P,J1,12,Pin_12*%
%TO.N,GND*%
X31177000Y-112644000D03*
%TO.P,J1,13,Pin_13*%
%TO.N,Net-(J1-Pin_13)*%
X33717000Y-110104000D03*
%TO.P,J1,14,Pin_14*%
%TO.N,GND*%
X31177000Y-110104000D03*
%TO.P,J1,15,Pin_15*%
%TO.N,NRST*%
X33717000Y-107564000D03*
%TO.P,J1,16,Pin_16*%
%TO.N,GND*%
X31177000Y-107564000D03*
%TO.P,J1,17,Pin_17*%
%TO.N,Net-(J1-Pin_17)*%
X33717000Y-105024000D03*
%TO.P,J1,18,Pin_18*%
%TO.N,GND*%
X31177000Y-105024000D03*
%TO.P,J1,19,Pin_19*%
%TO.N,Net-(J1-Pin_19)*%
X33717000Y-102484000D03*
%TO.P,J1,20,Pin_20*%
%TO.N,GND*%
X31177000Y-102484000D03*
%TD*%
D13*
%TO.P,TP1,1,1*%
%TO.N,/WKUP*%
X46539500Y-82759500D03*
%TD*%
%TO.P,TP2,1,1*%
%TO.N,/SHDN*%
X46563000Y-86950500D03*
%TD*%
%TO.P,TP7,1,1*%
%TO.N,Net-(J1-Pin_19)*%
X39790000Y-102260000D03*
%TD*%
%TO.P,TP6,1,1*%
%TO.N,Net-(U1-JTAGSEL)*%
X42200000Y-75610000D03*
%TD*%
%TO.P,TP3,1,1*%
%TO.N,A12*%
X76830000Y-95830000D03*
%TD*%
D16*
%TO.N,NRST*%
X50410000Y-73050000D03*
X50430000Y-98450000D03*
%TO.N,GND*%
X92290000Y-86150000D03*
X89450000Y-86150000D03*
X111690000Y-80220000D03*
X105528436Y-87551564D03*
X110730000Y-87450000D03*
X94830000Y-81610000D03*
X49486807Y-77280000D03*
X44580000Y-76590000D03*
X58840000Y-55380000D03*
X61970000Y-58530000D03*
X82070000Y-76550000D03*
%TO.N,HDMA*%
X66490000Y-99480000D03*
X58960000Y-78830000D03*
%TO.N,GND*%
X85530000Y-67255000D03*
%TO.N,3V3*%
X104920000Y-92488000D03*
X106930000Y-92488000D03*
X111497000Y-92488000D03*
%TO.N,GND*%
X76340000Y-46240000D03*
%TO.N,SPI0_NPCS1*%
X55600000Y-66755000D03*
%TO.N,GND*%
X44550000Y-74160000D03*
%TO.N,1V8*%
X55800000Y-104200000D03*
X55170000Y-79180000D03*
X55560000Y-74457000D03*
X85500000Y-59200000D03*
%TO.N,3V3*%
X112612000Y-60200000D03*
X122700000Y-60200000D03*
X127400000Y-60200000D03*
X123272000Y-86540000D03*
X127460000Y-86600000D03*
%TO.N,GND*%
X38800000Y-64100000D03*
X101100000Y-109800000D03*
%TO.N,VBUS*%
X100900000Y-114400000D03*
X80700000Y-114400000D03*
X86100000Y-114400000D03*
%TO.N,GND*%
X84700000Y-112800000D03*
%TO.N,HDPA*%
X66400000Y-96730000D03*
X59580127Y-79746579D03*
%TO.N,GND*%
X97300000Y-116300000D03*
X76600000Y-104200000D03*
X76600000Y-108000000D03*
X68100000Y-109100000D03*
X66000000Y-112500000D03*
X78200000Y-115100000D03*
X75900000Y-115100000D03*
X69600000Y-115200000D03*
X108400000Y-74000000D03*
X101200000Y-74100000D03*
X104600000Y-72100000D03*
X112400000Y-69000000D03*
X97800000Y-63900000D03*
X112400000Y-74000000D03*
X110800000Y-70800000D03*
X103600000Y-74100000D03*
X108300000Y-69000000D03*
X105900000Y-63200000D03*
X121300000Y-95000000D03*
X110900000Y-94956000D03*
X106900000Y-95000000D03*
X104900000Y-95000000D03*
X59170000Y-47410000D03*
X41480000Y-47750000D03*
X109470000Y-34800000D03*
X95350000Y-34560000D03*
X91280000Y-54360000D03*
%TO.N,1V8*%
X88580000Y-53910000D03*
X76250000Y-55300000D03*
X62215000Y-55340000D03*
%TO.N,GND*%
X79900000Y-91460000D03*
X66960000Y-89800000D03*
X32500000Y-89200000D03*
X32300000Y-69800000D03*
X49300000Y-80100000D03*
X49150000Y-84130000D03*
X49030000Y-73670000D03*
X49070000Y-70880000D03*
X105932000Y-67672000D03*
X110740000Y-63330000D03*
X124260000Y-77450000D03*
X122740000Y-48460000D03*
X112320000Y-48340000D03*
X108331000Y-44485000D03*
X108290000Y-48340000D03*
X103530000Y-48320000D03*
X101920000Y-48300000D03*
X90560000Y-45460000D03*
X90620000Y-47880000D03*
X87563000Y-55187000D03*
X93440000Y-48400000D03*
X96230000Y-48450000D03*
%TO.N,SPI0_NPCS1*%
X61000000Y-82302000D03*
%TO.N,PA2*%
X33970000Y-44430000D03*
%TO.N,PA1*%
X37850000Y-44350000D03*
%TO.N,PA0*%
X41298966Y-46341034D03*
%TO.N,GND*%
X48920000Y-67470000D03*
X48550000Y-61920000D03*
X50530000Y-56360000D03*
X69085000Y-46041000D03*
X99441000Y-94869000D03*
X72013000Y-82010000D03*
X64300000Y-124200000D03*
X71500000Y-91100000D03*
X66294000Y-115951000D03*
X63006000Y-46480000D03*
X66215000Y-81780000D03*
X62738000Y-115951000D03*
X85600000Y-60960000D03*
X63881000Y-75057000D03*
X78380000Y-41210000D03*
X84250000Y-57940000D03*
X69311000Y-56610000D03*
X59020000Y-62659000D03*
X64000000Y-81800000D03*
X62500000Y-57300000D03*
X78715000Y-81940000D03*
X77750000Y-56570000D03*
X64008000Y-72771000D03*
X59664458Y-60285541D03*
X64008000Y-69723000D03*
%TO.N,Net-(C19-Pad2)*%
X74168000Y-120015000D03*
X72136000Y-120015000D03*
%TO.N,Net-(J1-Pin_3)*%
X46736000Y-120904000D03*
%TO.N,Net-(J1-Pin_5)*%
X53400000Y-69900000D03*
%TO.N,Net-(J1-Pin_7)*%
X51600000Y-70100000D03*
%TO.N,Net-(J1-Pin_9)*%
X39929500Y-119050500D03*
X59950000Y-72659000D03*
%TO.N,Net-(J1-Pin_11)*%
X59180000Y-73957000D03*
X49911000Y-112649000D03*
%TO.N,Net-(J1-Pin_13)*%
X46700000Y-110104000D03*
X54400000Y-69590000D03*
%TO.N,PB14*%
X59760000Y-65840000D03*
X68326000Y-106045000D03*
%TO.N,PB15*%
X59210000Y-66650000D03*
X67437000Y-107569000D03*
%TO.N,D7*%
X111506000Y-91059000D03*
X90043000Y-75182000D03*
%TO.N,A0*%
X113411000Y-97536000D03*
X114300000Y-94742000D03*
%TO.N,SDWE*%
X113919000Y-63627000D03*
X111760000Y-85344000D03*
%TO.N,CAS*%
X113990000Y-90840000D03*
X114808000Y-81640000D03*
X85598000Y-85344000D03*
X114808000Y-64897000D03*
%TO.N,RAS*%
X115561710Y-63888069D03*
X115561710Y-82550000D03*
%TO.N,SDCS*%
X116322633Y-63239224D03*
X116322633Y-81620000D03*
%TO.N,A16*%
X117346443Y-83173557D03*
X73436425Y-87200000D03*
X117083644Y-93157644D03*
X117132887Y-63825307D03*
%TO.N,A17*%
X72808425Y-85615505D03*
X117910229Y-63196226D03*
X117910229Y-82230000D03*
X117983000Y-92329000D03*
%TO.N,SDA10*%
X118735626Y-63760784D03*
X118735626Y-82800000D03*
%TO.N,A2*%
X119545717Y-63174475D03*
X119545717Y-82280000D03*
%TO.N,A3*%
X120400000Y-83000000D03*
X120322718Y-63803978D03*
%TO.N,A4*%
X121148882Y-63240544D03*
X121195000Y-83770000D03*
%TO.N,A5*%
X122007000Y-63754000D03*
X121990000Y-84390000D03*
%TO.N,A7*%
X126619000Y-91694000D03*
X127000000Y-93345000D03*
%TO.N,A8*%
X125823495Y-92549495D03*
X126750653Y-94619653D03*
%TO.N,A9*%
X125095000Y-91440000D03*
X126374306Y-96021306D03*
%TO.N,A10*%
X124370000Y-90297000D03*
X125997959Y-97422959D03*
%TO.N,A11*%
X123645000Y-91440000D03*
X125431112Y-99015112D03*
%TO.N,A13*%
X122622016Y-87440000D03*
X125181765Y-100289765D03*
%TO.N,A14*%
X113900000Y-106642000D03*
X116912000Y-87220000D03*
%TO.N,SDCK*%
X114681000Y-55499000D03*
X92895847Y-77232000D03*
X112930000Y-75311000D03*
%TO.N,NBS1*%
X84836000Y-80264000D03*
X112780000Y-79121000D03*
%TO.N,A1*%
X82550000Y-80645000D03*
X103500000Y-56500000D03*
%TO.N,NBS3*%
X109500000Y-55400000D03*
X84900000Y-78200000D03*
%TO.N,Net-(JP1-B)*%
X52449000Y-100459000D03*
X52655627Y-72805000D03*
%TD*%
D17*
%TO.N,A16*%
X73436425Y-87200000D02*
X73738000Y-87200000D01*
X73738000Y-87200000D02*
X79756000Y-93218000D01*
X79756000Y-93218000D02*
X117023288Y-93218000D01*
X117023288Y-93218000D02*
X117083644Y-93157644D01*
X117346443Y-83173557D02*
X117282229Y-83109343D01*
X117282229Y-83109343D02*
X117282229Y-81969873D01*
X117282229Y-81969873D02*
X117330000Y-81922102D01*
X117330000Y-81922102D02*
X117330000Y-64022420D01*
X117330000Y-64022420D02*
X117132887Y-63825307D01*
D18*
%TO.N,SDCK*%
X112930000Y-75311000D02*
X94869000Y-75311000D01*
D17*
%TO.N,NBS1*%
X91333000Y-75515991D02*
X90323009Y-74506000D01*
X84836000Y-79432991D02*
X84836000Y-80264000D01*
X91333000Y-76625162D02*
X91333000Y-75515991D01*
X89762991Y-74506000D02*
X84836000Y-79432991D01*
X112780000Y-79121000D02*
X93828838Y-79121000D01*
X93828838Y-79121000D02*
X91333000Y-76625162D01*
X90323009Y-74506000D02*
X89762991Y-74506000D01*
%TO.N,SDWE*%
X113919000Y-63627000D02*
X114190000Y-63898000D01*
X114190000Y-63898000D02*
X114190000Y-64626873D01*
X114180000Y-64636873D02*
X114180000Y-65157127D01*
X114180000Y-81900127D02*
X114190000Y-81910127D01*
X114190000Y-64626873D02*
X114180000Y-64636873D01*
X114180000Y-65157127D02*
X114820000Y-65797127D01*
X114820000Y-65797127D02*
X114820000Y-80739873D01*
X114820000Y-80739873D02*
X114180000Y-81379873D01*
X114190000Y-82914000D02*
X111760000Y-85344000D01*
X114180000Y-81379873D02*
X114180000Y-81900127D01*
X114190000Y-81910127D02*
X114190000Y-82914000D01*
%TO.N,CAS*%
X114808000Y-81640000D02*
X115480000Y-80968000D01*
X115480000Y-80968000D02*
X115480000Y-65569000D01*
X115480000Y-65569000D02*
X114808000Y-64897000D01*
%TO.N,RAS*%
X115561710Y-82550000D02*
X115561710Y-81492796D01*
X115561710Y-81492796D02*
X116070000Y-80984506D01*
X116070000Y-80984506D02*
X116070000Y-64396359D01*
X116070000Y-64396359D02*
X115561710Y-63888069D01*
%TO.N,SDCS*%
X116322633Y-81620000D02*
X116590000Y-81352633D01*
X116590000Y-81352633D02*
X116590000Y-64170547D01*
X116590000Y-64170547D02*
X116504887Y-64085434D01*
X116504887Y-64085434D02*
X116504887Y-63565180D01*
X116504887Y-63565180D02*
X116576738Y-63493329D01*
X116576738Y-63493329D02*
X116322633Y-63239224D01*
D18*
%TO.N,3V3*%
X112612000Y-60200000D02*
X122700000Y-60200000D01*
%TO.N,1V8*%
X88580000Y-53910000D02*
X88550000Y-53940000D01*
X88550000Y-53940000D02*
X87620000Y-53940000D01*
X87620000Y-53940000D02*
X86300000Y-55260000D01*
X86300000Y-55260000D02*
X85500000Y-55260000D01*
D19*
%TO.N,PA0*%
X41298966Y-46341034D02*
X41400000Y-46240000D01*
X70392000Y-32072000D02*
X69290000Y-30970000D01*
X41400000Y-46240000D02*
X59530000Y-46240000D01*
X70392000Y-35378000D02*
X70392000Y-32072000D01*
X59530000Y-46240000D02*
X70392000Y-35378000D01*
%TO.N,PA2*%
X33970000Y-44430000D02*
X36810000Y-41590000D01*
X36810000Y-41590000D02*
X57688464Y-41590000D01*
X57688464Y-41590000D02*
X65630000Y-33648464D01*
X65630000Y-33648464D02*
X65630000Y-32090000D01*
X65630000Y-32090000D02*
X66750000Y-30970000D01*
D18*
%TO.N,Net-(J1-Pin_9)*%
X42966698Y-116013302D02*
X48070698Y-116013302D01*
X39929500Y-119050500D02*
X42966698Y-116013302D01*
X48070698Y-116013302D02*
X57800000Y-106284000D01*
X57800000Y-106284000D02*
X57800000Y-76329778D01*
X57800000Y-76329778D02*
X59950000Y-74179778D01*
X59950000Y-74179778D02*
X59950000Y-72659000D01*
D19*
%TO.N,NRST*%
X50430000Y-98450000D02*
X50430000Y-94254816D01*
X50427592Y-73067592D02*
X50410000Y-73050000D01*
X50430000Y-94254816D02*
X50427592Y-94252408D01*
X50427592Y-94252408D02*
X50427592Y-73067592D01*
D17*
%TO.N,A4*%
X121195000Y-83770000D02*
X121148882Y-83723882D01*
X121148882Y-83723882D02*
X121148882Y-63240544D01*
%TO.N,A5*%
X121990000Y-84390000D02*
X122007000Y-84373000D01*
X122007000Y-84373000D02*
X122007000Y-63754000D01*
%TO.N,A3*%
X120400000Y-83000000D02*
X120400000Y-63881260D01*
X120400000Y-63881260D02*
X120322718Y-63803978D01*
D18*
%TO.N,Net-(J1-Pin_13)*%
X54200000Y-69790000D02*
X54200000Y-102600000D01*
X54400000Y-69590000D02*
X54200000Y-69790000D01*
X54200000Y-102600000D02*
X46700000Y-110100000D01*
X46700000Y-110100000D02*
X46700000Y-110104000D01*
D19*
%TO.N,HDPA*%
X66400000Y-96730000D02*
X66400000Y-96720000D01*
X59590000Y-89910000D02*
X59590000Y-79756452D01*
X66400000Y-96720000D02*
X59590000Y-89910000D01*
X59590000Y-79756452D02*
X59580127Y-79746579D01*
%TO.N,HDMA*%
X66490000Y-99480000D02*
X66490000Y-99312068D01*
X66490000Y-99312068D02*
X58838000Y-91660068D01*
X58838000Y-91660068D02*
X58838000Y-78952000D01*
X58838000Y-78952000D02*
X58960000Y-78830000D01*
D18*
%TO.N,Net-(J1-Pin_7)*%
X51600000Y-70100000D02*
X51629000Y-70129000D01*
X51629000Y-70129000D02*
X51629000Y-99812000D01*
X51629000Y-99812000D02*
X33717000Y-117724000D01*
D19*
%TO.N,1V8*%
X55170000Y-79104000D02*
X55000000Y-78934000D01*
X55170000Y-79180000D02*
X55170000Y-79104000D01*
D20*
X55800000Y-104200000D02*
X55800000Y-68912247D01*
X54510000Y-63045000D02*
X62215000Y-55340000D01*
X55800000Y-68912247D02*
X54510000Y-67622247D01*
X54510000Y-67622247D02*
X54510000Y-63045000D01*
D18*
%TO.N,Net-(J1-Pin_11)*%
X59180000Y-73957000D02*
X57000000Y-76137000D01*
X57000000Y-76137000D02*
X57000000Y-105663778D01*
X57000000Y-105663778D02*
X50014778Y-112649000D01*
X50014778Y-112649000D02*
X49911000Y-112649000D01*
%TO.N,3V3*%
X123272000Y-86540000D02*
X123312000Y-86580000D01*
X123312000Y-86580000D02*
X127440000Y-86580000D01*
X127440000Y-86580000D02*
X127460000Y-86600000D01*
X123272000Y-86540000D02*
X123232000Y-86500000D01*
X116612000Y-86518000D02*
X116210000Y-86920000D01*
X123232000Y-86500000D02*
X122570000Y-86500000D01*
X122570000Y-86500000D02*
X122552000Y-86518000D01*
X122552000Y-86518000D02*
X116612000Y-86518000D01*
X116210000Y-86920000D02*
X116210000Y-89612778D01*
X116210000Y-89612778D02*
X113334778Y-92488000D01*
X113334778Y-92488000D02*
X111497000Y-92488000D01*
D17*
%TO.N,A13*%
X122600000Y-87462016D02*
X122600000Y-97708000D01*
X122622016Y-87440000D02*
X122600000Y-87462016D01*
X122600000Y-97708000D02*
X125181765Y-100289765D01*
%TO.N,A14*%
X116912000Y-90115000D02*
X119719000Y-92922000D01*
X119719000Y-92922000D02*
X119719000Y-96478000D01*
X116912000Y-87220000D02*
X116912000Y-90115000D01*
X119719000Y-96478000D02*
X113900000Y-102297000D01*
X113900000Y-102297000D02*
X113900000Y-106642000D01*
%TO.N,SDA10*%
X118735626Y-82800000D02*
X118735626Y-63760784D01*
%TO.N,A2*%
X119545717Y-82280000D02*
X119545717Y-63174475D01*
%TO.N,A17*%
X117910229Y-82230000D02*
X117910229Y-63196226D01*
%TO.N,CAS*%
X112970000Y-91860000D02*
X91987000Y-91860000D01*
X113990000Y-90840000D02*
X112970000Y-91860000D01*
X91987000Y-91860000D02*
X85598000Y-85471000D01*
X85598000Y-85471000D02*
X85598000Y-85344000D01*
D18*
%TO.N,3V3*%
X106930000Y-92488000D02*
X104920000Y-92488000D01*
X111497000Y-92488000D02*
X106930000Y-92488000D01*
%TO.N,PB15*%
X61702000Y-82592778D02*
X61700000Y-82594778D01*
X59210000Y-66957000D02*
X61700000Y-69447000D01*
X59210000Y-66650000D02*
X59210000Y-66957000D01*
X61700000Y-69447000D02*
X61700000Y-82009222D01*
X61700000Y-82009222D02*
X61702000Y-82011222D01*
X67400000Y-107532000D02*
X67437000Y-107569000D01*
X61702000Y-82011222D02*
X61702000Y-82592778D01*
X61700000Y-82594778D02*
X61700000Y-90600000D01*
X61700000Y-90600000D02*
X67400000Y-96300000D01*
X67400000Y-96300000D02*
X67400000Y-107532000D01*
%TO.N,SPI0_NPCS1*%
X55600000Y-66755000D02*
X55600000Y-67316222D01*
X55600000Y-67316222D02*
X61000000Y-72716222D01*
X61000000Y-72716222D02*
X61000000Y-82302000D01*
%TO.N,PB14*%
X59860000Y-65840000D02*
X62700000Y-68680000D01*
X62700000Y-68680000D02*
X62700000Y-90200000D01*
X62700000Y-90200000D02*
X68400000Y-95900000D01*
X59760000Y-65840000D02*
X59860000Y-65840000D01*
X68400000Y-95900000D02*
X68400000Y-105971000D01*
X68400000Y-105971000D02*
X68326000Y-106045000D01*
%TO.N,Net-(J1-Pin_5)*%
X53400000Y-100581000D02*
X33717000Y-120264000D01*
X53400000Y-69900000D02*
X53400000Y-100581000D01*
%TO.N,Net-(JP1-B)*%
X52655627Y-72805000D02*
X52600000Y-72860627D01*
X52600000Y-100308000D02*
X52449000Y-100459000D01*
X52600000Y-72860627D02*
X52600000Y-100308000D01*
%TO.N,1V8*%
X85500000Y-55260000D02*
X76290000Y-55260000D01*
X85500000Y-59200000D02*
X85500000Y-55260000D01*
D17*
%TO.N,NBS3*%
X109500000Y-55400000D02*
X107600000Y-55400000D01*
X107600000Y-55400000D02*
X84900000Y-78100000D01*
X84900000Y-78100000D02*
X84900000Y-78200000D01*
D18*
%TO.N,3V3*%
X122700000Y-60200000D02*
X127400000Y-60200000D01*
%TO.N,VBUS*%
X100900000Y-114400000D02*
X86100000Y-114400000D01*
X86100000Y-114400000D02*
X80800000Y-114400000D01*
D19*
%TO.N,SPI0_NPCS1*%
X61000000Y-82302000D02*
X61010000Y-82292000D01*
D18*
%TO.N,GND*%
X32500000Y-36600000D02*
X32500000Y-32280000D01*
X32500000Y-32280000D02*
X31190000Y-30970000D01*
D19*
X32500000Y-89030000D02*
X32500000Y-89200000D01*
D17*
%TO.N,A17*%
X72808425Y-85615505D02*
X72808425Y-88308425D01*
X117374009Y-93894000D02*
X117983000Y-93285009D01*
X72808425Y-88308425D02*
X78394000Y-93894000D01*
X78394000Y-93894000D02*
X117374009Y-93894000D01*
X117983000Y-93285009D02*
X117983000Y-92329000D01*
%TO.N,A1*%
X82550000Y-77851000D02*
X82550000Y-80645000D01*
X103500000Y-56500000D02*
X103500000Y-56901000D01*
X103500000Y-56901000D02*
X82550000Y-77851000D01*
D18*
%TO.N,SDCK*%
X114681000Y-55499000D02*
X94869000Y-75311000D01*
%TO.N,GND*%
X49070000Y-73630000D02*
X49030000Y-73670000D01*
X59170000Y-47420000D02*
X59170000Y-47410000D01*
X49070000Y-67620000D02*
X48920000Y-67470000D01*
X78360000Y-41190000D02*
X78380000Y-41210000D01*
X59060000Y-47520000D02*
X59170000Y-47410000D01*
X109470000Y-34800000D02*
X109470000Y-35190000D01*
X112440000Y-48460000D02*
X112320000Y-48340000D01*
%TO.N,1V8*%
X76290000Y-55260000D02*
X76250000Y-55300000D01*
D19*
X76210000Y-55340000D02*
X76250000Y-55300000D01*
X62215000Y-55340000D02*
X76210000Y-55340000D01*
D18*
%TO.N,GND*%
X108290000Y-44526000D02*
X108331000Y-44485000D01*
X103530000Y-48320000D02*
X103550000Y-48340000D01*
X103510000Y-48300000D02*
X103530000Y-48320000D01*
X96230000Y-48450000D02*
X96380000Y-48300000D01*
X96180000Y-48400000D02*
X96230000Y-48450000D01*
X90560000Y-47820000D02*
X90620000Y-47880000D01*
D19*
%TO.N,PA1*%
X37850000Y-44350000D02*
X58450000Y-44350000D01*
X58450000Y-44350000D02*
X69290000Y-33510000D01*
D17*
%TO.N,Net-(C19-Pad2)*%
X74168000Y-120015000D02*
X72136000Y-120015000D01*
D18*
%TO.N,Net-(J1-Pin_3)*%
X46736000Y-120904000D02*
X42672000Y-120904000D01*
X40772000Y-122804000D02*
X33717000Y-122804000D01*
X42672000Y-120904000D02*
X40772000Y-122804000D01*
D17*
%TO.N,D7*%
X90043000Y-75182000D02*
X90932000Y-76071000D01*
X90932000Y-86741000D02*
X95250000Y-91059000D01*
X90932000Y-76071000D02*
X90932000Y-86741000D01*
X95250000Y-91059000D02*
X111506000Y-91059000D01*
%TO.N,A0*%
X114300000Y-96647000D02*
X113411000Y-97536000D01*
X114300000Y-94742000D02*
X114300000Y-96647000D01*
%TO.N,A7*%
X127000000Y-93345000D02*
X127000000Y-92075000D01*
X127000000Y-92075000D02*
X126619000Y-91694000D01*
%TO.N,A8*%
X125823495Y-93692495D02*
X125823495Y-92549495D01*
X126750653Y-94619653D02*
X125823495Y-93692495D01*
%TO.N,A9*%
X126374306Y-96021306D02*
X125095000Y-94742000D01*
X125095000Y-94742000D02*
X125095000Y-91440000D01*
%TO.N,A10*%
X125997959Y-97422959D02*
X124370000Y-95795000D01*
X124370000Y-95795000D02*
X124370000Y-90297000D01*
%TO.N,A11*%
X125431112Y-99015112D02*
X123645000Y-97229000D01*
X123645000Y-97229000D02*
X123645000Y-91440000D01*
D18*
%TO.N,SDCK*%
X92948000Y-77232000D02*
X94869000Y-75311000D01*
X92895847Y-77232000D02*
X92948000Y-77232000D01*
%TD*%
%TA.AperFunction,Conductor*%
%TO.N,GND*%
G36*
X31427000Y-122368498D02*
G01*
X31319315Y-122319320D01*
X31212763Y-122304000D01*
X31141237Y-122304000D01*
X31034685Y-122319320D01*
X30927000Y-122368498D01*
X30927000Y-120699501D01*
X31034685Y-120748680D01*
X31141237Y-120764000D01*
X31212763Y-120764000D01*
X31319315Y-120748680D01*
X31427000Y-120699501D01*
X31427000Y-122368498D01*
G37*
%TD.AperFunction*%
%TA.AperFunction,Conductor*%
G36*
X31427000Y-119828498D02*
G01*
X31319315Y-119779320D01*
X31212763Y-119764000D01*
X31141237Y-119764000D01*
X31034685Y-119779320D01*
X30927000Y-119828498D01*
X30927000Y-118159501D01*
X31034685Y-118208680D01*
X31141237Y-118224000D01*
X31212763Y-118224000D01*
X31319315Y-118208680D01*
X31427000Y-118159501D01*
X31427000Y-119828498D01*
G37*
%TD.AperFunction*%
%TA.AperFunction,Conductor*%
G36*
X31427000Y-117288498D02*
G01*
X31319315Y-117239320D01*
X31212763Y-117224000D01*
X31141237Y-117224000D01*
X31034685Y-117239320D01*
X30927000Y-117288498D01*
X30927000Y-115619501D01*
X31034685Y-115668680D01*
X31141237Y-115684000D01*
X31212763Y-115684000D01*
X31319315Y-115668680D01*
X31427000Y-115619501D01*
X31427000Y-117288498D01*
G37*
%TD.AperFunction*%
%TA.AperFunction,Conductor*%
G36*
X31427000Y-114748498D02*
G01*
X31319315Y-114699320D01*
X31212763Y-114684000D01*
X31141237Y-114684000D01*
X31034685Y-114699320D01*
X30927000Y-114748498D01*
X30927000Y-113079501D01*
X31034685Y-113128680D01*
X31141237Y-113144000D01*
X31212763Y-113144000D01*
X31319315Y-113128680D01*
X31427000Y-113079501D01*
X31427000Y-114748498D01*
G37*
%TD.AperFunction*%
%TA.AperFunction,Conductor*%
G36*
X31427000Y-112208498D02*
G01*
X31319315Y-112159320D01*
X31212763Y-112144000D01*
X31141237Y-112144000D01*
X31034685Y-112159320D01*
X30927000Y-112208498D01*
X30927000Y-110539501D01*
X31034685Y-110588680D01*
X31141237Y-110604000D01*
X31212763Y-110604000D01*
X31319315Y-110588680D01*
X31427000Y-110539501D01*
X31427000Y-112208498D01*
G37*
%TD.AperFunction*%
%TA.AperFunction,Conductor*%
G36*
X31427000Y-109668498D02*
G01*
X31319315Y-109619320D01*
X31212763Y-109604000D01*
X31141237Y-109604000D01*
X31034685Y-109619320D01*
X30927000Y-109668498D01*
X30927000Y-107999501D01*
X31034685Y-108048680D01*
X31141237Y-108064000D01*
X31212763Y-108064000D01*
X31319315Y-108048680D01*
X31427000Y-107999501D01*
X31427000Y-109668498D01*
G37*
%TD.AperFunction*%
%TA.AperFunction,Conductor*%
G36*
X31427000Y-107128498D02*
G01*
X31319315Y-107079320D01*
X31212763Y-107064000D01*
X31141237Y-107064000D01*
X31034685Y-107079320D01*
X30927000Y-107128498D01*
X30927000Y-105459501D01*
X31034685Y-105508680D01*
X31141237Y-105524000D01*
X31212763Y-105524000D01*
X31319315Y-105508680D01*
X31427000Y-105459501D01*
X31427000Y-107128498D01*
G37*
%TD.AperFunction*%
%TA.AperFunction,Conductor*%
G36*
X31427000Y-104588498D02*
G01*
X31319315Y-104539320D01*
X31212763Y-104524000D01*
X31141237Y-104524000D01*
X31034685Y-104539320D01*
X30927000Y-104588498D01*
X30927000Y-102919501D01*
X31034685Y-102968680D01*
X31141237Y-102984000D01*
X31212763Y-102984000D01*
X31319315Y-102968680D01*
X31427000Y-102919501D01*
X31427000Y-104588498D01*
G37*
%TD.AperFunction*%
%TA.AperFunction,Conductor*%
G36*
X129143039Y-29219685D02*
G01*
X129188794Y-29272489D01*
X129200000Y-29324000D01*
X129200000Y-128876000D01*
X129180315Y-128943039D01*
X129127511Y-128988794D01*
X129076000Y-129000000D01*
X29524000Y-129000000D01*
X29456961Y-128980315D01*
X29411206Y-128927511D01*
X29400000Y-128876000D01*
X29400000Y-126910713D01*
X67578000Y-126910713D01*
X67593418Y-127062338D01*
X67654299Y-127256381D01*
X67654304Y-127256391D01*
X67753005Y-127434215D01*
X67753005Y-127434216D01*
X67885478Y-127588530D01*
X67885479Y-127588531D01*
X68046304Y-127713018D01*
X68228907Y-127802589D01*
X68328000Y-127828244D01*
X68328000Y-127026110D01*
X68352457Y-127065610D01*
X68441962Y-127133201D01*
X68549840Y-127163895D01*
X68661521Y-127153546D01*
X68761922Y-127103552D01*
X68828000Y-127031069D01*
X68828000Y-127833366D01*
X68829944Y-127833069D01*
X68829945Y-127833069D01*
X69020660Y-127762436D01*
X69020664Y-127762434D01*
X69193267Y-127654850D01*
X69340668Y-127514735D01*
X69340669Y-127514733D01*
X69456856Y-127347804D01*
X69537059Y-127160907D01*
X69578000Y-126961690D01*
X69578000Y-126910713D01*
X76218000Y-126910713D01*
X76233418Y-127062338D01*
X76294299Y-127256381D01*
X76294304Y-127256391D01*
X76393005Y-127434215D01*
X76393005Y-127434216D01*
X76525478Y-127588530D01*
X76525479Y-127588531D01*
X76686304Y-127713018D01*
X76868907Y-127802589D01*
X76968000Y-127828244D01*
X76968000Y-127026110D01*
X76992457Y-127065610D01*
X77081962Y-127133201D01*
X77189840Y-127163895D01*
X77301521Y-127153546D01*
X77401922Y-127103552D01*
X77468000Y-127031069D01*
X77468000Y-127833366D01*
X77469944Y-127833069D01*
X77469945Y-127833069D01*
X77660660Y-127762436D01*
X77660664Y-127762434D01*
X77833267Y-127654850D01*
X77980668Y-127514735D01*
X77980669Y-127514733D01*
X78096856Y-127347804D01*
X78177059Y-127160907D01*
X78218000Y-126961690D01*
X78218000Y-126710000D01*
X77518000Y-126710000D01*
X77518000Y-126210000D01*
X78218000Y-126210000D01*
X78218000Y-126009286D01*
X78202581Y-125857661D01*
X78141700Y-125663618D01*
X78141695Y-125663608D01*
X78042994Y-125485784D01*
X78042994Y-125485783D01*
X77910521Y-125331469D01*
X77910520Y-125331468D01*
X77749695Y-125206981D01*
X77567093Y-125117411D01*
X77468000Y-125091753D01*
X77468000Y-125893889D01*
X77443543Y-125854390D01*
X77354038Y-125786799D01*
X77246160Y-125756105D01*
X77134479Y-125766454D01*
X77034078Y-125816448D01*
X76968000Y-125888930D01*
X76968000Y-125086633D01*
X76966053Y-125086931D01*
X76966047Y-125086933D01*
X76775342Y-125157562D01*
X76775335Y-125157565D01*
X76602732Y-125265149D01*
X76455331Y-125405264D01*
X76455330Y-125405266D01*
X76339143Y-125572195D01*
X76258940Y-125759092D01*
X76218000Y-125958309D01*
X76218000Y-126210000D01*
X76918000Y-126210000D01*
X76918000Y-126710000D01*
X76218000Y-126710000D01*
X76218000Y-126910713D01*
X69578000Y-126910713D01*
X69578000Y-126710000D01*
X68878000Y-126710000D01*
X68878000Y-126210000D01*
X69578000Y-126210000D01*
X69578000Y-126009286D01*
X69562581Y-125857661D01*
X69501700Y-125663618D01*
X69501695Y-125663608D01*
X69402994Y-125485784D01*
X69402994Y-125485783D01*
X69270521Y-125331469D01*
X69270520Y-125331468D01*
X69109695Y-125206981D01*
X68927093Y-125117411D01*
X68828000Y-125091753D01*
X68828000Y-125893889D01*
X68803543Y-125854390D01*
X68714038Y-125786799D01*
X68606160Y-125756105D01*
X68494479Y-125766454D01*
X68394078Y-125816448D01*
X68328000Y-125888930D01*
X68328000Y-125086633D01*
X68326053Y-125086931D01*
X68326047Y-125086933D01*
X68135342Y-125157562D01*
X68135335Y-125157565D01*
X67962732Y-125265149D01*
X67815331Y-125405264D01*
X67815330Y-125405266D01*
X67699143Y-125572195D01*
X67618940Y-125759092D01*
X67578000Y-125958309D01*
X67578000Y-126210000D01*
X68278000Y-126210000D01*
X68278000Y-126710000D01*
X67578000Y-126710000D01*
X67578000Y-126910713D01*
X29400000Y-126910713D01*
X29400000Y-125344000D01*
X29821341Y-125344000D01*
X29841936Y-125579403D01*
X29841938Y-125579413D01*
X29903094Y-125807655D01*
X29903096Y-125807659D01*
X29903097Y-125807663D01*
X29973345Y-125958309D01*
X30002965Y-126021830D01*
X30002967Y-126021834D01*
X30111281Y-126176521D01*
X30138505Y-126215401D01*
X30305599Y-126382495D01*
X30402384Y-126450265D01*
X30499165Y-126518032D01*
X30499167Y-126518033D01*
X30499170Y-126518035D01*
X30713337Y-126617903D01*
X30941592Y-126679063D01*
X31118034Y-126694500D01*
X31176999Y-126699659D01*
X31177000Y-126699659D01*
X31177001Y-126699659D01*
X31235966Y-126694500D01*
X31412408Y-126679063D01*
X31640663Y-126617903D01*
X31854830Y-126518035D01*
X32048401Y-126382495D01*
X32170329Y-126260566D01*
X32231648Y-126227084D01*
X32301340Y-126232068D01*
X32357274Y-126273939D01*
X32374189Y-126304917D01*
X32423202Y-126436328D01*
X32423206Y-126436335D01*
X32509452Y-126551544D01*
X32509455Y-126551547D01*
X32624664Y-126637793D01*
X32624671Y-126637797D01*
X32759517Y-126688091D01*
X32759516Y-126688091D01*
X32766444Y-126688835D01*
X32819127Y-126694500D01*
X34614872Y-126694499D01*
X34674483Y-126688091D01*
X34809331Y-126637796D01*
X34924546Y-126551546D01*
X35010796Y-126436331D01*
X35061091Y-126301483D01*
X35067500Y-126241873D01*
X35067499Y-124446128D01*
X35061091Y-124386517D01*
X35059810Y-124383083D01*
X35010797Y-124251671D01*
X35010793Y-124251664D01*
X34924547Y-124136455D01*
X34924544Y-124136452D01*
X34809335Y-124050206D01*
X34809328Y-124050202D01*
X34677917Y-124001189D01*
X34621983Y-123959318D01*
X34597566Y-123893853D01*
X34612418Y-123825580D01*
X34633563Y-123797332D01*
X34755495Y-123675401D01*
X34873147Y-123507377D01*
X34927724Y-123463752D01*
X34974722Y-123454500D01*
X40686495Y-123454500D01*
X40702505Y-123456267D01*
X40702528Y-123456026D01*
X40710289Y-123456758D01*
X40710296Y-123456760D01*
X40780262Y-123454560D01*
X40784157Y-123454500D01*
X40812925Y-123454500D01*
X40817287Y-123453948D01*
X40828939Y-123453030D01*
X40874569Y-123451597D01*
X40894956Y-123445673D01*
X40913996Y-123441731D01*
X40935058Y-123439071D01*
X40977520Y-123422258D01*
X40988557Y-123418480D01*
X41032398Y-123405744D01*
X41050665Y-123394939D01*
X41068136Y-123386380D01*
X41087871Y-123378568D01*
X41124816Y-123351725D01*
X41134558Y-123345326D01*
X41173865Y-123322081D01*
X41188870Y-123307075D01*
X41203668Y-123294436D01*
X41211591Y-123288680D01*
X41220837Y-123281963D01*
X41249946Y-123246774D01*
X41257790Y-123238154D01*
X41615231Y-122880713D01*
X67578000Y-122880713D01*
X67593418Y-123032338D01*
X67654299Y-123226381D01*
X67654304Y-123226391D01*
X67753005Y-123404215D01*
X67753005Y-123404216D01*
X67885478Y-123558530D01*
X67885479Y-123558531D01*
X68046304Y-123683018D01*
X68228907Y-123772589D01*
X68328000Y-123798244D01*
X68328000Y-122996110D01*
X68352457Y-123035610D01*
X68441962Y-123103201D01*
X68549840Y-123133895D01*
X68661521Y-123123546D01*
X68761922Y-123073552D01*
X68828000Y-123001069D01*
X68828000Y-123803366D01*
X68829944Y-123803069D01*
X68829945Y-123803069D01*
X69020660Y-123732436D01*
X69020664Y-123732434D01*
X69193267Y-123624850D01*
X69340668Y-123484735D01*
X69340669Y-123484733D01*
X69456855Y-123317805D01*
X69469921Y-123287358D01*
X69514447Y-123233513D01*
X69581015Y-123212289D01*
X69648491Y-123230423D01*
X69659359Y-123237880D01*
X69690728Y-123261950D01*
X69717767Y-123282698D01*
X69857764Y-123340687D01*
X69970280Y-123355500D01*
X69970287Y-123355500D01*
X70045713Y-123355500D01*
X70045720Y-123355500D01*
X70158236Y-123340687D01*
X70298233Y-123282698D01*
X70418451Y-123190451D01*
X70510698Y-123070233D01*
X70568687Y-122930236D01*
X70588466Y-122780000D01*
X75207534Y-122780000D01*
X75227312Y-122930234D01*
X75227313Y-122930236D01*
X75270960Y-123035610D01*
X75285302Y-123070233D01*
X75377549Y-123190451D01*
X75497767Y-123282698D01*
X75637764Y-123340687D01*
X75750280Y-123355500D01*
X75750287Y-123355500D01*
X75825713Y-123355500D01*
X75825720Y-123355500D01*
X75938236Y-123340687D01*
X76078233Y-123282698D01*
X76137578Y-123237160D01*
X76202746Y-123211966D01*
X76271191Y-123226004D01*
X76321181Y-123274817D01*
X76321483Y-123275358D01*
X76393005Y-123404215D01*
X76393005Y-123404216D01*
X76525478Y-123558530D01*
X76525479Y-123558531D01*
X76686304Y-123683018D01*
X76868907Y-123772589D01*
X76968000Y-123798244D01*
X76968000Y-122996110D01*
X76992457Y-123035610D01*
X77081962Y-123103201D01*
X77189840Y-123133895D01*
X77301521Y-123123546D01*
X77401922Y-123073552D01*
X77468000Y-123001069D01*
X77468000Y-123803366D01*
X77469944Y-123803069D01*
X77469945Y-123803069D01*
X77660660Y-123732436D01*
X77660664Y-123732434D01*
X77833267Y-123624850D01*
X77980668Y-123484735D01*
X77980669Y-123484733D01*
X78096856Y-123317804D01*
X78177059Y-123130907D01*
X78218000Y-122931690D01*
X78218000Y-122530000D01*
X77518000Y-122530000D01*
X77518000Y-122030000D01*
X78218000Y-122030000D01*
X78218000Y-121679286D01*
X78202581Y-121527661D01*
X78141700Y-121333618D01*
X78141695Y-121333608D01*
X78042994Y-121155784D01*
X78042994Y-121155783D01*
X77910521Y-121001469D01*
X77910520Y-121001468D01*
X77749695Y-120876981D01*
X77567093Y-120787411D01*
X77468000Y-120761753D01*
X77468000Y-121563889D01*
X77443543Y-121524390D01*
X77354038Y-121456799D01*
X77246160Y-121426105D01*
X77134479Y-121436454D01*
X77034078Y-121486448D01*
X76968000Y-121558930D01*
X76968000Y-120756633D01*
X76966053Y-120756931D01*
X76966047Y-120756933D01*
X76775342Y-120827562D01*
X76775335Y-120827565D01*
X76602732Y-120935149D01*
X76455331Y-121075264D01*
X76455330Y-121075266D01*
X76339143Y-121242195D01*
X76258940Y-121429092D01*
X76218000Y-121628309D01*
X76218000Y-122149615D01*
X76198315Y-122216654D01*
X76145511Y-122262409D01*
X76076353Y-122272353D01*
X76046548Y-122264176D01*
X75938239Y-122219314D01*
X75938237Y-122219313D01*
X75938236Y-122219313D01*
X75918039Y-122216654D01*
X75825727Y-122204500D01*
X75825720Y-122204500D01*
X75750280Y-122204500D01*
X75750272Y-122204500D01*
X75637764Y-122219313D01*
X75637763Y-122219313D01*
X75497770Y-122277300D01*
X75497767Y-122277301D01*
X75497767Y-122277302D01*
X75415619Y-122340337D01*
X75377549Y-122369549D01*
X75285300Y-122489770D01*
X75227313Y-122629763D01*
X75227312Y-122629765D01*
X75207534Y-122779999D01*
X75207534Y-122780000D01*
X70588466Y-122780000D01*
X70568687Y-122629764D01*
X70510698Y-122489767D01*
X70418451Y-122369549D01*
X70298233Y-122277302D01*
X70298229Y-122277300D01*
X70209069Y-122240369D01*
X70158236Y-122219313D01*
X70138039Y-122216654D01*
X70045727Y-122204500D01*
X70045720Y-122204500D01*
X69970280Y-122204500D01*
X69970272Y-122204500D01*
X69857764Y-122219313D01*
X69857760Y-122219314D01*
X69749452Y-122264176D01*
X69679982Y-122271645D01*
X69617503Y-122240369D01*
X69581852Y-122180280D01*
X69578000Y-122149615D01*
X69578000Y-121679286D01*
X69562581Y-121527661D01*
X69501700Y-121333618D01*
X69501695Y-121333608D01*
X69402994Y-121155784D01*
X69402994Y-121155783D01*
X69270521Y-121001469D01*
X69270520Y-121001468D01*
X69109695Y-120876981D01*
X68927093Y-120787411D01*
X68828000Y-120761753D01*
X68828000Y-121563889D01*
X68803543Y-121524390D01*
X68714038Y-121456799D01*
X68606160Y-121426105D01*
X68494479Y-121436454D01*
X68394078Y-121486448D01*
X68328000Y-121558930D01*
X68328000Y-120756633D01*
X68326053Y-120756931D01*
X68326047Y-120756933D01*
X68135342Y-120827562D01*
X68135335Y-120827565D01*
X67962732Y-120935149D01*
X67815331Y-121075264D01*
X67815330Y-121075266D01*
X67699143Y-121242195D01*
X67618940Y-121429092D01*
X67578000Y-121628309D01*
X67578000Y-122030000D01*
X68278000Y-122030000D01*
X68278000Y-122530000D01*
X67578000Y-122530000D01*
X67578000Y-122880713D01*
X41615231Y-122880713D01*
X42905126Y-121590819D01*
X42966449Y-121557334D01*
X42992807Y-121554500D01*
X46059025Y-121554500D01*
X46126064Y-121574185D01*
X46131910Y-121578182D01*
X46283265Y-121688148D01*
X46283270Y-121688151D01*
X46456192Y-121765142D01*
X46456197Y-121765144D01*
X46641354Y-121804500D01*
X46641355Y-121804500D01*
X46830644Y-121804500D01*
X46830646Y-121804500D01*
X47015803Y-121765144D01*
X47188730Y-121688151D01*
X47341871Y-121576888D01*
X47468533Y-121436216D01*
X47563179Y-121272284D01*
X47621674Y-121092256D01*
X47641460Y-120904000D01*
X47621674Y-120715744D01*
X47563179Y-120535716D01*
X47468533Y-120371784D01*
X47341871Y-120231112D01*
X47340090Y-120229818D01*
X47188734Y-120119851D01*
X47188729Y-120119848D01*
X47015807Y-120042857D01*
X47015802Y-120042855D01*
X46884750Y-120015000D01*
X71230540Y-120015000D01*
X71250326Y-120203256D01*
X71250327Y-120203259D01*
X71308818Y-120383277D01*
X71308821Y-120383284D01*
X71403467Y-120547216D01*
X71530124Y-120687883D01*
X71530129Y-120687888D01*
X71683265Y-120799148D01*
X71683270Y-120799151D01*
X71856192Y-120876142D01*
X71856197Y-120876144D01*
X72041354Y-120915500D01*
X72041355Y-120915500D01*
X72230644Y-120915500D01*
X72230646Y-120915500D01*
X72415803Y-120876144D01*
X72588730Y-120799151D01*
X72741871Y-120687888D01*
X72741876Y-120687883D01*
X72791718Y-120632528D01*
X72851204Y-120595879D01*
X72883868Y-120591500D01*
X73420132Y-120591500D01*
X73487171Y-120611185D01*
X73512282Y-120632528D01*
X73562123Y-120687883D01*
X73562130Y-120687889D01*
X73715265Y-120799148D01*
X73715270Y-120799151D01*
X73888192Y-120876142D01*
X73888197Y-120876144D01*
X74073354Y-120915500D01*
X74073355Y-120915500D01*
X74262644Y-120915500D01*
X74262646Y-120915500D01*
X74447803Y-120876144D01*
X74620730Y-120799151D01*
X74773871Y-120687888D01*
X74900533Y-120547216D01*
X74995179Y-120383284D01*
X75053674Y-120203256D01*
X75073460Y-120015000D01*
X75053674Y-119826744D01*
X74995179Y-119646716D01*
X74900533Y-119482784D01*
X74773871Y-119342112D01*
X74773870Y-119342111D01*
X74651979Y-119253552D01*
X84300000Y-119253552D01*
X84300000Y-120746447D01*
X85046447Y-120000000D01*
X85046447Y-119999999D01*
X84300000Y-119253552D01*
X74651979Y-119253552D01*
X74620734Y-119230851D01*
X74620729Y-119230848D01*
X74447807Y-119153857D01*
X74447802Y-119153855D01*
X74302001Y-119122865D01*
X74262646Y-119114500D01*
X74073354Y-119114500D01*
X74040897Y-119121398D01*
X73888197Y-119153855D01*
X73888192Y-119153857D01*
X73715270Y-119230848D01*
X73715265Y-119230851D01*
X73562130Y-119342110D01*
X73562123Y-119342116D01*
X73512282Y-119397472D01*
X73452796Y-119434121D01*
X73420132Y-119438500D01*
X72883868Y-119438500D01*
X72816829Y-119418815D01*
X72791718Y-119397472D01*
X72741876Y-119342116D01*
X72741869Y-119342110D01*
X72588734Y-119230851D01*
X72588729Y-119230848D01*
X72415807Y-119153857D01*
X72415802Y-119153855D01*
X72270001Y-119122865D01*
X72230646Y-119114500D01*
X72041354Y-119114500D01*
X72008897Y-119121398D01*
X71856197Y-119153855D01*
X71856192Y-119153857D01*
X71683270Y-119230848D01*
X71683265Y-119230851D01*
X71530129Y-119342111D01*
X71403466Y-119482785D01*
X71308821Y-119646715D01*
X71308818Y-119646722D01*
X71265735Y-119779320D01*
X71250326Y-119826744D01*
X71230540Y-120015000D01*
X46884750Y-120015000D01*
X46870001Y-120011865D01*
X46830646Y-120003500D01*
X46641354Y-120003500D01*
X46608897Y-120010398D01*
X46456197Y-120042855D01*
X46456192Y-120042857D01*
X46283270Y-120119848D01*
X46283265Y-120119851D01*
X46131910Y-120229818D01*
X46066104Y-120253298D01*
X46059025Y-120253500D01*
X42757506Y-120253500D01*
X42741495Y-120251732D01*
X42741473Y-120251974D01*
X42733706Y-120251239D01*
X42663724Y-120253439D01*
X42659829Y-120253500D01*
X42631075Y-120253500D01*
X42631069Y-120253500D01*
X42631063Y-120253501D01*
X42626699Y-120254052D01*
X42615069Y-120254967D01*
X42569432Y-120256401D01*
X42569431Y-120256401D01*
X42549041Y-120262325D01*
X42529996Y-120266269D01*
X42508942Y-120268929D01*
X42466490Y-120285736D01*
X42455443Y-120289518D01*
X42411602Y-120302255D01*
X42411595Y-120302258D01*
X42393329Y-120313061D01*
X42375861Y-120321619D01*
X42356128Y-120329432D01*
X42319193Y-120356266D01*
X42309434Y-120362676D01*
X42270132Y-120385920D01*
X42255126Y-120400926D01*
X42240336Y-120413558D01*
X42223167Y-120426032D01*
X42223165Y-120426034D01*
X42194056Y-120461219D01*
X42186196Y-120469856D01*
X40538873Y-122117181D01*
X40477550Y-122150666D01*
X40451192Y-122153500D01*
X34974721Y-122153500D01*
X34907682Y-122133815D01*
X34873146Y-122100623D01*
X34755494Y-121932597D01*
X34588402Y-121765506D01*
X34588396Y-121765501D01*
X34402842Y-121635575D01*
X34359217Y-121580998D01*
X34352023Y-121511500D01*
X34383546Y-121449145D01*
X34402842Y-121432425D01*
X34511492Y-121356347D01*
X34588401Y-121302495D01*
X34755495Y-121135401D01*
X34891035Y-120941830D01*
X34990903Y-120727663D01*
X35052063Y-120499408D01*
X35072659Y-120264000D01*
X35072512Y-120262325D01*
X35060047Y-120119848D01*
X35052063Y-120028592D01*
X35032614Y-119956007D01*
X35034277Y-119886162D01*
X35064706Y-119836238D01*
X53337821Y-101563124D01*
X53399142Y-101529641D01*
X53468834Y-101534625D01*
X53524767Y-101576497D01*
X53549184Y-101641961D01*
X53549500Y-101650807D01*
X53549500Y-102279192D01*
X53529815Y-102346231D01*
X53513181Y-102366873D01*
X46712873Y-109167181D01*
X46651550Y-109200666D01*
X46625192Y-109203500D01*
X46605354Y-109203500D01*
X46572897Y-109210398D01*
X46420197Y-109242855D01*
X46420192Y-109242857D01*
X46247270Y-109319848D01*
X46247265Y-109319851D01*
X46094129Y-109431111D01*
X45967466Y-109571785D01*
X45872821Y-109735715D01*
X45872818Y-109735722D01*
X45829645Y-109868596D01*
X45814326Y-109915744D01*
X45794540Y-110104000D01*
X45814326Y-110292256D01*
X45814327Y-110292259D01*
X45872818Y-110472277D01*
X45872821Y-110472284D01*
X45967467Y-110636216D01*
X46066120Y-110745781D01*
X46094129Y-110776888D01*
X46247265Y-110888148D01*
X46247270Y-110888151D01*
X46420192Y-110965142D01*
X46420197Y-110965144D01*
X46605354Y-111004500D01*
X46605355Y-111004500D01*
X46794644Y-111004500D01*
X46794646Y-111004500D01*
X46979803Y-110965144D01*
X47152730Y-110888151D01*
X47305871Y-110776888D01*
X47432533Y-110636216D01*
X47527179Y-110472284D01*
X47585674Y-110292256D01*
X47599638Y-110159385D01*
X47626222Y-110094772D01*
X47635269Y-110084675D01*
X54587819Y-103132126D01*
X54649142Y-103098641D01*
X54718834Y-103103625D01*
X54774767Y-103145497D01*
X54799184Y-103210961D01*
X54799500Y-103219807D01*
X54799500Y-104250743D01*
X54814925Y-104402439D01*
X54875837Y-104596579D01*
X54875844Y-104596594D01*
X54974589Y-104774499D01*
X54974592Y-104774504D01*
X55107132Y-104928893D01*
X55107134Y-104928895D01*
X55268037Y-105053445D01*
X55268038Y-105053445D01*
X55268042Y-105053448D01*
X55450729Y-105143060D01*
X55647715Y-105194063D01*
X55850936Y-105204369D01*
X56052071Y-105173556D01*
X56182434Y-105125274D01*
X56252137Y-105120451D01*
X56313383Y-105154077D01*
X56346727Y-105215477D01*
X56349500Y-105241556D01*
X56349500Y-105342970D01*
X56329815Y-105410009D01*
X56313181Y-105430651D01*
X50031651Y-111712181D01*
X49970328Y-111745666D01*
X49943970Y-111748500D01*
X49816354Y-111748500D01*
X49783897Y-111755398D01*
X49631197Y-111787855D01*
X49631192Y-111787857D01*
X49458270Y-111864848D01*
X49458265Y-111864851D01*
X49305129Y-111976111D01*
X49178466Y-112116785D01*
X49083821Y-112280715D01*
X49083818Y-112280722D01*
X49033965Y-112434156D01*
X49025326Y-112460744D01*
X49005540Y-112649000D01*
X49025326Y-112837256D01*
X49025327Y-112837259D01*
X49083818Y-113017277D01*
X49083821Y-113017284D01*
X49178467Y-113181216D01*
X49305129Y-113321888D01*
X49458270Y-113433151D01*
X49482091Y-113443757D01*
X49535326Y-113489004D01*
X49555649Y-113555852D01*
X49536605Y-113623076D01*
X49519336Y-113644716D01*
X47837571Y-115326483D01*
X47776248Y-115359968D01*
X47749890Y-115362802D01*
X43052204Y-115362802D01*
X43036193Y-115361034D01*
X43036171Y-115361276D01*
X43028404Y-115360541D01*
X42958422Y-115362741D01*
X42954527Y-115362802D01*
X42925773Y-115362802D01*
X42925767Y-115362802D01*
X42925761Y-115362803D01*
X42921397Y-115363354D01*
X42909767Y-115364269D01*
X42864131Y-115365703D01*
X42849571Y-115369932D01*
X42843738Y-115371627D01*
X42824694Y-115375571D01*
X42803640Y-115378231D01*
X42803638Y-115378231D01*
X42761194Y-115395035D01*
X42750148Y-115398817D01*
X42706299Y-115411556D01*
X42688023Y-115422365D01*
X42670558Y-115430921D01*
X42650822Y-115438735D01*
X42613885Y-115465571D01*
X42604126Y-115471982D01*
X42564834Y-115495219D01*
X42549822Y-115510231D01*
X42535034Y-115522860D01*
X42517865Y-115535334D01*
X42517863Y-115535336D01*
X42488754Y-115570521D01*
X42480894Y-115579158D01*
X39946373Y-118113681D01*
X39885050Y-118147166D01*
X39858692Y-118150000D01*
X39834854Y-118150000D01*
X39802397Y-118156898D01*
X39649697Y-118189355D01*
X39649692Y-118189357D01*
X39476770Y-118266348D01*
X39476765Y-118266351D01*
X39323629Y-118377611D01*
X39196966Y-118518285D01*
X39102321Y-118682215D01*
X39102318Y-118682222D01*
X39049070Y-118846105D01*
X39043826Y-118862244D01*
X39024040Y-119050500D01*
X39043826Y-119238756D01*
X39043827Y-119238759D01*
X39102318Y-119418777D01*
X39102321Y-119418784D01*
X39196967Y-119582716D01*
X39323629Y-119723388D01*
X39476765Y-119834648D01*
X39476770Y-119834651D01*
X39649692Y-119911642D01*
X39649697Y-119911644D01*
X39834854Y-119951000D01*
X39834855Y-119951000D01*
X40024144Y-119951000D01*
X40024146Y-119951000D01*
X40209303Y-119911644D01*
X40382230Y-119834651D01*
X40535371Y-119723388D01*
X40662033Y-119582716D01*
X40756679Y-119418784D01*
X40815174Y-119238756D01*
X40828668Y-119110355D01*
X40855252Y-119045742D01*
X40864299Y-119035645D01*
X41241560Y-118658384D01*
X84411937Y-118658384D01*
X85100000Y-119346447D01*
X85100000Y-120653552D01*
X84414532Y-121339018D01*
X84414532Y-121339019D01*
X84470413Y-121447414D01*
X84600268Y-121612537D01*
X84600271Y-121612540D01*
X84759030Y-121750105D01*
X84759041Y-121750114D01*
X84940960Y-121855144D01*
X84940967Y-121855147D01*
X85139481Y-121923854D01*
X85139483Y-121923855D01*
X85347419Y-121953751D01*
X85347421Y-121953752D01*
X85557255Y-121943757D01*
X85761409Y-121894229D01*
X85952507Y-121806959D01*
X86123619Y-121685110D01*
X86123625Y-121685104D01*
X86268595Y-121533064D01*
X86382164Y-121356347D01*
X86388061Y-121341615D01*
X86388061Y-121341614D01*
X85700000Y-120653553D01*
X85700000Y-120000000D01*
X85753553Y-120000000D01*
X86499999Y-120746447D01*
X86500000Y-120746446D01*
X86500000Y-119253553D01*
X86499999Y-119253552D01*
X97100000Y-119253552D01*
X97100000Y-120746447D01*
X97846447Y-120000000D01*
X97846447Y-119999999D01*
X97100000Y-119253552D01*
X86499999Y-119253552D01*
X85753553Y-119999999D01*
X85753553Y-120000000D01*
X85700000Y-120000000D01*
X85700000Y-119346447D01*
X86385466Y-118660980D01*
X86385466Y-118660979D01*
X86384128Y-118658384D01*
X97211937Y-118658384D01*
X97900000Y-119346447D01*
X97900000Y-120653552D01*
X97214532Y-121339018D01*
X97214532Y-121339019D01*
X97270413Y-121447414D01*
X97400268Y-121612537D01*
X97400271Y-121612540D01*
X97559030Y-121750105D01*
X97559041Y-121750114D01*
X97740960Y-121855144D01*
X97740967Y-121855147D01*
X97939481Y-121923854D01*
X97939483Y-121923855D01*
X98147419Y-121953751D01*
X98147421Y-121953752D01*
X98357255Y-121943757D01*
X98561409Y-121894229D01*
X98752507Y-121806959D01*
X98923619Y-121685110D01*
X98923625Y-121685104D01*
X99068595Y-121533064D01*
X99182164Y-121356347D01*
X99188061Y-121341615D01*
X99188061Y-121341614D01*
X98500000Y-120653553D01*
X98500000Y-120000000D01*
X98553553Y-120000000D01*
X99299999Y-120746447D01*
X99300000Y-120746446D01*
X99300000Y-119253553D01*
X99299999Y-119253552D01*
X98553553Y-119999999D01*
X98553553Y-120000000D01*
X98500000Y-120000000D01*
X98500000Y-119346447D01*
X99185466Y-118660980D01*
X99185466Y-118660979D01*
X99129586Y-118552585D01*
X98999731Y-118387462D01*
X98999728Y-118387459D01*
X98840969Y-118249894D01*
X98840958Y-118249885D01*
X98659039Y-118144855D01*
X98659032Y-118144852D01*
X98460518Y-118076145D01*
X98460516Y-118076144D01*
X98252580Y-118046248D01*
X98252578Y-118046247D01*
X98042744Y-118056242D01*
X97838590Y-118105770D01*
X97647492Y-118193040D01*
X97476380Y-118314889D01*
X97476374Y-118314895D01*
X97331407Y-118466932D01*
X97217833Y-118643659D01*
X97217829Y-118643665D01*
X97211937Y-118658382D01*
X97211937Y-118658384D01*
X86384128Y-118658384D01*
X86329586Y-118552585D01*
X86199731Y-118387462D01*
X86199728Y-118387459D01*
X86040969Y-118249894D01*
X86040958Y-118249885D01*
X85859039Y-118144855D01*
X85859032Y-118144852D01*
X85660518Y-118076145D01*
X85660516Y-118076144D01*
X85452580Y-118046248D01*
X85452578Y-118046247D01*
X85242744Y-118056242D01*
X85038590Y-118105770D01*
X84847492Y-118193040D01*
X84676380Y-118314889D01*
X84676374Y-118314895D01*
X84531407Y-118466932D01*
X84417833Y-118643659D01*
X84417829Y-118643665D01*
X84411937Y-118658382D01*
X84411937Y-118658384D01*
X41241560Y-118658384D01*
X43199825Y-116700121D01*
X43261148Y-116666636D01*
X43287506Y-116663802D01*
X47985193Y-116663802D01*
X48001203Y-116665569D01*
X48001226Y-116665328D01*
X48008987Y-116666060D01*
X48008994Y-116666062D01*
X48078960Y-116663862D01*
X48082855Y-116663802D01*
X48111623Y-116663802D01*
X48115985Y-116663250D01*
X48127637Y-116662332D01*
X48173267Y-116660899D01*
X48193654Y-116654975D01*
X48212694Y-116651033D01*
X48233756Y-116648373D01*
X48276218Y-116631560D01*
X48287255Y-116627782D01*
X48331096Y-116615046D01*
X48349363Y-116604241D01*
X48366834Y-116595682D01*
X48386569Y-116587870D01*
X48423514Y-116561027D01*
X48433256Y-116554628D01*
X48472563Y-116531383D01*
X48487568Y-116516377D01*
X48502366Y-116503738D01*
X48519535Y-116491265D01*
X48548644Y-116456076D01*
X48556488Y-116447456D01*
X50603944Y-114400000D01*
X79794540Y-114400000D01*
X79814326Y-114588256D01*
X79814327Y-114588259D01*
X79872818Y-114768277D01*
X79872821Y-114768284D01*
X79967467Y-114932216D01*
X80073971Y-115050500D01*
X80094129Y-115072888D01*
X80247265Y-115184148D01*
X80247270Y-115184151D01*
X80420192Y-115261142D01*
X80420197Y-115261144D01*
X80605354Y-115300500D01*
X80605355Y-115300500D01*
X80794644Y-115300500D01*
X80794646Y-115300500D01*
X80979803Y-115261144D01*
X81152730Y-115184151D01*
X81304090Y-115074182D01*
X81369896Y-115050702D01*
X81376975Y-115050500D01*
X85423025Y-115050500D01*
X85490064Y-115070185D01*
X85495910Y-115074182D01*
X85647265Y-115184148D01*
X85647270Y-115184151D01*
X85820192Y-115261142D01*
X85820197Y-115261144D01*
X86005354Y-115300500D01*
X86005355Y-115300500D01*
X86194644Y-115300500D01*
X86194646Y-115300500D01*
X86379803Y-115261144D01*
X86552730Y-115184151D01*
X86704090Y-115074182D01*
X86769896Y-115050702D01*
X86776975Y-115050500D01*
X100223025Y-115050500D01*
X100290064Y-115070185D01*
X100295910Y-115074182D01*
X100447265Y-115184148D01*
X100447270Y-115184151D01*
X100620192Y-115261142D01*
X100620197Y-115261144D01*
X100805354Y-115300500D01*
X100805355Y-115300500D01*
X100994644Y-115300500D01*
X100994646Y-115300500D01*
X101179803Y-115261144D01*
X101352730Y-115184151D01*
X101505871Y-115072888D01*
X101632533Y-114932216D01*
X101727179Y-114768284D01*
X101785674Y-114588256D01*
X101805460Y-114400000D01*
X101785674Y-114211744D01*
X101727179Y-114031716D01*
X101632533Y-113867784D01*
X101505871Y-113727112D01*
X101504090Y-113725818D01*
X101352734Y-113615851D01*
X101352729Y-113615848D01*
X101179807Y-113538857D01*
X101179802Y-113538855D01*
X101034001Y-113507865D01*
X100994646Y-113499500D01*
X100805354Y-113499500D01*
X100772897Y-113506398D01*
X100620197Y-113538855D01*
X100620192Y-113538857D01*
X100447270Y-113615848D01*
X100447265Y-113615851D01*
X100295910Y-113725818D01*
X100230104Y-113749298D01*
X100223025Y-113749500D01*
X86776975Y-113749500D01*
X86709936Y-113729815D01*
X86704090Y-113725818D01*
X86552734Y-113615851D01*
X86552729Y-113615848D01*
X86379807Y-113538857D01*
X86379802Y-113538855D01*
X86234001Y-113507865D01*
X86194646Y-113499500D01*
X86005354Y-113499500D01*
X85972897Y-113506398D01*
X85820197Y-113538855D01*
X85820192Y-113538857D01*
X85647270Y-113615848D01*
X85647265Y-113615851D01*
X85495910Y-113725818D01*
X85430104Y-113749298D01*
X85423025Y-113749500D01*
X81376975Y-113749500D01*
X81309936Y-113729815D01*
X81304090Y-113725818D01*
X81152734Y-113615851D01*
X81152729Y-113615848D01*
X80979807Y-113538857D01*
X80979802Y-113538855D01*
X80834001Y-113507865D01*
X80794646Y-113499500D01*
X80605354Y-113499500D01*
X80572897Y-113506398D01*
X80420197Y-113538855D01*
X80420192Y-113538857D01*
X80247270Y-113615848D01*
X80247265Y-113615851D01*
X80094129Y-113727111D01*
X79967466Y-113867785D01*
X79872821Y-114031715D01*
X79872818Y-114031722D01*
X79835722Y-114145894D01*
X79814326Y-114211744D01*
X79794540Y-114400000D01*
X50603944Y-114400000D01*
X58199513Y-106804431D01*
X58212079Y-106794365D01*
X58211925Y-106794178D01*
X58217933Y-106789205D01*
X58217940Y-106789202D01*
X58241227Y-106764402D01*
X58265865Y-106738167D01*
X58268578Y-106735367D01*
X58288911Y-106715035D01*
X58291606Y-106711560D01*
X58299199Y-106702669D01*
X58308349Y-106692926D01*
X58330448Y-106669393D01*
X58340674Y-106650789D01*
X58351347Y-106634541D01*
X58364363Y-106617763D01*
X58382491Y-106575870D01*
X58387627Y-106565382D01*
X58409627Y-106525368D01*
X58414904Y-106504808D01*
X58421206Y-106486403D01*
X58429636Y-106466926D01*
X58436779Y-106421820D01*
X58439143Y-106410405D01*
X58450500Y-106366177D01*
X58450500Y-106344955D01*
X58452027Y-106325555D01*
X58453461Y-106316500D01*
X58455347Y-106304595D01*
X58451050Y-106259140D01*
X58450500Y-106247470D01*
X58450500Y-92421165D01*
X58470185Y-92354126D01*
X58522989Y-92308371D01*
X58592147Y-92298427D01*
X58655703Y-92327452D01*
X58662181Y-92333484D01*
X65564037Y-99235340D01*
X65597522Y-99296663D01*
X65599676Y-99335978D01*
X65584540Y-99480000D01*
X65604326Y-99668256D01*
X65604327Y-99668259D01*
X65662818Y-99848277D01*
X65662821Y-99848284D01*
X65757467Y-100012216D01*
X65837867Y-100101509D01*
X65884129Y-100152888D01*
X66037265Y-100264148D01*
X66037270Y-100264151D01*
X66210192Y-100341142D01*
X66210197Y-100341144D01*
X66395354Y-100380500D01*
X66395355Y-100380500D01*
X66584645Y-100380500D01*
X66584646Y-100380500D01*
X66599719Y-100377296D01*
X66669385Y-100382612D01*
X66725119Y-100424748D01*
X66749225Y-100490328D01*
X66749500Y-100498586D01*
X66749500Y-106939170D01*
X66729815Y-107006209D01*
X66717652Y-107022140D01*
X66704468Y-107036782D01*
X66704464Y-107036787D01*
X66609821Y-107200715D01*
X66609818Y-107200722D01*
X66559965Y-107354156D01*
X66551326Y-107380744D01*
X66531540Y-107569000D01*
X66551326Y-107757256D01*
X66551327Y-107757259D01*
X66609818Y-107937277D01*
X66609821Y-107937284D01*
X66704467Y-108101216D01*
X66798618Y-108205781D01*
X66831129Y-108241888D01*
X66984265Y-108353148D01*
X66984270Y-108353151D01*
X67157192Y-108430142D01*
X67157197Y-108430144D01*
X67342354Y-108469500D01*
X67342355Y-108469500D01*
X67531644Y-108469500D01*
X67531646Y-108469500D01*
X67716803Y-108430144D01*
X67889730Y-108353151D01*
X68042871Y-108241888D01*
X68169533Y-108101216D01*
X68264179Y-107937284D01*
X68322674Y-107757256D01*
X68342460Y-107569000D01*
X68322674Y-107380744D01*
X68264179Y-107200716D01*
X68224216Y-107131499D01*
X68207744Y-107063600D01*
X68230597Y-106997573D01*
X68285518Y-106954382D01*
X68331604Y-106945500D01*
X68420644Y-106945500D01*
X68420646Y-106945500D01*
X68605803Y-106906144D01*
X68778730Y-106829151D01*
X68931871Y-106717888D01*
X69058533Y-106577216D01*
X69153179Y-106413284D01*
X69211674Y-106233256D01*
X69231460Y-106045000D01*
X69211674Y-105856744D01*
X69153179Y-105676716D01*
X69067113Y-105527645D01*
X69050500Y-105465645D01*
X69050500Y-97536001D01*
X69622390Y-97536001D01*
X69642804Y-97821433D01*
X69703628Y-98101037D01*
X69703630Y-98101043D01*
X69703631Y-98101046D01*
X69803633Y-98369161D01*
X69803635Y-98369166D01*
X69940770Y-98620309D01*
X69940775Y-98620317D01*
X70112254Y-98849387D01*
X70112270Y-98849405D01*
X70314594Y-99051729D01*
X70314612Y-99051745D01*
X70543682Y-99223224D01*
X70543690Y-99223229D01*
X70794833Y-99360364D01*
X70794832Y-99360364D01*
X70794836Y-99360365D01*
X70794839Y-99360367D01*
X71062954Y-99460369D01*
X71062960Y-99460370D01*
X71062962Y-99460371D01*
X71342566Y-99521195D01*
X71342568Y-99521195D01*
X71342572Y-99521196D01*
X71596220Y-99539337D01*
X71627999Y-99541610D01*
X71628000Y-99541610D01*
X71628001Y-99541610D01*
X71656595Y-99539564D01*
X71913428Y-99521196D01*
X72102804Y-99480000D01*
X72193037Y-99460371D01*
X72193037Y-99460370D01*
X72193046Y-99460369D01*
X72461161Y-99360367D01*
X72712315Y-99223226D01*
X72941395Y-99051739D01*
X73143739Y-98849395D01*
X73315226Y-98620315D01*
X73452367Y-98369161D01*
X73552369Y-98101046D01*
X73556574Y-98081715D01*
X73613195Y-97821433D01*
X73613195Y-97821432D01*
X73613196Y-97821428D01*
X73631577Y-97564430D01*
X73633610Y-97536001D01*
X73633610Y-97535998D01*
X73629519Y-97478808D01*
X73613196Y-97250572D01*
X73589883Y-97143405D01*
X73552371Y-96970962D01*
X73552370Y-96970960D01*
X73552369Y-96970954D01*
X73452367Y-96702839D01*
X73447646Y-96694194D01*
X73315229Y-96451690D01*
X73315224Y-96451682D01*
X73143745Y-96222612D01*
X73143729Y-96222594D01*
X72941405Y-96020270D01*
X72941387Y-96020254D01*
X72712317Y-95848775D01*
X72712309Y-95848770D01*
X72461166Y-95711635D01*
X72461167Y-95711635D01*
X72304019Y-95653022D01*
X72193046Y-95611631D01*
X72193043Y-95611630D01*
X72193037Y-95611628D01*
X71913433Y-95550804D01*
X71628001Y-95530390D01*
X71627999Y-95530390D01*
X71342566Y-95550804D01*
X71062962Y-95611628D01*
X70794833Y-95711635D01*
X70543690Y-95848770D01*
X70543682Y-95848775D01*
X70314612Y-96020254D01*
X70314594Y-96020270D01*
X70112270Y-96222594D01*
X70112254Y-96222612D01*
X69940775Y-96451682D01*
X69940770Y-96451690D01*
X69803635Y-96702833D01*
X69703628Y-96970962D01*
X69642804Y-97250566D01*
X69622390Y-97535998D01*
X69622390Y-97536001D01*
X69050500Y-97536001D01*
X69050500Y-95985501D01*
X69052268Y-95969488D01*
X69052026Y-95969466D01*
X69052758Y-95961710D01*
X69052760Y-95961703D01*
X69050561Y-95891735D01*
X69050500Y-95887840D01*
X69050500Y-95859077D01*
X69050499Y-95859070D01*
X69049949Y-95854716D01*
X69049030Y-95843054D01*
X69048716Y-95833050D01*
X69047597Y-95797430D01*
X69041676Y-95777052D01*
X69037731Y-95758003D01*
X69035071Y-95736942D01*
X69018261Y-95694487D01*
X69014481Y-95683445D01*
X69001744Y-95639601D01*
X68990939Y-95621332D01*
X68982379Y-95603858D01*
X68981351Y-95601262D01*
X68974568Y-95584129D01*
X68947737Y-95547199D01*
X68941323Y-95537435D01*
X68918082Y-95498137D01*
X68918081Y-95498135D01*
X68903075Y-95483129D01*
X68890435Y-95468330D01*
X68877961Y-95451160D01*
X68842780Y-95422056D01*
X68834140Y-95414194D01*
X63386819Y-89966873D01*
X63353334Y-89905550D01*
X63350500Y-89879192D01*
X63350500Y-85615505D01*
X71902965Y-85615505D01*
X71922751Y-85803761D01*
X71922752Y-85803764D01*
X71981243Y-85983782D01*
X71981246Y-85983789D01*
X72075889Y-86147717D01*
X72075890Y-86147719D01*
X72075892Y-86147721D01*
X72200076Y-86285641D01*
X72230305Y-86348630D01*
X72231925Y-86368611D01*
X72231925Y-88262509D01*
X72230864Y-88278694D01*
X72226950Y-88308423D01*
X72226950Y-88308428D01*
X72231393Y-88342181D01*
X72231395Y-88342189D01*
X72246762Y-88458920D01*
X72246764Y-88458925D01*
X72249794Y-88466239D01*
X72287838Y-88558087D01*
X72304853Y-88599163D01*
X72334444Y-88637726D01*
X72397260Y-88719590D01*
X72421052Y-88737846D01*
X72433247Y-88748541D01*
X77346015Y-93661309D01*
X77379500Y-93722632D01*
X77374516Y-93792324D01*
X77332644Y-93848257D01*
X77267180Y-93872674D01*
X77231977Y-93870156D01*
X77115437Y-93844805D01*
X77115433Y-93844804D01*
X76830001Y-93824390D01*
X76829999Y-93824390D01*
X76544566Y-93844804D01*
X76264962Y-93905628D01*
X75996833Y-94005635D01*
X75745690Y-94142770D01*
X75745682Y-94142775D01*
X75516612Y-94314254D01*
X75516594Y-94314270D01*
X75314270Y-94516594D01*
X75314254Y-94516612D01*
X75142775Y-94745682D01*
X75142770Y-94745690D01*
X75005635Y-94996833D01*
X74905628Y-95264962D01*
X74844804Y-95544566D01*
X74824390Y-95829998D01*
X74824390Y-95830001D01*
X74844804Y-96115433D01*
X74905628Y-96395037D01*
X74905630Y-96395043D01*
X74905631Y-96395046D01*
X74999605Y-96646999D01*
X75005635Y-96663166D01*
X75142770Y-96914309D01*
X75142775Y-96914317D01*
X75314254Y-97143387D01*
X75314270Y-97143405D01*
X75516594Y-97345729D01*
X75516612Y-97345745D01*
X75745682Y-97517224D01*
X75745690Y-97517229D01*
X75996833Y-97654364D01*
X75996832Y-97654364D01*
X75996836Y-97654365D01*
X75996839Y-97654367D01*
X76264954Y-97754369D01*
X76264960Y-97754370D01*
X76264962Y-97754371D01*
X76544566Y-97815195D01*
X76544568Y-97815195D01*
X76544572Y-97815196D01*
X76798220Y-97833337D01*
X76829999Y-97835610D01*
X76830000Y-97835610D01*
X76830001Y-97835610D01*
X76858595Y-97833564D01*
X77115428Y-97815196D01*
X77225539Y-97791243D01*
X77395037Y-97754371D01*
X77395037Y-97754370D01*
X77395046Y-97754369D01*
X77663161Y-97654367D01*
X77914315Y-97517226D01*
X78143395Y-97345739D01*
X78345739Y-97143395D01*
X78517226Y-96914315D01*
X78654367Y-96663161D01*
X78754369Y-96395046D01*
X78794718Y-96209565D01*
X78815195Y-96115433D01*
X78815195Y-96115432D01*
X78815196Y-96115428D01*
X78835610Y-95830000D01*
X78815196Y-95544572D01*
X78813643Y-95537435D01*
X78754371Y-95264962D01*
X78754370Y-95264960D01*
X78754369Y-95264954D01*
X78654367Y-94996839D01*
X78649502Y-94987930D01*
X78517229Y-94745690D01*
X78517228Y-94745689D01*
X78517226Y-94745685D01*
X78459677Y-94668808D01*
X78435261Y-94603346D01*
X78450113Y-94535073D01*
X78499518Y-94485668D01*
X78558945Y-94470500D01*
X113285360Y-94470500D01*
X113352399Y-94490185D01*
X113398154Y-94542989D01*
X113408680Y-94607458D01*
X113394540Y-94742000D01*
X113414326Y-94930256D01*
X113414327Y-94930259D01*
X113472818Y-95110277D01*
X113472821Y-95110284D01*
X113567464Y-95274212D01*
X113567465Y-95274214D01*
X113567467Y-95274216D01*
X113691651Y-95412136D01*
X113721880Y-95475125D01*
X113723500Y-95495106D01*
X113723500Y-96356844D01*
X113703815Y-96423883D01*
X113687181Y-96444525D01*
X113532525Y-96599181D01*
X113471202Y-96632666D01*
X113444844Y-96635500D01*
X113316354Y-96635500D01*
X113302626Y-96638418D01*
X113131197Y-96674855D01*
X113131192Y-96674857D01*
X112958270Y-96751848D01*
X112958265Y-96751851D01*
X112805129Y-96863111D01*
X112678466Y-97003785D01*
X112583821Y-97167715D01*
X112583818Y-97167722D01*
X112525327Y-97347740D01*
X112525326Y-97347744D01*
X112505540Y-97536000D01*
X112525326Y-97724256D01*
X112525327Y-97724259D01*
X112583818Y-97904277D01*
X112583821Y-97904284D01*
X112678465Y-98068213D01*
X112678465Y-98068214D01*
X112805129Y-98208888D01*
X112958265Y-98320148D01*
X112958270Y-98320151D01*
X113131192Y-98397142D01*
X113131197Y-98397144D01*
X113316354Y-98436500D01*
X113316355Y-98436500D01*
X113505644Y-98436500D01*
X113505646Y-98436500D01*
X113690803Y-98397144D01*
X113863730Y-98320151D01*
X114016871Y-98208888D01*
X114143533Y-98068216D01*
X114238179Y-97904284D01*
X114296674Y-97724256D01*
X114316460Y-97536000D01*
X114314066Y-97513227D01*
X114326635Y-97444500D01*
X114349703Y-97412589D01*
X114675186Y-97087106D01*
X114687364Y-97076427D01*
X114711165Y-97058165D01*
X114752893Y-97003784D01*
X114803573Y-96937737D01*
X114840020Y-96849744D01*
X114861662Y-96797497D01*
X114876500Y-96684789D01*
X114876500Y-96684787D01*
X114881475Y-96647000D01*
X114877561Y-96617269D01*
X114876500Y-96601084D01*
X114876500Y-95495106D01*
X114896185Y-95428067D01*
X114908340Y-95412144D01*
X115032533Y-95274216D01*
X115127179Y-95110284D01*
X115185674Y-94930256D01*
X115205460Y-94742000D01*
X115191319Y-94607459D01*
X115203888Y-94538732D01*
X115251620Y-94487708D01*
X115314640Y-94470500D01*
X117328094Y-94470500D01*
X117344280Y-94471561D01*
X117374008Y-94475475D01*
X117374009Y-94475475D01*
X117411797Y-94470500D01*
X117411798Y-94470500D01*
X117524506Y-94455662D01*
X117630933Y-94411578D01*
X117664747Y-94397572D01*
X117754935Y-94328368D01*
X117793384Y-94298865D01*
X117799089Y-94287029D01*
X117803442Y-94281356D01*
X117814115Y-94269186D01*
X118358186Y-93725115D01*
X118370364Y-93714436D01*
X118394165Y-93696174D01*
X118440540Y-93635737D01*
X118486572Y-93575747D01*
X118504172Y-93533256D01*
X118544662Y-93435506D01*
X118559500Y-93322798D01*
X118559500Y-93322796D01*
X118564475Y-93285009D01*
X118560561Y-93255278D01*
X118559500Y-93239093D01*
X118559500Y-93082106D01*
X118579185Y-93015067D01*
X118591345Y-92999139D01*
X118688456Y-92891287D01*
X118747941Y-92854640D01*
X118817798Y-92855971D01*
X118868285Y-92886580D01*
X119106181Y-93124475D01*
X119139666Y-93185798D01*
X119142500Y-93212156D01*
X119142500Y-96187843D01*
X119122815Y-96254882D01*
X119106181Y-96275524D01*
X113524823Y-101856881D01*
X113512632Y-101867573D01*
X113488834Y-101885834D01*
X113465632Y-101916073D01*
X113465632Y-101916074D01*
X113396147Y-102006628D01*
X113394870Y-102010021D01*
X113338339Y-102146499D01*
X113338337Y-102146504D01*
X113327092Y-102231928D01*
X113327092Y-102231929D01*
X113318525Y-102296999D01*
X113322439Y-102326729D01*
X113323500Y-102342915D01*
X113323500Y-105888893D01*
X113303815Y-105955932D01*
X113291650Y-105971865D01*
X113167466Y-106109785D01*
X113072821Y-106273715D01*
X113072818Y-106273722D01*
X113014327Y-106453740D01*
X113014326Y-106453744D01*
X112994540Y-106642000D01*
X113014326Y-106830256D01*
X113014327Y-106830259D01*
X113072818Y-107010277D01*
X113072821Y-107010284D01*
X113167467Y-107174216D01*
X113293329Y-107313999D01*
X113294129Y-107314888D01*
X113447265Y-107426148D01*
X113447270Y-107426151D01*
X113620192Y-107503142D01*
X113620197Y-107503144D01*
X113805354Y-107542500D01*
X113805355Y-107542500D01*
X113994644Y-107542500D01*
X113994646Y-107542500D01*
X114179803Y-107503144D01*
X114352730Y-107426151D01*
X114505871Y-107314888D01*
X114632533Y-107174216D01*
X114727179Y-107010284D01*
X114785674Y-106830256D01*
X114805460Y-106642000D01*
X114785674Y-106453744D01*
X114727179Y-106273716D01*
X114632533Y-106109784D01*
X114508350Y-105971865D01*
X114478120Y-105908874D01*
X114476500Y-105888893D01*
X114476500Y-102587155D01*
X114496185Y-102520116D01*
X114512814Y-102499479D01*
X120094186Y-96918106D01*
X120106364Y-96907427D01*
X120130165Y-96889165D01*
X120166183Y-96842225D01*
X120222573Y-96768737D01*
X120225713Y-96761156D01*
X120257345Y-96684790D01*
X120266304Y-96663161D01*
X120280662Y-96628497D01*
X120295500Y-96515789D01*
X120295500Y-96515787D01*
X120300475Y-96478000D01*
X120296561Y-96448269D01*
X120295500Y-96432084D01*
X120295500Y-92967914D01*
X120296561Y-92951728D01*
X120300475Y-92922000D01*
X120295500Y-92884212D01*
X120295500Y-92884211D01*
X120286097Y-92812784D01*
X120280662Y-92771503D01*
X120228055Y-92644500D01*
X120222572Y-92631262D01*
X120218095Y-92625428D01*
X120150902Y-92537859D01*
X120150883Y-92537836D01*
X120130165Y-92510834D01*
X120106371Y-92492576D01*
X120094177Y-92481882D01*
X117524819Y-89912524D01*
X117491334Y-89851201D01*
X117488500Y-89824843D01*
X117488500Y-87973106D01*
X117508185Y-87906067D01*
X117520340Y-87890144D01*
X117644533Y-87752216D01*
X117739179Y-87588284D01*
X117797674Y-87408256D01*
X117811202Y-87279536D01*
X117837787Y-87214924D01*
X117895084Y-87174939D01*
X117934523Y-87168500D01*
X121607376Y-87168500D01*
X121674415Y-87188185D01*
X121720170Y-87240989D01*
X121730696Y-87305458D01*
X121716556Y-87440000D01*
X121736342Y-87628256D01*
X121736343Y-87628259D01*
X121794834Y-87808277D01*
X121794837Y-87808284D01*
X121889480Y-87972212D01*
X121889481Y-87972214D01*
X121889483Y-87972216D01*
X121991651Y-88085685D01*
X122021880Y-88148674D01*
X122023500Y-88168655D01*
X122023500Y-97662084D01*
X122022439Y-97678269D01*
X122018525Y-97707998D01*
X122018525Y-97708003D01*
X122022968Y-97741756D01*
X122022970Y-97741764D01*
X122038337Y-97858495D01*
X122038338Y-97858497D01*
X122075066Y-97947165D01*
X122075066Y-97947166D01*
X122096426Y-97998735D01*
X122096427Y-97998737D01*
X122096428Y-97998738D01*
X122149741Y-98068216D01*
X122188835Y-98119165D01*
X122212627Y-98137421D01*
X122224822Y-98148116D01*
X124243058Y-100166352D01*
X124276543Y-100227675D01*
X124278698Y-100266992D01*
X124276305Y-100289765D01*
X124296091Y-100478021D01*
X124296092Y-100478024D01*
X124354583Y-100658042D01*
X124354586Y-100658049D01*
X124449232Y-100821981D01*
X124561434Y-100946594D01*
X124575894Y-100962653D01*
X124729030Y-101073913D01*
X124729035Y-101073916D01*
X124901957Y-101150907D01*
X124901962Y-101150909D01*
X125087119Y-101190265D01*
X125087120Y-101190265D01*
X125276409Y-101190265D01*
X125276411Y-101190265D01*
X125461568Y-101150909D01*
X125634495Y-101073916D01*
X125787636Y-100962653D01*
X125914298Y-100821981D01*
X126008944Y-100658049D01*
X126067439Y-100478021D01*
X126087225Y-100289765D01*
X126067439Y-100101509D01*
X126008944Y-99921481D01*
X125978088Y-99868038D01*
X125961616Y-99800139D01*
X125984469Y-99734112D01*
X126012589Y-99705722D01*
X126036983Y-99688000D01*
X126163645Y-99547328D01*
X126258291Y-99383396D01*
X126316786Y-99203368D01*
X126336572Y-99015112D01*
X126316786Y-98826856D01*
X126258291Y-98646828D01*
X126194169Y-98535765D01*
X126160396Y-98477268D01*
X126162437Y-98476089D01*
X126142555Y-98420406D01*
X126158364Y-98352349D01*
X126208458Y-98303642D01*
X126240565Y-98292009D01*
X126277762Y-98284103D01*
X126450689Y-98207110D01*
X126603830Y-98095847D01*
X126730492Y-97955175D01*
X126825138Y-97791243D01*
X126883633Y-97611215D01*
X126903419Y-97422959D01*
X126883633Y-97234703D01*
X126825138Y-97054675D01*
X126779696Y-96975967D01*
X126763224Y-96908070D01*
X126786076Y-96842043D01*
X126821916Y-96809466D01*
X126821779Y-96809277D01*
X126823504Y-96808023D01*
X126825098Y-96806575D01*
X126827028Y-96805460D01*
X126827036Y-96805457D01*
X126980177Y-96694194D01*
X127106839Y-96553522D01*
X127201485Y-96389590D01*
X127259980Y-96209562D01*
X127279766Y-96021306D01*
X127259980Y-95833050D01*
X127201485Y-95653022D01*
X127156043Y-95574314D01*
X127139571Y-95506417D01*
X127162423Y-95440390D01*
X127198263Y-95407813D01*
X127198126Y-95407624D01*
X127199851Y-95406370D01*
X127201445Y-95404922D01*
X127203375Y-95403807D01*
X127203383Y-95403804D01*
X127356524Y-95292541D01*
X127483186Y-95151869D01*
X127577832Y-94987937D01*
X127636327Y-94807909D01*
X127656113Y-94619653D01*
X127636327Y-94431397D01*
X127577832Y-94251369D01*
X127546976Y-94197926D01*
X127530504Y-94130027D01*
X127553357Y-94064000D01*
X127581477Y-94035610D01*
X127605871Y-94017888D01*
X127732533Y-93877216D01*
X127827179Y-93713284D01*
X127885674Y-93533256D01*
X127905460Y-93345000D01*
X127885674Y-93156744D01*
X127827179Y-92976716D01*
X127732533Y-92812784D01*
X127608350Y-92674865D01*
X127578120Y-92611874D01*
X127576500Y-92591893D01*
X127576500Y-92120914D01*
X127577561Y-92104728D01*
X127581475Y-92075000D01*
X127581475Y-92074999D01*
X127574488Y-92021930D01*
X127574488Y-92021929D01*
X127561662Y-91924504D01*
X127561662Y-91924503D01*
X127524715Y-91835307D01*
X127515956Y-91774898D01*
X127524460Y-91694000D01*
X127504674Y-91505744D01*
X127446179Y-91325716D01*
X127351533Y-91161784D01*
X127224871Y-91021112D01*
X127224870Y-91021111D01*
X127071734Y-90909851D01*
X127071729Y-90909848D01*
X126898807Y-90832857D01*
X126898802Y-90832855D01*
X126753001Y-90801865D01*
X126713646Y-90793500D01*
X126524354Y-90793500D01*
X126491897Y-90800398D01*
X126339197Y-90832855D01*
X126339192Y-90832857D01*
X126166270Y-90909848D01*
X126166265Y-90909851D01*
X126039887Y-91001670D01*
X125974080Y-91025150D01*
X125906027Y-91009324D01*
X125859615Y-90963352D01*
X125827533Y-90907784D01*
X125700871Y-90767112D01*
X125700870Y-90767111D01*
X125547734Y-90655851D01*
X125547729Y-90655848D01*
X125374807Y-90578857D01*
X125374803Y-90578856D01*
X125357863Y-90575255D01*
X125296381Y-90542062D01*
X125262605Y-90480898D01*
X125260324Y-90441009D01*
X125275460Y-90297000D01*
X125255674Y-90108744D01*
X125197179Y-89928716D01*
X125102533Y-89764784D01*
X124975871Y-89624112D01*
X124956314Y-89609903D01*
X124822734Y-89512851D01*
X124822729Y-89512848D01*
X124649807Y-89435857D01*
X124649802Y-89435855D01*
X124504001Y-89404865D01*
X124464646Y-89396500D01*
X124275354Y-89396500D01*
X124242897Y-89403398D01*
X124090197Y-89435855D01*
X124090192Y-89435857D01*
X123917270Y-89512848D01*
X123917265Y-89512851D01*
X123764129Y-89624111D01*
X123637466Y-89764785D01*
X123542821Y-89928715D01*
X123542818Y-89928722D01*
X123501512Y-90055851D01*
X123484326Y-90108744D01*
X123474960Y-90197856D01*
X123464540Y-90297000D01*
X123479674Y-90441005D01*
X123467104Y-90509735D01*
X123419371Y-90560758D01*
X123382138Y-90575255D01*
X123365192Y-90578857D01*
X123350932Y-90585206D01*
X123281682Y-90594489D01*
X123218406Y-90564858D01*
X123181195Y-90505722D01*
X123176500Y-90471925D01*
X123176500Y-88213403D01*
X123196185Y-88146364D01*
X123223369Y-88117583D01*
X123223057Y-88117237D01*
X123227335Y-88113384D01*
X123227624Y-88113078D01*
X123227887Y-88112888D01*
X123354549Y-87972216D01*
X123449195Y-87808284D01*
X123507690Y-87628256D01*
X123523083Y-87481794D01*
X123549666Y-87417183D01*
X123595964Y-87381481D01*
X123724730Y-87324151D01*
X123786135Y-87279538D01*
X123821035Y-87254182D01*
X123886841Y-87230702D01*
X123893920Y-87230500D01*
X126760754Y-87230500D01*
X126827793Y-87250185D01*
X126852901Y-87271525D01*
X126854125Y-87272884D01*
X126854130Y-87272889D01*
X127007265Y-87384148D01*
X127007270Y-87384151D01*
X127180192Y-87461142D01*
X127180197Y-87461144D01*
X127365354Y-87500500D01*
X127365355Y-87500500D01*
X127554644Y-87500500D01*
X127554646Y-87500500D01*
X127739803Y-87461144D01*
X127912730Y-87384151D01*
X128065871Y-87272888D01*
X128192533Y-87132216D01*
X128287179Y-86968284D01*
X128345674Y-86788256D01*
X128365460Y-86600000D01*
X128345674Y-86411744D01*
X128287179Y-86231716D01*
X128192533Y-86067784D01*
X128065871Y-85927112D01*
X128065870Y-85927111D01*
X127912734Y-85815851D01*
X127912729Y-85815848D01*
X127739807Y-85738857D01*
X127739802Y-85738855D01*
X127594001Y-85707865D01*
X127554646Y-85699500D01*
X127365354Y-85699500D01*
X127332897Y-85706398D01*
X127180197Y-85738855D01*
X127180192Y-85738857D01*
X127007270Y-85815848D01*
X127007265Y-85815851D01*
X126883437Y-85905818D01*
X126817631Y-85929298D01*
X126810552Y-85929500D01*
X123989254Y-85929500D01*
X123922215Y-85909815D01*
X123897105Y-85888473D01*
X123877871Y-85867112D01*
X123877864Y-85867106D01*
X123724734Y-85755851D01*
X123724729Y-85755848D01*
X123551807Y-85678857D01*
X123551802Y-85678855D01*
X123406001Y-85647865D01*
X123366646Y-85639500D01*
X123177354Y-85639500D01*
X123144897Y-85646398D01*
X122992197Y-85678855D01*
X122992192Y-85678857D01*
X122819271Y-85755848D01*
X122724241Y-85824891D01*
X122658434Y-85848370D01*
X122639577Y-85846852D01*
X122639472Y-85847974D01*
X122631705Y-85847240D01*
X122631704Y-85847240D01*
X122595751Y-85848370D01*
X122561738Y-85849439D01*
X122557843Y-85849500D01*
X122529075Y-85849500D01*
X122529072Y-85849500D01*
X122529057Y-85849501D01*
X122524687Y-85850053D01*
X122513059Y-85850968D01*
X122467435Y-85852402D01*
X122467425Y-85852404D01*
X122447049Y-85858323D01*
X122428009Y-85862266D01*
X122399208Y-85865906D01*
X122399124Y-85865244D01*
X122381264Y-85867500D01*
X116697505Y-85867500D01*
X116681494Y-85865732D01*
X116681472Y-85865974D01*
X116673705Y-85865240D01*
X116673704Y-85865240D01*
X116643637Y-85866185D01*
X116603738Y-85867439D01*
X116599843Y-85867500D01*
X116571075Y-85867500D01*
X116571072Y-85867500D01*
X116571057Y-85867501D01*
X116566687Y-85868053D01*
X116555059Y-85868968D01*
X116509435Y-85870402D01*
X116509425Y-85870404D01*
X116489049Y-85876323D01*
X116470008Y-85880266D01*
X116448953Y-85882926D01*
X116448937Y-85882930D01*
X116406486Y-85899737D01*
X116395440Y-85903519D01*
X116351599Y-85916256D01*
X116333327Y-85927062D01*
X116315861Y-85935619D01*
X116296128Y-85943432D01*
X116259193Y-85970266D01*
X116249434Y-85976676D01*
X116210132Y-85999920D01*
X116195126Y-86014926D01*
X116180336Y-86027558D01*
X116163167Y-86040032D01*
X116163165Y-86040034D01*
X116134056Y-86075219D01*
X116126196Y-86083856D01*
X115810483Y-86399569D01*
X115797910Y-86409643D01*
X115798065Y-86409830D01*
X115792058Y-86414799D01*
X115744133Y-86465833D01*
X115741427Y-86468625D01*
X115721090Y-86488963D01*
X115721077Y-86488978D01*
X115718373Y-86492463D01*
X115710806Y-86501322D01*
X115679552Y-86534607D01*
X115669322Y-86553213D01*
X115658646Y-86569464D01*
X115645640Y-86586232D01*
X115645636Y-86586238D01*
X115627508Y-86628130D01*
X115622369Y-86638619D01*
X115600372Y-86678630D01*
X115600372Y-86678631D01*
X115595091Y-86699199D01*
X115588791Y-86717601D01*
X115580364Y-86737073D01*
X115573223Y-86782162D01*
X115570854Y-86793600D01*
X115559500Y-86837817D01*
X115559500Y-86859044D01*
X115557973Y-86878444D01*
X115554653Y-86899403D01*
X115558950Y-86944858D01*
X115559500Y-86956528D01*
X115559500Y-89291969D01*
X115539815Y-89359008D01*
X115523181Y-89379650D01*
X114751756Y-90151074D01*
X114690433Y-90184559D01*
X114620741Y-90179575D01*
X114591190Y-90163711D01*
X114442734Y-90055851D01*
X114442729Y-90055848D01*
X114269807Y-89978857D01*
X114269802Y-89978855D01*
X114124001Y-89947865D01*
X114084646Y-89939500D01*
X113895354Y-89939500D01*
X113862897Y-89946398D01*
X113710197Y-89978855D01*
X113710192Y-89978857D01*
X113537270Y-90055848D01*
X113537265Y-90055851D01*
X113384129Y-90167111D01*
X113257466Y-90307785D01*
X113162821Y-90471715D01*
X113162818Y-90471722D01*
X113122929Y-90594489D01*
X113104326Y-90651744D01*
X113092201Y-90767111D01*
X113084540Y-90840000D01*
X113086933Y-90862770D01*
X113074363Y-90931500D01*
X113051293Y-90963411D01*
X112767523Y-91247182D01*
X112706203Y-91280666D01*
X112679844Y-91283500D01*
X112525580Y-91283500D01*
X112458541Y-91263815D01*
X112412786Y-91211011D01*
X112402259Y-91146540D01*
X112411460Y-91059000D01*
X112391674Y-90870744D01*
X112333179Y-90690716D01*
X112238533Y-90526784D01*
X112111871Y-90386112D01*
X112111870Y-90386111D01*
X111958734Y-90274851D01*
X111958729Y-90274848D01*
X111785807Y-90197857D01*
X111785802Y-90197855D01*
X111625162Y-90163711D01*
X111600646Y-90158500D01*
X111411354Y-90158500D01*
X111386838Y-90163711D01*
X111226197Y-90197855D01*
X111226192Y-90197857D01*
X111053270Y-90274848D01*
X111053265Y-90274851D01*
X110900130Y-90386110D01*
X110900123Y-90386116D01*
X110850282Y-90441472D01*
X110790796Y-90478121D01*
X110758132Y-90482500D01*
X95540156Y-90482500D01*
X95473117Y-90462815D01*
X95452475Y-90446181D01*
X91544819Y-86538525D01*
X91511334Y-86477202D01*
X91508500Y-86450844D01*
X91508500Y-85344000D01*
X110854540Y-85344000D01*
X110874326Y-85532256D01*
X110874327Y-85532259D01*
X110932818Y-85712277D01*
X110932821Y-85712284D01*
X111027467Y-85876216D01*
X111138850Y-85999919D01*
X111154129Y-86016888D01*
X111307265Y-86128148D01*
X111307270Y-86128151D01*
X111480192Y-86205142D01*
X111480197Y-86205144D01*
X111665354Y-86244500D01*
X111665355Y-86244500D01*
X111854644Y-86244500D01*
X111854646Y-86244500D01*
X112039803Y-86205144D01*
X112212730Y-86128151D01*
X112365871Y-86016888D01*
X112492533Y-85876216D01*
X112587179Y-85712284D01*
X112645674Y-85532256D01*
X112665460Y-85344000D01*
X112663066Y-85321227D01*
X112675635Y-85252500D01*
X112698703Y-85220589D01*
X114565186Y-83354106D01*
X114577364Y-83343427D01*
X114601165Y-83325165D01*
X114628521Y-83289514D01*
X114693572Y-83204738D01*
X114695847Y-83199243D01*
X114739682Y-83144839D01*
X114805974Y-83122768D01*
X114873675Y-83140042D01*
X114902561Y-83163717D01*
X114955839Y-83222888D01*
X115108975Y-83334148D01*
X115108980Y-83334151D01*
X115281902Y-83411142D01*
X115281907Y-83411144D01*
X115467064Y-83450500D01*
X115467065Y-83450500D01*
X115656354Y-83450500D01*
X115656356Y-83450500D01*
X115841513Y-83411144D01*
X116014440Y-83334151D01*
X116167581Y-83222888D01*
X116230690Y-83152798D01*
X116290175Y-83116150D01*
X116360032Y-83117480D01*
X116418081Y-83156367D01*
X116445891Y-83220464D01*
X116446154Y-83222764D01*
X116460769Y-83361813D01*
X116460770Y-83361816D01*
X116519261Y-83541834D01*
X116519264Y-83541841D01*
X116613910Y-83705773D01*
X116684482Y-83784151D01*
X116740572Y-83846445D01*
X116893708Y-83957705D01*
X116893713Y-83957708D01*
X117066635Y-84034699D01*
X117066640Y-84034701D01*
X117251797Y-84074057D01*
X117251798Y-84074057D01*
X117441087Y-84074057D01*
X117441089Y-84074057D01*
X117626246Y-84034701D01*
X117799173Y-83957708D01*
X117952314Y-83846445D01*
X118078976Y-83705773D01*
X118120710Y-83633486D01*
X118171276Y-83585272D01*
X118239883Y-83572048D01*
X118278533Y-83582208D01*
X118282894Y-83584149D01*
X118282896Y-83584151D01*
X118455823Y-83661144D01*
X118640980Y-83700500D01*
X118640981Y-83700500D01*
X118830270Y-83700500D01*
X118830272Y-83700500D01*
X119015429Y-83661144D01*
X119188356Y-83584151D01*
X119341497Y-83472888D01*
X119405042Y-83402313D01*
X119464526Y-83365667D01*
X119534383Y-83366996D01*
X119592431Y-83405882D01*
X119604576Y-83423286D01*
X119667467Y-83532216D01*
X119721897Y-83592666D01*
X119794129Y-83672888D01*
X119947265Y-83784148D01*
X119947270Y-83784151D01*
X120120191Y-83861142D01*
X120120194Y-83861142D01*
X120120197Y-83861144D01*
X120208264Y-83879862D01*
X120219434Y-83882237D01*
X120280916Y-83915429D01*
X120311585Y-83965209D01*
X120367818Y-84138277D01*
X120367821Y-84138284D01*
X120462467Y-84302216D01*
X120556978Y-84407181D01*
X120589129Y-84442888D01*
X120742265Y-84554148D01*
X120742270Y-84554151D01*
X120915192Y-84631142D01*
X120915193Y-84631142D01*
X120915197Y-84631144D01*
X121066789Y-84663365D01*
X121128270Y-84696557D01*
X121158939Y-84746338D01*
X121162817Y-84758275D01*
X121162821Y-84758284D01*
X121257467Y-84922216D01*
X121351030Y-85026128D01*
X121384129Y-85062888D01*
X121537265Y-85174148D01*
X121537270Y-85174151D01*
X121710192Y-85251142D01*
X121710197Y-85251144D01*
X121895354Y-85290500D01*
X121895355Y-85290500D01*
X122084644Y-85290500D01*
X122084646Y-85290500D01*
X122269803Y-85251144D01*
X122442730Y-85174151D01*
X122595871Y-85062888D01*
X122722533Y-84922216D01*
X122817179Y-84758284D01*
X122875674Y-84578256D01*
X122895460Y-84390000D01*
X122875674Y-84201744D01*
X122817179Y-84021716D01*
X122722533Y-83857784D01*
X122709950Y-83843809D01*
X122615350Y-83738744D01*
X122585120Y-83675752D01*
X122583500Y-83655772D01*
X122583500Y-64507106D01*
X122603185Y-64440067D01*
X122615340Y-64424144D01*
X122739533Y-64286216D01*
X122834179Y-64122284D01*
X122892674Y-63942256D01*
X122912460Y-63754000D01*
X122892674Y-63565744D01*
X122834179Y-63385716D01*
X122739533Y-63221784D01*
X122612871Y-63081112D01*
X122598229Y-63070474D01*
X122459734Y-62969851D01*
X122459729Y-62969848D01*
X122286807Y-62892857D01*
X122286802Y-62892855D01*
X122141001Y-62861865D01*
X122101646Y-62853500D01*
X122101645Y-62853500D01*
X122036821Y-62853500D01*
X121969782Y-62833815D01*
X121929434Y-62791500D01*
X121881415Y-62708328D01*
X121754753Y-62567656D01*
X121754752Y-62567655D01*
X121601616Y-62456395D01*
X121601611Y-62456392D01*
X121428689Y-62379401D01*
X121428684Y-62379399D01*
X121282883Y-62348409D01*
X121243528Y-62340044D01*
X121054236Y-62340044D01*
X121021779Y-62346942D01*
X120869079Y-62379399D01*
X120869074Y-62379401D01*
X120696152Y-62456392D01*
X120696147Y-62456395D01*
X120543011Y-62567655D01*
X120543010Y-62567656D01*
X120468947Y-62649911D01*
X120409460Y-62686559D01*
X120339603Y-62685228D01*
X120282628Y-62647060D01*
X120282598Y-62647088D01*
X120282488Y-62646966D01*
X120281555Y-62646341D01*
X120279188Y-62643301D01*
X120257912Y-62619672D01*
X120151588Y-62501587D01*
X120151584Y-62501584D01*
X119998451Y-62390326D01*
X119998446Y-62390323D01*
X119825524Y-62313332D01*
X119825519Y-62313330D01*
X119679718Y-62282340D01*
X119640363Y-62273975D01*
X119451071Y-62273975D01*
X119418614Y-62280873D01*
X119265914Y-62313330D01*
X119265909Y-62313332D01*
X119092987Y-62390323D01*
X119092982Y-62390326D01*
X118939849Y-62501584D01*
X118939846Y-62501586D01*
X118939846Y-62501587D01*
X118813184Y-62642259D01*
X118810330Y-62645429D01*
X118750843Y-62682077D01*
X118680986Y-62680746D01*
X118626031Y-62645428D01*
X118516100Y-62523338D01*
X118509535Y-62518568D01*
X118362963Y-62412077D01*
X118362958Y-62412074D01*
X118190036Y-62335083D01*
X118190031Y-62335081D01*
X118044230Y-62304091D01*
X118004875Y-62295726D01*
X117815583Y-62295726D01*
X117783126Y-62302624D01*
X117630426Y-62335081D01*
X117630421Y-62335083D01*
X117457499Y-62412074D01*
X117457494Y-62412077D01*
X117304361Y-62523335D01*
X117304358Y-62523337D01*
X117304358Y-62523338D01*
X117264455Y-62567655D01*
X117189223Y-62651208D01*
X117129736Y-62687856D01*
X117059879Y-62686525D01*
X117004923Y-62651208D01*
X117003755Y-62649911D01*
X116928504Y-62566336D01*
X116881221Y-62531983D01*
X116775367Y-62455075D01*
X116775362Y-62455072D01*
X116602440Y-62378081D01*
X116602435Y-62378079D01*
X116456634Y-62347089D01*
X116417279Y-62338724D01*
X116227987Y-62338724D01*
X116195530Y-62345622D01*
X116042830Y-62378079D01*
X116042825Y-62378081D01*
X115869903Y-62455072D01*
X115869898Y-62455075D01*
X115716762Y-62566335D01*
X115590099Y-62707009D01*
X115495454Y-62870939D01*
X115495452Y-62870943D01*
X115478976Y-62921652D01*
X115439538Y-62979327D01*
X115386827Y-63004623D01*
X115281906Y-63026925D01*
X115281902Y-63026926D01*
X115108980Y-63103917D01*
X115108975Y-63103920D01*
X114955839Y-63215180D01*
X114955837Y-63215182D01*
X114926976Y-63247235D01*
X114867489Y-63283882D01*
X114797632Y-63282551D01*
X114739584Y-63243663D01*
X114727441Y-63226261D01*
X114721044Y-63215181D01*
X114651533Y-63094784D01*
X114524871Y-62954112D01*
X114524870Y-62954111D01*
X114371734Y-62842851D01*
X114371729Y-62842848D01*
X114198807Y-62765857D01*
X114198802Y-62765855D01*
X114053001Y-62734865D01*
X114013646Y-62726500D01*
X113824354Y-62726500D01*
X113791897Y-62733398D01*
X113639197Y-62765855D01*
X113639192Y-62765857D01*
X113466270Y-62842848D01*
X113466265Y-62842851D01*
X113313129Y-62954111D01*
X113186466Y-63094785D01*
X113091821Y-63258715D01*
X113091818Y-63258722D01*
X113041736Y-63412860D01*
X113033326Y-63438744D01*
X113013540Y-63627000D01*
X113033326Y-63815256D01*
X113033327Y-63815259D01*
X113091818Y-63995277D01*
X113091821Y-63995284D01*
X113186467Y-64159216D01*
X113300815Y-64286212D01*
X113313129Y-64299888D01*
X113466265Y-64411148D01*
X113466266Y-64411148D01*
X113466270Y-64411151D01*
X113526615Y-64438018D01*
X113534684Y-64441611D01*
X113587921Y-64486861D01*
X113608242Y-64553710D01*
X113607187Y-64571073D01*
X113603500Y-64599082D01*
X113603500Y-64599085D01*
X113598525Y-64636872D01*
X113602439Y-64666602D01*
X113603500Y-64682788D01*
X113603500Y-65111211D01*
X113602439Y-65127396D01*
X113598525Y-65157125D01*
X113598525Y-65157130D01*
X113602968Y-65190883D01*
X113602970Y-65190891D01*
X113618337Y-65307622D01*
X113618338Y-65307624D01*
X113640877Y-65362037D01*
X113676428Y-65447865D01*
X113740377Y-65531206D01*
X113740382Y-65531211D01*
X113768835Y-65568292D01*
X113792627Y-65586548D01*
X113804822Y-65597243D01*
X114207181Y-65999602D01*
X114240666Y-66060925D01*
X114243500Y-66087283D01*
X114243500Y-80449716D01*
X114223815Y-80516755D01*
X114207181Y-80537397D01*
X113804823Y-80939754D01*
X113792632Y-80950446D01*
X113768834Y-80968707D01*
X113745632Y-80998946D01*
X113676428Y-81089134D01*
X113667011Y-81111870D01*
X113618338Y-81229375D01*
X113618337Y-81229377D01*
X113603692Y-81340626D01*
X113603692Y-81340627D01*
X113598525Y-81379872D01*
X113602439Y-81409602D01*
X113603500Y-81425788D01*
X113603500Y-81854211D01*
X113602439Y-81870396D01*
X113598525Y-81900125D01*
X113598525Y-81900130D01*
X113602968Y-81933883D01*
X113602970Y-81933891D01*
X113612439Y-82005815D01*
X113613500Y-82022000D01*
X113613500Y-82623844D01*
X113593815Y-82690883D01*
X113577181Y-82711525D01*
X111881525Y-84407181D01*
X111820202Y-84440666D01*
X111793844Y-84443500D01*
X111665354Y-84443500D01*
X111650177Y-84446726D01*
X111480197Y-84482855D01*
X111480192Y-84482857D01*
X111307270Y-84559848D01*
X111307265Y-84559851D01*
X111154129Y-84671111D01*
X111027466Y-84811785D01*
X110932821Y-84975715D01*
X110932818Y-84975722D01*
X110874327Y-85155740D01*
X110874326Y-85155744D01*
X110854540Y-85344000D01*
X91508500Y-85344000D01*
X91508500Y-77915318D01*
X91528185Y-77848279D01*
X91580989Y-77802524D01*
X91650147Y-77792580D01*
X91713703Y-77821605D01*
X91720181Y-77827637D01*
X93388721Y-79496177D01*
X93399415Y-79508371D01*
X93417673Y-79532165D01*
X93421238Y-79534900D01*
X93447911Y-79555367D01*
X93447912Y-79555369D01*
X93494494Y-79591112D01*
X93538100Y-79624572D01*
X93538102Y-79624572D01*
X93538104Y-79624574D01*
X93579174Y-79641586D01*
X93579175Y-79641586D01*
X93678341Y-79682662D01*
X93791049Y-79697500D01*
X93791050Y-79697500D01*
X93795076Y-79698030D01*
X93828837Y-79702475D01*
X93828838Y-79702475D01*
X93858568Y-79698560D01*
X93874753Y-79697500D01*
X112032132Y-79697500D01*
X112099171Y-79717185D01*
X112124282Y-79738528D01*
X112174123Y-79793883D01*
X112174130Y-79793889D01*
X112327265Y-79905148D01*
X112327270Y-79905151D01*
X112500192Y-79982142D01*
X112500197Y-79982144D01*
X112685354Y-80021500D01*
X112685355Y-80021500D01*
X112874644Y-80021500D01*
X112874646Y-80021500D01*
X113059803Y-79982144D01*
X113232730Y-79905151D01*
X113385871Y-79793888D01*
X113512533Y-79653216D01*
X113607179Y-79489284D01*
X113665674Y-79309256D01*
X113685460Y-79121000D01*
X113665674Y-78932744D01*
X113607179Y-78752716D01*
X113512533Y-78588784D01*
X113385871Y-78448112D01*
X113385870Y-78448111D01*
X113232734Y-78336851D01*
X113232729Y-78336848D01*
X113059807Y-78259857D01*
X113059802Y-78259855D01*
X112914001Y-78228865D01*
X112874646Y-78220500D01*
X112685354Y-78220500D01*
X112652897Y-78227398D01*
X112500197Y-78259855D01*
X112500192Y-78259857D01*
X112327270Y-78336848D01*
X112327265Y-78336851D01*
X112174130Y-78448110D01*
X112174123Y-78448116D01*
X112124282Y-78503472D01*
X112064796Y-78540121D01*
X112032132Y-78544500D01*
X94118994Y-78544500D01*
X94051955Y-78524815D01*
X94031313Y-78508181D01*
X93550006Y-78026874D01*
X93516521Y-77965551D01*
X93521505Y-77895859D01*
X93545535Y-77856223D01*
X93628380Y-77764216D01*
X93723026Y-77600284D01*
X93781521Y-77420256D01*
X93788890Y-77350134D01*
X93815473Y-77285521D01*
X93824521Y-77275423D01*
X95102127Y-75997819D01*
X95163450Y-75964334D01*
X95189808Y-75961500D01*
X112253025Y-75961500D01*
X112320064Y-75981185D01*
X112325910Y-75985182D01*
X112477265Y-76095148D01*
X112477270Y-76095151D01*
X112650192Y-76172142D01*
X112650197Y-76172144D01*
X112835354Y-76211500D01*
X112835355Y-76211500D01*
X113024644Y-76211500D01*
X113024646Y-76211500D01*
X113209803Y-76172144D01*
X113382730Y-76095151D01*
X113535871Y-75983888D01*
X113662533Y-75843216D01*
X113757179Y-75679284D01*
X113815674Y-75499256D01*
X113835460Y-75311000D01*
X113815674Y-75122744D01*
X113757179Y-74942716D01*
X113662533Y-74778784D01*
X113535871Y-74638112D01*
X113466913Y-74588011D01*
X113382734Y-74526851D01*
X113382729Y-74526848D01*
X113209807Y-74449857D01*
X113209802Y-74449855D01*
X113064001Y-74418865D01*
X113024646Y-74410500D01*
X112835354Y-74410500D01*
X112802897Y-74417398D01*
X112650197Y-74449855D01*
X112650192Y-74449857D01*
X112477270Y-74526848D01*
X112477265Y-74526851D01*
X112325910Y-74636818D01*
X112260104Y-74660298D01*
X112253025Y-74660500D01*
X96738808Y-74660500D01*
X96671769Y-74640815D01*
X96626014Y-74588011D01*
X96616070Y-74518853D01*
X96645095Y-74455297D01*
X96651127Y-74448819D01*
X110899946Y-60200000D01*
X111706540Y-60200000D01*
X111726326Y-60388256D01*
X111726327Y-60388259D01*
X111784818Y-60568277D01*
X111784821Y-60568284D01*
X111879467Y-60732216D01*
X111985971Y-60850500D01*
X112006129Y-60872888D01*
X112159265Y-60984148D01*
X112159270Y-60984151D01*
X112332192Y-61061142D01*
X112332197Y-61061144D01*
X112517354Y-61100500D01*
X112517355Y-61100500D01*
X112706644Y-61100500D01*
X112706646Y-61100500D01*
X112891803Y-61061144D01*
X113064730Y-60984151D01*
X113216090Y-60874182D01*
X113281896Y-60850702D01*
X113288975Y-60850500D01*
X122023025Y-60850500D01*
X122090064Y-60870185D01*
X122095910Y-60874182D01*
X122247265Y-60984148D01*
X122247270Y-60984151D01*
X122420192Y-61061142D01*
X122420197Y-61061144D01*
X122605354Y-61100500D01*
X122605355Y-61100500D01*
X122794644Y-61100500D01*
X122794646Y-61100500D01*
X122979803Y-61061144D01*
X123152730Y-60984151D01*
X123304090Y-60874182D01*
X123369896Y-60850702D01*
X123376975Y-60850500D01*
X126723025Y-60850500D01*
X126790064Y-60870185D01*
X126795910Y-60874182D01*
X126947265Y-60984148D01*
X126947270Y-60984151D01*
X127120192Y-61061142D01*
X127120197Y-61061144D01*
X127305354Y-61100500D01*
X127305355Y-61100500D01*
X127494644Y-61100500D01*
X127494646Y-61100500D01*
X127679803Y-61061144D01*
X127852730Y-60984151D01*
X128005871Y-60872888D01*
X128132533Y-60732216D01*
X128227179Y-60568284D01*
X128285674Y-60388256D01*
X128305460Y-60200000D01*
X128285674Y-60011744D01*
X128227179Y-59831716D01*
X128132533Y-59667784D01*
X128005871Y-59527112D01*
X128004090Y-59525818D01*
X127852734Y-59415851D01*
X127852729Y-59415848D01*
X127679807Y-59338857D01*
X127679802Y-59338855D01*
X127534001Y-59307865D01*
X127494646Y-59299500D01*
X127305354Y-59299500D01*
X127272897Y-59306398D01*
X127120197Y-59338855D01*
X127120192Y-59338857D01*
X126947270Y-59415848D01*
X126947265Y-59415851D01*
X126795910Y-59525818D01*
X126730104Y-59549298D01*
X126723025Y-59549500D01*
X123376975Y-59549500D01*
X123309936Y-59529815D01*
X123304090Y-59525818D01*
X123152734Y-59415851D01*
X123152729Y-59415848D01*
X122979807Y-59338857D01*
X122979802Y-59338855D01*
X122834001Y-59307865D01*
X122794646Y-59299500D01*
X122605354Y-59299500D01*
X122572897Y-59306398D01*
X122420197Y-59338855D01*
X122420192Y-59338857D01*
X122247270Y-59415848D01*
X122247265Y-59415851D01*
X122095910Y-59525818D01*
X122030104Y-59549298D01*
X122023025Y-59549500D01*
X113288975Y-59549500D01*
X113221936Y-59529815D01*
X113216090Y-59525818D01*
X113064734Y-59415851D01*
X113064729Y-59415848D01*
X112891807Y-59338857D01*
X112891802Y-59338855D01*
X112746001Y-59307865D01*
X112706646Y-59299500D01*
X112517354Y-59299500D01*
X112484897Y-59306398D01*
X112332197Y-59338855D01*
X112332192Y-59338857D01*
X112159270Y-59415848D01*
X112159265Y-59415851D01*
X112006129Y-59527111D01*
X111879466Y-59667785D01*
X111784821Y-59831715D01*
X111784818Y-59831722D01*
X111726327Y-60011740D01*
X111726326Y-60011744D01*
X111706540Y-60200000D01*
X110899946Y-60200000D01*
X114664127Y-56435819D01*
X114725450Y-56402334D01*
X114751808Y-56399500D01*
X114775644Y-56399500D01*
X114775646Y-56399500D01*
X114960803Y-56360144D01*
X115133730Y-56283151D01*
X115286871Y-56171888D01*
X115413533Y-56031216D01*
X115508179Y-55867284D01*
X115566674Y-55687256D01*
X115586460Y-55499000D01*
X115566674Y-55310744D01*
X115508179Y-55130716D01*
X115413533Y-54966784D01*
X115286871Y-54826112D01*
X115283276Y-54823500D01*
X115133734Y-54714851D01*
X115133729Y-54714848D01*
X114960807Y-54637857D01*
X114960802Y-54637855D01*
X114809157Y-54605623D01*
X114775646Y-54598500D01*
X114586354Y-54598500D01*
X114553897Y-54605398D01*
X114401197Y-54637855D01*
X114401192Y-54637857D01*
X114228270Y-54714848D01*
X114228265Y-54714851D01*
X114075129Y-54826111D01*
X113948466Y-54966785D01*
X113853821Y-55130715D01*
X113853818Y-55130722D01*
X113795327Y-55310739D01*
X113795326Y-55310741D01*
X113781831Y-55439142D01*
X113755246Y-55503757D01*
X113746191Y-55513861D01*
X94467137Y-74792917D01*
X94467134Y-74792920D01*
X94452126Y-74807927D01*
X94437335Y-74820560D01*
X94420164Y-74833035D01*
X94391056Y-74868219D01*
X94383196Y-74876856D01*
X92964873Y-76295181D01*
X92903550Y-76328666D01*
X92877192Y-76331500D01*
X92801201Y-76331500D01*
X92768744Y-76338398D01*
X92616044Y-76370855D01*
X92616039Y-76370857D01*
X92443117Y-76447848D01*
X92443112Y-76447851D01*
X92289982Y-76559106D01*
X92289972Y-76559115D01*
X92278983Y-76571319D01*
X92219495Y-76607965D01*
X92149638Y-76606632D01*
X92099156Y-76576024D01*
X91945819Y-76422687D01*
X91912334Y-76361364D01*
X91909500Y-76335006D01*
X91909500Y-75561905D01*
X91910561Y-75545719D01*
X91914475Y-75515991D01*
X91909500Y-75478203D01*
X91909500Y-75478202D01*
X91894662Y-75365495D01*
X91894662Y-75365494D01*
X91838128Y-75229011D01*
X91836850Y-75225615D01*
X91767368Y-75135065D01*
X91767368Y-75135064D01*
X91767367Y-75135064D01*
X91760441Y-75126037D01*
X91744165Y-75104826D01*
X91720371Y-75086568D01*
X91708177Y-75075874D01*
X90763125Y-74130822D01*
X90752430Y-74118627D01*
X90734172Y-74094833D01*
X90699845Y-74068494D01*
X90699842Y-74068492D01*
X90613747Y-74002428D01*
X90572669Y-73985412D01*
X90572669Y-73985411D01*
X90473509Y-73944339D01*
X90473504Y-73944337D01*
X90356773Y-73928970D01*
X90356768Y-73928968D01*
X90323013Y-73924525D01*
X90323009Y-73924525D01*
X90293278Y-73928439D01*
X90277094Y-73929500D01*
X90185156Y-73929500D01*
X90118117Y-73909815D01*
X90072362Y-73857011D01*
X90062418Y-73787853D01*
X90091443Y-73724297D01*
X90097475Y-73717819D01*
X107802475Y-56012819D01*
X107863798Y-55979334D01*
X107890156Y-55976500D01*
X108752132Y-55976500D01*
X108819171Y-55996185D01*
X108844282Y-56017528D01*
X108894123Y-56072883D01*
X108894130Y-56072889D01*
X109047265Y-56184148D01*
X109047270Y-56184151D01*
X109220192Y-56261142D01*
X109220197Y-56261144D01*
X109405354Y-56300500D01*
X109405355Y-56300500D01*
X109594644Y-56300500D01*
X109594646Y-56300500D01*
X109779803Y-56261144D01*
X109952730Y-56184151D01*
X110105871Y-56072888D01*
X110232533Y-55932216D01*
X110327179Y-55768284D01*
X110385674Y-55588256D01*
X110405460Y-55400000D01*
X110385674Y-55211744D01*
X110327179Y-55031716D01*
X110232533Y-54867784D01*
X110105871Y-54727112D01*
X110105870Y-54727111D01*
X109952734Y-54615851D01*
X109952729Y-54615848D01*
X109779807Y-54538857D01*
X109779802Y-54538855D01*
X109634001Y-54507865D01*
X109594646Y-54499500D01*
X109405354Y-54499500D01*
X109372897Y-54506398D01*
X109220197Y-54538855D01*
X109220192Y-54538857D01*
X109047270Y-54615848D01*
X109047265Y-54615851D01*
X108894130Y-54727110D01*
X108894123Y-54727116D01*
X108844282Y-54782472D01*
X108784796Y-54819121D01*
X108752132Y-54823500D01*
X107645915Y-54823500D01*
X107629729Y-54822439D01*
X107600001Y-54818525D01*
X107599995Y-54818525D01*
X107566262Y-54822965D01*
X107566236Y-54822970D01*
X107449504Y-54838337D01*
X107449502Y-54838338D01*
X107379383Y-54867383D01*
X107379382Y-54867383D01*
X107309264Y-54896426D01*
X107309262Y-54896427D01*
X107247096Y-54944129D01*
X107188836Y-54988833D01*
X107170572Y-55012634D01*
X107159881Y-55024823D01*
X84921525Y-77263181D01*
X84860202Y-77296666D01*
X84833844Y-77299500D01*
X84805354Y-77299500D01*
X84772897Y-77306398D01*
X84620197Y-77338855D01*
X84620192Y-77338857D01*
X84447270Y-77415848D01*
X84447265Y-77415851D01*
X84294129Y-77527111D01*
X84167466Y-77667785D01*
X84072821Y-77831715D01*
X84072818Y-77831722D01*
X84017250Y-78002744D01*
X84014326Y-78011744D01*
X83994540Y-78200000D01*
X84014326Y-78388256D01*
X84014327Y-78388259D01*
X84072818Y-78568277D01*
X84072821Y-78568284D01*
X84167467Y-78732216D01*
X84294129Y-78872888D01*
X84311399Y-78885435D01*
X84348447Y-78912352D01*
X84391112Y-78967682D01*
X84397091Y-79037296D01*
X84373938Y-79088155D01*
X84332427Y-79142253D01*
X84332425Y-79142257D01*
X84324441Y-79161534D01*
X84324441Y-79161535D01*
X84274338Y-79282493D01*
X84274337Y-79282495D01*
X84259500Y-79395202D01*
X84259500Y-79395203D01*
X84254525Y-79432990D01*
X84258439Y-79462720D01*
X84259500Y-79478906D01*
X84259500Y-79510893D01*
X84239815Y-79577932D01*
X84227650Y-79593865D01*
X84103466Y-79731785D01*
X84008821Y-79895715D01*
X84008818Y-79895722D01*
X83967951Y-80021500D01*
X83950326Y-80075744D01*
X83930540Y-80264000D01*
X83950326Y-80452256D01*
X83950327Y-80452259D01*
X84008818Y-80632277D01*
X84008821Y-80632284D01*
X84103467Y-80796216D01*
X84228549Y-80935133D01*
X84230129Y-80936888D01*
X84383265Y-81048148D01*
X84383270Y-81048151D01*
X84556192Y-81125142D01*
X84556197Y-81125144D01*
X84741354Y-81164500D01*
X84741355Y-81164500D01*
X84930644Y-81164500D01*
X84930646Y-81164500D01*
X85115803Y-81125144D01*
X85288730Y-81048151D01*
X85441871Y-80936888D01*
X85568533Y-80796216D01*
X85663179Y-80632284D01*
X85721674Y-80452256D01*
X85741460Y-80264000D01*
X85721674Y-80075744D01*
X85663179Y-79895716D01*
X85568533Y-79731784D01*
X85544914Y-79705553D01*
X85514685Y-79642563D01*
X85523309Y-79573227D01*
X85549380Y-79534903D01*
X89246311Y-75837973D01*
X89307632Y-75804490D01*
X89377324Y-75809474D01*
X89426137Y-75842681D01*
X89437129Y-75854888D01*
X89437132Y-75854891D01*
X89437135Y-75854893D01*
X89590265Y-75966148D01*
X89590270Y-75966151D01*
X89763192Y-76043142D01*
X89763197Y-76043144D01*
X89948354Y-76082500D01*
X90076844Y-76082500D01*
X90143883Y-76102185D01*
X90164525Y-76118819D01*
X90319181Y-76273475D01*
X90352666Y-76334798D01*
X90355500Y-76361156D01*
X90355500Y-86695084D01*
X90354439Y-86711269D01*
X90350525Y-86740998D01*
X90350525Y-86741003D01*
X90354968Y-86774756D01*
X90354970Y-86774764D01*
X90370338Y-86891497D01*
X90395235Y-86951603D01*
X90428426Y-87031735D01*
X90428427Y-87031737D01*
X90428428Y-87031738D01*
X90472299Y-87088911D01*
X90520835Y-87152165D01*
X90544627Y-87170421D01*
X90556822Y-87181116D01*
X94447525Y-91071819D01*
X94481010Y-91133142D01*
X94476026Y-91202834D01*
X94434154Y-91258767D01*
X94368690Y-91283184D01*
X94359844Y-91283500D01*
X92277157Y-91283500D01*
X92210118Y-91263815D01*
X92189476Y-91247181D01*
X86524627Y-85582333D01*
X86491142Y-85521010D01*
X86488987Y-85481699D01*
X86503460Y-85344000D01*
X86483674Y-85155744D01*
X86425179Y-84975716D01*
X86330533Y-84811784D01*
X86203871Y-84671112D01*
X86203029Y-84670500D01*
X86050734Y-84559851D01*
X86050729Y-84559848D01*
X85877807Y-84482857D01*
X85877802Y-84482855D01*
X85707823Y-84446726D01*
X85692646Y-84443500D01*
X85503354Y-84443500D01*
X85488177Y-84446726D01*
X85318197Y-84482855D01*
X85318192Y-84482857D01*
X85145270Y-84559848D01*
X85145265Y-84559851D01*
X84992129Y-84671111D01*
X84865466Y-84811785D01*
X84770821Y-84975715D01*
X84770818Y-84975722D01*
X84712327Y-85155740D01*
X84712326Y-85155744D01*
X84692540Y-85344000D01*
X84712326Y-85532256D01*
X84712327Y-85532259D01*
X84770818Y-85712277D01*
X84770821Y-85712284D01*
X84865467Y-85876216D01*
X84976850Y-85999919D01*
X84992129Y-86016888D01*
X85145265Y-86128148D01*
X85145270Y-86128151D01*
X85318192Y-86205142D01*
X85318197Y-86205144D01*
X85503354Y-86244500D01*
X85504844Y-86244500D01*
X85505674Y-86244743D01*
X85509822Y-86245180D01*
X85509742Y-86245938D01*
X85571883Y-86264185D01*
X85592525Y-86280819D01*
X91546886Y-92235181D01*
X91557580Y-92247375D01*
X91575836Y-92271166D01*
X91602836Y-92291883D01*
X91602859Y-92291902D01*
X91696261Y-92363572D01*
X91700120Y-92365170D01*
X91704258Y-92366883D01*
X91704266Y-92366890D01*
X91704268Y-92366888D01*
X91791303Y-92402939D01*
X91845706Y-92446780D01*
X91867771Y-92513074D01*
X91850492Y-92580773D01*
X91799355Y-92628384D01*
X91743850Y-92641500D01*
X80046156Y-92641500D01*
X79979117Y-92621815D01*
X79958475Y-92605181D01*
X74322482Y-86969188D01*
X74292232Y-86919824D01*
X74263607Y-86831724D01*
X74263605Y-86831720D01*
X74263604Y-86831716D01*
X74168958Y-86667784D01*
X74042296Y-86527112D01*
X74008016Y-86502206D01*
X73889159Y-86415851D01*
X73889154Y-86415848D01*
X73716232Y-86338857D01*
X73716228Y-86338856D01*
X73628766Y-86320265D01*
X73567285Y-86287072D01*
X73533509Y-86225909D01*
X73538161Y-86156195D01*
X73547155Y-86136985D01*
X73635604Y-85983789D01*
X73694099Y-85803761D01*
X73713885Y-85615505D01*
X73694099Y-85427249D01*
X73635604Y-85247221D01*
X73540958Y-85083289D01*
X73414296Y-84942617D01*
X73410865Y-84940124D01*
X73261159Y-84831356D01*
X73261154Y-84831353D01*
X73088232Y-84754362D01*
X73088227Y-84754360D01*
X72942426Y-84723370D01*
X72903071Y-84715005D01*
X72713779Y-84715005D01*
X72681322Y-84721903D01*
X72528622Y-84754360D01*
X72528617Y-84754362D01*
X72355695Y-84831353D01*
X72355690Y-84831356D01*
X72202554Y-84942616D01*
X72075891Y-85083290D01*
X71981246Y-85247220D01*
X71981243Y-85247227D01*
X71949800Y-85344000D01*
X71922751Y-85427249D01*
X71902965Y-85615505D01*
X63350500Y-85615505D01*
X63350500Y-80645000D01*
X81644540Y-80645000D01*
X81664326Y-80833256D01*
X81664327Y-80833259D01*
X81722818Y-81013277D01*
X81722821Y-81013284D01*
X81817467Y-81177216D01*
X81877385Y-81243761D01*
X81944129Y-81317888D01*
X82097265Y-81429148D01*
X82097270Y-81429151D01*
X82270192Y-81506142D01*
X82270197Y-81506144D01*
X82455354Y-81545500D01*
X82455355Y-81545500D01*
X82644644Y-81545500D01*
X82644646Y-81545500D01*
X82829803Y-81506144D01*
X83002730Y-81429151D01*
X83155871Y-81317888D01*
X83282533Y-81177216D01*
X83377179Y-81013284D01*
X83435674Y-80833256D01*
X83455460Y-80645000D01*
X83435674Y-80456744D01*
X83377179Y-80276716D01*
X83282533Y-80112784D01*
X83158350Y-79974865D01*
X83128120Y-79911874D01*
X83126500Y-79891893D01*
X83126500Y-78141155D01*
X83146185Y-78074116D01*
X83162814Y-78053479D01*
X103875185Y-57341107D01*
X103887364Y-57330427D01*
X103911165Y-57312165D01*
X103911171Y-57312156D01*
X103912047Y-57311282D01*
X103914625Y-57309509D01*
X103917618Y-57307214D01*
X103917738Y-57307370D01*
X103949307Y-57285674D01*
X103952730Y-57284151D01*
X104105871Y-57172888D01*
X104232533Y-57032216D01*
X104327179Y-56868284D01*
X104385674Y-56688256D01*
X104405460Y-56500000D01*
X104385674Y-56311744D01*
X104327179Y-56131716D01*
X104232533Y-55967784D01*
X104105871Y-55827112D01*
X104105870Y-55827111D01*
X103952734Y-55715851D01*
X103952729Y-55715848D01*
X103779807Y-55638857D01*
X103779802Y-55638855D01*
X103634001Y-55607865D01*
X103594646Y-55599500D01*
X103405354Y-55599500D01*
X103372897Y-55606398D01*
X103220197Y-55638855D01*
X103220192Y-55638857D01*
X103047270Y-55715848D01*
X103047265Y-55715851D01*
X102894129Y-55827111D01*
X102767466Y-55967785D01*
X102672821Y-56131715D01*
X102672818Y-56131722D01*
X102630767Y-56261144D01*
X102614326Y-56311744D01*
X102594540Y-56500000D01*
X102614326Y-56688256D01*
X102614327Y-56688259D01*
X102660277Y-56829678D01*
X102662272Y-56899519D01*
X102630027Y-56955677D01*
X82174823Y-77410881D01*
X82162632Y-77421573D01*
X82138834Y-77439834D01*
X82115632Y-77470073D01*
X82115632Y-77470074D01*
X82046147Y-77560628D01*
X82044870Y-77564021D01*
X81988339Y-77700499D01*
X81988337Y-77700504D01*
X81978624Y-77774291D01*
X81978624Y-77774292D01*
X81968525Y-77850999D01*
X81972439Y-77880729D01*
X81973500Y-77896915D01*
X81973500Y-79891893D01*
X81953815Y-79958932D01*
X81941650Y-79974865D01*
X81817466Y-80112785D01*
X81722821Y-80276715D01*
X81722818Y-80276722D01*
X81665784Y-80452256D01*
X81664326Y-80456744D01*
X81644540Y-80645000D01*
X63350500Y-80645000D01*
X63350500Y-68765503D01*
X63352268Y-68749491D01*
X63352026Y-68749469D01*
X63352760Y-68741706D01*
X63350561Y-68671722D01*
X63350500Y-68667828D01*
X63350500Y-68639078D01*
X63350499Y-68639071D01*
X63350300Y-68637497D01*
X63349949Y-68634719D01*
X63349031Y-68623062D01*
X63347598Y-68577431D01*
X63341676Y-68557050D01*
X63337731Y-68537995D01*
X63335072Y-68516949D01*
X63335071Y-68516947D01*
X63335071Y-68516942D01*
X63318267Y-68474501D01*
X63314484Y-68463452D01*
X63301745Y-68419602D01*
X63301142Y-68418583D01*
X63290936Y-68401324D01*
X63282378Y-68383855D01*
X63274568Y-68364129D01*
X63247721Y-68327179D01*
X63241331Y-68317449D01*
X63218081Y-68278135D01*
X63203075Y-68263129D01*
X63190435Y-68248330D01*
X63177961Y-68231160D01*
X63142780Y-68202056D01*
X63134140Y-68194194D01*
X60683064Y-65743118D01*
X60649579Y-65681795D01*
X60647424Y-65668395D01*
X60645674Y-65651745D01*
X60645672Y-65651740D01*
X60587179Y-65471716D01*
X60492533Y-65307784D01*
X60365871Y-65167112D01*
X60352125Y-65157125D01*
X60212734Y-65055851D01*
X60212729Y-65055848D01*
X60039807Y-64978857D01*
X60039802Y-64978855D01*
X59894001Y-64947865D01*
X59854646Y-64939500D01*
X59665354Y-64939500D01*
X59632897Y-64946398D01*
X59480197Y-64978855D01*
X59480192Y-64978857D01*
X59307270Y-65055848D01*
X59307265Y-65055851D01*
X59154129Y-65167111D01*
X59027466Y-65307785D01*
X58932821Y-65471715D01*
X58932818Y-65471722D01*
X58874327Y-65651740D01*
X58874326Y-65651744D01*
X58874326Y-65651745D01*
X58863948Y-65750485D01*
X58837363Y-65815100D01*
X58791065Y-65850802D01*
X58757266Y-65865850D01*
X58604129Y-65977111D01*
X58477466Y-66117785D01*
X58382821Y-66281715D01*
X58382818Y-66281722D01*
X58348704Y-66386716D01*
X58324326Y-66461744D01*
X58304540Y-66650000D01*
X58324326Y-66838256D01*
X58324327Y-66838259D01*
X58382818Y-67018277D01*
X58382821Y-67018284D01*
X58477467Y-67182216D01*
X58604129Y-67322888D01*
X58757268Y-67434150D01*
X58762897Y-67437400D01*
X58762331Y-67438379D01*
X58791429Y-67458375D01*
X59910485Y-68577431D01*
X61013181Y-69680126D01*
X61046666Y-69741449D01*
X61049500Y-69767807D01*
X61049500Y-71546414D01*
X61029815Y-71613453D01*
X60977011Y-71659208D01*
X60907853Y-71669152D01*
X60844297Y-71640127D01*
X60837819Y-71634095D01*
X56456344Y-67252620D01*
X56422859Y-67191297D01*
X56426094Y-67126620D01*
X56427176Y-67123288D01*
X56427179Y-67123284D01*
X56485674Y-66943256D01*
X56505460Y-66755000D01*
X56485674Y-66566744D01*
X56427179Y-66386716D01*
X56332533Y-66222784D01*
X56205871Y-66082112D01*
X56205870Y-66082111D01*
X56052734Y-65970851D01*
X56052729Y-65970848D01*
X55879807Y-65893857D01*
X55879802Y-65893855D01*
X55734001Y-65862865D01*
X55694646Y-65854500D01*
X55694645Y-65854500D01*
X55634500Y-65854500D01*
X55567461Y-65834815D01*
X55521706Y-65782011D01*
X55510500Y-65730500D01*
X55510500Y-63510783D01*
X55530185Y-63443744D01*
X55546819Y-63423102D01*
X59237707Y-59732214D01*
X62958340Y-56011581D01*
X62970894Y-55996185D01*
X62979086Y-55986139D01*
X63036707Y-55946622D01*
X63075187Y-55940500D01*
X75560560Y-55940500D01*
X75627599Y-55960185D01*
X75643536Y-55972353D01*
X75644135Y-55972893D01*
X75797265Y-56084148D01*
X75797270Y-56084151D01*
X75970192Y-56161142D01*
X75970197Y-56161144D01*
X76155354Y-56200500D01*
X76155355Y-56200500D01*
X76344644Y-56200500D01*
X76344646Y-56200500D01*
X76529803Y-56161144D01*
X76702730Y-56084151D01*
X76855871Y-55972888D01*
X76875105Y-55951527D01*
X76934592Y-55914879D01*
X76967254Y-55910500D01*
X84725500Y-55910500D01*
X84792539Y-55930185D01*
X84838294Y-55982989D01*
X84849500Y-56034500D01*
X84849500Y-58529078D01*
X84829815Y-58596117D01*
X84817650Y-58612050D01*
X84767466Y-58667785D01*
X84672821Y-58831715D01*
X84672818Y-58831722D01*
X84614327Y-59011740D01*
X84614326Y-59011744D01*
X84594540Y-59200000D01*
X84614326Y-59388256D01*
X84614327Y-59388259D01*
X84672818Y-59568277D01*
X84672821Y-59568284D01*
X84767467Y-59732216D01*
X84857063Y-59831722D01*
X84894129Y-59872888D01*
X85047265Y-59984148D01*
X85047270Y-59984151D01*
X85220192Y-60061142D01*
X85220197Y-60061144D01*
X85405354Y-60100500D01*
X85405355Y-60100500D01*
X85594644Y-60100500D01*
X85594646Y-60100500D01*
X85779803Y-60061144D01*
X85952730Y-59984151D01*
X86105871Y-59872888D01*
X86232533Y-59732216D01*
X86327179Y-59568284D01*
X86385674Y-59388256D01*
X86405460Y-59200000D01*
X86385674Y-59011744D01*
X86327179Y-58831716D01*
X86232533Y-58667784D01*
X86182350Y-58612050D01*
X86152120Y-58549058D01*
X86150500Y-58529078D01*
X86150500Y-56035683D01*
X86170185Y-55968644D01*
X86222989Y-55922889D01*
X86270603Y-55911744D01*
X86306394Y-55910619D01*
X86308263Y-55910561D01*
X86312157Y-55910500D01*
X86340925Y-55910500D01*
X86345287Y-55909948D01*
X86356939Y-55909030D01*
X86402569Y-55907597D01*
X86422956Y-55901673D01*
X86441996Y-55897731D01*
X86463058Y-55895071D01*
X86505520Y-55878258D01*
X86516557Y-55874480D01*
X86560398Y-55861744D01*
X86578665Y-55850939D01*
X86596136Y-55842380D01*
X86615871Y-55834568D01*
X86652816Y-55807725D01*
X86662558Y-55801326D01*
X86701865Y-55778081D01*
X86716870Y-55763075D01*
X86731668Y-55750436D01*
X86748837Y-55737963D01*
X86777946Y-55702774D01*
X86785790Y-55694154D01*
X87853127Y-54626819D01*
X87914450Y-54593334D01*
X87940808Y-54590500D01*
X87944316Y-54590500D01*
X88011355Y-54610185D01*
X88017201Y-54614182D01*
X88127265Y-54694148D01*
X88127270Y-54694151D01*
X88300192Y-54771142D01*
X88300197Y-54771144D01*
X88485354Y-54810500D01*
X88485355Y-54810500D01*
X88674644Y-54810500D01*
X88674646Y-54810500D01*
X88859803Y-54771144D01*
X89032730Y-54694151D01*
X89185871Y-54582888D01*
X89312533Y-54442216D01*
X89407179Y-54278284D01*
X89465674Y-54098256D01*
X89485460Y-53910000D01*
X89465674Y-53721744D01*
X89407179Y-53541716D01*
X89312533Y-53377784D01*
X89185871Y-53237112D01*
X89185870Y-53237111D01*
X89032734Y-53125851D01*
X89032729Y-53125848D01*
X88859807Y-53048857D01*
X88859802Y-53048855D01*
X88714001Y-53017865D01*
X88674646Y-53009500D01*
X88485354Y-53009500D01*
X88452897Y-53016398D01*
X88300197Y-53048855D01*
X88300192Y-53048857D01*
X88127270Y-53125848D01*
X88127265Y-53125851D01*
X87974135Y-53237106D01*
X87974132Y-53237108D01*
X87968681Y-53243161D01*
X87963897Y-53248474D01*
X87904411Y-53285121D01*
X87871750Y-53289500D01*
X87705505Y-53289500D01*
X87689494Y-53287732D01*
X87689472Y-53287974D01*
X87681705Y-53287240D01*
X87681704Y-53287240D01*
X87611738Y-53289439D01*
X87607843Y-53289500D01*
X87579075Y-53289500D01*
X87579072Y-53289500D01*
X87579057Y-53289501D01*
X87574687Y-53290053D01*
X87563059Y-53290968D01*
X87517435Y-53292402D01*
X87517425Y-53292404D01*
X87497049Y-53298323D01*
X87478008Y-53302266D01*
X87456953Y-53304926D01*
X87456937Y-53304930D01*
X87414486Y-53321737D01*
X87403440Y-53325519D01*
X87359599Y-53338256D01*
X87341327Y-53349062D01*
X87323861Y-53357619D01*
X87304128Y-53365432D01*
X87267193Y-53392266D01*
X87257434Y-53398676D01*
X87218132Y-53421920D01*
X87203126Y-53436926D01*
X87188336Y-53449558D01*
X87171167Y-53462032D01*
X87171165Y-53462034D01*
X87142056Y-53497219D01*
X87134196Y-53505856D01*
X86066873Y-54573181D01*
X86005550Y-54606666D01*
X85979192Y-54609500D01*
X85573210Y-54609500D01*
X85549978Y-54607304D01*
X85541170Y-54605624D01*
X85541167Y-54605623D01*
X85483457Y-54609255D01*
X85475671Y-54609500D01*
X76871920Y-54609500D01*
X76804881Y-54589815D01*
X76799035Y-54585818D01*
X76702734Y-54515851D01*
X76702729Y-54515848D01*
X76529807Y-54438857D01*
X76529802Y-54438855D01*
X76384001Y-54407865D01*
X76344646Y-54399500D01*
X76155354Y-54399500D01*
X76122897Y-54406398D01*
X75970197Y-54438855D01*
X75970192Y-54438857D01*
X75797270Y-54515848D01*
X75797265Y-54515851D01*
X75644129Y-54627111D01*
X75579876Y-54698472D01*
X75520389Y-54735121D01*
X75487726Y-54739500D01*
X63075909Y-54739500D01*
X63008870Y-54719815D01*
X62983899Y-54698628D01*
X62983758Y-54698472D01*
X62889179Y-54593787D01*
X62874337Y-54582888D01*
X62725171Y-54473353D01*
X62725164Y-54473349D01*
X62540274Y-54388397D01*
X62540261Y-54388392D01*
X62342053Y-54342397D01*
X62138638Y-54337244D01*
X62138635Y-54337244D01*
X61938350Y-54373140D01*
X61938345Y-54373142D01*
X61749383Y-54448623D01*
X61749371Y-54448629D01*
X61579482Y-54560596D01*
X53812646Y-62327432D01*
X53810398Y-62329624D01*
X53759425Y-62378080D01*
X53746946Y-62389942D01*
X53713245Y-62438361D01*
X53707574Y-62445882D01*
X53670302Y-62491592D01*
X53670298Y-62491598D01*
X53656209Y-62518568D01*
X53648082Y-62531983D01*
X53630702Y-62556955D01*
X53607438Y-62611165D01*
X53603398Y-62619672D01*
X53576090Y-62671951D01*
X53576090Y-62671952D01*
X53567720Y-62701201D01*
X53562459Y-62715979D01*
X53550459Y-62743943D01*
X53545956Y-62765856D01*
X53538791Y-62800724D01*
X53538588Y-62801711D01*
X53536342Y-62810860D01*
X53520113Y-62867577D01*
X53517802Y-62897926D01*
X53515622Y-62913466D01*
X53509500Y-62943258D01*
X53509500Y-63002240D01*
X53509142Y-63011656D01*
X53504662Y-63070474D01*
X53508506Y-63100649D01*
X53509500Y-63116317D01*
X53509500Y-67607968D01*
X53509460Y-67611108D01*
X53507243Y-67698609D01*
X53507243Y-67698618D01*
X53517648Y-67756667D01*
X53518956Y-67765995D01*
X53524925Y-67824677D01*
X53524927Y-67824691D01*
X53534033Y-67853715D01*
X53537772Y-67868948D01*
X53543142Y-67898900D01*
X53543142Y-67898902D01*
X53565020Y-67953671D01*
X53568177Y-67962539D01*
X53585841Y-68018835D01*
X53585842Y-68018836D01*
X53585844Y-68018842D01*
X53600603Y-68045432D01*
X53607336Y-68059608D01*
X53618622Y-68087861D01*
X53618627Y-68087871D01*
X53651080Y-68137113D01*
X53655962Y-68145170D01*
X53684588Y-68196745D01*
X53684589Y-68196747D01*
X53684591Y-68196749D01*
X53704410Y-68219835D01*
X53713855Y-68232362D01*
X53730599Y-68257768D01*
X53772299Y-68299467D01*
X53778704Y-68306378D01*
X53796574Y-68327193D01*
X53817134Y-68351142D01*
X53841187Y-68369760D01*
X53852968Y-68380136D01*
X54049006Y-68576174D01*
X54082491Y-68637497D01*
X54077507Y-68707189D01*
X54035635Y-68763122D01*
X54011763Y-68777134D01*
X53972353Y-68794681D01*
X53947270Y-68805849D01*
X53947268Y-68805849D01*
X53947264Y-68805852D01*
X53794131Y-68917110D01*
X53794127Y-68917113D01*
X53731654Y-68986494D01*
X53672167Y-69023141D01*
X53613726Y-69024811D01*
X53494646Y-68999500D01*
X53305354Y-68999500D01*
X53272897Y-69006398D01*
X53120197Y-69038855D01*
X53120192Y-69038857D01*
X52947270Y-69115848D01*
X52947265Y-69115851D01*
X52794129Y-69227111D01*
X52667466Y-69367785D01*
X52572821Y-69531715D01*
X52572817Y-69531723D01*
X52564853Y-69556235D01*
X52525414Y-69613910D01*
X52461055Y-69641106D01*
X52392209Y-69629190D01*
X52340734Y-69581944D01*
X52339557Y-69579950D01*
X52332533Y-69567784D01*
X52205871Y-69427112D01*
X52205870Y-69427111D01*
X52052734Y-69315851D01*
X52052729Y-69315848D01*
X51879807Y-69238857D01*
X51879802Y-69238855D01*
X51734001Y-69207865D01*
X51694646Y-69199500D01*
X51505354Y-69199500D01*
X51472897Y-69206398D01*
X51320197Y-69238855D01*
X51320192Y-69238857D01*
X51147270Y-69315848D01*
X51147265Y-69315851D01*
X50994129Y-69427111D01*
X50867466Y-69567785D01*
X50772821Y-69731715D01*
X50772818Y-69731722D01*
X50718142Y-69900000D01*
X50714326Y-69911744D01*
X50694540Y-70100000D01*
X50714326Y-70288256D01*
X50714327Y-70288259D01*
X50772818Y-70468277D01*
X50772821Y-70468284D01*
X50867467Y-70632216D01*
X50946650Y-70720157D01*
X50976880Y-70783148D01*
X50978500Y-70803129D01*
X50978500Y-72126449D01*
X50958815Y-72193488D01*
X50906011Y-72239243D01*
X50836853Y-72249187D01*
X50804064Y-72239728D01*
X50689807Y-72188857D01*
X50689802Y-72188855D01*
X50544001Y-72157865D01*
X50504646Y-72149500D01*
X50315354Y-72149500D01*
X50282897Y-72156398D01*
X50130197Y-72188855D01*
X50130192Y-72188857D01*
X49957270Y-72265848D01*
X49957265Y-72265851D01*
X49804129Y-72377111D01*
X49677466Y-72517785D01*
X49582821Y-72681715D01*
X49582818Y-72681722D01*
X49529033Y-72847256D01*
X49524326Y-72861744D01*
X49504540Y-73050000D01*
X49524326Y-73238256D01*
X49524327Y-73238259D01*
X49582818Y-73418277D01*
X49582821Y-73418284D01*
X49677467Y-73582216D01*
X49795244Y-73713020D01*
X49825472Y-73776008D01*
X49827092Y-73795989D01*
X49827092Y-94204920D01*
X49826031Y-94221105D01*
X49821910Y-94252406D01*
X49821910Y-94252408D01*
X49827092Y-94291769D01*
X49828439Y-94302000D01*
X49829500Y-94318186D01*
X49829500Y-97723547D01*
X49809815Y-97790586D01*
X49797650Y-97806519D01*
X49697466Y-97917785D01*
X49602821Y-98081715D01*
X49602818Y-98081722D01*
X49561500Y-98208888D01*
X49544326Y-98261744D01*
X49524540Y-98450000D01*
X49544326Y-98638256D01*
X49544327Y-98638259D01*
X49602818Y-98818277D01*
X49602821Y-98818284D01*
X49697467Y-98982216D01*
X49824129Y-99122888D01*
X49977265Y-99234148D01*
X49977270Y-99234151D01*
X50150192Y-99311142D01*
X50150197Y-99311144D01*
X50335354Y-99350500D01*
X50335355Y-99350500D01*
X50524644Y-99350500D01*
X50524646Y-99350500D01*
X50709803Y-99311144D01*
X50804064Y-99269176D01*
X50873314Y-99259891D01*
X50936590Y-99289519D01*
X50973804Y-99348653D01*
X50978500Y-99382455D01*
X50978500Y-99491191D01*
X50958815Y-99558230D01*
X50942181Y-99578872D01*
X35281962Y-115239090D01*
X35220639Y-115272575D01*
X35150947Y-115267591D01*
X35095014Y-115225719D01*
X35070753Y-115162217D01*
X35063051Y-115074182D01*
X35052063Y-114948592D01*
X34990903Y-114720337D01*
X34891035Y-114506171D01*
X34885731Y-114498595D01*
X34755494Y-114312597D01*
X34588402Y-114145506D01*
X34588396Y-114145501D01*
X34402842Y-114015575D01*
X34359217Y-113960998D01*
X34352023Y-113891500D01*
X34383546Y-113829145D01*
X34402842Y-113812425D01*
X34492708Y-113749500D01*
X34588401Y-113682495D01*
X34755495Y-113515401D01*
X34891035Y-113321830D01*
X34990903Y-113107663D01*
X35052063Y-112879408D01*
X35072659Y-112644000D01*
X35052063Y-112408592D01*
X34990903Y-112180337D01*
X34891035Y-111966171D01*
X34885731Y-111958595D01*
X34755494Y-111772597D01*
X34588402Y-111605506D01*
X34588396Y-111605501D01*
X34402842Y-111475575D01*
X34359217Y-111420998D01*
X34352023Y-111351500D01*
X34383546Y-111289145D01*
X34402842Y-111272425D01*
X34425026Y-111256891D01*
X34588401Y-111142495D01*
X34755495Y-110975401D01*
X34891035Y-110781830D01*
X34990903Y-110567663D01*
X35052063Y-110339408D01*
X35072659Y-110104000D01*
X35070967Y-110084666D01*
X35056188Y-109915740D01*
X35052063Y-109868592D01*
X34990903Y-109640337D01*
X34891035Y-109426171D01*
X34885731Y-109418595D01*
X34755494Y-109232597D01*
X34588402Y-109065506D01*
X34588396Y-109065501D01*
X34402842Y-108935575D01*
X34359217Y-108880998D01*
X34352023Y-108811500D01*
X34383546Y-108749145D01*
X34402842Y-108732425D01*
X34425026Y-108716891D01*
X34588401Y-108602495D01*
X34755495Y-108435401D01*
X34891035Y-108241830D01*
X34990903Y-108027663D01*
X35052063Y-107799408D01*
X35072659Y-107564000D01*
X35052063Y-107328592D01*
X34990903Y-107100337D01*
X34891035Y-106886171D01*
X34885731Y-106878595D01*
X34755494Y-106692597D01*
X34672898Y-106610001D01*
X37774390Y-106610001D01*
X37794804Y-106895433D01*
X37855628Y-107175037D01*
X37855630Y-107175043D01*
X37855631Y-107175046D01*
X37949289Y-107426151D01*
X37955635Y-107443166D01*
X38092770Y-107694309D01*
X38092775Y-107694317D01*
X38264254Y-107923387D01*
X38264270Y-107923405D01*
X38466594Y-108125729D01*
X38466612Y-108125745D01*
X38695682Y-108297224D01*
X38695690Y-108297229D01*
X38946833Y-108434364D01*
X38946832Y-108434364D01*
X38946836Y-108434365D01*
X38946839Y-108434367D01*
X39214954Y-108534369D01*
X39214960Y-108534370D01*
X39214962Y-108534371D01*
X39494566Y-108595195D01*
X39494568Y-108595195D01*
X39494572Y-108595196D01*
X39748220Y-108613337D01*
X39779999Y-108615610D01*
X39780000Y-108615610D01*
X39780001Y-108615610D01*
X39808595Y-108613564D01*
X40065428Y-108595196D01*
X40345046Y-108534369D01*
X40613161Y-108434367D01*
X40864315Y-108297226D01*
X41093395Y-108125739D01*
X41295739Y-107923395D01*
X41467226Y-107694315D01*
X41604367Y-107443161D01*
X41704369Y-107175046D01*
X41762865Y-106906142D01*
X41765195Y-106895433D01*
X41765195Y-106895432D01*
X41765196Y-106895428D01*
X41785610Y-106610000D01*
X41765196Y-106324572D01*
X41763440Y-106316501D01*
X41704371Y-106044962D01*
X41704370Y-106044960D01*
X41704369Y-106044954D01*
X41604367Y-105776839D01*
X41549695Y-105676716D01*
X41467229Y-105525690D01*
X41467224Y-105525682D01*
X41295745Y-105296612D01*
X41295729Y-105296594D01*
X41093405Y-105094270D01*
X41093387Y-105094254D01*
X40864317Y-104922775D01*
X40864309Y-104922770D01*
X40613166Y-104785635D01*
X40613167Y-104785635D01*
X40505915Y-104745632D01*
X40345046Y-104685631D01*
X40345043Y-104685630D01*
X40345037Y-104685628D01*
X40065433Y-104624804D01*
X39780001Y-104604390D01*
X39779999Y-104604390D01*
X39494566Y-104624804D01*
X39214962Y-104685628D01*
X38946833Y-104785635D01*
X38695690Y-104922770D01*
X38695682Y-104922775D01*
X38466612Y-105094254D01*
X38466594Y-105094270D01*
X38264270Y-105296594D01*
X38264254Y-105296612D01*
X38092775Y-105525682D01*
X38092770Y-105525690D01*
X37955635Y-105776833D01*
X37855628Y-106044962D01*
X37794804Y-106324566D01*
X37774390Y-106609998D01*
X37774390Y-106610001D01*
X34672898Y-106610001D01*
X34588402Y-106525506D01*
X34588396Y-106525501D01*
X34402842Y-106395575D01*
X34359217Y-106340998D01*
X34352023Y-106271500D01*
X34383546Y-106209145D01*
X34402842Y-106192425D01*
X34520865Y-106109784D01*
X34588401Y-106062495D01*
X34755495Y-105895401D01*
X34891035Y-105701830D01*
X34990903Y-105487663D01*
X35052063Y-105259408D01*
X35072659Y-105024000D01*
X35052063Y-104788592D01*
X34990903Y-104560337D01*
X34891035Y-104346171D01*
X34885731Y-104338595D01*
X34755494Y-104152597D01*
X34588402Y-103985506D01*
X34588396Y-103985501D01*
X34402842Y-103855575D01*
X34359217Y-103800998D01*
X34352023Y-103731500D01*
X34383546Y-103669145D01*
X34402842Y-103652425D01*
X34515708Y-103573395D01*
X34588401Y-103522495D01*
X34755495Y-103355401D01*
X34891035Y-103161830D01*
X34990903Y-102947663D01*
X35052063Y-102719408D01*
X35072659Y-102484000D01*
X35053061Y-102260001D01*
X37784390Y-102260001D01*
X37804804Y-102545433D01*
X37865628Y-102825037D01*
X37865630Y-102825043D01*
X37865631Y-102825046D01*
X37919204Y-102968680D01*
X37965635Y-103093166D01*
X38102770Y-103344309D01*
X38102775Y-103344317D01*
X38274254Y-103573387D01*
X38274270Y-103573405D01*
X38476594Y-103775729D01*
X38476612Y-103775745D01*
X38705682Y-103947224D01*
X38705690Y-103947229D01*
X38956833Y-104084364D01*
X38956832Y-104084364D01*
X38956836Y-104084365D01*
X38956839Y-104084367D01*
X39224954Y-104184369D01*
X39224960Y-104184370D01*
X39224962Y-104184371D01*
X39504566Y-104245195D01*
X39504568Y-104245195D01*
X39504572Y-104245196D01*
X39758220Y-104263337D01*
X39789999Y-104265610D01*
X39790000Y-104265610D01*
X39790001Y-104265610D01*
X39818595Y-104263564D01*
X40075428Y-104245196D01*
X40355046Y-104184369D01*
X40623161Y-104084367D01*
X40874315Y-103947226D01*
X41103395Y-103775739D01*
X41305739Y-103573395D01*
X41477226Y-103344315D01*
X41614367Y-103093161D01*
X41714369Y-102825046D01*
X41775196Y-102545428D01*
X41795610Y-102260000D01*
X41793750Y-102234000D01*
X41787493Y-102146504D01*
X41775196Y-101974572D01*
X41762470Y-101916073D01*
X41714371Y-101694962D01*
X41714370Y-101694960D01*
X41714369Y-101694954D01*
X41614367Y-101426839D01*
X41550786Y-101310400D01*
X41477229Y-101175690D01*
X41477224Y-101175682D01*
X41305745Y-100946612D01*
X41305729Y-100946594D01*
X41103405Y-100744270D01*
X41103387Y-100744254D01*
X40874317Y-100572775D01*
X40874309Y-100572770D01*
X40623166Y-100435635D01*
X40623167Y-100435635D01*
X40515915Y-100395632D01*
X40355046Y-100335631D01*
X40355043Y-100335630D01*
X40355037Y-100335628D01*
X40075433Y-100274804D01*
X39790001Y-100254390D01*
X39789999Y-100254390D01*
X39504566Y-100274804D01*
X39224962Y-100335628D01*
X38956833Y-100435635D01*
X38705690Y-100572770D01*
X38705682Y-100572775D01*
X38476612Y-100744254D01*
X38476594Y-100744270D01*
X38274270Y-100946594D01*
X38274254Y-100946612D01*
X38102775Y-101175682D01*
X38102770Y-101175690D01*
X37965635Y-101426833D01*
X37865628Y-101694962D01*
X37804804Y-101974566D01*
X37784390Y-102259998D01*
X37784390Y-102260001D01*
X35053061Y-102260001D01*
X35052063Y-102248592D01*
X34990903Y-102020337D01*
X34891035Y-101806171D01*
X34885731Y-101798595D01*
X34755494Y-101612597D01*
X34588402Y-101445506D01*
X34588395Y-101445501D01*
X34394834Y-101309967D01*
X34394830Y-101309965D01*
X34394828Y-101309964D01*
X34180663Y-101210097D01*
X34180659Y-101210096D01*
X34180655Y-101210094D01*
X33952413Y-101148938D01*
X33952403Y-101148936D01*
X33717001Y-101128341D01*
X33716999Y-101128341D01*
X33481596Y-101148936D01*
X33481586Y-101148938D01*
X33253344Y-101210094D01*
X33253335Y-101210098D01*
X33039171Y-101309964D01*
X33039169Y-101309965D01*
X32845597Y-101445505D01*
X32678508Y-101612594D01*
X32548269Y-101798595D01*
X32493692Y-101842219D01*
X32424193Y-101849412D01*
X32361839Y-101817890D01*
X32345119Y-101798594D01*
X32215113Y-101612926D01*
X32215108Y-101612920D01*
X32048082Y-101445894D01*
X31854578Y-101310399D01*
X31640492Y-101210570D01*
X31640486Y-101210567D01*
X31427000Y-101153364D01*
X31427000Y-102048498D01*
X31319315Y-101999320D01*
X31212763Y-101984000D01*
X31141237Y-101984000D01*
X31034685Y-101999320D01*
X30927000Y-102048498D01*
X30927000Y-101153364D01*
X30926999Y-101153364D01*
X30713513Y-101210567D01*
X30713507Y-101210570D01*
X30499422Y-101310399D01*
X30499420Y-101310400D01*
X30305926Y-101445886D01*
X30305920Y-101445891D01*
X30138891Y-101612920D01*
X30138886Y-101612926D01*
X30003400Y-101806420D01*
X30003399Y-101806422D01*
X29903570Y-102020507D01*
X29903567Y-102020513D01*
X29846364Y-102233999D01*
X29846364Y-102234000D01*
X30743314Y-102234000D01*
X30717507Y-102274156D01*
X30677000Y-102412111D01*
X30677000Y-102555889D01*
X30717507Y-102693844D01*
X30743314Y-102734000D01*
X29846364Y-102734000D01*
X29903567Y-102947486D01*
X29903570Y-102947492D01*
X30003399Y-103161578D01*
X30138894Y-103355082D01*
X30305917Y-103522105D01*
X30492031Y-103652425D01*
X30535656Y-103707003D01*
X30542848Y-103776501D01*
X30511326Y-103838856D01*
X30492031Y-103855575D01*
X30305922Y-103985890D01*
X30305920Y-103985891D01*
X30138891Y-104152920D01*
X30138886Y-104152926D01*
X30003400Y-104346420D01*
X30003399Y-104346422D01*
X29903570Y-104560507D01*
X29903567Y-104560513D01*
X29846364Y-104773999D01*
X29846364Y-104774000D01*
X30743314Y-104774000D01*
X30717507Y-104814156D01*
X30677000Y-104952111D01*
X30677000Y-105095889D01*
X30717507Y-105233844D01*
X30743314Y-105274000D01*
X29846364Y-105274000D01*
X29903567Y-105487486D01*
X29903570Y-105487492D01*
X30003399Y-105701578D01*
X30138894Y-105895082D01*
X30305917Y-106062105D01*
X30492031Y-106192425D01*
X30535656Y-106247003D01*
X30542848Y-106316501D01*
X30511326Y-106378856D01*
X30492031Y-106395575D01*
X30305922Y-106525890D01*
X30305920Y-106525891D01*
X30138891Y-106692920D01*
X30138886Y-106692926D01*
X30003400Y-106886420D01*
X30003399Y-106886422D01*
X29903570Y-107100507D01*
X29903567Y-107100513D01*
X29846364Y-107313999D01*
X29846364Y-107314000D01*
X30743314Y-107314000D01*
X30717507Y-107354156D01*
X30677000Y-107492111D01*
X30677000Y-107635889D01*
X30717507Y-107773844D01*
X30743314Y-107814000D01*
X29846364Y-107814000D01*
X29903567Y-108027486D01*
X29903570Y-108027492D01*
X30003399Y-108241578D01*
X30138894Y-108435082D01*
X30305917Y-108602105D01*
X30492031Y-108732425D01*
X30535656Y-108787003D01*
X30542848Y-108856501D01*
X30511326Y-108918856D01*
X30492031Y-108935575D01*
X30305922Y-109065890D01*
X30305920Y-109065891D01*
X30138891Y-109232920D01*
X30138886Y-109232926D01*
X30003400Y-109426420D01*
X30003399Y-109426422D01*
X29903570Y-109640507D01*
X29903567Y-109640513D01*
X29846364Y-109853999D01*
X29846364Y-109854000D01*
X30743314Y-109854000D01*
X30717507Y-109894156D01*
X30677000Y-110032111D01*
X30677000Y-110175889D01*
X30717507Y-110313844D01*
X30743314Y-110354000D01*
X29846364Y-110354000D01*
X29903567Y-110567486D01*
X29903570Y-110567492D01*
X30003399Y-110781578D01*
X30138894Y-110975082D01*
X30305917Y-111142105D01*
X30492031Y-111272425D01*
X30535656Y-111327003D01*
X30542848Y-111396501D01*
X30511326Y-111458856D01*
X30492031Y-111475575D01*
X30305922Y-111605890D01*
X30305920Y-111605891D01*
X30138891Y-111772920D01*
X30138886Y-111772926D01*
X30003400Y-111966420D01*
X30003399Y-111966422D01*
X29903570Y-112180507D01*
X29903567Y-112180513D01*
X29846364Y-112393999D01*
X29846364Y-112394000D01*
X30743314Y-112394000D01*
X30717507Y-112434156D01*
X30677000Y-112572111D01*
X30677000Y-112715889D01*
X30717507Y-112853844D01*
X30743314Y-112894000D01*
X29846364Y-112894000D01*
X29903567Y-113107486D01*
X29903570Y-113107492D01*
X30003399Y-113321578D01*
X30138894Y-113515082D01*
X30305917Y-113682105D01*
X30492031Y-113812425D01*
X30535656Y-113867003D01*
X30542848Y-113936501D01*
X30511326Y-113998856D01*
X30492031Y-114015575D01*
X30305922Y-114145890D01*
X30305920Y-114145891D01*
X30138891Y-114312920D01*
X30138886Y-114312926D01*
X30003400Y-114506420D01*
X30003399Y-114506422D01*
X29903570Y-114720507D01*
X29903567Y-114720513D01*
X29846364Y-114933999D01*
X29846364Y-114934000D01*
X30743314Y-114934000D01*
X30717507Y-114974156D01*
X30677000Y-115112111D01*
X30677000Y-115255889D01*
X30717507Y-115393844D01*
X30743314Y-115434000D01*
X29846364Y-115434000D01*
X29903567Y-115647486D01*
X29903570Y-115647492D01*
X30003399Y-115861578D01*
X30138894Y-116055082D01*
X30305917Y-116222105D01*
X30492031Y-116352425D01*
X30535656Y-116407003D01*
X30542848Y-116476501D01*
X30511326Y-116538856D01*
X30492031Y-116555575D01*
X30305922Y-116685890D01*
X30305920Y-116685891D01*
X30138891Y-116852920D01*
X30138886Y-116852926D01*
X30003400Y-117046420D01*
X30003399Y-117046422D01*
X29903570Y-117260507D01*
X29903567Y-117260513D01*
X29846364Y-117473999D01*
X29846364Y-117474000D01*
X30743314Y-117474000D01*
X30717507Y-117514156D01*
X30677000Y-117652111D01*
X30677000Y-117795889D01*
X30717507Y-117933844D01*
X30743314Y-117974000D01*
X29846364Y-117974000D01*
X29903567Y-118187486D01*
X29903570Y-118187492D01*
X30003399Y-118401578D01*
X30138894Y-118595082D01*
X30305917Y-118762105D01*
X30492031Y-118892425D01*
X30535656Y-118947003D01*
X30542848Y-119016501D01*
X30511326Y-119078856D01*
X30492031Y-119095575D01*
X30305922Y-119225890D01*
X30305920Y-119225891D01*
X30138891Y-119392920D01*
X30138886Y-119392926D01*
X30003400Y-119586420D01*
X30003399Y-119586422D01*
X29903570Y-119800507D01*
X29903567Y-119800513D01*
X29846364Y-120013999D01*
X29846364Y-120014000D01*
X30743314Y-120014000D01*
X30717507Y-120054156D01*
X30677000Y-120192111D01*
X30677000Y-120335889D01*
X30717507Y-120473844D01*
X30743314Y-120514000D01*
X29846364Y-120514000D01*
X29903567Y-120727486D01*
X29903570Y-120727492D01*
X30003399Y-120941578D01*
X30138894Y-121135082D01*
X30305917Y-121302105D01*
X30492031Y-121432425D01*
X30535656Y-121487003D01*
X30542848Y-121556501D01*
X30511326Y-121618856D01*
X30492031Y-121635575D01*
X30305922Y-121765890D01*
X30305920Y-121765891D01*
X30138891Y-121932920D01*
X30138886Y-121932926D01*
X30003400Y-122126420D01*
X30003399Y-122126422D01*
X29903570Y-122340507D01*
X29903567Y-122340513D01*
X29846364Y-122553999D01*
X29846364Y-122554000D01*
X30743314Y-122554000D01*
X30717507Y-122594156D01*
X30677000Y-122732111D01*
X30677000Y-122875889D01*
X30717507Y-123013844D01*
X30743314Y-123054000D01*
X29846364Y-123054000D01*
X29903567Y-123267486D01*
X29903570Y-123267492D01*
X30003399Y-123481578D01*
X30138894Y-123675082D01*
X30305917Y-123842105D01*
X30491595Y-123972119D01*
X30535219Y-124026696D01*
X30542412Y-124096195D01*
X30510890Y-124158549D01*
X30491595Y-124175269D01*
X30305594Y-124305508D01*
X30138505Y-124472597D01*
X30002965Y-124666169D01*
X30002964Y-124666171D01*
X29903098Y-124880335D01*
X29903094Y-124880344D01*
X29841938Y-125108586D01*
X29841936Y-125108596D01*
X29821341Y-125343999D01*
X29821341Y-125344000D01*
X29400000Y-125344000D01*
X29400000Y-82759501D01*
X44533890Y-82759501D01*
X44554304Y-83044933D01*
X44615128Y-83324537D01*
X44615130Y-83324543D01*
X44615131Y-83324546D01*
X44696178Y-83541841D01*
X44715135Y-83592666D01*
X44852270Y-83843809D01*
X44852275Y-83843817D01*
X45023754Y-84072887D01*
X45023770Y-84072905D01*
X45226094Y-84275229D01*
X45226112Y-84275245D01*
X45455182Y-84446724D01*
X45455190Y-84446729D01*
X45706333Y-84583864D01*
X45706332Y-84583864D01*
X45706336Y-84583865D01*
X45706339Y-84583867D01*
X45974454Y-84683869D01*
X45974460Y-84683870D01*
X45974462Y-84683871D01*
X46215886Y-84736390D01*
X46277209Y-84769875D01*
X46310694Y-84831198D01*
X46305710Y-84900890D01*
X46263838Y-84956823D01*
X46215886Y-84978722D01*
X45997962Y-85026128D01*
X45729833Y-85126135D01*
X45478690Y-85263270D01*
X45478682Y-85263275D01*
X45249612Y-85434754D01*
X45249594Y-85434770D01*
X45047270Y-85637094D01*
X45047254Y-85637112D01*
X44875775Y-85866182D01*
X44875770Y-85866190D01*
X44738635Y-86117333D01*
X44638628Y-86385462D01*
X44577804Y-86665066D01*
X44557390Y-86950498D01*
X44557390Y-86950501D01*
X44577804Y-87235933D01*
X44638628Y-87515537D01*
X44638630Y-87515543D01*
X44638631Y-87515546D01*
X44665761Y-87588284D01*
X44738635Y-87783666D01*
X44875770Y-88034809D01*
X44875775Y-88034817D01*
X45047254Y-88263887D01*
X45047270Y-88263905D01*
X45249594Y-88466229D01*
X45249612Y-88466245D01*
X45478679Y-88637722D01*
X45478690Y-88637729D01*
X45729833Y-88774864D01*
X45729832Y-88774864D01*
X45729836Y-88774865D01*
X45729839Y-88774867D01*
X45997954Y-88874869D01*
X45997960Y-88874870D01*
X45997962Y-88874871D01*
X46277566Y-88935695D01*
X46277568Y-88935695D01*
X46277572Y-88935696D01*
X46531220Y-88953837D01*
X46562999Y-88956110D01*
X46563000Y-88956110D01*
X46563001Y-88956110D01*
X46591595Y-88954064D01*
X46848428Y-88935696D01*
X47128046Y-88874869D01*
X47396161Y-88774867D01*
X47647315Y-88637726D01*
X47647318Y-88637723D01*
X47647321Y-88637722D01*
X47876387Y-88466245D01*
X47876387Y-88466244D01*
X47876395Y-88466239D01*
X48078739Y-88263895D01*
X48250226Y-88034815D01*
X48387367Y-87783661D01*
X48487369Y-87515546D01*
X48510708Y-87408259D01*
X48548195Y-87235933D01*
X48548195Y-87235932D01*
X48548196Y-87235928D01*
X48568610Y-86950500D01*
X48568206Y-86944858D01*
X48564390Y-86891497D01*
X48548196Y-86665072D01*
X48534040Y-86600000D01*
X48487371Y-86385462D01*
X48487370Y-86385460D01*
X48487369Y-86385454D01*
X48387367Y-86117339D01*
X48360308Y-86067785D01*
X48250229Y-85866190D01*
X48250224Y-85866182D01*
X48078745Y-85637112D01*
X48078729Y-85637094D01*
X47876405Y-85434770D01*
X47876387Y-85434754D01*
X47647317Y-85263275D01*
X47647309Y-85263270D01*
X47396166Y-85126135D01*
X47396167Y-85126135D01*
X47343958Y-85106662D01*
X47128046Y-85026131D01*
X47128039Y-85026129D01*
X47128038Y-85026129D01*
X46886612Y-84973609D01*
X46825289Y-84940124D01*
X46791805Y-84878801D01*
X46796789Y-84809109D01*
X46838661Y-84753176D01*
X46886611Y-84731277D01*
X47104546Y-84683869D01*
X47372661Y-84583867D01*
X47623815Y-84446726D01*
X47852895Y-84275239D01*
X48055239Y-84072895D01*
X48226726Y-83843815D01*
X48363867Y-83592661D01*
X48463869Y-83324546D01*
X48516585Y-83082216D01*
X48524695Y-83044933D01*
X48524695Y-83044932D01*
X48524696Y-83044928D01*
X48545110Y-82759500D01*
X48524696Y-82474072D01*
X48463869Y-82194454D01*
X48363867Y-81926339D01*
X48226726Y-81675185D01*
X48226724Y-81675182D01*
X48055245Y-81446112D01*
X48055229Y-81446094D01*
X47852905Y-81243770D01*
X47852887Y-81243754D01*
X47623817Y-81072275D01*
X47623809Y-81072270D01*
X47372666Y-80935135D01*
X47372667Y-80935135D01*
X47265415Y-80895132D01*
X47104546Y-80835131D01*
X47104543Y-80835130D01*
X47104537Y-80835128D01*
X46824933Y-80774304D01*
X46539501Y-80753890D01*
X46539499Y-80753890D01*
X46254066Y-80774304D01*
X45974462Y-80835128D01*
X45706333Y-80935135D01*
X45455190Y-81072270D01*
X45455182Y-81072275D01*
X45226112Y-81243754D01*
X45226094Y-81243770D01*
X45023770Y-81446094D01*
X45023754Y-81446112D01*
X44852275Y-81675182D01*
X44852270Y-81675190D01*
X44715135Y-81926333D01*
X44615128Y-82194462D01*
X44554304Y-82474066D01*
X44533890Y-82759498D01*
X44533890Y-82759501D01*
X29400000Y-82759501D01*
X29400000Y-75610001D01*
X40194390Y-75610001D01*
X40214804Y-75895433D01*
X40275628Y-76175037D01*
X40275630Y-76175043D01*
X40275631Y-76175046D01*
X40335216Y-76334798D01*
X40375635Y-76443166D01*
X40512770Y-76694309D01*
X40512775Y-76694317D01*
X40684254Y-76923387D01*
X40684270Y-76923405D01*
X40886594Y-77125729D01*
X40886612Y-77125745D01*
X41115682Y-77297224D01*
X41115690Y-77297229D01*
X41366833Y-77434364D01*
X41366832Y-77434364D01*
X41366836Y-77434365D01*
X41366839Y-77434367D01*
X41634954Y-77534369D01*
X41634960Y-77534370D01*
X41634962Y-77534371D01*
X41914566Y-77595195D01*
X41914568Y-77595195D01*
X41914572Y-77595196D01*
X42168220Y-77613337D01*
X42199999Y-77615610D01*
X42200000Y-77615610D01*
X42200001Y-77615610D01*
X42228595Y-77613564D01*
X42485428Y-77595196D01*
X42646018Y-77560262D01*
X42765037Y-77534371D01*
X42765037Y-77534370D01*
X42765046Y-77534369D01*
X43033161Y-77434367D01*
X43284315Y-77297226D01*
X43513395Y-77125739D01*
X43715739Y-76923395D01*
X43887226Y-76694315D01*
X44024367Y-76443161D01*
X44124369Y-76175046D01*
X44144501Y-76082500D01*
X44185195Y-75895433D01*
X44185195Y-75895432D01*
X44185196Y-75895428D01*
X44205610Y-75610000D01*
X44185196Y-75324572D01*
X44164408Y-75229013D01*
X44124371Y-75044962D01*
X44124370Y-75044960D01*
X44124369Y-75044954D01*
X44024367Y-74776839D01*
X43948615Y-74638111D01*
X43887229Y-74525690D01*
X43887224Y-74525682D01*
X43715745Y-74296612D01*
X43715729Y-74296594D01*
X43513405Y-74094270D01*
X43513387Y-74094254D01*
X43284317Y-73922775D01*
X43284309Y-73922770D01*
X43033166Y-73785635D01*
X43033167Y-73785635D01*
X42868713Y-73724297D01*
X42765046Y-73685631D01*
X42765043Y-73685630D01*
X42765037Y-73685628D01*
X42485433Y-73624804D01*
X42200001Y-73604390D01*
X42199999Y-73604390D01*
X41914566Y-73624804D01*
X41634962Y-73685628D01*
X41366833Y-73785635D01*
X41115690Y-73922770D01*
X41115682Y-73922775D01*
X40886612Y-74094254D01*
X40886594Y-74094270D01*
X40684270Y-74296594D01*
X40684254Y-74296612D01*
X40512775Y-74525682D01*
X40512770Y-74525690D01*
X40375635Y-74776833D01*
X40275628Y-75044962D01*
X40214804Y-75324566D01*
X40194390Y-75609998D01*
X40194390Y-75610001D01*
X29400000Y-75610001D01*
X29400000Y-35524402D01*
X29419685Y-35457363D01*
X29472489Y-35411608D01*
X29524398Y-35400403D01*
X62622407Y-35507864D01*
X62689379Y-35527766D01*
X62734962Y-35580718D01*
X62744681Y-35649908D01*
X62715450Y-35713370D01*
X62709682Y-35719544D01*
X57476048Y-40953181D01*
X57414725Y-40986666D01*
X57388367Y-40989500D01*
X36857494Y-40989500D01*
X36841308Y-40988439D01*
X36810001Y-40984317D01*
X36809999Y-40984317D01*
X36653238Y-41004955D01*
X36507160Y-41065463D01*
X36381714Y-41161721D01*
X36362495Y-41186769D01*
X36351800Y-41198964D01*
X34057584Y-43493181D01*
X33996261Y-43526666D01*
X33969903Y-43529500D01*
X33875354Y-43529500D01*
X33842897Y-43536398D01*
X33690197Y-43568855D01*
X33690192Y-43568857D01*
X33517270Y-43645848D01*
X33517265Y-43645851D01*
X33364129Y-43757111D01*
X33237466Y-43897785D01*
X33142821Y-44061715D01*
X33142818Y-44061722D01*
X33084327Y-44241740D01*
X33084326Y-44241744D01*
X33064540Y-44430000D01*
X33084326Y-44618256D01*
X33084327Y-44618259D01*
X33142818Y-44798277D01*
X33142821Y-44798284D01*
X33237467Y-44962216D01*
X33292101Y-45022893D01*
X33364129Y-45102888D01*
X33517265Y-45214148D01*
X33517270Y-45214151D01*
X33690192Y-45291142D01*
X33690197Y-45291144D01*
X33875354Y-45330500D01*
X33875355Y-45330500D01*
X34064644Y-45330500D01*
X34064646Y-45330500D01*
X34249803Y-45291144D01*
X34422730Y-45214151D01*
X34575871Y-45102888D01*
X34702533Y-44962216D01*
X34797179Y-44798284D01*
X34855674Y-44618256D01*
X34875460Y-44430000D01*
X34875460Y-44429997D01*
X34875460Y-44425136D01*
X34895145Y-44358097D01*
X34911779Y-44337455D01*
X37022416Y-42226819D01*
X37083739Y-42193334D01*
X37110097Y-42190500D01*
X57640977Y-42190500D01*
X57657161Y-42191560D01*
X57688464Y-42195682D01*
X57688465Y-42195682D01*
X57740718Y-42188802D01*
X57845226Y-42175044D01*
X57991305Y-42114536D01*
X58116746Y-42018282D01*
X58135973Y-41993223D01*
X58146654Y-41981043D01*
X64576886Y-35550811D01*
X64638205Y-35517329D01*
X64664960Y-35514496D01*
X66132545Y-35519261D01*
X66199519Y-35539163D01*
X66245102Y-35592115D01*
X66254821Y-35661305D01*
X66225590Y-35724767D01*
X66219822Y-35730941D01*
X58237584Y-43713181D01*
X58176261Y-43746666D01*
X58149903Y-43749500D01*
X38576258Y-43749500D01*
X38509219Y-43729815D01*
X38484109Y-43708473D01*
X38455871Y-43677112D01*
X38455864Y-43677106D01*
X38302734Y-43565851D01*
X38302729Y-43565848D01*
X38129807Y-43488857D01*
X38129802Y-43488855D01*
X37984001Y-43457865D01*
X37944646Y-43449500D01*
X37755354Y-43449500D01*
X37722897Y-43456398D01*
X37570197Y-43488855D01*
X37570192Y-43488857D01*
X37397270Y-43565848D01*
X37397265Y-43565851D01*
X37244129Y-43677111D01*
X37117466Y-43817785D01*
X37022821Y-43981715D01*
X37022818Y-43981722D01*
X36996827Y-44061716D01*
X36964326Y-44161744D01*
X36944540Y-44350000D01*
X36964326Y-44538256D01*
X36964327Y-44538259D01*
X37022818Y-44718277D01*
X37022821Y-44718284D01*
X37117467Y-44882216D01*
X37244128Y-45022887D01*
X37244129Y-45022888D01*
X37397265Y-45134148D01*
X37397270Y-45134151D01*
X37570192Y-45211142D01*
X37570197Y-45211144D01*
X37755354Y-45250500D01*
X37755355Y-45250500D01*
X37944644Y-45250500D01*
X37944646Y-45250500D01*
X38129803Y-45211144D01*
X38302730Y-45134151D01*
X38455871Y-45022888D01*
X38484109Y-44991527D01*
X38543595Y-44954879D01*
X38576258Y-44950500D01*
X58402513Y-44950500D01*
X58418697Y-44951560D01*
X58450000Y-44955682D01*
X58450001Y-44955682D01*
X58502254Y-44948802D01*
X58606762Y-44935044D01*
X58752841Y-44874536D01*
X58774024Y-44858282D01*
X58878282Y-44778282D01*
X58897509Y-44753223D01*
X58908190Y-44741043D01*
X68087026Y-35562207D01*
X68148345Y-35528725D01*
X68175094Y-35525893D01*
X69092936Y-35528873D01*
X69159908Y-35548774D01*
X69205491Y-35601726D01*
X69215210Y-35670916D01*
X69185979Y-35734378D01*
X69180211Y-35740552D01*
X59317584Y-45603181D01*
X59256261Y-45636666D01*
X59229903Y-45639500D01*
X41905699Y-45639500D01*
X41838660Y-45619815D01*
X41832814Y-45615818D01*
X41751700Y-45556885D01*
X41751695Y-45556882D01*
X41578773Y-45479891D01*
X41578768Y-45479889D01*
X41432967Y-45448899D01*
X41393612Y-45440534D01*
X41204320Y-45440534D01*
X41171863Y-45447432D01*
X41019163Y-45479889D01*
X41019158Y-45479891D01*
X40846236Y-45556882D01*
X40846231Y-45556885D01*
X40693095Y-45668145D01*
X40566432Y-45808819D01*
X40471787Y-45972749D01*
X40471784Y-45972756D01*
X40413293Y-46152774D01*
X40413292Y-46152778D01*
X40393506Y-46341034D01*
X40413292Y-46529290D01*
X40413293Y-46529293D01*
X40471784Y-46709311D01*
X40471787Y-46709318D01*
X40566433Y-46873250D01*
X40573887Y-46881528D01*
X40693095Y-47013922D01*
X40846231Y-47125182D01*
X40846236Y-47125185D01*
X41019158Y-47202176D01*
X41019163Y-47202178D01*
X41204320Y-47241534D01*
X41204321Y-47241534D01*
X41393610Y-47241534D01*
X41393612Y-47241534D01*
X41578769Y-47202178D01*
X41751696Y-47125185D01*
X41904837Y-47013922D01*
X42024045Y-46881527D01*
X42083532Y-46844879D01*
X42116195Y-46840500D01*
X59482513Y-46840500D01*
X59498697Y-46841560D01*
X59530000Y-46845682D01*
X59530001Y-46845682D01*
X59582254Y-46838802D01*
X59686762Y-46825044D01*
X59832841Y-46764536D01*
X59958282Y-46668282D01*
X59977509Y-46643223D01*
X59988190Y-46631043D01*
X70783043Y-35836190D01*
X70795223Y-35825509D01*
X70820282Y-35806282D01*
X70916536Y-35680841D01*
X70945132Y-35611802D01*
X70988969Y-35557403D01*
X71055263Y-35535337D01*
X71060040Y-35535259D01*
X91000000Y-35600000D01*
X91000000Y-35599999D01*
X91000000Y-34569258D01*
X91019685Y-34502219D01*
X91072489Y-34456464D01*
X91141647Y-34446520D01*
X91205203Y-34475545D01*
X91211681Y-34481577D01*
X91278599Y-34548495D01*
X91308252Y-34569258D01*
X91472165Y-34684032D01*
X91472167Y-34684033D01*
X91472170Y-34684035D01*
X91686337Y-34783903D01*
X91914592Y-34845063D01*
X92102918Y-34861539D01*
X92149999Y-34865659D01*
X92150000Y-34865659D01*
X92150001Y-34865659D01*
X92189234Y-34862226D01*
X92385408Y-34845063D01*
X92613663Y-34783903D01*
X92827830Y-34684035D01*
X93021401Y-34548495D01*
X93188495Y-34381401D01*
X93324035Y-34187830D01*
X93423903Y-33973663D01*
X93485063Y-33745408D01*
X93505659Y-33510000D01*
X93485063Y-33274592D01*
X93423903Y-33046337D01*
X93324035Y-32832171D01*
X93188495Y-32638599D01*
X93066179Y-32516283D01*
X93032696Y-32454963D01*
X93037680Y-32385271D01*
X93079551Y-32329337D01*
X93110529Y-32312422D01*
X93242086Y-32263354D01*
X93242093Y-32263350D01*
X93357187Y-32177190D01*
X93357190Y-32177187D01*
X93443350Y-32062093D01*
X93443354Y-32062086D01*
X93493596Y-31927379D01*
X93493598Y-31927372D01*
X93499999Y-31867844D01*
X93500000Y-31867827D01*
X93500000Y-31220000D01*
X92583686Y-31220000D01*
X92609493Y-31179844D01*
X92650000Y-31041889D01*
X92650000Y-30898111D01*
X92609493Y-30760156D01*
X92583686Y-30720000D01*
X93500000Y-30720000D01*
X93500000Y-30072172D01*
X93499999Y-30072155D01*
X93493598Y-30012627D01*
X93493596Y-30012620D01*
X93443354Y-29877913D01*
X93443350Y-29877906D01*
X93357190Y-29762812D01*
X93357187Y-29762809D01*
X93242093Y-29676649D01*
X93242086Y-29676645D01*
X93107379Y-29626403D01*
X93107372Y-29626401D01*
X93047844Y-29620000D01*
X92400000Y-29620000D01*
X92400000Y-30534498D01*
X92292315Y-30485320D01*
X92185763Y-30470000D01*
X92114237Y-30470000D01*
X92007685Y-30485320D01*
X91900000Y-30534498D01*
X91900000Y-29620000D01*
X91252155Y-29620000D01*
X91192627Y-29626401D01*
X91192620Y-29626403D01*
X91167331Y-29635835D01*
X91097639Y-29640818D01*
X91036317Y-29607331D01*
X91002833Y-29546007D01*
X91000000Y-29519652D01*
X91000000Y-29324000D01*
X91019685Y-29256961D01*
X91072489Y-29211206D01*
X91124000Y-29200000D01*
X129076000Y-29200000D01*
X129143039Y-29219685D01*
G37*
%TD.AperFunction*%
%TD*%
M02*
