%TF.GenerationSoftware,KiCad,Pcbnew,7.0.10*%
%TF.CreationDate,2024-02-10T01:11:12-05:00*%
%TF.ProjectId,9260-first,39323630-2d66-4697-9273-742e6b696361,rev?*%
%TF.SameCoordinates,Original*%
%TF.FileFunction,Drillmap*%
%TF.FilePolarity,Positive*%
%FSLAX45Y45*%
G04 Gerber Fmt 4.5, Leading zero omitted, Abs format (unit mm)*
G04 Created by KiCad (PCBNEW 7.0.10) date 2024-02-10 01:11:12*
%MOMM*%
%LPD*%
G01*
G04 APERTURE LIST*
%ADD10C,0.100000*%
%ADD11C,0.200000*%
G04 APERTURE END LIST*
D10*
X2928000Y-2906000D02*
X12928000Y-2906000D01*
X12928000Y-12906000D01*
X2928000Y-12906000D01*
X2928000Y-2906000D01*
D11*
D10*
X6968300Y-12245500D02*
X7033300Y-12310500D01*
X7033300Y-12245500D02*
X6968300Y-12310500D01*
X7546300Y-12245500D02*
X7611300Y-12310500D01*
X7611300Y-12245500D02*
X7546300Y-12310500D01*
D11*
X3183777Y-13222484D02*
X3183777Y-13022484D01*
X3183777Y-13022484D02*
X3231396Y-13022484D01*
X3231396Y-13022484D02*
X3259967Y-13032008D01*
X3259967Y-13032008D02*
X3279015Y-13051055D01*
X3279015Y-13051055D02*
X3288539Y-13070103D01*
X3288539Y-13070103D02*
X3298062Y-13108198D01*
X3298062Y-13108198D02*
X3298062Y-13136769D01*
X3298062Y-13136769D02*
X3288539Y-13174865D01*
X3288539Y-13174865D02*
X3279015Y-13193912D01*
X3279015Y-13193912D02*
X3259967Y-13212960D01*
X3259967Y-13212960D02*
X3231396Y-13222484D01*
X3231396Y-13222484D02*
X3183777Y-13222484D01*
X3383777Y-13222484D02*
X3383777Y-13089150D01*
X3383777Y-13127246D02*
X3393301Y-13108198D01*
X3393301Y-13108198D02*
X3402824Y-13098674D01*
X3402824Y-13098674D02*
X3421872Y-13089150D01*
X3421872Y-13089150D02*
X3440920Y-13089150D01*
X3507586Y-13222484D02*
X3507586Y-13089150D01*
X3507586Y-13022484D02*
X3498062Y-13032008D01*
X3498062Y-13032008D02*
X3507586Y-13041531D01*
X3507586Y-13041531D02*
X3517110Y-13032008D01*
X3517110Y-13032008D02*
X3507586Y-13022484D01*
X3507586Y-13022484D02*
X3507586Y-13041531D01*
X3631396Y-13222484D02*
X3612348Y-13212960D01*
X3612348Y-13212960D02*
X3602824Y-13193912D01*
X3602824Y-13193912D02*
X3602824Y-13022484D01*
X3736158Y-13222484D02*
X3717110Y-13212960D01*
X3717110Y-13212960D02*
X3707586Y-13193912D01*
X3707586Y-13193912D02*
X3707586Y-13022484D01*
X3964729Y-13222484D02*
X3964729Y-13022484D01*
X3964729Y-13022484D02*
X4031396Y-13165341D01*
X4031396Y-13165341D02*
X4098062Y-13022484D01*
X4098062Y-13022484D02*
X4098062Y-13222484D01*
X4279015Y-13222484D02*
X4279015Y-13117722D01*
X4279015Y-13117722D02*
X4269491Y-13098674D01*
X4269491Y-13098674D02*
X4250444Y-13089150D01*
X4250444Y-13089150D02*
X4212348Y-13089150D01*
X4212348Y-13089150D02*
X4193301Y-13098674D01*
X4279015Y-13212960D02*
X4259967Y-13222484D01*
X4259967Y-13222484D02*
X4212348Y-13222484D01*
X4212348Y-13222484D02*
X4193301Y-13212960D01*
X4193301Y-13212960D02*
X4183777Y-13193912D01*
X4183777Y-13193912D02*
X4183777Y-13174865D01*
X4183777Y-13174865D02*
X4193301Y-13155817D01*
X4193301Y-13155817D02*
X4212348Y-13146293D01*
X4212348Y-13146293D02*
X4259967Y-13146293D01*
X4259967Y-13146293D02*
X4279015Y-13136769D01*
X4374253Y-13089150D02*
X4374253Y-13289150D01*
X4374253Y-13098674D02*
X4393301Y-13089150D01*
X4393301Y-13089150D02*
X4431396Y-13089150D01*
X4431396Y-13089150D02*
X4450444Y-13098674D01*
X4450444Y-13098674D02*
X4459967Y-13108198D01*
X4459967Y-13108198D02*
X4469491Y-13127246D01*
X4469491Y-13127246D02*
X4469491Y-13184388D01*
X4469491Y-13184388D02*
X4459967Y-13203436D01*
X4459967Y-13203436D02*
X4450444Y-13212960D01*
X4450444Y-13212960D02*
X4431396Y-13222484D01*
X4431396Y-13222484D02*
X4393301Y-13222484D01*
X4393301Y-13222484D02*
X4374253Y-13212960D01*
X4555205Y-13203436D02*
X4564729Y-13212960D01*
X4564729Y-13212960D02*
X4555205Y-13222484D01*
X4555205Y-13222484D02*
X4545682Y-13212960D01*
X4545682Y-13212960D02*
X4555205Y-13203436D01*
X4555205Y-13203436D02*
X4555205Y-13222484D01*
X4555205Y-13098674D02*
X4564729Y-13108198D01*
X4564729Y-13108198D02*
X4555205Y-13117722D01*
X4555205Y-13117722D02*
X4545682Y-13108198D01*
X4545682Y-13108198D02*
X4555205Y-13098674D01*
X4555205Y-13098674D02*
X4555205Y-13117722D01*
D10*
X2858000Y-13518500D02*
X2923000Y-13583500D01*
X2923000Y-13518500D02*
X2858000Y-13583500D01*
D11*
X3221872Y-13442484D02*
X3240920Y-13442484D01*
X3240920Y-13442484D02*
X3259967Y-13452008D01*
X3259967Y-13452008D02*
X3269491Y-13461531D01*
X3269491Y-13461531D02*
X3279015Y-13480579D01*
X3279015Y-13480579D02*
X3288539Y-13518674D01*
X3288539Y-13518674D02*
X3288539Y-13566293D01*
X3288539Y-13566293D02*
X3279015Y-13604388D01*
X3279015Y-13604388D02*
X3269491Y-13623436D01*
X3269491Y-13623436D02*
X3259967Y-13632960D01*
X3259967Y-13632960D02*
X3240920Y-13642484D01*
X3240920Y-13642484D02*
X3221872Y-13642484D01*
X3221872Y-13642484D02*
X3202824Y-13632960D01*
X3202824Y-13632960D02*
X3193301Y-13623436D01*
X3193301Y-13623436D02*
X3183777Y-13604388D01*
X3183777Y-13604388D02*
X3174253Y-13566293D01*
X3174253Y-13566293D02*
X3174253Y-13518674D01*
X3174253Y-13518674D02*
X3183777Y-13480579D01*
X3183777Y-13480579D02*
X3193301Y-13461531D01*
X3193301Y-13461531D02*
X3202824Y-13452008D01*
X3202824Y-13452008D02*
X3221872Y-13442484D01*
X3374253Y-13623436D02*
X3383777Y-13632960D01*
X3383777Y-13632960D02*
X3374253Y-13642484D01*
X3374253Y-13642484D02*
X3364729Y-13632960D01*
X3364729Y-13632960D02*
X3374253Y-13623436D01*
X3374253Y-13623436D02*
X3374253Y-13642484D01*
X3555205Y-13442484D02*
X3517110Y-13442484D01*
X3517110Y-13442484D02*
X3498062Y-13452008D01*
X3498062Y-13452008D02*
X3488539Y-13461531D01*
X3488539Y-13461531D02*
X3469491Y-13490103D01*
X3469491Y-13490103D02*
X3459967Y-13528198D01*
X3459967Y-13528198D02*
X3459967Y-13604388D01*
X3459967Y-13604388D02*
X3469491Y-13623436D01*
X3469491Y-13623436D02*
X3479015Y-13632960D01*
X3479015Y-13632960D02*
X3498062Y-13642484D01*
X3498062Y-13642484D02*
X3536158Y-13642484D01*
X3536158Y-13642484D02*
X3555205Y-13632960D01*
X3555205Y-13632960D02*
X3564729Y-13623436D01*
X3564729Y-13623436D02*
X3574253Y-13604388D01*
X3574253Y-13604388D02*
X3574253Y-13556769D01*
X3574253Y-13556769D02*
X3564729Y-13537722D01*
X3564729Y-13537722D02*
X3555205Y-13528198D01*
X3555205Y-13528198D02*
X3536158Y-13518674D01*
X3536158Y-13518674D02*
X3498062Y-13518674D01*
X3498062Y-13518674D02*
X3479015Y-13528198D01*
X3479015Y-13528198D02*
X3469491Y-13537722D01*
X3469491Y-13537722D02*
X3459967Y-13556769D01*
X3755205Y-13442484D02*
X3659967Y-13442484D01*
X3659967Y-13442484D02*
X3650443Y-13537722D01*
X3650443Y-13537722D02*
X3659967Y-13528198D01*
X3659967Y-13528198D02*
X3679015Y-13518674D01*
X3679015Y-13518674D02*
X3726634Y-13518674D01*
X3726634Y-13518674D02*
X3745682Y-13528198D01*
X3745682Y-13528198D02*
X3755205Y-13537722D01*
X3755205Y-13537722D02*
X3764729Y-13556769D01*
X3764729Y-13556769D02*
X3764729Y-13604388D01*
X3764729Y-13604388D02*
X3755205Y-13623436D01*
X3755205Y-13623436D02*
X3745682Y-13632960D01*
X3745682Y-13632960D02*
X3726634Y-13642484D01*
X3726634Y-13642484D02*
X3679015Y-13642484D01*
X3679015Y-13642484D02*
X3659967Y-13632960D01*
X3659967Y-13632960D02*
X3650443Y-13623436D01*
X3888539Y-13442484D02*
X3907586Y-13442484D01*
X3907586Y-13442484D02*
X3926634Y-13452008D01*
X3926634Y-13452008D02*
X3936158Y-13461531D01*
X3936158Y-13461531D02*
X3945682Y-13480579D01*
X3945682Y-13480579D02*
X3955205Y-13518674D01*
X3955205Y-13518674D02*
X3955205Y-13566293D01*
X3955205Y-13566293D02*
X3945682Y-13604388D01*
X3945682Y-13604388D02*
X3936158Y-13623436D01*
X3936158Y-13623436D02*
X3926634Y-13632960D01*
X3926634Y-13632960D02*
X3907586Y-13642484D01*
X3907586Y-13642484D02*
X3888539Y-13642484D01*
X3888539Y-13642484D02*
X3869491Y-13632960D01*
X3869491Y-13632960D02*
X3859967Y-13623436D01*
X3859967Y-13623436D02*
X3850443Y-13604388D01*
X3850443Y-13604388D02*
X3840920Y-13566293D01*
X3840920Y-13566293D02*
X3840920Y-13518674D01*
X3840920Y-13518674D02*
X3850443Y-13480579D01*
X3850443Y-13480579D02*
X3859967Y-13461531D01*
X3859967Y-13461531D02*
X3869491Y-13452008D01*
X3869491Y-13452008D02*
X3888539Y-13442484D01*
X4040920Y-13642484D02*
X4040920Y-13509150D01*
X4040920Y-13528198D02*
X4050443Y-13518674D01*
X4050443Y-13518674D02*
X4069491Y-13509150D01*
X4069491Y-13509150D02*
X4098063Y-13509150D01*
X4098063Y-13509150D02*
X4117110Y-13518674D01*
X4117110Y-13518674D02*
X4126634Y-13537722D01*
X4126634Y-13537722D02*
X4126634Y-13642484D01*
X4126634Y-13537722D02*
X4136158Y-13518674D01*
X4136158Y-13518674D02*
X4155205Y-13509150D01*
X4155205Y-13509150D02*
X4183777Y-13509150D01*
X4183777Y-13509150D02*
X4202825Y-13518674D01*
X4202825Y-13518674D02*
X4212348Y-13537722D01*
X4212348Y-13537722D02*
X4212348Y-13642484D01*
X4307586Y-13642484D02*
X4307586Y-13509150D01*
X4307586Y-13528198D02*
X4317110Y-13518674D01*
X4317110Y-13518674D02*
X4336158Y-13509150D01*
X4336158Y-13509150D02*
X4364729Y-13509150D01*
X4364729Y-13509150D02*
X4383777Y-13518674D01*
X4383777Y-13518674D02*
X4393301Y-13537722D01*
X4393301Y-13537722D02*
X4393301Y-13642484D01*
X4393301Y-13537722D02*
X4402825Y-13518674D01*
X4402825Y-13518674D02*
X4421872Y-13509150D01*
X4421872Y-13509150D02*
X4450444Y-13509150D01*
X4450444Y-13509150D02*
X4469491Y-13518674D01*
X4469491Y-13518674D02*
X4479015Y-13537722D01*
X4479015Y-13537722D02*
X4479015Y-13642484D01*
X4869491Y-13432960D02*
X4698063Y-13690103D01*
X5126634Y-13442484D02*
X5145682Y-13442484D01*
X5145682Y-13442484D02*
X5164729Y-13452008D01*
X5164729Y-13452008D02*
X5174253Y-13461531D01*
X5174253Y-13461531D02*
X5183777Y-13480579D01*
X5183777Y-13480579D02*
X5193301Y-13518674D01*
X5193301Y-13518674D02*
X5193301Y-13566293D01*
X5193301Y-13566293D02*
X5183777Y-13604388D01*
X5183777Y-13604388D02*
X5174253Y-13623436D01*
X5174253Y-13623436D02*
X5164729Y-13632960D01*
X5164729Y-13632960D02*
X5145682Y-13642484D01*
X5145682Y-13642484D02*
X5126634Y-13642484D01*
X5126634Y-13642484D02*
X5107587Y-13632960D01*
X5107587Y-13632960D02*
X5098063Y-13623436D01*
X5098063Y-13623436D02*
X5088539Y-13604388D01*
X5088539Y-13604388D02*
X5079015Y-13566293D01*
X5079015Y-13566293D02*
X5079015Y-13518674D01*
X5079015Y-13518674D02*
X5088539Y-13480579D01*
X5088539Y-13480579D02*
X5098063Y-13461531D01*
X5098063Y-13461531D02*
X5107587Y-13452008D01*
X5107587Y-13452008D02*
X5126634Y-13442484D01*
X5279015Y-13623436D02*
X5288539Y-13632960D01*
X5288539Y-13632960D02*
X5279015Y-13642484D01*
X5279015Y-13642484D02*
X5269491Y-13632960D01*
X5269491Y-13632960D02*
X5279015Y-13623436D01*
X5279015Y-13623436D02*
X5279015Y-13642484D01*
X5412348Y-13442484D02*
X5431396Y-13442484D01*
X5431396Y-13442484D02*
X5450444Y-13452008D01*
X5450444Y-13452008D02*
X5459968Y-13461531D01*
X5459968Y-13461531D02*
X5469491Y-13480579D01*
X5469491Y-13480579D02*
X5479015Y-13518674D01*
X5479015Y-13518674D02*
X5479015Y-13566293D01*
X5479015Y-13566293D02*
X5469491Y-13604388D01*
X5469491Y-13604388D02*
X5459968Y-13623436D01*
X5459968Y-13623436D02*
X5450444Y-13632960D01*
X5450444Y-13632960D02*
X5431396Y-13642484D01*
X5431396Y-13642484D02*
X5412348Y-13642484D01*
X5412348Y-13642484D02*
X5393301Y-13632960D01*
X5393301Y-13632960D02*
X5383777Y-13623436D01*
X5383777Y-13623436D02*
X5374253Y-13604388D01*
X5374253Y-13604388D02*
X5364729Y-13566293D01*
X5364729Y-13566293D02*
X5364729Y-13518674D01*
X5364729Y-13518674D02*
X5374253Y-13480579D01*
X5374253Y-13480579D02*
X5383777Y-13461531D01*
X5383777Y-13461531D02*
X5393301Y-13452008D01*
X5393301Y-13452008D02*
X5412348Y-13442484D01*
X5555206Y-13461531D02*
X5564729Y-13452008D01*
X5564729Y-13452008D02*
X5583777Y-13442484D01*
X5583777Y-13442484D02*
X5631396Y-13442484D01*
X5631396Y-13442484D02*
X5650444Y-13452008D01*
X5650444Y-13452008D02*
X5659967Y-13461531D01*
X5659967Y-13461531D02*
X5669491Y-13480579D01*
X5669491Y-13480579D02*
X5669491Y-13499627D01*
X5669491Y-13499627D02*
X5659967Y-13528198D01*
X5659967Y-13528198D02*
X5545682Y-13642484D01*
X5545682Y-13642484D02*
X5669491Y-13642484D01*
X5850444Y-13442484D02*
X5755206Y-13442484D01*
X5755206Y-13442484D02*
X5745682Y-13537722D01*
X5745682Y-13537722D02*
X5755206Y-13528198D01*
X5755206Y-13528198D02*
X5774253Y-13518674D01*
X5774253Y-13518674D02*
X5821872Y-13518674D01*
X5821872Y-13518674D02*
X5840920Y-13528198D01*
X5840920Y-13528198D02*
X5850444Y-13537722D01*
X5850444Y-13537722D02*
X5859967Y-13556769D01*
X5859967Y-13556769D02*
X5859967Y-13604388D01*
X5859967Y-13604388D02*
X5850444Y-13623436D01*
X5850444Y-13623436D02*
X5840920Y-13632960D01*
X5840920Y-13632960D02*
X5821872Y-13642484D01*
X5821872Y-13642484D02*
X5774253Y-13642484D01*
X5774253Y-13642484D02*
X5755206Y-13632960D01*
X5755206Y-13632960D02*
X5745682Y-13623436D01*
X6031396Y-13442484D02*
X5993301Y-13442484D01*
X5993301Y-13442484D02*
X5974253Y-13452008D01*
X5974253Y-13452008D02*
X5964729Y-13461531D01*
X5964729Y-13461531D02*
X5945682Y-13490103D01*
X5945682Y-13490103D02*
X5936158Y-13528198D01*
X5936158Y-13528198D02*
X5936158Y-13604388D01*
X5936158Y-13604388D02*
X5945682Y-13623436D01*
X5945682Y-13623436D02*
X5955206Y-13632960D01*
X5955206Y-13632960D02*
X5974253Y-13642484D01*
X5974253Y-13642484D02*
X6012348Y-13642484D01*
X6012348Y-13642484D02*
X6031396Y-13632960D01*
X6031396Y-13632960D02*
X6040920Y-13623436D01*
X6040920Y-13623436D02*
X6050444Y-13604388D01*
X6050444Y-13604388D02*
X6050444Y-13556769D01*
X6050444Y-13556769D02*
X6040920Y-13537722D01*
X6040920Y-13537722D02*
X6031396Y-13528198D01*
X6031396Y-13528198D02*
X6012348Y-13518674D01*
X6012348Y-13518674D02*
X5974253Y-13518674D01*
X5974253Y-13518674D02*
X5955206Y-13528198D01*
X5955206Y-13528198D02*
X5945682Y-13537722D01*
X5945682Y-13537722D02*
X5936158Y-13556769D01*
X6126634Y-13442484D02*
X6126634Y-13480579D01*
X6202825Y-13442484D02*
X6202825Y-13480579D01*
X6498063Y-13718674D02*
X6488539Y-13709150D01*
X6488539Y-13709150D02*
X6469491Y-13680579D01*
X6469491Y-13680579D02*
X6459968Y-13661531D01*
X6459968Y-13661531D02*
X6450444Y-13632960D01*
X6450444Y-13632960D02*
X6440920Y-13585341D01*
X6440920Y-13585341D02*
X6440920Y-13547246D01*
X6440920Y-13547246D02*
X6450444Y-13499627D01*
X6450444Y-13499627D02*
X6459968Y-13471055D01*
X6459968Y-13471055D02*
X6469491Y-13452008D01*
X6469491Y-13452008D02*
X6488539Y-13423436D01*
X6488539Y-13423436D02*
X6498063Y-13413912D01*
X6564729Y-13461531D02*
X6574253Y-13452008D01*
X6574253Y-13452008D02*
X6593301Y-13442484D01*
X6593301Y-13442484D02*
X6640920Y-13442484D01*
X6640920Y-13442484D02*
X6659968Y-13452008D01*
X6659968Y-13452008D02*
X6669491Y-13461531D01*
X6669491Y-13461531D02*
X6679015Y-13480579D01*
X6679015Y-13480579D02*
X6679015Y-13499627D01*
X6679015Y-13499627D02*
X6669491Y-13528198D01*
X6669491Y-13528198D02*
X6555206Y-13642484D01*
X6555206Y-13642484D02*
X6679015Y-13642484D01*
X6917110Y-13642484D02*
X6917110Y-13442484D01*
X7002825Y-13642484D02*
X7002825Y-13537722D01*
X7002825Y-13537722D02*
X6993301Y-13518674D01*
X6993301Y-13518674D02*
X6974253Y-13509150D01*
X6974253Y-13509150D02*
X6945682Y-13509150D01*
X6945682Y-13509150D02*
X6926634Y-13518674D01*
X6926634Y-13518674D02*
X6917110Y-13528198D01*
X7126634Y-13642484D02*
X7107587Y-13632960D01*
X7107587Y-13632960D02*
X7098063Y-13623436D01*
X7098063Y-13623436D02*
X7088539Y-13604388D01*
X7088539Y-13604388D02*
X7088539Y-13547246D01*
X7088539Y-13547246D02*
X7098063Y-13528198D01*
X7098063Y-13528198D02*
X7107587Y-13518674D01*
X7107587Y-13518674D02*
X7126634Y-13509150D01*
X7126634Y-13509150D02*
X7155206Y-13509150D01*
X7155206Y-13509150D02*
X7174253Y-13518674D01*
X7174253Y-13518674D02*
X7183777Y-13528198D01*
X7183777Y-13528198D02*
X7193301Y-13547246D01*
X7193301Y-13547246D02*
X7193301Y-13604388D01*
X7193301Y-13604388D02*
X7183777Y-13623436D01*
X7183777Y-13623436D02*
X7174253Y-13632960D01*
X7174253Y-13632960D02*
X7155206Y-13642484D01*
X7155206Y-13642484D02*
X7126634Y-13642484D01*
X7307587Y-13642484D02*
X7288539Y-13632960D01*
X7288539Y-13632960D02*
X7279015Y-13613912D01*
X7279015Y-13613912D02*
X7279015Y-13442484D01*
X7459968Y-13632960D02*
X7440920Y-13642484D01*
X7440920Y-13642484D02*
X7402825Y-13642484D01*
X7402825Y-13642484D02*
X7383777Y-13632960D01*
X7383777Y-13632960D02*
X7374253Y-13613912D01*
X7374253Y-13613912D02*
X7374253Y-13537722D01*
X7374253Y-13537722D02*
X7383777Y-13518674D01*
X7383777Y-13518674D02*
X7402825Y-13509150D01*
X7402825Y-13509150D02*
X7440920Y-13509150D01*
X7440920Y-13509150D02*
X7459968Y-13518674D01*
X7459968Y-13518674D02*
X7469491Y-13537722D01*
X7469491Y-13537722D02*
X7469491Y-13556769D01*
X7469491Y-13556769D02*
X7374253Y-13575817D01*
X7545682Y-13632960D02*
X7564730Y-13642484D01*
X7564730Y-13642484D02*
X7602825Y-13642484D01*
X7602825Y-13642484D02*
X7621872Y-13632960D01*
X7621872Y-13632960D02*
X7631396Y-13613912D01*
X7631396Y-13613912D02*
X7631396Y-13604388D01*
X7631396Y-13604388D02*
X7621872Y-13585341D01*
X7621872Y-13585341D02*
X7602825Y-13575817D01*
X7602825Y-13575817D02*
X7574253Y-13575817D01*
X7574253Y-13575817D02*
X7555206Y-13566293D01*
X7555206Y-13566293D02*
X7545682Y-13547246D01*
X7545682Y-13547246D02*
X7545682Y-13537722D01*
X7545682Y-13537722D02*
X7555206Y-13518674D01*
X7555206Y-13518674D02*
X7574253Y-13509150D01*
X7574253Y-13509150D02*
X7602825Y-13509150D01*
X7602825Y-13509150D02*
X7621872Y-13518674D01*
X7698063Y-13718674D02*
X7707587Y-13709150D01*
X7707587Y-13709150D02*
X7726634Y-13680579D01*
X7726634Y-13680579D02*
X7736158Y-13661531D01*
X7736158Y-13661531D02*
X7745682Y-13632960D01*
X7745682Y-13632960D02*
X7755206Y-13585341D01*
X7755206Y-13585341D02*
X7755206Y-13547246D01*
X7755206Y-13547246D02*
X7745682Y-13499627D01*
X7745682Y-13499627D02*
X7736158Y-13471055D01*
X7736158Y-13471055D02*
X7726634Y-13452008D01*
X7726634Y-13452008D02*
X7707587Y-13423436D01*
X7707587Y-13423436D02*
X7698063Y-13413912D01*
X8059968Y-13718674D02*
X8050444Y-13709150D01*
X8050444Y-13709150D02*
X8031396Y-13680579D01*
X8031396Y-13680579D02*
X8021872Y-13661531D01*
X8021872Y-13661531D02*
X8012349Y-13632960D01*
X8012349Y-13632960D02*
X8002825Y-13585341D01*
X8002825Y-13585341D02*
X8002825Y-13547246D01*
X8002825Y-13547246D02*
X8012349Y-13499627D01*
X8012349Y-13499627D02*
X8021872Y-13471055D01*
X8021872Y-13471055D02*
X8031396Y-13452008D01*
X8031396Y-13452008D02*
X8050444Y-13423436D01*
X8050444Y-13423436D02*
X8059968Y-13413912D01*
X8136158Y-13509150D02*
X8136158Y-13642484D01*
X8136158Y-13528198D02*
X8145682Y-13518674D01*
X8145682Y-13518674D02*
X8164730Y-13509150D01*
X8164730Y-13509150D02*
X8193301Y-13509150D01*
X8193301Y-13509150D02*
X8212349Y-13518674D01*
X8212349Y-13518674D02*
X8221872Y-13537722D01*
X8221872Y-13537722D02*
X8221872Y-13642484D01*
X8345682Y-13642484D02*
X8326634Y-13632960D01*
X8326634Y-13632960D02*
X8317111Y-13623436D01*
X8317111Y-13623436D02*
X8307587Y-13604388D01*
X8307587Y-13604388D02*
X8307587Y-13547246D01*
X8307587Y-13547246D02*
X8317111Y-13528198D01*
X8317111Y-13528198D02*
X8326634Y-13518674D01*
X8326634Y-13518674D02*
X8345682Y-13509150D01*
X8345682Y-13509150D02*
X8374253Y-13509150D01*
X8374253Y-13509150D02*
X8393301Y-13518674D01*
X8393301Y-13518674D02*
X8402825Y-13528198D01*
X8402825Y-13528198D02*
X8412349Y-13547246D01*
X8412349Y-13547246D02*
X8412349Y-13604388D01*
X8412349Y-13604388D02*
X8402825Y-13623436D01*
X8402825Y-13623436D02*
X8393301Y-13632960D01*
X8393301Y-13632960D02*
X8374253Y-13642484D01*
X8374253Y-13642484D02*
X8345682Y-13642484D01*
X8469492Y-13509150D02*
X8545682Y-13509150D01*
X8498063Y-13442484D02*
X8498063Y-13613912D01*
X8498063Y-13613912D02*
X8507587Y-13632960D01*
X8507587Y-13632960D02*
X8526634Y-13642484D01*
X8526634Y-13642484D02*
X8545682Y-13642484D01*
X8764730Y-13509150D02*
X8764730Y-13709150D01*
X8764730Y-13518674D02*
X8783777Y-13509150D01*
X8783777Y-13509150D02*
X8821873Y-13509150D01*
X8821873Y-13509150D02*
X8840920Y-13518674D01*
X8840920Y-13518674D02*
X8850444Y-13528198D01*
X8850444Y-13528198D02*
X8859968Y-13547246D01*
X8859968Y-13547246D02*
X8859968Y-13604388D01*
X8859968Y-13604388D02*
X8850444Y-13623436D01*
X8850444Y-13623436D02*
X8840920Y-13632960D01*
X8840920Y-13632960D02*
X8821873Y-13642484D01*
X8821873Y-13642484D02*
X8783777Y-13642484D01*
X8783777Y-13642484D02*
X8764730Y-13632960D01*
X8974254Y-13642484D02*
X8955206Y-13632960D01*
X8955206Y-13632960D02*
X8945682Y-13613912D01*
X8945682Y-13613912D02*
X8945682Y-13442484D01*
X9136158Y-13642484D02*
X9136158Y-13537722D01*
X9136158Y-13537722D02*
X9126635Y-13518674D01*
X9126635Y-13518674D02*
X9107587Y-13509150D01*
X9107587Y-13509150D02*
X9069492Y-13509150D01*
X9069492Y-13509150D02*
X9050444Y-13518674D01*
X9136158Y-13632960D02*
X9117111Y-13642484D01*
X9117111Y-13642484D02*
X9069492Y-13642484D01*
X9069492Y-13642484D02*
X9050444Y-13632960D01*
X9050444Y-13632960D02*
X9040920Y-13613912D01*
X9040920Y-13613912D02*
X9040920Y-13594865D01*
X9040920Y-13594865D02*
X9050444Y-13575817D01*
X9050444Y-13575817D02*
X9069492Y-13566293D01*
X9069492Y-13566293D02*
X9117111Y-13566293D01*
X9117111Y-13566293D02*
X9136158Y-13556769D01*
X9202825Y-13509150D02*
X9279015Y-13509150D01*
X9231396Y-13442484D02*
X9231396Y-13613912D01*
X9231396Y-13613912D02*
X9240920Y-13632960D01*
X9240920Y-13632960D02*
X9259968Y-13642484D01*
X9259968Y-13642484D02*
X9279015Y-13642484D01*
X9421873Y-13632960D02*
X9402825Y-13642484D01*
X9402825Y-13642484D02*
X9364730Y-13642484D01*
X9364730Y-13642484D02*
X9345682Y-13632960D01*
X9345682Y-13632960D02*
X9336158Y-13613912D01*
X9336158Y-13613912D02*
X9336158Y-13537722D01*
X9336158Y-13537722D02*
X9345682Y-13518674D01*
X9345682Y-13518674D02*
X9364730Y-13509150D01*
X9364730Y-13509150D02*
X9402825Y-13509150D01*
X9402825Y-13509150D02*
X9421873Y-13518674D01*
X9421873Y-13518674D02*
X9431396Y-13537722D01*
X9431396Y-13537722D02*
X9431396Y-13556769D01*
X9431396Y-13556769D02*
X9336158Y-13575817D01*
X9602825Y-13642484D02*
X9602825Y-13442484D01*
X9602825Y-13632960D02*
X9583777Y-13642484D01*
X9583777Y-13642484D02*
X9545682Y-13642484D01*
X9545682Y-13642484D02*
X9526635Y-13632960D01*
X9526635Y-13632960D02*
X9517111Y-13623436D01*
X9517111Y-13623436D02*
X9507587Y-13604388D01*
X9507587Y-13604388D02*
X9507587Y-13547246D01*
X9507587Y-13547246D02*
X9517111Y-13528198D01*
X9517111Y-13528198D02*
X9526635Y-13518674D01*
X9526635Y-13518674D02*
X9545682Y-13509150D01*
X9545682Y-13509150D02*
X9583777Y-13509150D01*
X9583777Y-13509150D02*
X9602825Y-13518674D01*
X9679016Y-13718674D02*
X9688539Y-13709150D01*
X9688539Y-13709150D02*
X9707587Y-13680579D01*
X9707587Y-13680579D02*
X9717111Y-13661531D01*
X9717111Y-13661531D02*
X9726635Y-13632960D01*
X9726635Y-13632960D02*
X9736158Y-13585341D01*
X9736158Y-13585341D02*
X9736158Y-13547246D01*
X9736158Y-13547246D02*
X9726635Y-13499627D01*
X9726635Y-13499627D02*
X9717111Y-13471055D01*
X9717111Y-13471055D02*
X9707587Y-13452008D01*
X9707587Y-13452008D02*
X9688539Y-13423436D01*
X9688539Y-13423436D02*
X9679016Y-13413912D01*
M02*
